<svg id="Layer_3" data-name="Layer 3" xmlns="http://www.w3.org/2000/svg" viewBox="0 0 449.7 464.57"><g id="_4" data-name="4"><path d="M481.49,222.47a320.11,320.11,0,0,0,52.17-90.1q5-13.09,8.67-26.62l-26-7.18c-7.84,49.13-10.2,98.82-10.86,148.51-.65,48.56.12,97.16-1.88,145.7-1.13,27.09-3.14,54.17-6.75,81.05l.48-3.59a572.89,572.89,0,0,1-12.74,66.11l24.67-3.22c-.21-.47-.41-.94-.61-1.41l1.36,3.22a87.69,87.69,0,0,1-5.83-22.07l.48,3.59c-2.26-17.54-.29-35.24,2.05-52.66l-.48,3.58a938.95,938.95,0,0,1,45.58-188.29q9.13-25.74,19.75-50.93l-1.36,3.23c12-28.45,26.92-56.16,34.88-86.13A174.8,174.8,0,0,0,610,117.63c.29-2.87-1.23-6-2.9-8.18a12.89,12.89,0,0,0-7-4.84,16.11,16.11,0,0,0-7.18,0c-2.9.66-6.81,3.43-8.07,6.21a259.18,259.18,0,0,0-18.85,59.48,377.62,377.62,0,0,0-6.05,62.33c-.76,41.06,3.62,82,6.83,122.87,1.81,23,3.28,46.11,3.32,69.22A13.49,13.49,0,0,0,581.74,438a12.9,12.9,0,0,0,8.61-1.6,15.6,15.6,0,0,0,6.2-8.07q12.36-31.14,24.73-62.29,6.26-15.76,12.52-31.55c1.81-4.56,3.84-9.09,5.37-13.75a55.74,55.74,0,0,0,2.43-13.11c.9-12.2-5.06-24.55-17.5-28A13.79,13.79,0,0,0,613.7,281c-3.14,2-4.81,4.62-6.2,8.06a128.6,128.6,0,0,0-9,43.13,127.26,127.26,0,0,0,1.18,22.07A104.14,104.14,0,0,0,604,374.5c4.23,12.26,11.7,25.32,23.79,31.3a35.83,35.83,0,0,0,24.1,3c7.19-1.59,13.7-5.94,19-10.89,9.62-9,16.29-21.28,22.57-32.68a365,365,0,0,0,18.23-38.64,344.66,344.66,0,0,0,21.32-76.93,353.6,353.6,0,0,0,3.49-83q-.39-4.89-.93-9.77c-.39-3.52-1.2-7-4-9.54a13.9,13.9,0,0,0-7.76-3.72,12.88,12.88,0,0,0-8.6,1.61c-3.14,2-4.82,4.62-6.21,8.06A347.61,347.61,0,0,0,686,249.79a352.85,352.85,0,0,0,4.72,99.07q2.22,11.82,5.3,23.46a210,210,0,0,0,7,22.78c1.8,4.64,3.87,9.3,7.61,12.76A21.24,21.24,0,0,0,728,413.72c10.91-1.47,17.09-10.16,21-19.67,1.43-3.5,2.37-7.21,3.46-10.83q2-6.47,3.88-13Q760,357.67,763.6,345c4.71-16.86,9.07-33.84,12.66-51,7.3-34.86,11.73-70.74,9.3-106.39q-.45-6.5-1.2-13c-.4-3.53-1.19-7-4-9.55a13.83,13.83,0,0,0-7.75-3.71c-6.39-.86-13.25,3.1-14.81,9.67A365,365,0,0,0,748,255.23,372.17,372.17,0,0,0,757.62,339a349.54,349.54,0,0,0,11.58,39.33c2.62,7.29,5.53,14.47,8.57,21.59,2.93,6.88,5.6,14,11.7,18.71A19.63,19.63,0,0,0,806.9,422c4.91-1.44,9-4.57,12.59-8.12a151.48,151.48,0,0,0,13.38-15.46A140.92,140.92,0,0,0,851,367.37c10.13-23.88,15-50.17,12-76.08-.46-3.91-1-7.81-1.68-11.67-.8-4.51-5.22-8.27-9.43-9.43a13.63,13.63,0,0,0-13.14,3.47c-13.2,13-19.46,31-20.52,49.25-1.12,19.22,4.67,37.8,12.28,55.19,4.2,9.62,9.17,18.88,14.14,28.13,4,7.47,15.42,9,21.2,2.73a160.5,160.5,0,0,0,38.91-73.46A150.7,150.7,0,0,0,908,313.35c.65-9.24-1.39-18.51-7.57-25.61-5.92-6.81-16.57-10.38-25.25-7.4A23.84,23.84,0,0,0,862.33,291c-2.11,3.59-3.43,7.75-4.8,11.68a267.16,267.16,0,0,0-12.11,49.54c-.55,3.74-.63,7,1.36,10.4a13.72,13.72,0,0,0,8.07,6.21c3.45.79,7.33.62,10.4-1.36,2.74-1.77,5.71-4.69,6.2-8.07a268.5,268.5,0,0,1,5.73-28.49,201.66,201.66,0,0,1,8.62-27.09l-1.36,3.22a20.4,20.4,0,0,1,2.32-4.06l-2.11,2.73a12.88,12.88,0,0,1,1.87-1.82L883.79,306a12.64,12.64,0,0,1,1.56-.9l-3.22,1.36a11.11,11.11,0,0,1,2.14-.59l-3.59.48a12.79,12.79,0,0,1,2.23,0l-3.59-.48a13.13,13.13,0,0,1,3.31.92l-3.23-1.37a16.61,16.61,0,0,1,2.54,1.5l-2.73-2.12a16.1,16.1,0,0,1,2.53,2.49l-2.11-2.73a16.79,16.79,0,0,1,1.9,3.42l-1.36-3.23a23.32,23.32,0,0,1,1.22,4.87l-.48-3.59a55.64,55.64,0,0,1-.58,13.82l.48-3.59a148.22,148.22,0,0,1-10,36.75l1.36-3.22A149.29,149.29,0,0,1,853,382.71l2.11-2.73q-4,5.11-8.39,9.89l21.2,2.73c-5.41-10.06-10.79-20.15-15.24-30.69l1.36,3.23a121.9,121.9,0,0,1-8.76-30.49l.48,3.59a82.54,82.54,0,0,1,0-21.3l-.48,3.59A68.4,68.4,0,0,1,849.68,304l-1.36,3.23a56,56,0,0,1,7.18-12.34l-2.11,2.73a53.32,53.32,0,0,1,4.38-4.88l-22.57-6c.36,2,.68,4,.95,6.06l-.48-3.59a137.42,137.42,0,0,1-.08,35.27l.48-3.59a143.86,143.86,0,0,1-9.78,36l1.36-3.22a140.18,140.18,0,0,1-18.1,31.07l2.11-2.74c-4.16,5.34-8.67,10.81-13.9,15.14l2.73-2.11a16.61,16.61,0,0,1-3,1.89l3.22-1.36a11.19,11.19,0,0,1-2,.58l3.59-.48a8.27,8.27,0,0,1-2.05,0l3.59.49a6.36,6.36,0,0,1-1.13-.33l3.23,1.36a10,10,0,0,1-1.5-.84l2.73,2.11a12.52,12.52,0,0,1-2.06-2.12l2.11,2.73c-3-4.23-4.77-9.48-6.77-14.22l1.36,3.23a353.44,353.44,0,0,1-24.22-89.39l.48,3.59a356.77,356.77,0,0,1,0-94.16l-.48,3.59q2.29-16.87,6.23-33.46l-26.52-3.59c3.06,26.65,2.09,53.56-1.43,80.12l.48-3.59c-4.94,36.63-14.51,72.42-24.95,107.81q-2.16,7.31-4.35,14.59a141.8,141.8,0,0,1-4.31,13.53l1.36-3.22a28,28,0,0,1-3.2,5.63l2.11-2.74a16.34,16.34,0,0,1-2.29,2.34l2.74-2.12a11.24,11.24,0,0,1-2.19,1.29l3.22-1.36a9.16,9.16,0,0,1-1.94.47l3.59-.48a10.28,10.28,0,0,1-1.57,0l3.59.48a9.94,9.94,0,0,1-2.17-.59l3.22,1.36a11.51,11.51,0,0,1-1.44-.84l2.73,2.11a12.48,12.48,0,0,1-2-2l2.11,2.74a22.36,22.36,0,0,1-2.65-4.69l1.36,3.22c-4.11-10.06-6.78-21-9.29-31.53a336.41,336.41,0,0,1-6.15-33.19l.48,3.59a343.79,343.79,0,0,1,.08-90.58l-.49,3.59a335.55,335.55,0,0,1,21.13-80.11L708.61,157A340.34,340.34,0,0,1,707.56,239l.48-3.59a347.47,347.47,0,0,1-23.93,87.87l1.36-3.22q-6.26,14.76-13.84,28.92c-4.8,8.91-9.78,18-16,26l2.11-2.73a52.52,52.52,0,0,1-8.59,8.85L651.9,379a31.43,31.43,0,0,1-6.34,3.82l3.22-1.36a24.22,24.22,0,0,1-5.85,1.63l3.59-.48a23.1,23.1,0,0,1-5.45,0l3.58.48a22.23,22.23,0,0,1-5.41-1.52l3.22,1.36a26.18,26.18,0,0,1-5.28-3.18l2.73,2.11a35.52,35.52,0,0,1-5.69-5.87l2.11,2.74a52,52,0,0,1-6.08-10.63l1.37,3.23a88.64,88.64,0,0,1-5.68-22.45l.48,3.59a120.53,120.53,0,0,1,0-31.18l-.48,3.59a118.73,118.73,0,0,1,7.59-28.64l-16.6,9.43a13.88,13.88,0,0,1,1.38.45l-3.23-1.36a11,11,0,0,1,2,1.09l-2.73-2.11a10.51,10.51,0,0,1,1.82,1.83L614,302.86a12.25,12.25,0,0,1,1.29,2.29L614,301.92a18.23,18.23,0,0,1,1,4.11l-.48-3.59a29.8,29.8,0,0,1-.14,7.31l.48-3.58c-.9,6.29-3.47,12-5.8,17.89l-9.31,23.46-18.63,46.92-10.59,26.7L597,424.72c0-31-2.67-61.85-5.24-92.7s-5.14-61.6-5-92.5a395.36,395.36,0,0,1,3.27-50.77l-.49,3.59A258.68,258.68,0,0,1,607,126.85l-1.37,3.22c.81-1.88,1.63-3.76,2.48-5.62L583,117.63c-.16,1.58-.34,3.15-.54,4.72l.48-3.58c-2.53,18.63-8.78,36.42-16,53.68l1.36-3.22c-10.09,23.88-21.21,47.26-30.75,71.38q-14,35.26-25,71.57a940.1,940.1,0,0,0-32.2,147.22c-1.95,14.34-3.88,28.76-3.62,43.27a134.66,134.66,0,0,0,2.31,22.66,97.09,97.09,0,0,0,7,21.43,12.78,12.78,0,0,0,4.84,4.84,13.72,13.72,0,0,0,19.83-8.07,615.47,615.47,0,0,0,15-83.94c3.11-27.25,4.69-54.66,5.52-82.07.84-27.72.91-55.45,1-83.18s.22-55.26,1.12-82.87,2.61-55.28,5.89-82.76q.61-5.12,1.3-10.23l-.49,3.59q1.11-8.17,2.41-16.32c.59-3.7.6-7-1.37-10.4a13.78,13.78,0,0,0-8.06-6.21c-7.14-1.62-14.61,2.15-16.61,9.43a302.93,302.93,0,0,1-12.88,37.17l1.36-3.23A302.66,302.66,0,0,1,466,199l2.11-2.73q-2.78,3.58-5.66,7.1c-2.34,2.85-3.95,5.73-3.95,9.55a13.74,13.74,0,0,0,3.95,9.54c5,4.55,14.31,5.83,19.09,0Z" transform="translate(-458.45 -88.77)"/></g></svg>