<svg id="Layer_1" data-name="Layer 1" xmlns="http://www.w3.org/2000/svg" viewBox="0 0 1235.35 532.7"><rect x="249" y="127.32" width="50.05" height="405.38" rx="10"/><rect x="482.72" y="142.34" width="50.05" height="390.37" rx="10"/><path d="M240.08,364v79.87a5,5,0,0,0,9.34,2.51l144.1-249.58a5,5,0,0,0-4.34-7.51H343.06a5,5,0,0,0-4.33,2.51l-98,169.7A5,5,0,0,0,240.08,364Z" transform="translate(-42.63 -157.01)"/><rect x="394.34" y="462.38" width="50.05" height="150.01" rx="10" transform="translate(282.25 -294.7) rotate(30)"/><rect x="656.88" y="461.14" width="50.05" height="147.9" rx="10" transform="translate(1497.37 500.52) rotate(150)"/><path d="M617.56,393.55l34.62,20a5,5,0,0,0,6.88-1.91l77.38-139.88a5,5,0,0,0-4.38-7.43H688.41a5,5,0,0,0-4.35,2.53l-68.35,119.9A5,5,0,0,0,617.56,393.55Z" transform="translate(-42.63 -157.01)"/><path d="M364.53,365.11l34.67,20A5,5,0,0,0,406,383.3l107.6-186.55a5,5,0,0,0-4.34-7.51H463.18a5,5,0,0,0-4.34,2.51L362.69,358.28A5,5,0,0,0,364.53,365.11Z" transform="translate(-42.63 -157.01)"/><rect x="382.63" y="107.3" width="260.25" height="50.05" rx="10"/><path d="M449.89,639.63l120.48-.44a5,5,0,0,1,5,5v40a5,5,0,0,1-5,5h-92.5a5,5,0,0,1-4.09-2.12l-28-39.57A5,5,0,0,1,449.89,639.63Z" transform="translate(-42.63 -157.01)"/><path d="M782.45,647.89,797.26,685a5,5,0,0,0,6.62,2.74l105.75-45.41a5,5,0,0,0,1.91-7.75q-12.22-15-24.44-30.08a5,5,0,0,0-5.74-1.49l-96.12,38.43A5,5,0,0,0,782.45,647.89Z" transform="translate(-42.63 -157.01)"/><path d="M1128.09,364.92q11.84,27.45,23.68,54.89a5,5,0,0,0,9,.32l116.44-223.57a5,5,0,0,0-4.44-7.32h-42.74a5,5,0,0,0-4.33,2.51l-97.39,168.69A5,5,0,0,0,1128.09,364.92Z" transform="translate(-42.63 -157.01)"/><path d="M1008.06,646.75l20-34.6a5,5,0,0,0-1.5-6.63L824.93,467.45a5,5,0,0,0-7.07,1.48l-19.74,31.58a5,5,0,0,0,1.37,6.76l201.36,141.07A5,5,0,0,0,1008.06,646.75Z" transform="translate(-42.63 -157.01)"/><path d="M785.2,521.51Q802,539.45,818.87,557.4a5,5,0,0,0,8.57-2.51Q861,375,894.6,195.11a5,5,0,0,0-4.87-5.92l-42.43-.37a5,5,0,0,0-5,4.11L783.92,517.2A5,5,0,0,0,785.2,521.51Z" transform="translate(-42.63 -157.01)"/><path d="M869.71,621.27l40.49,16.19a5,5,0,0,0,6.75-3.6q31.27-146.72,62.54-293.43a5,5,0,0,0-4.9-6.05H939.66a5,5,0,0,0-4.86,3.81q-34,138.62-68.09,277.24A5,5,0,0,0,869.71,621.27Z" transform="translate(-42.63 -157.01)"/><path d="M785.59,334.38H974.67a5,5,0,0,1,4.91,6l-8,40a5,5,0,0,1-4.9,4H785.59a5,5,0,0,1-5-5v-40A5,5,0,0,1,785.59,334.38Z" transform="translate(-42.63 -157.01)"/><path d="M1023.42,384.43h246.4a5,5,0,0,1,3.72,8.35l-36,40a5,5,0,0,1-3.72,1.66H995.39a5,5,0,0,1-4.1-7.88l28-40A5,5,0,0,1,1023.42,384.43Z" transform="translate(-42.63 -157.01)"/><path d="M1025.82,189.24H1273a5,5,0,0,1,4.48,7.25l-20,40a5,5,0,0,1-4.48,2.77H1025.82a5,5,0,0,1-5-5v-40A5,5,0,0,1,1025.82,189.24Z" transform="translate(-42.63 -157.01)"/><path d="M1130.92,689.72h40a5,5,0,0,0,5-5V344.39a5,5,0,0,0-5-5H1109.4a5,5,0,0,0-4.38,7.43l20.26,36.47a5,5,0,0,1,.63,2.43v299A5,5,0,0,0,1130.92,689.72Z" transform="translate(-42.63 -157.01)"/><path d="M1042.09,640.13l128.85-.44a5,5,0,0,1,5,5v40a5,5,0,0,1-5,5h-92.88a5,5,0,0,1-3.7-1.64l-36-39.58A5,5,0,0,1,1042.09,640.13Z" transform="translate(-42.63 -157.01)"/><path d="M131.86,338.61,44.49,216.28a10,10,0,0,1,.45-12.21l36.22-43.46a10,10,0,0,1,16.16,1.1l35,55.92a10,10,0,0,0,16.48.7l42.77-57a10,10,0,0,1,16.32.45l28.33,42.5a10,10,0,0,1-.18,11.36l-87.85,123A10,10,0,0,1,131.86,338.61Z" transform="translate(-42.63 -157.01)"/></svg>