<svg xmlns="http://www.w3.org/2000/svg" viewBox="0 0 595.28 841.89"><defs><style>.cls-1{fill:#fff;}</style></defs><g id="Layer_2" data-name="Layer 2"><g id="Layer_8" data-name="Layer 8"><rect width="595.28" height="841.89"/><polygon class="cls-1" points="443.62 27.03 443.62 39.7 303.65 39.7 303.65 134.69 290.99 134.69 290.99 39.7 151.65 39.7 151.65 27.03 443.62 27.03"/><polygon class="cls-1" points="208.65 38.7 208.65 133.69 195.99 133.69 164.32 69.09 164.32 133.69 151.65 133.69 151.65 38.7 164.32 38.7 195.99 103.93 195.99 38.7 208.65 38.7"/><path class="cls-1" d="M277.82,74c0-.54,0-1.08,0-1.63,0-17.48-12.76-31.67-28.5-31.67s-28.5,14.19-28.5,31.67c0,.55,0,1.09,0,1.63V102.4c0,.54,0,1.08,0,1.63,0,17.48,12.77,31.66,28.5,31.66s28.5-14.18,28.5-31.66c0-.55,0-1.09,0-1.63Zm-28.47,49c-8.74,0-15.83-8.51-15.83-19V72.36c0-10.49,7.09-19,15.83-19s15.84,8.51,15.84,19V104C265.19,114.52,258.1,123,249.35,123Z"/><polygon class="cls-1" points="386.62 38.7 386.62 133.69 399.29 133.69 430.95 69.09 430.95 133.69 443.62 133.69 443.62 38.7 430.95 38.7 399.29 103.93 399.29 38.7 386.62 38.7"/><path class="cls-1" d="M317.46,74c0-.54,0-1.08,0-1.63,0-17.48,12.76-31.67,28.5-31.67s28.5,14.19,28.5,31.67c0,.55,0,1.09,0,1.63V102.4c0,.54,0,1.08,0,1.63,0,17.48-12.76,31.66-28.5,31.66s-28.5-14.18-28.5-31.66c0-.55,0-1.09,0-1.63Zm28.46,49c8.75,0,15.83-8.51,15.83-19V72.36c0-10.49-7.08-19-15.83-19s-15.83,8.51-15.83,19V104C330.09,114.52,337.17,123,345.92,123Z"/><path class="cls-1" d="M182.11,205.48a11.75,11.75,0,0,0-9.47-18.71H157.53v50.36h16.79a16.78,16.78,0,0,0,7.79-31.65Zm-17.86-12h8.39a5,5,0,1,1,0,10.07h-8.39Zm10.07,36.93H164.25V210.28h8.39a13.28,13.28,0,0,0,1.68-.12v.12a10.07,10.07,0,0,1,0,20.14Z"/><path class="cls-1" d="M220,220h6.71a16.79,16.79,0,0,1-33.57,0V203.24a16.79,16.79,0,1,1,33.57,0H220a10.07,10.07,0,1,0-20.14,0V220A10.07,10.07,0,1,0,220,220Z"/><path class="cls-1" d="M137.39,186.77a16.79,16.79,0,0,0-16.79,16.79v33.57h6.72V220.35h20.14v16.78h6.72V203.56A16.79,16.79,0,0,0,137.39,186.77Zm10.07,26.86H127.32V203.56a10.07,10.07,0,0,1,20.14,0Z"/><polygon class="cls-1" points="267.71 193.49 267.71 206.92 291.21 206.92 291.21 213.63 267.71 213.63 267.71 230.42 291.21 230.42 291.21 237.13 261 237.13 261 186.78 291.21 186.78 291.21 193.49 267.71 193.49"/><polygon class="cls-1" points="301.95 193.49 301.95 210.28 322.09 210.28 322.09 216.99 301.95 216.99 301.95 237.13 295.23 237.13 295.23 186.78 328.8 186.78 328.8 193.49 301.95 193.49"/><path class="cls-1" d="M362.38,210V220a16.79,16.79,0,0,1-33.58,0V203.24a16.79,16.79,0,0,1,30.95-9l-6.43,2.57a10.07,10.07,0,0,0-17.8,6.45V220a10.07,10.07,0,0,0,20.14,0v-3.36H345.59V210Z"/><polygon class="cls-1" points="395.49 186.45 395.49 236.81 388.77 236.81 388.77 216.67 371.99 216.67 371.99 236.81 365.27 236.81 365.27 186.45 371.99 186.45 371.99 209.95 388.77 209.95 388.77 186.45 395.49 186.45"/><path class="cls-1" d="M258.68,199.88c-1.3-7.06-6.58-12.52-13.13-13.32a13.29,13.29,0,0,0-1.68-.11H228.76v50.36h15.11a13.3,13.3,0,0,0,1.68-.1C253.1,235.78,259,228.66,259,220V203.24A19.53,19.53,0,0,0,258.68,199.88ZM252.26,220c0,5.56-3.75,10.07-8.39,10.07h-8.39V193.17h8.39c4.64,0,8.39,4.51,8.39,10.07Z"/><rect class="cls-1" x="398.38" y="186.45" width="6.71" height="50.36"/><path class="cls-1" d="M438.21,186.45V220c0,9.26-6.77,16.78-15.11,16.78a14.8,14.8,0,0,1-12.69-7.68l6.33-2.53a7.89,7.89,0,0,0,6.36,3.5c4.63,0,8.39-4.51,8.39-10.07V193.17H411L408,186.45Z"/><polygon class="cls-1" points="452.57 213.46 474.67 236.81 464.6 236.81 447.81 219.27 447.81 236.81 441.1 236.81 441.1 186.45 447.81 186.45 447.81 208.44 465.69 186.45 474.67 186.45 452.57 213.46"/><polygon class="cls-1" points="474.67 245.8 474.67 252.51 461.24 252.51 461.24 296.15 454.53 296.15 454.53 252.51 441.1 252.51 441.1 245.8 474.67 245.8"/><polygon class="cls-1" points="234.34 245.8 234.34 296.15 226.86 296.15 208.16 261.91 208.16 296.15 200.68 296.15 200.68 245.8 208.16 245.8 226.86 280.38 226.86 245.8 234.34 245.8"/><path class="cls-1" d="M297.64,245.8h-18.7v50.36h7.48V279.37h11.22c10.32,0,18.7-7.52,18.7-16.79S308,245.8,297.64,245.8Zm0,26.85H286.42V252.51h11.22c6.2,0,11.22,4.51,11.22,10.07S303.84,272.65,297.64,272.65Z"/><path class="cls-1" d="M274.38,263.45q0-.43,0-.87a16.83,16.83,0,0,0-33.66,0c0,.29,0,.58,0,.87v15.06c0,.28,0,.57,0,.86a16.83,16.83,0,0,0,33.66,0c0-.29,0-.58,0-.86Zm-16.8,26c-5.17,0-9.35-4.51-9.35-10.07V262.58c0-5.56,4.18-10.07,9.35-10.07s9.35,4.51,9.35,10.07v16.79C266.93,284.93,262.74,289.44,257.58,289.44Z"/><polygon class="cls-1" points="150.82 289.44 150.82 296.15 120.6 296.15 120.6 245.8 127.32 245.8 127.32 289.44 150.82 289.44"/><polygon class="cls-1" points="197.27 245.8 197.27 296.15 190.56 296.15 190.56 262.58 177.13 296.15 173.77 296.15 160.34 262.58 160.34 296.15 153.63 296.15 153.63 245.8 160.34 245.8 175.45 281.05 190.56 245.8 197.27 245.8"/><path class="cls-1" d="M354.51,278.51V263.45c0-.29,0-.58,0-.87a16.83,16.83,0,0,0-33.66,0c0,.29,0,.58,0,.87v15.06c0,.28,0,.57,0,.86a16.83,16.83,0,0,0,26.92,13.43l1.83,3.36h4.91v-4.45c-.74-1.34-1.47-2.68-2.21-4a16.69,16.69,0,0,0,2.21-8.33C354.53,279.08,354.52,278.79,354.51,278.51ZM337.7,289.44c-5.17,0-9.35-4.51-9.35-10.07V262.58c0-5.56,4.18-10.07,9.35-10.07s9.35,4.51,9.35,10.07v16.79C347.05,284.93,342.86,289.44,337.7,289.44Z"/><path class="cls-1" d="M389,276a16.25,16.25,0,0,0,7.48-13.43c0-9.27-8.37-16.78-18.7-16.78h-18.7v50.36h7.48V279.37h11.22c6.2,0,11.22,4.51,11.22,10.07v6.72h7.48v-6.72A16.26,16.26,0,0,0,389,276Zm-22.44,0h0Zm11.22-3.37H366.54V252.51h11.22c6.2,0,11.22,4.51,11.22,10.07S384,272.65,377.76,272.65Z"/><path class="cls-1" d="M407.75,259.23c0,3.71,4.51,6.71,10.07,6.71a17.86,17.86,0,0,1,10.82,3.56,14.51,14.51,0,0,1,6,11.55c0,8.34-7.52,15.11-16.79,15.11H401v-6.72h16.78c5.57,0,10.08-3.76,10.08-8.39s-4.51-8.4-10.08-8.4A19.36,19.36,0,0,1,407,269.5c-3.65-2.47-6-6.15-6-10.27,0-7.42,7.51-13.43,16.78-13.43h16.79v6.71H417.82C412.26,252.51,407.75,255.52,407.75,259.23Z"/><polygon class="cls-1" points="256.61 305.14 263.33 305.14 267.8 338.71 275.08 311.44 276.75 305.14 280.11 305.14 281.79 311.44 289.07 338.71 293.54 305.14 300.26 305.14 293.54 355.5 286.83 355.5 278.43 324.03 270.04 355.5 263.33 355.5 256.61 305.14"/><path class="cls-1" d="M216.74,305.14v33.57c0,9.27-6.77,16.79-15.11,16.79s-15.11-7.52-15.11-16.79V305.14h6.72v33.57c0,5.57,3.76,10.08,8.39,10.08s8.39-4.51,8.39-10.08V305.14Z"/><polygon class="cls-1" points="251.78 305.14 240.03 355.5 233.32 355.5 221.57 305.14 228.28 305.14 236.68 341.11 245.07 305.14 251.78 305.14"/><polygon class="cls-1" points="323.55 330.32 335.3 355.5 328.58 355.5 320.19 337.51 311.8 355.5 305.08 355.5 316.83 330.32 305.08 305.14 311.8 305.14 320.19 323.13 328.58 305.14 335.3 305.14 323.55 330.32"/><polygon class="cls-1" points="370.34 305.14 358.59 330.32 358.59 355.5 351.88 355.5 351.88 330.32 340.13 305.14 346.84 305.14 355.24 323.13 363.63 305.14 370.34 305.14"/><path class="cls-1" d="M408.75,311.86l-25.34,36.93h25.34v6.71H395.32v0c-.28,0-.55,0-.84,0h-19.3v-6.71l25.48-36.93H375.18v-6.72h33.57Z"/><path class="cls-1" d="M141.82,440.36a16.43,16.43,0,1,0,9.86,29.57v3.29h6.57V456.79A16.44,16.44,0,0,0,141.82,440.36Zm0,26.29a9.86,9.86,0,1,1,9.86-9.86A9.85,9.85,0,0,1,141.82,466.65Z"/><path class="cls-1" d="M177.92,440.36a16.39,16.39,0,0,0-9.86,3.29V423.93h-6.57v32.86a16.43,16.43,0,1,0,16.43-16.43Zm0,26.29a9.86,9.86,0,1,1,9.86-9.86A9.85,9.85,0,0,1,177.92,466.65Z"/><path class="cls-1" d="M246.64,440.36a16.39,16.39,0,0,1,9.86,3.29V423.93h6.57v32.86a16.43,16.43,0,1,1-16.43-16.43Zm0,26.29a9.86,9.86,0,1,0-9.86-9.86A9.86,9.86,0,0,0,246.64,466.65Z"/><path class="cls-1" d="M220.75,463.68l5.53,3.68a16.43,16.43,0,1,1,0-21.14l-5.53,3.69a9.86,9.86,0,1,0,0,13.77Z"/><path class="cls-1" d="M396.49,510.88H376.77V524a9.86,9.86,0,0,0,17.92,5.68l5.92,3A16.43,16.43,0,0,1,370.2,524V491.16h6.57v13.15h26.29"/><path class="cls-1" d="M299.31,453.51A16.44,16.44,0,1,0,295.19,468l-6.74-2.89a9.86,9.86,0,0,1-14.54-5.06h25.73v-3.29A16.15,16.15,0,0,0,299.31,453.51Zm-25.4,0a9.86,9.86,0,0,1,18.59,0Z"/><path class="cls-1" d="M327.31,456.79h-16v16.43h-6.57V440.36a16.43,16.43,0,0,1,28.61-11l-6.26,3.14a9.87,9.87,0,0,0-15.78,7.88v9.86h12.49"/><path class="cls-1" d="M220.18,507.59C212,507.59,205.4,515,205.4,524s6.62,16.43,14.78,16.43S235,533.1,235,524,228.35,507.59,220.18,507.59Zm0,26.29c-4.54,0-8.21-4.41-8.21-9.86s3.67-9.85,8.21-9.85,8.22,4.41,8.22,9.85S224.72,533.88,220.18,533.88Z"/><path class="cls-1" d="M333,512.15l-4.65,4.65a7.44,7.44,0,0,0-5.58-2.63c-4.54,0-8.21,4.41-8.21,9.85v16.43H308V524a17,17,0,0,1,6.58-13.66,13.67,13.67,0,0,1,8.21-2.77A14,14,0,0,1,333,512.15Z"/><rect class="cls-1" x="463.7" y="423.93" width="6.57" height="49.29"/><rect class="cls-1" x="398.08" y="446.91" width="6.57" height="26.29"/><rect class="cls-1" x="398.08" y="437.06" width="6.57" height="6.57"/><path class="cls-1" d="M427.92,446.91V473.2c0,9.07-6.62,16.43-14.79,16.43-6.17,0-11.46-4.2-13.67-10.17l6.34-1.82c1.35,3.22,4.13,5.42,7.33,5.42,4.54,0,8.22-4.41,8.22-9.86V446.91Z"/><rect class="cls-1" x="421.35" y="437.06" width="6.57" height="6.57"/><polygon class="cls-1" points="460.8 473.22 452.55 473.22 439.44 460.08 439.44 473.22 432.87 473.22 432.87 423.93 439.44 423.93 439.44 451.21 448.89 440.36 457.35 440.36 443.61 455.5 460.8 473.22"/><path class="cls-1" d="M167.72,519.92v20.53h-6.57V519.92a5.75,5.75,0,0,0-11.5,0v20.53h-6.57V519.92a5.75,5.75,0,0,0-11.5,0v20.53H125V519.92a12.32,12.32,0,0,1,21.36-8.38,12.32,12.32,0,0,1,21.36,8.38Z"/><path class="cls-1" d="M201.44,524v16.43h-6.58V524c0-5.44-3.67-9.85-8.21-9.85s-8.22,4.41-8.22,9.85v16.43h-6.57V524c0-9.07,6.62-16.43,14.79-16.43S201.44,515,201.44,524Z"/><path class="cls-1" d="M288.66,507.59a13.67,13.67,0,0,1,8.21,2.77v-2.77h6.57v49.29h-6.57V537.69a13.66,13.66,0,0,1-8.21,2.76c-8.17,0-14.79-7.35-14.79-16.43S280.49,507.59,288.66,507.59Zm0,26.29c4.53,0,8.21-4.41,8.21-9.86s-3.68-9.85-8.21-9.85-8.22,4.41-8.22,9.85S284.12,533.88,288.66,533.88Z"/><path class="cls-1" d="M254.71,507.59a13.7,13.7,0,0,0-8.22,2.77A17,17,0,0,0,239.92,524v32.86h6.57V537.69a13.69,13.69,0,0,0,8.22,2.76c8.16,0,14.78-7.35,14.78-16.43S262.87,507.59,254.71,507.59Zm0,26.29c-4.54,0-8.22-4.41-8.22-9.86s3.68-9.85,8.22-9.85,8.21,4.41,8.21,9.85S259.24,533.88,254.71,533.88Z"/><path class="cls-1" d="M366,530.6a9.85,9.85,0,0,1-6.58,9.29,9.66,9.66,0,0,1-3.28.56h-9.86a9.82,9.82,0,0,1-9.29-6.57.5.5,0,0,1-.05-.13l6.44-1.61a3.17,3.17,0,0,0,.58.78,3.27,3.27,0,0,0,2.32,1h9.86a3.29,3.29,0,0,0,0-6.57l-.57,0v0h-8.73v0l-.57,0a9.84,9.84,0,0,1-7.35-3.29,9.91,9.91,0,0,1-2.51-6.57,9.86,9.86,0,0,1,6.57-9.29,9.72,9.72,0,0,1,3.29-.57h9.86a9.85,9.85,0,0,1,9.29,6.58,6.55,6.55,0,0,1,.27.89l-6.38,1.6a3.27,3.27,0,0,0-3.18-2.49h-9.86a3.29,3.29,0,0,0-3.29,3.28,3.29,3.29,0,0,0,3.29,3.29h9.86a9.82,9.82,0,0,1,7,2.89l.37.39A9.91,9.91,0,0,1,366,530.6Z"/><path class="cls-1" d="M436.66,507.59V524c0,9.08-6.62,16.43-14.78,16.43S407.09,533.1,407.09,524V507.59h6.57V524c0,5.45,3.68,9.86,8.22,9.86s8.21-4.41,8.21-9.86V507.59Z"/><polygon class="cls-1" points="470.27 507.59 457.13 540.45 453.84 540.45 440.7 507.59 447.27 507.59 455.49 528.13 463.7 507.59 470.27 507.59"/><polygon class="cls-1" points="265.92 574.82 256.06 607.68 249.49 607.68 244.56 591.25 239.63 607.68 233.06 607.68 223.2 574.82 229.77 574.82 236.34 596.73 241.27 580.3 242.91 574.82 246.2 574.82 247.84 580.3 252.77 596.73 259.34 574.82 265.92 574.82"/><polygon class="cls-1" points="286.27 591.25 295.64 607.68 288.08 607.68 282.5 597.88 276.91 607.68 269.35 607.68 278.72 591.25 269.35 574.82 276.91 574.82 282.5 584.62 288.08 574.82 295.64 574.82 286.27 591.25"/><path class="cls-1" d="M328.36,574.82v32.86c0,9.08-6.62,16.43-14.78,16.43a14.3,14.3,0,0,1-11.7-6.37l4.77-4.77a8,8,0,0,0,6.93,4.57c4.54,0,8.21-4.41,8.21-9.86v-2.76a2.83,2.83,0,0,1-.28.2,13.56,13.56,0,0,1-15.86,0,15.84,15.84,0,0,1-4.88-5.65,17.76,17.76,0,0,1-2-8.22V574.82h6.57v16.43a11.37,11.37,0,0,0,.29,2.57,10,10,0,0,0,3.39,5.65,7.1,7.1,0,0,0,9.08,0,10,10,0,0,0,3.39-5.65,2.83,2.83,0,0,1,.28.2v-19.2Z"/><polygon class="cls-1" points="357.8 581.4 340.9 581.4 357.8 601.11 357.8 607.68 331.52 607.68 331.52 601.11 348.7 601.11 331.52 581.4 331.52 574.82 357.8 574.82 357.8 581.4"/><path class="cls-1" d="M353.5,440.36v2.77a13.67,13.67,0,0,0-8.21-2.77c-8.16,0-14.78,7.36-14.78,16.43a17.75,17.75,0,0,0,2,8.21,15.92,15.92,0,0,0,4.87,5.65,13.56,13.56,0,0,0,15.86,0l.28-.21v2.77c0,5.44-3.68,9.85-8.21,9.85a7.42,7.42,0,0,1-5.35-2.38l-5.7,3.43a14.12,14.12,0,0,0,11.05,5.52c8.16,0,14.78-7.35,14.78-16.42V440.36Zm-.28,19a9.94,9.94,0,0,1-3.4,5.65,7.09,7.09,0,0,1-9.07,0,10,10,0,0,1-3.39-5.65,12,12,0,0,1-.28-2.56c0-5.45,3.67-9.86,8.21-9.86s8.21,4.41,8.21,9.86A12,12,0,0,1,353.22,459.35Z"/><path class="cls-1" d="M391.51,456.79v16.43h-6.57V456.79c0-5.44-2.94-9.85-6.58-9.85s-6.57,4.41-6.57,9.85v16.43h-6.57V423.93h6.57v18.64a11.17,11.17,0,0,1,6.57-2.21C385.62,440.36,391.51,447.72,391.51,456.79Z"/><path class="cls-1" d="M188.21,726.25c0,12.16-11,22-24.47,22a25.51,25.51,0,0,1-19-8.17l8.65-5.19a16.23,16.23,0,0,0,10.36,3.57c8.11,0,14.68-5.48,14.68-12.23S171.85,714,163.74,714v-9.78c8.11,0,14.68-4.38,14.68-9.79s-6.57-9.79-14.68-9.79a18.55,18.55,0,0,0-10.91,3.24l-8.66-5.19c4.46-4.76,11.57-7.83,19.57-7.83,13.51,0,24.47,8.76,24.47,19.57,0,6-3.38,11.38-8.71,15A21.13,21.13,0,0,1,188.21,726.25Z"/><path class="cls-1" d="M534.54,700.57q0-.63,0-1.26c0-13.5-9.85-24.44-22-24.44s-22,10.94-22,24.44q0,.63,0,1.26V722.5c0,.41,0,.83,0,1.25,0,13.5,9.85,24.45,22,24.45s22-11,22-24.45c0-.42,0-.84,0-1.25Zm-22,37.85c-6.75,0-12.22-6.57-12.22-14.67V699.31c0-8.1,5.47-14.67,12.22-14.67s12.22,6.57,12.22,14.67v24.44C524.79,731.85,519.32,738.42,512.57,738.42Z"/><path class="cls-1" d="M423,711.47a20.8,20.8,0,1,0-27,0,20.8,20.8,0,1,0,27,0Zm-24.25-15.81a10.8,10.8,0,1,1,10.93,10.79h-.28A10.79,10.79,0,0,1,398.71,695.66ZM409.51,738a10.85,10.85,0,0,1-1.57-21.58,10.18,10.18,0,0,1,1.57-.12,11.05,11.05,0,0,1,1.54.11A10.85,10.85,0,0,1,409.51,738Z"/><path class="cls-1" d="M90.07,674.87v73.4H80.28V699.33a24.33,24.33,0,0,1-14.68,4.9H60.71v-5.39a24.48,24.48,0,0,0,19.57-24Z"/><path class="cls-1" d="M122.44,733.61l-4.86,4.87h22.08v9.79h-44v-1.68l7.77-7.76.34-.35,6.57-6.57.82-.81,7.54-7.55,5.48-5.48a19.73,19.73,0,0,0,3.42-4.59,21.94,21.94,0,0,0,2.31-9.25,21.13,21.13,0,0,0,0-4.9c-1-7-7.49-14.68-14.68-14.68a14.1,14.1,0,0,0-2.27.18,14.69,14.69,0,0,0-11.73,10.06l-5.52-3.68-2.82-1.87a24.48,24.48,0,0,1,20-14.36c.77-.07,1.55-.11,2.34-.11a24.41,24.41,0,0,1,24.46,24.46v4.9c0,.78,0,1.56-.09,2.34A29.21,29.21,0,0,1,131.06,725Z"/><polygon class="cls-1" points="232.22 674.87 232.22 748.27 222.43 748.27 222.43 723.8 193.07 723.8 195.25 714.01 202.86 679.76 212.65 679.76 205.03 714.01 222.43 714.01 222.43 674.87 232.22 674.87"/><path class="cls-1" d="M253.8,684.65l-2.09,14.68h8.39a24.47,24.47,0,1,1-21,37l8.39-5a14.68,14.68,0,1,0,12.59-22.23H240.52l1.4-9.79,3.5-24.46h39.14v9.78Z"/><polygon class="cls-1" points="384.43 674.87 384.43 684.65 364.86 748.27 355.07 748.27 374.65 684.65 340.39 684.65 340.39 674.87 384.43 674.87"/><path class="cls-1" d="M459.73,674.87a24.44,24.44,0,1,0,14,44.48l.67-.49v4.89a14.66,14.66,0,0,1-24.55,10.83c-2.87,1.72-5.74,3.43-8.6,5.16a24.44,24.44,0,0,0,42.93-16V699.31A24.44,24.44,0,0,0,459.73,674.87Zm14,28.84a14.69,14.69,0,0,1-5.89,7.82,14.61,14.61,0,1,1,5.89-7.82Z"/><path class="cls-1" d="M315.93,748.27a24.47,24.47,0,1,0-14-44.53l-.67.49v-4.9a14.67,14.67,0,0,1,24.58-10.83l8.6-5.16a24.46,24.46,0,0,0-43,16V723.8A24.48,24.48,0,0,0,315.93,748.27Zm-14-28.88a14.7,14.7,0,1,1-.67,4.41A14.66,14.66,0,0,1,301.92,719.39Z"/><polygon class="cls-1" points="390.07 794.45 382.39 813.64 380.47 813.64 372.8 794.45 376.64 794.45 381.43 806.44 386.23 794.45 390.07 794.45"/><path class="cls-1" d="M409.18,779.57v34.07h-4.54V790.92a11.29,11.29,0,0,1-6.81,2.28h-2.28v-2.5a11.37,11.37,0,0,0,9.09-11.13Z"/><path class="cls-1" d="M438,806.83l-2.25,2.26H446v4.55H425.56v-.78l3.6-3.6.16-.17,3.05-3.05.38-.37,3.5-3.5,2.54-2.55a8.77,8.77,0,0,0,1.59-2.13,10.18,10.18,0,0,0,1.07-4.29,9.58,9.58,0,0,0,0-2.27c-.46-3.27-3.47-6.82-6.81-6.82a7.2,7.2,0,0,0-1.05.08,6.81,6.81,0,0,0-5.44,4.68l-2.57-1.71-1.3-.87a11.36,11.36,0,0,1,9.28-6.67c.35,0,.72,0,1.08,0a11.36,11.36,0,0,1,11.17,9.31,11.49,11.49,0,0,1,.19,2v2.27c0,.36,0,.72-.05,1.08a13.49,13.49,0,0,1-3.95,8.55Z"/><ellipse class="cls-1" cx="416.69" cy="813.64" rx="2.42" ry="2.22"/></g></g></svg>