<?xml version="1.0" encoding="UTF-8"?><svg xmlns="http://www.w3.org/2000/svg" viewBox="0 0 23 23"><defs><style>.d{opacity:.8;}</style></defs><g id="a"/><g id="b"><g id="c"><g class="d"><path d="M.01,12h-.01v-.5c0,.17,0,.34,.01,.5Z"/><path d="M11.5,23h0Z"/><path d="M22.9,9H14V.1C13.35,0,12.68-.02,12,0h0V9H2.53c-.83,0-1.53,.66-1.53,1.48v.02c0,.17,0,.34,.01,.5,.26,5.95,5.04,10.73,10.99,10.99,.16,.01,.33,.01,.5,.01h.02c.83,0,1.48-.7,1.48-1.53V11h8.99c.02-.68,0-1.35-.09-2Zm-10.9,10.99c-4.84-.25-8.74-4.15-8.99-8.99H12v8.99Z"/></g></g></g></svg>