<svg id="Layer_1" data-name="Layer 1" xmlns="http://www.w3.org/2000/svg" viewBox="0 0 1000 954"><defs><style>.cls-1{fill:#7f7f7f;}.cls-2{fill:#fff;}</style></defs><path class="cls-1" d="M1000,500c0,276.14-223.86,476-500,476S0,776.14,0,500,223.86,22,500,22,1000,223.86,1000,500Z" transform="translate(0 -22)"/><path class="cls-2" d="M498,352.12c4.16,20,7.67,40.19,10.41,60.47l-1.87-14c5.39,40.27,7.78,81.05,5.34,121.64q-1.06,17.6-3.39,35.08l1.87-14c-4.4,32.3-12.35,64.13-25,94.23l5.29-12.54c-7.45,17.64-16.24,34.7-27.9,49.94L471,662.4a177.08,177.08,0,0,1-31.31,31.37l10.62-8.21A161.52,161.52,0,0,1,415,706.8l12.54-5.29a139.83,139.83,0,0,1-34.91,9.35l14-1.88a151.31,151.31,0,0,1-39-.12l14,1.87a151.79,151.79,0,0,1-37.73-10.28l12.54,5.29a152.74,152.74,0,0,1-33-19.33L334,694.62a169,169,0,0,1-30.05-30.18l8.2,10.62a180.71,180.71,0,0,1-22.82-39.17l5.3,12.54A183.09,183.09,0,0,1,282,602l1.88,14a191.24,191.24,0,0,1,.08-49.85l-1.88,14a192.18,192.18,0,0,1,13.23-48L290,544.53a222.75,222.75,0,0,1,28.75-48.7l-8.21,10.62a268.79,268.79,0,0,1,47.39-47.1l-10.63,8.21c24.14-18.64,51.05-33.35,79.09-45.21l-12.54,5.29c46-19.35,95-31.74,143.95-40.77q21.83-4,43.85-7l-14,1.87A904.26,904.26,0,0,1,779,376.63q6.46.51,12.94,1.12a40.11,40.11,0,0,0,6.38.38,106.27,106.27,0,0,0,14.59-2c8.63-2.07,18-8,24.17-14.18a54.35,54.35,0,0,0,13.81-52.09c-2.28-8.27-7.44-17.7-13.81-23.57l-10.63-8.2q-6.51-2.91-13.12-5.55a53.69,53.69,0,0,0-66.13,37.43c-2.24,8.14-2.94,21.25.24,29.25a39.59,39.59,0,0,0,9.4,17.86,39.69,39.69,0,0,0,14.73,13.52,39.14,39.14,0,0,0,19.52,6.23,39.76,39.76,0,0,0,20.93-.94c12.7-4.11,25-12,31.38-24.13l5.29-12.54a52.87,52.87,0,0,0,0-27.91l-.27-.68,1.87,14,0-.65-7.16,26.49.29-.51L824.59,368.7l.58-.28-26.49,7.17.66,0-26.49-7.17.58.26L762.8,360.5l.31.4-15.37-37.12,0,.46,7.16-26.49-.29.54,8.21-10.62-.44.4L773,279.86l-.55.27L785,274.84l-.64.17,14-1.88c-3,.34-6.12-.36-9.07-.63-3.6-.33-7.2-.63-10.79-.92q-10.26-.81-20.54-1.39-20.8-1.15-41.67-1.36-41.41-.4-82.77,3C574.34,276.7,515.31,286.35,458.06,302a581.63,581.63,0,0,0-72.12,24.44c-27.62,11.58-54.46,24.26-79.15,41.36-22.31,15.46-43.59,32.92-61.44,53.44-17.43,20-33.34,42-44.25,66.3-6.38,14.23-12.39,28.68-16.25,43.82a254.69,254.69,0,0,0-7.47,52.76c-.68,17.8,1.44,35.63,4.48,53.15a179.07,179.07,0,0,0,9.37,33.95c5.5,14.21,11.56,28.34,19.53,41.36a249.44,249.44,0,0,0,27.09,36c10.19,11.36,22,20.68,34.18,29.81a149.72,149.72,0,0,0,28.75,17c14.53,6.45,29,12.34,44.68,15.34s31.65,5,47.51,4.45c10.28-.37,20.54-1.89,30.68-3.46a137.44,137.44,0,0,0,17.25-3.78c9.6-2.77,18.73-6.79,27.89-10.76a133.53,133.53,0,0,0,15.35-7.84,264.61,264.61,0,0,0,37.25-27.36,172.64,172.64,0,0,0,23.05-24.23c9.7-12.42,18.87-24.7,26.16-38.69a432.69,432.69,0,0,0,19.54-44.12,366.68,366.68,0,0,0,18.9-69,570.23,570.23,0,0,0,8.6-83.57c1.28-49.78-4.27-99.66-12.78-148.64q-2.57-14.76-5.63-29.42a39.48,39.48,0,0,0-9.39-17.85,39.53,39.53,0,0,0-14.73-13.52,39,39,0,0,0-19.52-6.23,39.79,39.79,0,0,0-20.94.93c-12.7,4.11-25,12-31.37,24.13L498,324.21a52.67,52.67,0,0,0,0,27.91Z" transform="translate(0 -22)"/></svg>