<?xml version="1.0" encoding="UTF-8"?><svg xmlns="http://www.w3.org/2000/svg" viewBox="0 0 25 25"><g id="a"/><g id="b"><g id="c"><g><path d="M25,10.34v2.31c0,.74-.6,1.34-1.34,1.34H5.25c-.16-.64-.25-1.31-.25-2,0-1.06,.21-2.07,.59-3H23.66c.74,0,1.34,.6,1.34,1.34Z"/><path d="M16,1.34V19.41c-.93,.38-1.94,.59-3,.59-.69,0-1.36-.09-2-.25V1.34c0-.74,.6-1.34,1.34-1.34h2.31c.74,0,1.34,.6,1.34,1.34Z"/><path d="M16,19.41v2.53c0,1.65-1.31,3.05-2.97,3.06h-.03c-.68,0-1.35-.05-2-.15C5.42,23.99,1.01,19.58,.15,14c-.1-.65-.15-1.32-.15-2v-.03c0-1.65,1.4-2.97,3.06-2.97h2.53c-.38,.93-.59,1.94-.59,3,0,.69,.09,1.36,.25,2,.73,2.81,2.94,5.02,5.75,5.75,.64,.16,1.31,.25,2,.25,1.06,0,2.07-.21,3-.59Z"/></g></g></g></svg>