<?xml version="1.0" encoding="UTF-8"?><svg xmlns="http://www.w3.org/2000/svg" xmlns:xlink="http://www.w3.org/1999/xlink" viewBox="0 0 608.66 608.66"><defs><style>.g{fill:#fff;}.h{fill:url(#f);}.i{fill:url(#d);}.j{fill:url(#e);}</style><linearGradient id="d" x1="325.77" y1="186.64" x2="364.91" y2="186.64" gradientTransform="matrix(1, 0, 0, 1, 0, 0)" gradientUnits="userSpaceOnUse"><stop offset="0" stop-color="#33f"/><stop offset="1" stop-color="#36f"/></linearGradient><linearGradient id="e" x1="212.2" y1="202.25" x2="504.84" y2="494.88" xlink:href="#d"/><linearGradient id="f" x1="315.98" y1="282.01" x2="315.98" y2="532.18" xlink:href="#d"/></defs><g id="a"/><g id="b"><g id="c"><g><circle class="g" cx="304.33" cy="304.33" r="304.33"/><g><path class="i" d="M364.91,146.23v90.91h-39.14v-90.91c0-5.58,4.38-10.1,9.78-10.1h19.57c5.4,0,9.78,4.52,9.78,10.1Z"/><path class="j" d="M462.75,243.76v19.57c0,5.4-4.38,9.78-9.78,9.78h-185.9c-32.42,0-58.71,26.28-58.71,58.71h0c0,32.42,26.28,58.71,58.71,58.71h0c32.42,0,58.71-26.28,58.71-58.71v-58.71h39.14v58.71c0,54.04-43.81,97.84-97.84,97.84h0c-54.04,0-97.84-43.81-97.84-97.84h0c0-54.04,43.81-97.84,97.84-97.84h185.9c5.4,0,9.78,4.38,9.78,9.78Z"/><path class="h" d="M364.91,273.11v58.71c0,54.04-43.81,97.84-97.84,97.84h0v-39.14h0c32.42,0,58.71-26.28,58.71-58.71v-58.71h39.14Z"/></g></g></g></g></svg>