<svg id="Layer_1" data-name="Layer 1" xmlns="http://www.w3.org/2000/svg" viewBox="0 0 1000 973"><defs><style>.cls-1{fill:#7f7f7f;}.cls-2{fill:#fff;}</style></defs><path class="cls-1" d="M1000,500c0,276.14-223.86,486-500,486S0,776.14,0,500,223.86,13,500,13,1000,223.86,1000,500Z" transform="translate(0 -13)"/><path class="cls-2" d="M498,361.12c4.17,20.11,7.71,40.34,10.46,60.7l-1.88-14c5.22,39.1,7.53,78.68,5.09,118.09q-1,16.42-3.16,32.73l1.87-14c-4.45,33-12.67,65.47-25.61,96.2l5.29-12.54c-9.1,21.44-20.26,42.13-34.51,60.61l8.21-10.63A172.37,172.37,0,0,1,434,708.61l10.62-8.2A134.42,134.42,0,0,1,415,717.8l12.54-5.29a139.83,139.83,0,0,1-34.91,9.35l14-1.88a151.31,151.31,0,0,1-39-.12l14,1.87a151.79,151.79,0,0,1-37.73-10.28l12.54,5.29a152.74,152.74,0,0,1-33-19.33L334,705.62a169,169,0,0,1-30.05-30.18l8.2,10.62a180.71,180.71,0,0,1-22.82-39.17l5.3,12.54A183.09,183.09,0,0,1,282,613l1.88,14a191.24,191.24,0,0,1,.08-49.85l-1.88,14a192.18,192.18,0,0,1,13.23-48L290,555.53a222.75,222.75,0,0,1,28.75-48.7l-8.21,10.62a268.79,268.79,0,0,1,47.39-47.1l-10.63,8.21c24.14-18.64,51.05-33.35,79.09-45.21l-12.54,5.29c46-19.35,95-31.74,143.95-40.77q21.83-4,43.85-7l-14,1.87A904.26,904.26,0,0,1,779,387.63q6.46.51,12.94,1.12a40.11,40.11,0,0,0,6.38.38,106.27,106.27,0,0,0,14.59-2c8.63-2.07,18-8,24.17-14.18a54.35,54.35,0,0,0,13.81-52.09c-2.28-8.27-7.44-17.7-13.81-23.57l-10.63-8.2q-6.51-2.91-13.12-5.55a53.69,53.69,0,0,0-66.13,37.43c-2.24,8.14-2.94,21.25.24,29.25a39.59,39.59,0,0,0,9.4,17.86,39.69,39.69,0,0,0,14.73,13.52,39.14,39.14,0,0,0,19.52,6.23,39.76,39.76,0,0,0,20.93-.94c12.7-4.11,25-12,31.38-24.13l5.29-12.54a52.87,52.87,0,0,0,0-27.91l-.27-.68,1.87,14,0-.65-7.16,26.49.29-.51L824.59,379.7l.58-.28-26.49,7.17.66,0-26.49-7.17.58.26L762.8,371.5l.31.4-15.37-37.12,0,.46,7.16-26.49-.29.54,8.21-10.62-.44.4L773,290.86l-.55.27L785,285.84l-.64.17,14-1.88c-2.79.32-5.76-.32-8.53-.58q-5.4-.49-10.79-.92-10.26-.83-20.53-1.4-20.28-1.16-40.59-1.38-40.62-.47-81.16,2.72c-58.21,4.58-116.35,13.89-172.82,28.82a597.42,597.42,0,0,0-71.46,23.33c-27.09,10.94-53.63,23-78.16,39A408.48,408.48,0,0,0,276,402.26a271.15,271.15,0,0,0-24.08,22.64A348,348,0,0,0,222.78,461a221.72,221.72,0,0,0-17.29,28.35,284.1,284.1,0,0,0-17.58,42.34c-5.15,16.15-7.61,32.81-9.5,49.62a188.32,188.32,0,0,0-.28,39.29c1.64,16.77,4.05,33.7,9,49.85a257.13,257.13,0,0,0,17.09,41.52,180.67,180.67,0,0,0,17.19,27.12c9.1,11.9,18.2,23.46,29.4,33.45A225,225,0,0,0,286.6,799a206.61,206.61,0,0,0,42.94,18.64c14.89,4.6,30.66,6.81,46.14,8.06,16,1.28,31.65-.62,47.52-3,13.48-2,26-6.33,38.48-11.61s24.29-11.2,35.17-19.49c12.6-9.59,24.48-19.24,34.82-31.26A295.75,295.75,0,0,0,576,692c11.91-25.63,21.82-52.1,28.32-79.62a516.08,516.08,0,0,0,12.19-84.44c3.51-53.41-1.92-107-10.72-159.68q-2.94-17.56-6.59-35a39.48,39.48,0,0,0-9.39-17.85,39.53,39.53,0,0,0-14.73-13.52,39,39,0,0,0-19.52-6.23,39.79,39.79,0,0,0-20.94.93c-12.7,4.11-25,12-31.37,24.13L498,333.21a52.67,52.67,0,0,0,0,27.91Z" transform="translate(0 -13)"/></svg>