<svg xmlns="http://www.w3.org/2000/svg" viewBox="0 0 29.24 29.24"><defs><style>.cls-1{fill:#fff;}</style></defs><g id="Layer_2" data-name="Layer 2"><g id="ELEMENTS"><circle cx="14.62" cy="14.62" r="14.62"/><path class="cls-1" d="M14.62,6.41a8.22,8.22,0,1,0,8.23,8.21,8.22,8.22,0,0,0-8.23-8.21ZM20,10.28a7,7,0,0,1,1.54,4.24,16.4,16.4,0,0,0-3.22-.32,12.3,12.3,0,0,0-1.58.1L16.63,14c-.14-.33-.29-.66-.44-1A9.32,9.32,0,0,0,20,10.28ZM14.62,7.69A6.89,6.89,0,0,1,19.2,9.42a8,8,0,0,1-3.59,2.46,35.69,35.69,0,0,0-2.56-4,6.81,6.81,0,0,1,1.57-.18Zm-3,.68a44.85,44.85,0,0,1,2.54,4,26.13,26.13,0,0,1-6.28.84H7.83a6.94,6.94,0,0,1,3.81-4.79Zm-4,6.26a1,1,0,0,1,0-.17h.18a25.9,25.9,0,0,0,6.94-1c.18.37.36.74.53,1.11l-.23.07a11.2,11.2,0,0,0-5.68,4.58,6.91,6.91,0,0,1-1.75-4.6Zm7,6.94a7,7,0,0,1-4.24-1.44,9.58,9.58,0,0,1,5.45-4.31h0A30.22,30.22,0,0,1,17.31,21a6.91,6.91,0,0,1-2.69.54Zm3.94-1.22a31.31,31.31,0,0,0-1.33-4.87,8.47,8.47,0,0,1,1.39-.11,10.4,10.4,0,0,1,2.86.4,7,7,0,0,1-2.92,4.58Z"/></g></g></svg>