<?xml version="1.0" ?><svg height="60px" version="1.1" viewBox="0 0 60 60" width="60px" xmlns="http://www.w3.org/2000/svg" xmlns:sketch="http://www.bohemiancoding.com/sketch/ns" xmlns:xlink="http://www.w3.org/1999/xlink"><title/><defs/><g fill="none" fill-rule="evenodd" id="black" stroke="none" stroke-width="1"><g id="sound_cloud"><path d="M30,60 C46.5685433,60 60,46.5685433 60,30 C60,13.4314567 46.5685433,0 30,0 C13.4314567,0 0,13.4314567 0,30 C0,46.5685433 13.4314567,60 30,60 Z" fill="#000000" id="SoundCloud"/><path d="M28.8461538,24.3473274 C30.312135,22.8513082 32.3553597,21.9230769 34.6153846,21.9230769 C38.7401379,21.9230769 42.1427384,25.014979 42.6319389,29.007536 C43.01883,28.9023132 43.4259335,28.8461538 43.8461538,28.8461538 C46.3951605,28.8461538 48.4615385,30.9125318 48.4615385,33.4615385 C48.4615385,35.6121225 46.9906469,37.4191613 45,37.9315183 L45,38.0769231 L22.5,38.0769231 L28.8461538,38.0769231 L28.8461538,24.3473274 L28.8461538,24.3473274 Z M13.2692308,36.9230769 C13.5878566,36.9230769 13.8461538,35.3732935 13.8461538,33.4615385 C13.8461538,31.5497835 13.5878566,30 13.2692308,30 C12.9506049,30 12.6923077,31.5497835 12.6923077,33.4615385 C12.6923077,35.3732935 12.9506049,36.9230769 13.2692308,36.9230769 Z M15.5769231,38.0769231 C15.8955489,38.0769231 16.1538462,36.0105451 16.1538462,33.4615385 C16.1538462,30.9125318 15.8955489,28.8461538 15.5769231,28.8461538 C15.2582972,28.8461538 15,30.9125318 15,33.4615385 C15,36.0105451 15.2582972,38.0769231 15.5769231,38.0769231 Z M17.8846154,38.0769231 C18.2032412,38.0769231 18.4615385,36.0105451 18.4615385,33.4615385 C18.4615385,30.9125318 18.2032412,28.8461538 17.8846154,28.8461538 C17.5659896,28.8461538 17.3076923,30.9125318 17.3076923,33.4615385 C17.3076923,36.0105451 17.5659896,38.0769231 17.8846154,38.0769231 Z M20.1923077,38.0769231 C20.5109335,38.0769231 20.7692308,35.4939506 20.7692308,32.3076923 C20.7692308,29.121434 20.5109335,26.5384615 20.1923077,26.5384615 C19.8736819,26.5384615 19.6153846,29.121434 19.6153846,32.3076923 C19.6153846,35.4939506 19.8736819,38.0769231 20.1923077,38.0769231 Z M22.5,38.0769231 C22.8186258,38.0769231 23.0769231,35.2356534 23.0769231,31.7307692 C23.0769231,28.2258851 22.8186258,25.3846154 22.5,25.3846154 C22.1813742,25.3846154 21.9230769,28.2258851 21.9230769,31.7307692 C21.9230769,35.2356534 22.1813742,38.0769231 22.5,38.0769231 Z M24.8076923,38.0769231 C25.1263181,38.0769231 25.3846154,34.9773561 25.3846154,31.1538462 C25.3846154,27.3303362 25.1263181,24.2307692 24.8076923,24.2307692 C24.4890665,24.2307692 24.2307692,27.3303362 24.2307692,31.1538462 C24.2307692,34.9773561 24.4890665,38.0769231 24.8076923,38.0769231 Z M27.1153846,38.0769231 C27.4340104,38.0769231 27.6923077,34.9773561 27.6923077,31.1538462 C27.6923077,27.3303362 27.4340104,24.2307692 27.1153846,24.2307692 C26.7967588,24.2307692 26.5384615,27.3303362 26.5384615,31.1538462 C26.5384615,34.9773561 26.7967588,38.0769231 27.1153846,38.0769231 Z" fill="#FFFFFF" id="SoundCloud"/></g></g></svg>