<?xml version="1.0" encoding="utf-8"?>
<!-- Generator: Adobe Illustrator 25.2.3, SVG Export Plug-In . SVG Version: 6.00 Build 0)  -->
<svg version="1.1" id="Layer_1" xmlns="http://www.w3.org/2000/svg" xmlns:xlink="http://www.w3.org/1999/xlink" x="0px" y="0px"
	 viewBox="0 0 29.24 29.24" style="enable-background:new 0 0 29.24 29.24;" xml:space="preserve">
<style type="text/css">
	.st0{fill:#414141;}
	.st1{fill:#141414;}
</style>
<g id="Layer_2_1_">
	<g id="ELEMENTS">
		<circle class="st0" cx="14.62" cy="14.62" r="14.62"/>
		<path class="st1" d="M15.44,17.25c0.01,0.41-0.08,0.81-0.27,1.17c-0.18,0.34-0.43,0.63-0.74,0.85c-0.33,0.23-0.69,0.41-1.08,0.52
			c-0.44,0.13-0.89,0.2-1.35,0.21H7V9.43h5.64c0.35-0.01,0.69,0.08,1,0.24c0.29,0.15,0.55,0.36,0.76,0.61
			c0.21,0.26,0.37,0.55,0.48,0.86c0.11,0.32,0.17,0.66,0.17,1c0,0.51-0.13,1.01-0.39,1.45c-0.25,0.45-0.65,0.8-1.12,1
			c0.57,0.17,1.08,0.52,1.43,1C15.3,16.08,15.46,16.66,15.44,17.25z M9,11.18v2.66h2.74c0.33,0.01,0.65-0.12,0.88-0.36
			c0.26-0.27,0.39-0.63,0.36-1c0.03-0.36-0.09-0.72-0.33-1c-0.21-0.23-0.52-0.36-0.83-0.35L9,11.18z M13.38,16.86
			c0-0.18-0.03-0.37-0.09-0.54c-0.06-0.16-0.15-0.31-0.26-0.45c-0.11-0.13-0.24-0.23-0.39-0.31c-0.15-0.07-0.32-0.11-0.49-0.11H9
			v2.78h3c0.18,0,0.36-0.04,0.52-0.11c0.16-0.06,0.31-0.16,0.43-0.29c0.26-0.27,0.4-0.63,0.38-1L13.38,16.86z"/>
		<path class="st1" d="M19.87,20c-0.56,0.01-1.12-0.1-1.64-0.31c-0.94-0.38-1.68-1.13-2.05-2.07c-0.18-0.47-0.28-0.97-0.28-1.48
			c-0.01-0.52,0.09-1.04,0.28-1.52c0.35-0.95,1.07-1.71,2-2.11c0.53-0.21,1.1-0.32,1.67-0.31c0.56-0.01,1.12,0.09,1.64,0.31
			c1.51,0.69,2.42,2.26,2.27,3.91c0.01,0.1,0.01,0.19,0,0.29h-5.82c0.03,0.27,0.1,0.54,0.22,0.79c0.11,0.22,0.26,0.43,0.45,0.59
			c0.18,0.16,0.39,0.29,0.61,0.38c0.6,0.18,1.24,0.11,1.78-0.2c0.31-0.16,0.56-0.42,0.7-0.74l1.65,0.46
			c-0.29,0.59-0.76,1.09-1.33,1.42C21.37,19.8,20.63,20,19.87,20z M21.87,15.46c-0.03-0.52-0.25-1.01-0.63-1.36
			c-0.36-0.34-0.84-0.52-1.34-0.51c-0.25,0-0.5,0.05-0.73,0.14c-0.22,0.09-0.42,0.22-0.6,0.38c-0.17,0.17-0.32,0.37-0.42,0.59
			c-0.12,0.24-0.18,0.5-0.19,0.76L21.87,15.46z"/>
		<path class="st1" d="M17.34,9.93h5v1.25h-5V9.93z"/>
	</g>
</g>
</svg>
