<?xml version="1.0" encoding="utf-8"?>
<!-- Generator: Adobe Illustrator 25.2.3, SVG Export Plug-In . SVG Version: 6.00 Build 0)  -->
<svg version="1.1" id="Layer_1" xmlns="http://www.w3.org/2000/svg" xmlns:xlink="http://www.w3.org/1999/xlink" x="0px" y="0px"
	 viewBox="0 0 29.24 29.24" style="enable-background:new 0 0 29.24 29.24;" xml:space="preserve">
<style type="text/css">
	.st0{fill:#414141;}
	.st1{fill:#141414;}
</style>
<g id="Layer_2_1_">
	<g id="ELEMENTS">
		<path class="st0" d="M29.24,14.62c0-8.07-6.55-14.62-14.63-14.61S0,6.56,0,14.64c0,7.19,5.24,13.31,12.34,14.43V18.85H8.62v-4.23
			h3.72V11.4c0-3.66,2.18-5.69,5.52-5.69c1.1,0.02,2.19,0.11,3.27,0.29v3.6h-1.84c-1.16-0.15-2.22,0.66-2.37,1.81
			c-0.02,0.15-0.02,0.31-0.01,0.47v2.74H21l-0.65,4.23h-3.4v10.22C24.04,27.92,29.24,21.8,29.24,14.62z"/>
		<path class="st1" d="M20.31,18.85L21,14.62h-4.09v-2.74c-0.1-1.16,0.75-2.19,1.91-2.29c0.16-0.01,0.31-0.01,0.47,0.01h1.84V6
			c-1.08-0.18-2.17-0.27-3.27-0.29c-3.34,0-5.52,2-5.52,5.69v3.22H8.62v4.23h3.72v10.22c0.75,0.11,1.52,0.17,2.28,0.17
			c0.77,0,1.53-0.06,2.29-0.17V18.85H20.31z"/>
	</g>
</g>
</svg>
