<?xml version="1.0" encoding="utf-8"?>
<!-- Generator: Adobe Illustrator 25.2.3, SVG Export Plug-In . SVG Version: 6.00 Build 0)  -->
<svg version="1.1" id="Layer_1" xmlns="http://www.w3.org/2000/svg" xmlns:xlink="http://www.w3.org/1999/xlink" x="0px" y="0px"
	 viewBox="0 0 56.69 56.69" style="enable-background:new 0 0 56.69 56.69;" xml:space="preserve">
<style type="text/css">
	.st0{fill-rule:evenodd;clip-rule:evenodd;fill:#000000;}
	.st1{fill:#141414;}
</style>
<g>
	<path class="st0" d="M28.34,5.22c-13.6,0-24.63,11.03-24.63,24.63c0,10.88,7.06,20.11,16.84,23.37c1.23,0.23,1.68-0.53,1.68-1.18
		c0-0.59-0.02-2.53-0.03-4.59c-6.85,1.49-8.3-2.91-8.3-2.91c-1.12-2.85-2.73-3.6-2.73-3.6c-2.23-1.53,0.17-1.5,0.17-1.5
		c2.47,0.17,3.78,2.54,3.78,2.54c2.2,3.77,5.76,2.68,7.17,2.05c0.22-1.59,0.86-2.68,1.56-3.29C18.38,40.11,12.62,38,12.62,28.56
		c0-2.69,0.96-4.89,2.54-6.61c-0.26-0.62-1.1-3.13,0.24-6.52c0,0,2.07-0.66,6.77,2.53c1.96-0.55,4.07-0.82,6.17-0.83
		c2.09,0.01,4.2,0.28,6.17,0.83c4.7-3.19,6.77-2.53,6.77-2.53c1.34,3.39,0.5,5.9,0.24,6.52c1.58,1.72,2.53,3.92,2.53,6.61
		c0,9.46-5.76,11.54-11.25,12.15c0.88,0.76,1.67,2.26,1.67,4.56c0,3.3-0.03,5.95-0.03,6.76c0,0.66,0.44,1.42,1.69,1.18
		c9.78-3.26,16.83-12.49,16.83-23.37C52.97,16.25,41.94,5.22,28.34,5.22z"/>
	<path class="st1" d="M13.04,40.58c-0.05,0.12-0.25,0.16-0.42,0.08c-0.18-0.08-0.28-0.25-0.22-0.37c0.05-0.13,0.25-0.16,0.42-0.08
		C13,40.29,13.1,40.46,13.04,40.58L13.04,40.58z"/>
	<path class="st1" d="M14.04,41.7c-0.12,0.11-0.35,0.06-0.5-0.11c-0.16-0.17-0.19-0.4-0.07-0.51c0.12-0.11,0.34-0.06,0.51,0.11
		C14.13,41.36,14.16,41.58,14.04,41.7L14.04,41.7z"/>
	<path class="st1" d="M15.01,43.11c-0.15,0.11-0.4,0.01-0.55-0.21c-0.15-0.22-0.15-0.48,0-0.59c0.15-0.11,0.4-0.01,0.55,0.21
		C15.16,42.74,15.16,43.01,15.01,43.11L15.01,43.11z"/>
	<path class="st1" d="M16.34,44.48c-0.14,0.15-0.42,0.11-0.63-0.09c-0.22-0.2-0.28-0.48-0.14-0.63c0.14-0.15,0.43-0.11,0.64,0.09
		C16.42,44.05,16.48,44.34,16.34,44.48L16.34,44.48z"/>
	<path class="st1" d="M18.17,45.28c-0.06,0.19-0.34,0.28-0.62,0.2c-0.28-0.08-0.46-0.31-0.4-0.51c0.06-0.19,0.34-0.29,0.62-0.2
		C18.05,44.86,18.23,45.08,18.17,45.28L18.17,45.28z"/>
	<path class="st1" d="M20.19,45.43c0.01,0.2-0.23,0.37-0.52,0.38c-0.29,0.01-0.53-0.16-0.54-0.36c0-0.21,0.23-0.37,0.53-0.38
		C19.95,45.06,20.19,45.23,20.19,45.43L20.19,45.43z"/>
	<path class="st1" d="M22.06,45.11c0.04,0.2-0.17,0.4-0.46,0.46c-0.29,0.05-0.55-0.07-0.59-0.27c-0.04-0.2,0.17-0.41,0.46-0.46
		C21.77,44.79,22.03,44.91,22.06,45.11L22.06,45.11z"/>
</g>
</svg>
