<svg id="Layer_1" data-name="Layer 1" xmlns="http://www.w3.org/2000/svg" viewBox="0 0 1019.94 682.13"><ellipse cx="120.01" cy="267.91" rx="169.7" ry="22.33"/><rect x="161.04" y="252.23" width="31.03" height="252.64"/><rect x="34.72" y="378.55" width="145.27" height="31.58"/><path d="M207.75,421.49h63.16v94.74H239.33l-31.58-63.16Z" transform="translate(-173.03 -42.93)"/><ellipse cx="383.68" cy="268.02" rx="203.21" ry="22.33"/><rect x="448.42" y="252.23" width="31.03" height="252.64"/><path d="M526.71,295.17h31q.27,94.74.55,189.48H526.71Z" transform="translate(-173.03 -42.93)"/><rect x="322.1" y="378.55" width="145.27" height="31.58"/><path d="M495.13,421.49h63.16v63.16H526.71l-31.58-31.58Z" transform="translate(-173.03 -42.93)"/><ellipse cx="639.48" cy="268.02" rx="203.21" ry="22.33"/><rect x="704.22" y="252.23" width="31.03" height="252.64"/><path d="M782.51,295.17h31q.29,94.74.56,189.48H782.51Z" transform="translate(-173.03 -42.93)"/><rect x="577.9" y="378.55" width="145.27" height="31.58"/><path d="M750.93,421.49h63.16v63.16l44.21,63.16-31.58,18.94L750.93,453.07Z" transform="translate(-173.03 -42.93)"/><ellipse cx="885.76" cy="268.06" rx="189.75" ry="22.33"/><rect x="960.02" y="252.23" width="31.03" height="252.64"/><rect x="833.7" y="346.97" width="145.27" height="31.58"/><rect x="833.7" y="346.97" width="31.58" height="88.42"/><rect x="1033.77" y="454.44" width="31.58" height="88.42" transform="translate(-218.22 845.27) rotate(-45)"/><rect x="1133.05" y="209.9" width="31.58" height="88.42" transform="translate(2124.64 465.29) rotate(180)"/><rect x="1106" y="145.37" width="31.58" height="88.42" transform="translate(1876.03 -512.53) rotate(135)"/><rect x="893.33" y="556.99" width="31.58" height="138.95" transform="translate(-349.73 783.4) rotate(-45)"/><path d="M1047.7,42.93l-31.58,31.59q31.59,47.37,63.16,94.74h31.58q31.59-47.37,63.16-94.74l-31.58-31.59-47.37,31.59Z" transform="translate(-173.03 -42.93)"/><path d="M1000.33,725.07l31.58-15-62.5-45.63-32.24.63-63.16,45,31.58,15,47.37-15Z" transform="translate(-173.03 -42.93)"/></svg>