<svg xmlns="http://www.w3.org/2000/svg" viewBox="0 0 760 210.73"><title>адмиралхук</title><path d="M50,0A50.005,50.005,0,0,0,0,50v50H20V70H80v30h20V50A50.005,50.005,0,0,0,50,0ZM20,50a30,30,0,0,1,60,0Z"/><path d="M600,0a50.005,50.005,0,0,0-50,50v50h20V70h60v30h20V50A50.005,50.005,0,0,0,600,0ZM570,50a30,30,0,0,1,60,0Z"/><path d="M500,0H440V100h20V80h40a40,40,0,0,0,0-80Zm0,60H460V20h40a20,20,0,0,1,0,40Z"/><path d="M200,70V40a40,40,0,0,0-80,0V70H110v30h20V90h60v10h20V70ZM160,20a19.994,19.994,0,0,1,20,20V70H140V40A19.994,19.994,0,0,1,160,20Z"/><polygon points="320 0 320 100 300 100 300 28.28 284.14 44.14 270 58.28 255.85 44.14 240 28.28 240 100 220 100 220 0 240 0 270 30 300 0 320 0"/><polygon points="340 99.9 340 100 339.91 100 340 99.9"/><polygon points="430 0 430 100 410 100 410 30.67 350 99.9 349.91 100 330 100 330 0 350 0 350 69.36 410 0.13 410.12 0 430 0"/><path d="M760,50v50H740V50a30,30,0,0,0-60,0v50H660V50a50,50,0,0,1,100,0Z"/><polygon points="100 124.869 64.14 160.73 100 196.59 100 210.73 85.86 210.73 50 174.869 14.14 210.73 0 210.73 0 196.59 35.86 160.73 0 124.869 0 110.73 14.14 110.73 50 146.59 85.86 110.73 100 110.73 100 124.869"/><polygon points="210 110.73 210 124.859 174.14 160.73 160 174.869 124.13 210.73 110 210.73 110 196.579 145.86 160.73 110 124.869 110 110.73 124.14 110.73 160 146.589 195.85 110.73 210 110.73"/><polygon points="320 124.87 284.14 160.73 320 196.579 320 210.73 305.85 210.73 270 174.87 240 204.879 234.15 210.73 220 210.73 220 110.73 240 110.73 240 176.579 255.86 160.73 305.86 110.73 320 110.73 320 124.87"/></svg>