<svg xmlns="http://www.w3.org/2000/svg" viewBox="0 0 1219.605 100"><defs><style>.cls-1{fill:#366ce1;}.cls-2,.cls-3{fill:#1c1e20;}.cls-2{opacity:0.62;}.cls-3{opacity:0.38;}</style></defs><title>confluence</title><g id="Слой_2" data-name="Слой 2"><g id="Work_space" data-name="Work space"><g id="confluence"><polygon class="cls-1" points="348.99 20 348.99 40 408.99 40 408.99 60 348.99 60 348.99 100 328.99 100 328.99 0 428.99 0 428.99 20 348.99 20"/><polygon class="cls-1" points="858.99 0 858.99 100 838.99 100 778.99 30.59 778.99 100 758.99 100 758.99 0 778.99 0 838.99 69.41 838.99 0 858.99 0"/><polygon class="cls-1" points="318.99 0 318.99 100 298.99 100 238.99 30.59 238.99 100 218.99 100 218.99 0 238.99 0 298.99 69.41 298.99 0 318.99 0"/><polygon class="cls-1" points="668.99 20 668.99 40 748.99 40 748.99 60 668.99 60 668.99 80 748.99 80 748.99 100 648.99 100 648.99 0 748.99 0 748.99 20 668.99 20"/><polygon class="cls-1" points="998.99 20 998.99 40 1078.99 40 1078.99 60 998.99 60 998.99 80 1078.99 80 1078.99 100 978.99 100 978.99 0 1078.99 0 1078.99 20 998.99 20"/><polygon class="cls-1" points="538.99 80 538.99 100 438.99 100 438.99 0 458.99 0 458.99 80 538.99 80"/><path class="cls-1" d="M158.99,0a50,50,0,1,0,50,50A50.005,50.005,0,0,0,158.99,0Zm0,80a30,30,0,1,1,30-30A30,30,0,0,1,158.99,80Z"/><path class="cls-1" d="M78.28,60H98.99a50,50,0,1,1,0-20H78.28a30,30,0,1,0,0,20Z"/><path class="cls-1" d="M948.28,60h20.71a50,50,0,1,1,0-20H948.28a30,30,0,1,0,0,20Z"/><path class="cls-1" d="M638.99,0V50a50,50,0,0,1-100,0V0h20V50a30,30,0,0,0,60,0V0Z"/><path class="cls-1" d="M1170,0h-43.986A6.015,6.015,0,0,0,1120,6.014V33.986A6.015,6.015,0,0,0,1126.014,40H1170a10.007,10.007,0,0,1,9.214,6.11,6.162,6.162,0,0,0,5.627,3.89h28.738a5.988,5.988,0,0,0,5.973-6.723A50.017,50.017,0,0,0,1170,0Z"/><path class="cls-1" d="M1154.764,50h-28.738a5.988,5.988,0,0,0-5.973,6.723A50.016,50.016,0,0,0,1169.605,100h43.986a6.015,6.015,0,0,0,6.014-6.014V66.014A6.015,6.015,0,0,0,1213.591,60h-43.986a10.009,10.009,0,0,1-9.215-6.11A6.16,6.16,0,0,0,1154.764,50Z"/><path class="cls-2" d="M1170,0h-43.986A6.015,6.015,0,0,0,1120,6.014V33.986A6.015,6.015,0,0,0,1126.014,40H1170a10.007,10.007,0,0,1,9.214,6.11,6.162,6.162,0,0,0,5.627,3.89h28.738a5.988,5.988,0,0,0,5.973-6.723A50.017,50.017,0,0,0,1170,0Z"/><path class="cls-3" d="M1154.764,50h-28.738a5.988,5.988,0,0,0-5.973,6.723A50.016,50.016,0,0,0,1169.605,100h43.986a6.015,6.015,0,0,0,6.014-6.014V66.014A6.015,6.015,0,0,0,1213.591,60h-43.986a10.009,10.009,0,0,1-9.215-6.11A6.16,6.16,0,0,0,1154.764,50Z"/></g></g></g></svg>