<svg width="614" height="361" viewBox="0 0 614 361" fill="none" xmlns="http://www.w3.org/2000/svg">
<path d="M0 280.008L80 80.0083H120L200 280.008H160L100 120.008L40 280.008H0Z" fill="black"/>
<path d="M60 190.008H140C146.667 203.342 153.333 216.675 160 230.008H40L60 190.008Z" fill="black"/>
<path d="M414 280C440.667 213.333 467.333 146.666 494 79.9995H534C560.667 146.666 587.333 213.333 614 280H574L514 120L454 280H414Z" fill="black"/>
<path d="M474 190H554C560.667 203.333 567.333 216.666 574 230H454L474 190Z" fill="black"/>
<path d="M408 260.008C405.218 315.908 359.874 359.308 308 360.008C262.078 360.624 219.722 327.655 208 280.008H248C258.582 305.017 282.776 320.951 308 320.008C338.381 318.872 365.052 293.447 368 260.008V160.016L408 160.008V260.008Z" fill="black"/>
<path d="M208 100.008C210.782 44.1085 256.126 0.708488 308 0.00848842C353.922 -0.607512 396.278 32.3615 408 80.0085H368C357.418 54.9995 333.224 39.0655 308 40.0085C277.619 41.1445 250.948 66.5695 248 100.008V200.016L208 200.008V100.008Z" fill="black"/>
<path d="M408 119.718V176.258L351.42 232.839C341.99 223.419 332.563 213.992 323.14 204.558L407.99 119.708L408 119.718Z" fill="black"/>
<path d="M208 239.828V183.288L264.58 126.708C274.01 136.128 283.437 145.555 292.86 154.988L208.01 239.839L208 239.828Z" fill="black"/>
</svg>
