<svg width="200" height="361" viewBox="0 0 200 361" fill="none" xmlns="http://www.w3.org/2000/svg">
<path d="M200 260.008C197.218 315.908 151.874 359.308 100 360.008C54.078 360.624 11.722 327.655 0 280.008H40C50.582 305.017 74.776 320.951 100 320.008C130.381 318.872 157.052 293.447 160 260.008V160.016L200 160.008V260.008Z" fill="#366CE1"/>
<path d="M0 100.008C2.782 44.1085 48.126 0.708488 100 0.00848842C145.922 -0.607512 188.278 32.3615 200 80.0085H160C149.418 54.9995 125.224 39.0655 100 40.0085C69.619 41.1445 42.948 66.5695 40 100.008V200.016L0 200.008V100.008Z" fill="#366CE1"/>
<path d="M200 119.718V176.258L143.42 232.839C133.99 223.419 124.563 213.992 115.14 204.558L199.99 119.708L200 119.718Z" fill="#366CE1"/>
<path d="M0 239.828V183.288L56.58 126.708C66.01 136.128 75.4367 145.555 84.86 154.988L0.0100098 239.839L0 239.828Z" fill="#366CE1"/>
</svg>
