<svg width="100" height="145" viewBox="0 0 100 145" fill="none" xmlns="http://www.w3.org/2000/svg">
<path d="M50 44.1934C40.111 44.1934 30.444 47.1258 22.2215 52.6199C13.9991 58.1139 7.59043 65.9229 3.80605 75.0592C0.0216641 84.1955 -0.968503 94.2488 0.960759 103.948C2.89002 113.647 7.65206 122.556 14.6447 129.549C21.6373 136.541 30.5465 141.303 40.2455 143.233C49.9446 145.162 59.9979 144.172 69.1342 140.387C78.2705 136.603 86.0794 130.194 91.5735 121.972C97.0676 113.749 100 104.082 100 94.1934C99.9987 80.9329 94.7304 68.216 85.3539 58.8395C75.9774 49.463 63.2604 44.1947 50 44.1934V44.1934ZM50 134.193C42.0888 134.193 34.3552 131.847 27.7772 127.452C21.1992 123.057 16.0723 116.81 13.0448 109.501C10.0173 102.192 9.2252 94.149 10.7686 86.3897C12.312 78.6305 16.1217 71.5032 21.7158 65.9091C27.3099 60.315 34.4372 56.5054 42.1964 54.9619C49.9557 53.4185 57.9983 54.2107 65.3074 57.2382C72.6164 60.2657 78.8635 65.3926 83.2588 71.9706C87.6541 78.5485 90 86.2821 90 94.1934C90 99.4462 88.9654 104.648 86.9552 109.501C84.945 114.354 81.9986 118.763 78.2843 122.478C74.57 126.192 70.1604 129.138 65.3074 131.149C60.4543 133.159 55.2529 134.193 50 134.193V134.193Z" fill="black"/>
<path d="M55 14.1934H45V144.193H55V14.1934Z" fill="black"/>
<path d="M100 99.1934V89.1934H7.62939e-06V99.1934H100Z" fill="black"/>
<path d="M29.3297 48.3926L20.6694 53.3926L70.6694 139.995L79.3297 134.995L29.3297 48.3926Z" fill="black"/>
<path d="M95.8018 73.523L90.8018 64.8628L4.19923 114.863L9.19923 123.523L95.8018 73.523Z" fill="black"/>
<path d="M9.19824 64.8634L4.19824 73.5237L90.8008 123.524L95.8008 114.863L9.19824 64.8634Z" fill="black"/>
<path d="M79.3285 53.3914L70.6685 48.3914L20.6685 134.991L29.3285 139.991L79.3285 53.3914Z" fill="black"/>
<path d="M60 24.1934H50V84.1934H60V24.1934Z" fill="black"/>
<path d="M50 24.1934H40V84.1934H50V24.1934Z" fill="black"/>
<path d="M20.0002 4.19316C23.9442 -2.97684 41.1002 0.436159 60.0002 4.19316C72.0222 6.58416 77.5372 9.19916 80.0002 14.1932C81.7602 17.7632 82.1002 22.8262 80.0002 24.1932C76.5122 26.4642 70.8162 14.9742 60.0002 14.1932C45.8772 13.1742 39.6472 27.1602 30.0002 24.1932C22.3092 21.8282 16.8672 9.88816 20.0002 4.19316Z" fill="black"/>
</svg>
