<svg width="609" height="145" viewBox="0 0 609 145" fill="none" xmlns="http://www.w3.org/2000/svg">
<path d="M559 44.1934C549.111 44.1934 539.444 47.1258 531.222 52.6199C522.999 58.1139 516.59 65.9229 512.806 75.0592C509.022 84.1955 508.031 94.2488 509.961 103.948C511.89 113.647 516.652 122.556 523.645 129.549C530.637 136.541 539.546 141.303 549.246 143.233C558.945 145.162 568.998 144.172 578.134 140.387C587.27 136.603 595.079 130.194 600.574 121.972C606.068 113.749 609 104.082 609 94.1934C608.999 80.9329 603.73 68.216 594.354 58.8395C584.977 49.463 572.26 44.1947 559 44.1934V44.1934ZM559 134.193C551.089 134.193 543.355 131.847 536.777 127.452C530.199 123.057 525.072 116.81 522.045 109.501C519.017 102.192 518.225 94.149 519.769 86.3897C521.312 78.6305 525.122 71.5032 530.716 65.9091C536.31 60.315 543.437 56.5054 551.196 54.9619C558.956 53.4185 566.998 54.2107 574.307 57.2382C581.616 60.2657 587.864 65.3926 592.259 71.9706C596.654 78.5485 599 86.2821 599 94.1934C599 99.4462 597.965 104.648 595.955 109.501C593.945 114.354 590.999 118.763 587.284 122.478C583.57 126.192 579.16 129.138 574.307 131.149C569.454 133.159 564.253 134.193 559 134.193V134.193Z" fill="black"/>
<path d="M564 14.1934H554V144.193H564V14.1934Z" fill="black"/>
<path d="M609 99.1934V89.1934H509V99.1934H609Z" fill="black"/>
<path d="M538.33 48.3926L529.669 53.3926L579.669 139.995L588.33 134.995L538.33 48.3926Z" fill="black"/>
<path d="M604.802 73.523L599.802 64.8628L513.199 114.863L518.199 123.523L604.802 73.523Z" fill="black"/>
<path d="M518.198 64.8634L513.198 73.5237L599.801 123.524L604.801 114.863L518.198 64.8634Z" fill="black"/>
<path d="M588.328 53.3914L579.668 48.3914L529.668 134.991L538.328 139.991L588.328 53.3914Z" fill="black"/>
<path d="M569 24.1934H559V84.1934H569V24.1934Z" fill="black"/>
<path d="M559 24.1934H549V84.1934H559V24.1934Z" fill="black"/>
<path d="M529 4.19316C532.944 -2.97684 550.1 0.436159 569 4.19316C581.022 6.58416 586.537 9.19916 589 14.1932C590.76 17.7632 591.1 22.8262 589 24.1932C585.512 26.4642 579.816 14.9742 569 14.1932C554.877 13.1742 548.647 27.1602 539 24.1932C531.309 21.8282 525.867 9.88816 529 4.19316Z" fill="black"/>
<path d="M44.2902 82.1934C43.2202 78.8534 42.1102 75.5234 41.0002 72.1934C36.8802 59.8334 32.7502 47.4634 31.0002 35.1034C32.1802 27.5123 32.1802 19.7844 31.0002 12.1934H21.0002C19.8202 19.7844 19.8202 27.5123 21.0002 35.1034C19.2502 47.4634 15.1202 59.8334 11.0002 72.1934C9.89021 75.5234 8.78022 78.8534 7.71022 82.1934C2.39022 98.8534 -1.77979 115.523 1.00021 132.193H11.0002C8.22021 115.523 12.3902 98.8534 17.7102 82.1934H34.2902C39.6102 98.8534 43.7802 115.523 41.0002 132.193H51.0002C53.7802 115.523 49.6102 98.8534 44.2902 82.1934ZM21.0002 72.1934C22.7202 67.0234 24.4502 61.8534 26.0002 56.6834C27.5502 61.8534 29.2802 67.0234 31.0002 72.1934H21.0002Z" fill="black"/>
<path d="M321.887 12.1934H311.887C305.22 52.1934 338.553 92.1934 331.887 132.193H341.887C348.553 92.1934 315.22 52.1934 321.887 12.1934Z" fill="black"/>
<path d="M250.113 12.1934H240.113C233.447 52.1934 266.78 92.1934 260.113 132.193H270.113C276.78 92.1934 243.447 52.1934 250.113 12.1934Z" fill="black"/>
<path d="M141.887 12.1934H131.887C125.22 52.1934 158.553 92.1934 151.887 132.193H161.887C168.553 92.1934 135.22 52.1934 141.887 12.1934Z" fill="black"/>
<path d="M350.113 12.1934H340.113C333.447 52.1934 366.78 92.1934 360.113 132.193H370.113C376.78 92.1934 343.447 52.1934 350.113 12.1934Z" fill="black"/>
<path d="M390.113 12.1934H380.113C373.447 52.1934 406.78 92.1934 400.113 132.193H410.113C416.78 92.1934 383.447 52.1934 390.113 12.1934Z" fill="black"/>
<path d="M101.887 12.1934H91.8872C85.2202 52.1934 118.553 42.1934 111.887 82.1934H121.887C128.553 42.1934 95.2202 52.1934 101.887 12.1934Z" fill="black"/>
<path d="M380.113 12.1934H390.113C396.78 52.1934 363.447 92.1934 370.113 132.193H360.113C353.447 92.1934 386.78 52.1934 380.113 12.1934Z" fill="black"/>
<path d="M91.8872 12.1934H101.887C108.553 52.1934 75.2202 92.1934 81.8872 132.193H71.8872C65.2202 92.1934 98.5532 52.1934 91.8872 12.1934Z" fill="black"/>
<path d="M230.5 72.1934C227.517 69.2769 224.04 66.9135 220.23 65.2134C221.345 64.2868 222.388 63.2773 223.35 62.1934C227.21 57.8775 229.739 52.5367 230.631 46.8154C231.523 41.0942 230.741 35.2371 228.378 29.9508C226.015 24.6645 222.172 20.175 217.314 17.0241C212.456 13.8731 206.79 12.1954 201 12.1934H161.89C161.344 15.4996 161.049 18.8425 161.01 22.1934C160.79 37.9734 165.76 53.7534 171 69.5334C171.3 70.4234 171.59 71.3034 171.89 72.1934C172.89 75.1934 173.89 78.1934 174.86 81.2034C179.25 94.8634 182.96 108.523 182.77 122.193C182.77 122.583 182.76 122.973 182.75 123.363C182.661 126.323 182.374 129.273 181.89 132.193H206C212.953 132.194 219.749 130.124 225.521 126.247C231.293 122.37 235.779 116.862 238.408 110.424C241.036 103.987 241.688 96.913 240.28 90.1039C238.871 83.2949 235.467 77.0596 230.5 72.1934V72.1934ZM178.57 62.0934C175.585 53.2735 173.347 44.2183 171.88 35.0234C171.257 30.7758 170.966 26.4861 171.01 22.1934H201C206.304 22.1934 211.391 24.3005 215.142 28.0512C218.893 31.802 221 36.889 221 42.1934C221 47.4977 218.893 52.5848 215.142 56.3355C211.391 60.0862 206.304 62.1934 201 62.1934H178.6C178.587 62.1634 178.577 62.1334 178.567 62.0934H178.57ZM206 122.193H192.77C192.79 120.913 192.77 119.643 192.73 118.373C192.29 106.573 189.17 94.7834 185.43 82.9934C184.29 79.3934 183.09 75.7934 181.89 72.1934H206C212.63 72.1934 218.989 74.8273 223.678 79.5157C228.366 84.2041 231 90.5629 231 97.1934C231 103.824 228.366 110.183 223.678 114.871C218.989 119.559 212.63 122.193 206 122.193V122.193Z" fill="black"/>
<path d="M131.887 12.1934H141.887C148.553 52.1934 115.22 42.1934 121.887 82.1934H111.887C105.22 42.1934 138.553 52.1934 131.887 12.1934Z" fill="black"/>
<path d="M311 122.193H261V132.193H311V122.193Z" fill="black"/>
</svg>
