<svg width="1320" height="210" viewBox="0 0 1320 210" fill="none" xmlns="http://www.w3.org/2000/svg">
<path d="M1320 206.605H1085.36C1108.57 130.856 1148.68 61.3714 1202.68 3.3999C1200.06 15.6409 1188.69 75.0689 1225.36 133.4C1257.62 184.71 1306.35 202.211 1320 206.605Z" fill="#121221"/>
<path d="M1165.36 206.605H1000C1015.64 152.914 1044 103.789 1082.68 63.3999C1081.11 72.0999 1073.24 120.581 1105.36 163.4C1126.38 191.417 1153.73 202.612 1165.36 206.605Z" fill="#1C62EC"/>
<path d="M808.99 0H758.99V100H808.99C822.251 100 834.969 94.7322 844.346 85.3553C853.722 75.9785 858.99 63.2608 858.99 50C858.99 36.7392 853.722 24.0215 844.346 14.6447C834.969 5.26784 822.251 0 808.99 0V0ZM808.99 80H778.99V20H808.99C816.947 20 824.577 23.1607 830.203 28.7868C835.83 34.4129 838.99 42.0435 838.99 50C838.99 57.9565 835.83 65.5871 830.203 71.2132C824.577 76.8393 816.947 80 808.99 80Z" fill="#121221"/>
<path d="M320 30C320 22.0435 316.839 14.4129 311.213 8.7868C305.587 3.16071 297.956 0 290 0L220 0V100H240V60H290C292.652 60 295.196 61.0536 297.071 62.9289C298.946 64.8043 300 67.3478 300 70V100H320V70C320.01 62.6169 317.285 55.4917 312.35 50C317.285 44.5083 320.01 37.3831 320 30V30ZM240 40V20H290C292.652 20 295.196 21.0536 297.071 22.9289C298.946 24.8043 300 27.3478 300 30C300 32.6522 298.946 35.1957 297.071 37.0711C295.196 38.9464 292.652 40 290 40H240Z" fill="#121221"/>
<path d="M430 30C430 22.0435 426.839 14.4129 421.213 8.7868C415.587 3.16071 407.956 0 400 0L330 0V100H350V60H400C402.652 60 405.196 61.0536 407.071 62.9289C408.946 64.8043 410 67.3478 410 70V100H430V70C430.01 62.6169 427.285 55.4917 422.35 50C427.285 44.5083 430.01 37.3831 430 30V30ZM350 40V20H400C402.652 20 405.196 21.0536 407.071 22.9289C408.946 24.8043 410 27.3478 410 30C410 32.6522 408.946 35.1957 407.071 37.0711C405.196 38.9464 402.652 40 400 40H350Z" fill="#121221"/>
<path d="M618.28 60.0001H638.99C636.512 72.1405 629.614 82.9283 619.634 90.2721C609.654 97.6158 597.303 100.992 584.975 99.7469C572.647 98.5015 561.22 92.723 552.91 83.5316C544.601 74.3403 540 62.3909 540 50.0001C540 37.6093 544.601 25.6599 552.91 16.4686C561.22 7.27721 572.647 1.49869 584.975 0.253305C597.303 -0.992078 609.654 2.3844 619.634 9.72814C629.614 17.0719 636.512 27.8597 638.99 40.0001H618.28C615.921 33.328 611.279 27.7046 605.175 24.1238C599.071 20.543 591.897 19.2354 584.922 20.4322C577.948 21.6289 571.62 25.2528 567.059 30.6635C562.497 36.0742 559.996 42.9232 559.996 50.0001C559.996 57.077 562.497 63.926 567.059 69.3367C571.62 74.7474 577.948 78.3714 584.922 79.5681C591.897 80.7648 599.071 79.4572 605.175 75.8764C611.279 72.2957 615.921 66.6723 618.28 60.0001V60.0001Z" fill="#121221"/>
<path d="M100 30C100 22.0435 96.8393 14.4129 91.2132 8.7868C85.5871 3.16071 77.9565 0 70 0L0 0V100H70C75.7921 100.002 81.4607 98.3264 86.3212 95.1762C91.1816 92.026 95.0259 87.5357 97.3895 82.2479C99.7532 76.9601 100.535 71.101 99.6408 65.3784C98.7465 59.6558 96.2143 54.3145 92.35 50C97.2847 44.5083 100.01 37.3831 100 30V30ZM20 20H70C72.6522 20 75.1957 21.0536 77.0711 22.9289C78.9464 24.8043 80 27.3478 80 30C80 32.6522 78.9464 35.1957 77.0711 37.0711C75.1957 38.9464 72.6522 40 70 40H20V20ZM70 80H20V60H70C72.6522 60 75.1957 61.0536 77.0711 62.9289C78.9464 64.8043 80 67.3478 80 70C80 72.6522 78.9464 75.1957 77.0711 77.0711C75.1957 78.9464 72.6522 80 70 80Z" fill="#121221"/>
<path d="M170.77 1.95L169.99 0H150.01L149.23 1.94L110 100H131.55L142.75 72H177.25L188.45 100H210L170.77 1.95ZM150.75 52L160 28.87L169.25 52H150.75Z" fill="#121221"/>
<path d="M500.77 1.95L499.99 0H480.01L479.23 1.94L440 100H461.55L472.75 72H507.25L518.45 100H540L500.77 1.95ZM480.75 52L490 28.87L499.25 52H480.75Z" fill="#121221"/>
<path d="M919.76 1.95L918.98 0H899L898.22 1.94L858.99 100H880.54L891.74 72H926.24L937.44 100H958.99L919.76 1.95ZM899.74 52L908.99 28.87L918.24 52H899.74Z" fill="#121221"/>
<path d="M100 110V210H80L20 140.59V210H0V110H20L80 179.41V110H100Z" fill="#1C62EC"/>
<path d="M790 140C790 142.652 791.054 145.196 792.929 147.071C794.804 148.946 797.348 150 800 150H840C847.956 150 855.587 153.161 861.213 158.787C866.839 164.413 870 172.044 870 180C870 187.956 866.839 195.587 861.213 201.213C855.587 206.839 847.956 210 840 210H770V190H840C842.652 190 845.196 188.946 847.071 187.071C848.946 185.196 850 182.652 850 180C850 177.348 848.946 174.804 847.071 172.929C845.196 171.054 842.652 170 840 170H800C792.044 170 784.413 166.839 778.787 161.213C773.161 155.587 770 147.956 770 140C770 132.044 773.161 124.413 778.787 118.787C784.413 113.161 792.044 110 800 110H870V130H800C797.348 130 794.804 131.054 792.929 132.929C791.054 134.804 790 137.348 790 140Z" fill="#1C62EC"/>
<path d="M130 130V150H210V170H130V190H210V210H110V110H210V130H130Z" fill="#1C62EC"/>
<path d="M660 140C660 132.044 656.839 124.413 651.213 118.787C645.587 113.161 637.956 110 630 110H560V210H580V170H630C632.652 170 635.196 171.054 637.071 172.929C638.946 174.804 640 177.348 640 180V210H660V180C660.01 172.617 657.285 165.492 652.35 160C657.285 154.508 660.01 147.383 660 140V140ZM580 150V130H630C632.652 130 635.196 131.054 637.071 132.929C638.946 134.804 640 137.348 640 140C640 142.652 638.946 145.196 637.071 147.071C635.196 148.946 632.652 150 630 150H580Z" fill="#1C62EC"/>
<path d="M500 110C490.111 110 480.444 112.932 472.222 118.427C463.999 123.921 457.59 131.73 453.806 140.866C450.022 150.002 449.031 160.055 450.961 169.755C452.89 179.454 457.652 188.363 464.645 195.355C471.637 202.348 480.546 207.11 490.246 209.039C499.945 210.969 509.998 209.978 519.134 206.194C528.27 202.41 536.079 196.001 541.574 187.779C547.068 179.556 550 169.889 550 160C549.999 146.74 544.73 134.023 535.354 124.646C525.977 115.27 513.26 110.001 500 110ZM500 190C494.067 190 488.266 188.241 483.333 184.944C478.399 181.648 474.554 176.962 472.284 171.48C470.013 165.999 469.419 159.967 470.576 154.147C471.734 148.328 474.591 142.982 478.787 138.787C482.982 134.591 488.328 131.734 494.147 130.576C499.967 129.419 505.999 130.013 511.481 132.284C516.962 134.554 521.648 138.399 524.944 143.333C528.241 148.266 530 154.067 530 160C530 167.956 526.839 175.587 521.213 181.213C515.587 186.839 507.957 190 500 190V190Z" fill="#1C62EC"/>
<path d="M770 209.99V210H740.13L699.51 173.43L690 182V210H670V110H690V155.09L699.51 146.52L740.07 110H769.97L714.46 159.98L770 209.99Z" fill="#1C62EC"/>
<path d="M429.26 110L414.8 167.86L400.24 111.15L399.94 110H385.03L385 110.11V110H379.88L379.59 111.16L365.05 167.75L350.62 110H330V110.02L354.61 208.43L355 210H374.86L375.24 208.5L389.91 151.37L404.61 208.61L404.96 210H419.99L420 209.96V210H424.87L425.24 208.54L449.88 110H429.26ZM410 160.99V161.03L409.98 160.99H410ZM410 208.52L409.81 209.13L410 208.49V208.52Z" fill="#1C62EC"/>
<path d="M410 161.03L409.98 160.99H410V161.03Z" fill="#1C62EC"/>
<path d="M410 208.52L409.81 209.13L410 208.49V208.52Z" fill="#1C62EC"/>
<path d="M410 208.52L409.81 209.13L410 208.49V208.52Z" fill="#1C62EC"/>
<path d="M320 110V130H280V210H260V130H220V110H320Z" fill="#1C62EC"/>
<path d="M748.99 0V50C748.99 63.2608 743.722 75.9785 734.346 85.3553C724.969 94.7322 712.251 100 698.99 100C685.729 100 673.012 94.7322 663.635 85.3553C654.258 75.9785 648.99 63.2608 648.99 50V0H668.99V50C668.99 57.9565 672.151 65.5871 677.777 71.2132C683.403 76.8393 691.034 80 698.99 80C706.947 80 714.577 76.8393 720.203 71.2132C725.83 65.5871 728.99 57.9565 728.99 50V0H748.99Z" fill="#121221"/>
</svg>
