<svg width="1410" height="366" viewBox="0 0 1410 366" fill="none" xmlns="http://www.w3.org/2000/svg">
<path d="M237.093 132.297V231.519H259.297V264.593H182.733V231.519H204.033V132.297H182.733V99.2227H259.297V132.297H237.093Z" fill="black"/>
<path d="M698.107 132.297V231.519H720.312V264.593H643.748V231.519H665.048V132.297H643.748V99.2227H720.312V132.297H698.107Z" fill="black"/>
<path d="M907.89 99.2227V264.593H874.83L775.651 149.81V264.593H742.591V99.2227H775.651L874.83 214.006V99.2227H907.89Z" fill="black"/>
<path d="M442.936 231.519V264.593H277.637V99.2227H310.697V231.519H442.936Z" fill="black"/>
<path d="M624.764 231.519V264.593H459.465V99.2227H492.525V231.519H624.764Z" fill="black"/>
<path d="M165.299 148.834C165.299 135.676 160.074 123.057 150.774 113.753C141.475 104.45 128.861 99.2227 115.709 99.2227H0V264.593H115.709C125.283 264.596 134.654 261.826 142.688 256.616C150.722 251.407 157.077 243.981 160.984 235.237C164.891 226.492 166.183 216.803 164.705 207.339C163.227 197.876 159.041 189.043 152.654 181.908C160.811 172.826 165.316 161.043 165.299 148.834V148.834ZM33.0598 132.297H115.709C120.093 132.297 124.298 134.039 127.398 137.14C130.498 140.242 132.239 144.448 132.239 148.834C132.239 153.22 130.498 157.426 127.398 160.527C124.298 163.629 120.093 165.371 115.709 165.371H33.0598V132.297ZM115.709 231.519H33.0598V198.445H115.709C120.093 198.445 124.298 200.187 127.398 203.289C130.498 206.39 132.239 210.596 132.239 214.982C132.239 219.368 130.498 223.574 127.398 226.676C124.298 229.777 120.093 231.519 115.709 231.519Z" fill="black"/>
<path d="M1089.72 165.371V181.908C1089.73 187.463 1089.17 193.004 1088.05 198.445C1084.37 216.496 1074.78 232.802 1060.78 244.777C1046.79 256.752 1029.2 263.711 1010.81 264.551C992.414 265.39 974.266 260.061 959.242 249.409C944.218 238.757 933.179 223.393 927.875 205.751C922.572 188.11 923.307 169.202 929.965 152.027C936.622 134.851 948.821 120.391 964.627 110.939C980.432 101.487 998.939 97.5847 1017.21 99.851C1035.49 102.117 1052.48 110.422 1065.5 123.449L1042.13 146.833C1034.53 139.226 1024.66 134.298 1014.02 132.789C1003.37 131.281 992.525 133.274 983.111 138.469C973.697 143.664 966.225 151.778 961.822 161.591C957.418 171.403 956.322 182.381 958.697 192.871C961.072 203.361 966.791 212.795 974.991 219.75C983.191 226.706 993.429 230.808 1004.16 231.437C1014.89 232.065 1025.54 229.188 1034.5 223.237C1043.45 217.287 1050.23 208.586 1053.82 198.445H1007.07V165.371H1089.72Z" fill="black"/>
<path d="M1371.98 0H1140.56V330.741H1371.98V0Z" fill="black"/>
<path opacity="0.62" d="M1390.16 16.5371H1158.75V347.278H1390.16V16.5371Z" fill="black"/>
<path opacity="0.38" d="M1410 34.7285H1178.58V365.47H1410V34.7285Z" fill="black"/>
</svg>
