<svg width="920" height="110" viewBox="0 0 920 110" fill="none" xmlns="http://www.w3.org/2000/svg">
<path d="M177 5H153C132.013 5 115 22.0132 115 43V67C115 87.9868 132.013 105 153 105H177C197.987 105 215 87.9868 215 67V43C215 22.0132 197.987 5 177 5Z" fill="#5E5E5E" stroke="black" stroke-width="10" stroke-miterlimit="10"/>
<path d="M277 5H253C232.013 5 215 22.0132 215 43V67C215 87.9868 232.013 105 253 105H277C297.987 105 315 87.9868 315 67V43C315 22.0132 297.987 5 277 5Z" fill="#5E5E5E" stroke="black" stroke-width="10" stroke-miterlimit="10"/>
<path d="M377 5H353C332.013 5 315 22.0132 315 43V67C315 87.9868 332.013 105 353 105H377C397.987 105 415 87.9868 415 67V43C415 22.0132 397.987 5 377 5Z" fill="#5E5E5E" stroke="black" stroke-width="10" stroke-miterlimit="10"/>
<path d="M477 5H453C432.013 5 415 22.0132 415 43V67C415 87.9868 432.013 105 453 105H477C497.987 105 515 87.9868 515 67V43C515 22.0132 497.987 5 477 5Z" fill="#5E5E5E" stroke="black" stroke-width="10" stroke-miterlimit="10"/>
<path d="M577 5H553C532.013 5 515 22.0132 515 43V67C515 87.9868 532.013 105 553 105H577C597.987 105 615 87.9868 615 67V43C615 22.0132 597.987 5 577 5Z" fill="#5E5E5E" stroke="black" stroke-width="10" stroke-miterlimit="10"/>
<path d="M677 5H653C632.013 5 615 22.0132 615 43V67C615 87.9868 632.013 105 653 105H677C697.987 105 715 87.9868 715 67V43C715 22.0132 697.987 5 677 5Z" fill="#5E5E5E" stroke="black" stroke-width="10" stroke-miterlimit="10"/>
<path d="M777 5H753C732.013 5 715 22.0132 715 43V67C715 87.9868 732.013 105 753 105H777C797.987 105 815 87.9868 815 67V43C815 22.0132 797.987 5 777 5Z" fill="#5E5E5E" stroke="black" stroke-width="10" stroke-miterlimit="10"/>
<path d="M877 5H853C832.013 5 815 22.0132 815 43V67C815 87.9868 832.013 105 853 105H877C897.987 105 915 87.9868 915 67V43C915 22.0132 897.987 5 877 5Z" fill="#5E5E5E" stroke="black" stroke-width="10" stroke-miterlimit="10"/>
<path d="M165 25C153.95 25 145 38.43 145 55C145 71.57 153.95 85 165 85C176.05 85 185 71.57 185 55C185 38.43 176.05 25 165 25ZM165 75C159.48 75 155 66.05 155 55C155 43.95 159.48 35 165 35C170.52 35 175 43.95 175 55C175 66.05 170.52 75 165 75Z" fill="white"/>
<path d="M265 25C253.95 25 245 38.43 245 55C245 71.57 253.95 85 265 85C276.05 85 285 71.57 285 55C285 38.43 276.05 25 265 25ZM265 75C259.48 75 255 66.05 255 55C255 43.95 259.48 35 265 35C270.52 35 275 43.95 275 55C275 66.05 270.52 75 265 75Z" fill="white"/>
<path d="M385 25V35H370V85H360V35H345V25H385Z" fill="white"/>
<path d="M585 25V35H570V85H560V35H545V25H585Z" fill="white"/>
<path d="M485 67.5C485 77.16 476.05 85 465 85C453.95 85 445 77.16 445 67.5C445 66.2458 445.155 64.9964 445.46 63.78L455.37 69.5C456.53 72.67 460.4 75 465 75C470.52 75 475 71.64 475 67.5C475 63.36 470.52 60 465 60C459.891 60.0481 454.931 58.2756 451.01 55C449.158 53.4798 447.661 51.5735 446.623 49.4144C445.585 47.2553 445.031 44.8955 445 42.5C445 32.84 453.95 25 465 25C476.05 25 485 32.84 485 42.5C485.002 43.7648 484.844 45.0247 484.53 46.25L474.65 40.55C473.51 37.35 469.62 35 465 35C459.48 35 455 38.36 455 42.5C455 46.64 459.48 50 465 50C470.109 49.9519 475.069 51.7244 478.99 55C480.842 56.5202 482.339 58.4265 483.377 60.5856C484.415 62.7447 484.969 65.1045 485 67.5Z" fill="white"/>
<path d="M685 45C685 33.95 671.57 25 655 25H645V85H655V65C657.128 65.0008 659.254 64.8471 661.36 64.54C665.91 71.36 670.457 78.18 675 85H685C679.96 77.45 674.927 69.9 669.9 62.35C678.93 58.91 685 52.43 685 45ZM655 35C666.05 35 675 39.48 675 45C675 50.52 666.05 55 655 55V35Z" fill="white"/>
<path d="M780 57.4229C778.333 47.4229 776.667 37.4229 775 27.4229H755C753.34 37.4229 751.673 47.4229 750 57.4229C748.327 67.4229 746.66 77.4228 745 87.4228H755C756.333 80.7515 757.667 74.0848 759 67.4228H771C772.333 74.0895 773.667 80.7562 775 87.4228H785C783.34 77.4228 781.673 67.4229 780 57.4229ZM761 57.4229C762.333 50.7522 763.667 44.0855 765 37.4229C766.333 44.0895 767.667 50.7562 769 57.4229H761Z" fill="white"/>
<path d="M855 25H845V85H855V65C871.57 65 885 56.05 885 45C885 33.95 871.57 25 855 25ZM855 55V35C866.05 35 875 39.48 875 45C875 50.52 866.05 55 855 55Z" fill="white"/>
<path d="M67 5H43C22.0132 5 5 22.0132 5 43V67C5 87.9868 22.0132 105 43 105H67C87.9868 105 105 87.9868 105 67V43C105 22.0132 87.9868 5 67 5Z" fill="#366CE1" stroke="black" stroke-width="10" stroke-miterlimit="10"/>
<path d="M67.2752 48.35C69.4614 46.0875 70.7009 43.1089 70.75 40C70.75 31.72 61.5762 25 50.25 25H40V85H50.25C67.2342 85 81 76.05 81 65C81 58.05 75.547 51.93 67.2752 48.35ZM50.25 35C55.908 35 60.5 37.24 60.5 40C60.5 42.76 55.908 45 50.25 45V35ZM50.25 75V55C61.5762 55 70.75 59.48 70.75 65C70.75 70.52 61.5762 75 50.25 75Z" fill="white"/>
</svg>
