<svg width="226" height="226" viewBox="0 0 226 226" fill="none" xmlns="http://www.w3.org/2000/svg">
<path d="M138.92 5H87.08C41.7485 5 5 41.7485 5 87.08V138.92C5 184.252 41.7485 221 87.08 221H138.92C184.252 221 221 184.252 221 138.92V87.08C221 41.7485 184.252 5 138.92 5Z" fill="#366CE1" stroke="black" stroke-width="10" stroke-miterlimit="10"/>
<path d="M138.212 98.5917C142.797 93.6896 145.397 87.236 145.5 80.5C145.5 62.56 126.258 48 102.5 48H81V178H102.5C138.126 178 167 158.608 167 134.667C167 119.608 155.562 106.348 138.212 98.5917ZM102.5 69.6667C114.368 69.6667 124 74.52 124 80.5C124 86.48 114.368 91.3333 102.5 91.3333V69.6667ZM102.5 156.333V113C126.258 113 145.5 122.707 145.5 134.667C145.5 146.627 126.258 156.333 102.5 156.333Z" fill="white"/>
</svg>
