<svg width="1155" height="257" viewBox="0 0 1155 257" fill="none" xmlns="http://www.w3.org/2000/svg">
<path d="M1111.2 171.724L1098.98 162.809C1090.1 176.038 1081.22 189.271 1072.33 202.506C1068.42 200.165 1064.02 198.768 1059.47 198.425C1054.93 198.082 1050.37 198.804 1046.15 200.532C1032.02 179.515 1017.89 158.504 1003.74 137.501C1006.5 134.611 1008.63 131.189 1010.01 127.444C1011.4 123.7 1012 119.712 1011.79 115.726C1011.57 111.74 1010.55 107.84 1008.77 104.265C1006.99 100.691 1004.5 97.5168 1001.46 94.9388C1003.02 83.9123 1004.58 72.8857 1006.13 61.8592C1001.5 58.6333 996.875 55.4107 992.248 52.1914C990.508 64.2346 988.768 76.281 987.028 88.3307C985.531 88.0944 984.018 87.9767 982.502 87.9788C974.725 87.9788 967.266 91.0685 961.766 96.5682C956.266 102.068 953.176 109.527 953.176 117.305C953.175 118.609 953.264 119.912 953.44 121.205C943.724 124.538 934.007 127.865 924.29 131.186C921.184 125.093 916.834 119.719 911.522 115.413C906.209 111.106 900.052 107.961 893.449 106.182C886.845 104.403 879.942 104.03 873.185 105.085C866.428 106.14 859.968 108.602 854.221 112.31C842.901 97.3142 831.581 82.3156 820.262 67.3138L807.368 78.7118C818.844 93.7658 830.314 108.817 841.777 123.864C835.325 132.348 831.839 142.717 831.855 153.376C831.855 156.569 832.166 159.754 832.784 162.887C813.194 166.66 793.598 170.434 773.995 174.207C775.325 178.782 776.647 183.353 777.964 187.922C797.671 183.748 817.384 179.58 837.105 175.419C842.439 185.968 851.416 194.226 862.372 198.665C873.328 203.103 885.521 203.421 896.694 199.56C907.866 195.698 917.261 187.919 923.138 177.663C929.016 167.407 930.977 155.368 928.66 143.776C938.5 140.414 948.341 137.051 958.181 133.688C961.828 139.098 967.174 143.138 973.373 145.171C979.573 147.203 986.273 147.111 992.415 144.91C1006.27 166.543 1020.13 188.179 1034 209.818C1030.75 214.049 1028.72 219.084 1028.12 224.383C1027.52 229.682 1028.38 235.044 1030.6 239.892C1032.82 244.74 1036.33 248.89 1040.73 251.896C1045.14 254.902 1050.28 256.651 1055.6 256.953C1060.92 257.255 1066.23 256.1 1070.95 253.611C1075.66 251.123 1079.61 247.395 1082.37 242.83C1085.12 238.265 1086.58 233.034 1086.59 227.701C1086.59 222.369 1085.14 217.136 1082.4 212.565C1092.01 198.958 1101.61 185.344 1111.2 171.724ZM880.732 182.701C874.932 182.701 869.262 180.981 864.439 177.758C859.616 174.536 855.858 169.956 853.638 164.597C851.418 159.239 850.838 153.342 851.969 147.653C853.101 141.965 855.894 136.739 859.995 132.638C864.096 128.537 869.322 125.744 875.01 124.612C880.699 123.481 886.596 124.061 891.954 126.281C897.313 128.501 901.893 132.259 905.115 137.082C908.338 141.905 910.058 147.575 910.058 153.375C910.058 161.152 906.968 168.612 901.468 174.111C895.969 179.611 888.509 182.701 880.732 182.701ZM982.502 127.079C980.569 127.079 978.679 126.506 977.072 125.432C975.464 124.358 974.211 122.831 973.471 121.045C972.731 119.258 972.538 117.293 972.915 115.397C973.292 113.5 974.223 111.759 975.59 110.392C976.957 109.024 978.699 108.093 980.595 107.716C982.492 107.339 984.457 107.533 986.243 108.273C988.029 109.012 989.556 110.265 990.63 111.873C991.704 113.48 992.278 115.37 992.278 117.304C992.278 119.896 991.248 122.383 989.415 124.216C987.581 126.049 985.095 127.079 982.502 127.079ZM1057.26 237.442C1055.33 237.442 1053.44 236.869 1051.83 235.795C1050.23 234.721 1048.97 233.194 1048.23 231.408C1047.49 229.622 1047.3 227.656 1047.68 225.76C1048.05 223.864 1048.98 222.122 1050.35 220.755C1051.72 219.388 1053.46 218.457 1055.36 218.079C1057.25 217.702 1059.22 217.896 1061 218.636C1062.79 219.376 1064.32 220.629 1065.39 222.236C1066.47 223.844 1067.04 225.734 1067.04 227.667C1067.04 230.26 1066.01 232.746 1064.18 234.579C1062.34 236.412 1059.86 237.442 1057.26 237.442V237.442Z" fill="#121221"/>
<path d="M982.502 127.08C987.901 127.08 992.278 122.703 992.278 117.305C992.278 111.906 987.901 107.529 982.502 107.529C977.104 107.529 972.727 111.906 972.727 117.305C972.727 122.703 977.104 127.08 982.502 127.08Z" fill="#646464"/>
<path d="M1057.26 237.443C1062.66 237.443 1067.04 233.067 1067.04 227.668C1067.04 222.269 1062.66 217.893 1057.26 217.893C1051.87 217.893 1047.49 222.269 1047.49 227.668C1047.49 233.067 1051.87 237.443 1057.26 237.443Z" fill="#646464"/>
<path d="M800.149 30.4438C794.349 30.4438 788.679 32.1638 783.857 35.3862C779.034 38.6085 775.275 43.1886 773.056 48.5472C770.836 53.9058 770.255 59.8023 771.387 65.491C772.518 71.1797 775.311 76.405 779.413 80.5063C783.514 84.6076 788.739 87.4007 794.428 88.5322C800.117 89.6638 806.013 89.083 811.372 86.8634C816.73 84.6438 821.31 80.885 824.533 76.0624C827.755 71.2398 829.475 65.5699 829.475 59.7698C829.475 51.9921 826.385 44.5329 820.886 39.0332C815.386 33.5335 807.927 30.4438 800.149 30.4438V30.4438ZM800.149 69.5451C798.216 69.5451 796.326 68.9718 794.718 67.8976C793.111 66.8235 791.858 65.2968 791.118 63.5106C790.378 61.7244 790.185 59.7589 790.562 57.8627C790.939 55.9665 791.87 54.2247 793.237 52.8576C794.604 51.4905 796.346 50.5595 798.242 50.1823C800.138 49.8051 802.104 49.9987 803.89 50.7386C805.676 51.4784 807.203 52.7314 808.277 54.3389C809.351 55.9464 809.925 57.8364 809.925 59.7698C809.925 62.3623 808.895 64.8487 807.061 66.682C805.228 68.5152 802.742 69.5451 800.149 69.5451V69.5451Z" fill="#646464"/>
<path d="M1012.3 0C1005.53 0 998.913 2.00659 993.287 5.76603C987.661 9.52546 983.275 14.8689 980.686 21.1206C978.096 27.3723 977.419 34.2515 978.739 40.8883C980.059 47.5251 983.318 53.6214 988.102 58.4062C992.887 63.1911 998.984 66.4496 1005.62 67.7697C1012.26 69.0899 1019.14 68.4123 1025.39 65.8228C1031.64 63.2333 1036.98 58.848 1040.74 53.2216C1044.5 47.5952 1046.51 40.9804 1046.51 34.2136C1046.51 25.1396 1042.9 16.4372 1036.49 10.0209C1030.07 3.60463 1021.37 0 1012.3 0V0ZM1012.3 48.8765C1009.4 48.8765 1006.56 48.0166 1004.15 46.4054C1001.74 44.7942 999.858 42.5042 998.748 39.8248C997.639 37.1455 997.348 34.1973 997.914 31.353C998.48 28.5086 999.876 25.8959 1001.93 23.8453C1003.98 21.7946 1006.59 20.3981 1009.43 19.8324C1012.28 19.2666 1015.23 19.557 1017.91 20.6668C1020.59 21.7766 1022.88 23.656 1024.49 26.0673C1026.1 28.4786 1026.96 31.3135 1026.96 34.2136C1026.96 38.102 1025.41 41.8309 1022.66 44.5804C1019.91 47.33 1016.18 48.8752 1012.3 48.8765V48.8765Z" fill="#646464"/>
<path d="M1120.04 115.5C1113.27 115.5 1106.66 117.506 1101.03 121.266C1095.4 125.025 1091.02 130.368 1088.43 136.62C1085.84 142.872 1085.16 149.751 1086.48 156.388C1087.8 163.025 1091.06 169.121 1095.84 173.906C1100.63 178.691 1106.73 181.949 1113.36 183.269C1120 184.589 1126.88 183.912 1133.13 181.322C1139.38 178.733 1144.73 174.348 1148.48 168.721C1152.24 163.095 1154.25 156.48 1154.25 149.713C1154.25 140.639 1150.65 131.937 1144.23 125.52C1137.81 119.104 1129.11 115.5 1120.04 115.5V115.5ZM1120.04 164.376C1117.14 164.376 1114.3 163.516 1111.89 161.905C1109.48 160.294 1107.6 158.004 1106.49 155.324C1105.38 152.645 1105.09 149.697 1105.66 146.852C1106.22 144.008 1107.62 141.395 1109.67 139.345C1111.72 137.294 1114.33 135.898 1117.18 135.332C1120.02 134.766 1122.97 135.056 1125.65 136.166C1128.33 137.276 1130.62 139.155 1132.23 141.567C1133.84 143.978 1134.7 146.813 1134.7 149.713C1134.7 153.602 1133.15 157.33 1130.4 160.08C1127.65 162.829 1123.93 164.375 1120.04 164.376V164.376Z" fill="#646464"/>
<path d="M750.214 153.375C743.447 153.375 736.832 155.381 731.206 159.141C725.579 162.9 721.194 168.243 718.604 174.495C716.015 180.747 715.337 187.626 716.657 194.263C717.978 200.9 721.236 206.996 726.021 211.781C730.806 216.566 736.902 219.824 743.539 221.144C750.176 222.464 757.055 221.787 763.307 219.197C769.558 216.608 774.902 212.223 778.661 206.596C782.421 200.97 784.427 194.355 784.427 187.588C784.427 178.514 780.823 169.812 774.406 163.395C767.99 156.979 759.288 153.375 750.214 153.375V153.375ZM750.214 202.251C747.314 202.251 744.479 201.391 742.067 199.78C739.656 198.169 737.777 195.879 736.667 193.199C735.557 190.52 735.267 187.572 735.832 184.727C736.398 181.883 737.795 179.27 739.845 177.22C741.896 175.169 744.509 173.773 747.353 173.207C750.197 172.641 753.146 172.931 755.825 174.041C758.504 175.151 760.794 177.03 762.405 179.442C764.017 181.853 764.877 184.688 764.877 187.588C764.875 191.477 763.33 195.205 760.58 197.955C757.831 200.705 754.102 202.25 750.214 202.251V202.251Z" fill="#646464"/>
<path d="M430 78.001V178.001H410L350 108.591V178.001H330V78.001H350L410 147.411V78.001H430Z" fill="#121221"/>
<path d="M650 78.001V178.001H630V138.001H570V178.001H550V78.001H570V118.001H630V78.001H650Z" fill="#121221"/>
<path d="M210 108.001C210 100.044 206.839 92.4139 201.213 86.7878C195.587 81.1617 187.956 78.001 180 78.001H110V178.001H130V138.001H180C182.652 138.001 185.196 139.055 187.071 140.93C188.946 142.805 190 145.349 190 148.001V178.001H210V148.001C210.01 140.618 207.285 133.493 202.35 128.001C207.285 122.509 210.01 115.384 210 108.001V108.001ZM130 118.001V98.001H180C182.652 98.001 185.196 99.0545 187.071 100.93C188.946 102.805 190 105.349 190 108.001C190 110.653 188.946 113.197 187.071 115.072C185.196 116.947 182.652 118.001 180 118.001H130Z" fill="#121221"/>
<path d="M518.28 138.001H538.99C536.512 150.141 529.614 160.929 519.634 168.273C509.654 175.616 497.303 178.993 484.975 177.747C472.647 176.502 461.22 170.723 452.91 161.532C444.601 152.341 440 140.391 440 128.001C440 115.61 444.601 103.66 452.91 94.4691C461.22 85.2777 472.647 79.4992 484.975 78.2538C497.303 77.0084 509.654 80.3849 519.634 87.7286C529.614 95.0724 536.512 105.86 538.99 118.001H518.28C515.921 111.328 511.279 105.705 505.175 102.124C499.071 98.5435 491.897 97.2359 484.922 98.4326C477.948 99.6294 471.62 103.253 467.059 108.664C462.497 114.075 459.996 120.924 459.996 128.001C459.996 135.077 462.497 141.927 467.059 147.337C471.62 152.748 477.948 156.372 484.922 157.569C491.897 158.765 499.071 157.458 505.175 153.877C511.279 150.296 515.921 144.673 518.28 138.001V138.001Z" fill="#121221"/>
<path d="M100 108.001C100 100.044 96.8393 92.4139 91.2132 86.7878C85.5871 81.1617 77.9565 78.001 70 78.001H0V178.001H70C75.7921 178.003 81.4607 176.327 86.3212 173.177C91.1816 170.027 95.0259 165.537 97.3895 160.249C99.7532 154.961 100.535 149.102 99.6408 143.379C98.7465 137.657 96.2143 132.316 92.35 128.001C97.2847 122.509 100.01 115.384 100 108.001V108.001ZM20 98.001H70C72.6522 98.001 75.1957 99.0545 77.0711 100.93C78.9464 102.805 80 105.349 80 108.001C80 110.653 78.9464 113.197 77.0711 115.072C75.1957 116.947 72.6522 118.001 70 118.001H20V98.001ZM70 158.001H20V138.001H70C72.6522 138.001 75.1957 139.055 77.0711 140.93C78.9464 142.805 80 145.349 80 148.001C80 150.653 78.9464 153.197 77.0711 155.072C75.1957 156.947 72.6522 158.001 70 158.001Z" fill="#121221"/>
<path d="M280.77 79.95L279.99 78H260.01L259.23 79.94L220 178.001H241.55L252.75 150.001H287.25L298.45 178.001H320L280.77 79.95ZM260.75 130L270 106.87L279.25 130H260.75Z" fill="#121221"/>
</svg>
