<svg width="248" height="145" viewBox="0 0 248 145" fill="none" xmlns="http://www.w3.org/2000/svg">
<path d="M222.833 96.8251L215.938 91.7984C210.933 99.2576 205.925 106.719 200.913 114.182C198.708 112.862 196.226 112.074 193.664 111.88C191.102 111.687 188.53 112.094 186.152 113.068C178.188 101.218 170.218 89.3714 162.242 77.5286C163.795 75.8992 164.998 73.9696 165.778 71.8583C166.558 69.747 166.898 67.4986 166.777 65.2512C166.656 63.0037 166.077 60.8047 165.075 58.7892C164.074 56.7736 162.671 54.9841 160.953 53.5305C161.834 47.3133 162.713 41.0961 163.587 34.8788C160.978 33.06 158.369 31.2429 155.76 29.4277C154.779 36.2182 153.798 43.0105 152.817 49.8046C151.973 49.6713 151.12 49.605 150.265 49.6062C145.88 49.6062 141.674 51.3483 138.573 54.4492C135.472 57.5502 133.73 61.7559 133.73 66.1413C133.73 66.8769 133.779 67.6117 133.879 68.3405C128.4 70.22 122.922 72.0959 117.443 73.968C115.692 70.5326 113.239 67.5028 110.244 65.0745C107.248 62.6461 103.777 60.8731 100.053 59.8701C96.3299 58.867 92.4375 58.6562 88.6276 59.2513C84.8177 59.8464 81.1751 61.2341 77.9349 63.3249C71.5524 54.8699 65.1698 46.413 58.7872 37.9544L51.5172 44.3811C57.988 52.8691 64.4551 61.3553 70.9185 69.8397C67.2807 74.6235 65.3152 80.4698 65.3241 86.4796C65.3242 88.28 65.4995 90.0761 65.8477 91.8425C54.8022 93.9701 43.753 96.0976 32.7002 98.2251C33.4498 100.805 34.1957 103.382 34.938 105.958C46.0496 103.605 57.1649 101.255 68.2839 98.9086C71.2918 104.856 76.3531 109.513 82.5306 112.015C88.7081 114.518 95.5832 114.697 101.883 112.52C108.182 110.343 113.48 105.957 116.793 100.174C120.107 94.3909 121.213 87.6029 119.907 81.0671C125.455 79.1711 131.004 77.275 136.552 75.379C138.608 78.4293 141.622 80.7073 145.118 81.8532C148.614 82.9991 152.391 82.9475 155.854 81.7065C163.664 93.9039 171.48 106.103 179.301 118.304C177.47 120.69 176.325 123.529 175.987 126.517C175.65 129.504 176.133 132.528 177.386 135.261C178.639 137.995 180.613 140.335 183.097 142.03C185.58 143.725 188.479 144.71 191.481 144.881C194.483 145.051 197.475 144.4 200.134 142.997C202.793 141.594 205.02 139.492 206.574 136.918C208.128 134.344 208.95 131.394 208.953 128.388C208.956 125.381 208.139 122.43 206.59 119.853C212.008 112.181 217.422 104.505 222.833 96.8251ZM92.8827 103.014C89.6124 103.014 86.4155 102.044 83.6963 100.228C80.9771 98.4107 78.8577 95.8282 77.6062 92.8068C76.3547 89.7854 76.0273 86.4607 76.6653 83.2532C77.3033 80.0457 78.8781 77.0994 81.1906 74.7869C83.5031 72.4744 86.4494 70.8996 89.6569 70.2616C92.8644 69.6236 96.1891 69.951 99.2105 71.2025C102.232 72.4541 104.814 74.5734 106.631 77.2926C108.448 80.0118 109.418 83.2087 109.418 86.4791C109.418 90.8645 107.676 95.0703 104.575 98.1712C101.474 101.272 97.2681 103.014 92.8827 103.014ZM150.265 71.6525C149.175 71.6525 148.11 71.3293 147.203 70.7236C146.297 70.118 145.59 69.2572 145.173 68.25C144.756 67.2429 144.647 66.1347 144.859 65.0655C145.072 63.9963 145.597 63.0142 146.368 62.2434C147.139 61.4726 148.121 60.9476 149.19 60.735C150.259 60.5223 151.367 60.6315 152.375 61.0486C153.382 61.4658 154.243 62.1722 154.848 63.0786C155.454 63.985 155.777 65.0507 155.777 66.1408C155.777 67.6026 155.196 69.0045 154.163 70.0382C153.129 71.0718 151.727 71.6525 150.265 71.6525ZM192.419 133.88C191.329 133.88 190.263 133.557 189.357 132.951C188.45 132.345 187.744 131.485 187.327 130.477C186.91 129.47 186.801 128.362 187.013 127.293C187.226 126.224 187.751 125.242 188.522 124.471C189.292 123.7 190.275 123.175 191.344 122.962C192.413 122.75 193.521 122.859 194.528 123.276C195.535 123.693 196.396 124.4 197.002 125.306C197.607 126.212 197.931 127.278 197.931 128.368C197.931 129.83 197.35 131.232 196.316 132.266C195.283 133.299 193.881 133.88 192.419 133.88V133.88Z" fill="#121221"/>
<path d="M150.265 71.6529C153.309 71.6529 155.777 69.1852 155.777 66.1411C155.777 63.0971 153.309 60.6294 150.265 60.6294C147.221 60.6294 144.753 63.0971 144.753 66.1411C144.753 69.1852 147.221 71.6529 150.265 71.6529Z" fill="#366CE1"/>
<path d="M192.419 133.88C195.463 133.88 197.931 131.413 197.931 128.369C197.931 125.325 195.463 122.857 192.419 122.857C189.375 122.857 186.907 125.325 186.907 128.369C186.907 131.413 189.375 133.88 192.419 133.88Z" fill="#366CE1"/>
<path d="M47.4468 17.1655C44.1765 17.1655 40.9796 18.1353 38.2604 19.9522C35.5412 21.7691 33.4218 24.3516 32.1703 27.373C30.9188 30.3944 30.5913 33.7191 31.2294 36.9266C31.8674 40.1341 33.4422 43.0804 35.7547 45.3928C38.0671 47.7053 41.0135 49.2802 44.221 49.9182C47.4285 50.5562 50.7531 50.2287 53.7745 48.9772C56.796 47.7257 59.3784 45.6064 61.1953 42.8872C63.0122 40.168 63.982 36.9711 63.982 33.7007C63.982 29.3153 62.2399 25.1095 59.139 22.0086C56.038 18.9076 51.8322 17.1655 47.4468 17.1655V17.1655ZM47.4468 39.2124C46.3567 39.2124 45.2911 38.8892 44.3847 38.2835C43.4783 37.6779 42.7718 36.8171 42.3546 35.81C41.9375 34.8028 41.8283 33.6946 42.041 32.6254C42.2537 31.5563 42.7786 30.5742 43.5494 29.8033C44.3203 29.0325 45.3024 28.5076 46.3715 28.2949C47.4407 28.0822 48.5489 28.1914 49.556 28.6085C50.5632 29.0257 51.424 29.7322 52.0297 30.6386C52.6353 31.545 52.9586 32.6106 52.9586 33.7007C52.9586 35.1625 52.3778 36.5644 51.3442 37.5981C50.3105 38.6317 48.9086 39.2124 47.4468 39.2124V39.2124Z" fill="#366CE1"/>
<path d="M167.063 0C163.248 0 159.518 1.1314 156.346 3.25113C153.174 5.37085 150.701 8.3837 149.241 11.9087C147.781 15.4337 147.399 19.3124 148.143 23.0545C148.887 26.7966 150.725 30.234 153.423 32.9319C156.121 35.6298 159.558 37.4671 163.3 38.2114C167.042 38.9558 170.921 38.5737 174.446 37.1136C177.971 35.6536 180.984 33.181 183.103 30.0086C185.223 26.8362 186.355 23.1065 186.355 19.291C186.355 14.1747 184.322 9.26799 180.704 5.65022C177.087 2.03244 172.18 0 167.063 0V0ZM167.063 27.5586C165.428 27.5586 163.83 27.0737 162.47 26.1653C161.111 25.2568 160.051 23.9656 159.425 22.4549C158.8 20.9442 158.636 19.2819 158.955 17.6781C159.274 16.0744 160.061 14.6012 161.217 13.445C162.374 12.2887 163.847 11.5013 165.451 11.1823C167.054 10.8633 168.717 11.027 170.227 11.6528C171.738 12.2785 173.029 13.3382 173.938 14.6978C174.846 16.0574 175.331 17.6559 175.331 19.291C175.33 21.4835 174.459 23.586 172.909 25.1363C171.358 26.6866 169.256 27.5579 167.063 27.5586V27.5586Z" fill="#366CE1"/>
<path d="M227.813 65.1235C223.998 65.1235 220.268 66.2549 217.096 68.3747C213.923 70.4944 211.451 73.5072 209.99 77.0322C208.53 80.5572 208.148 84.436 208.893 88.1781C209.637 91.9202 211.474 95.3575 214.172 98.0554C216.87 100.753 220.307 102.591 224.05 103.335C227.792 104.079 231.67 103.697 235.195 102.237C238.72 100.777 241.733 98.3045 243.853 95.1321C245.973 91.9597 247.104 88.23 247.104 84.4146C247.104 79.2983 245.072 74.3915 241.454 70.7738C237.836 67.156 232.929 65.1235 227.813 65.1235V65.1235ZM227.813 92.6822C226.178 92.6822 224.579 92.1973 223.22 91.2888C221.86 90.3804 220.801 89.0892 220.175 87.5784C219.549 86.0677 219.385 84.4054 219.704 82.8016C220.023 81.1979 220.811 79.7248 221.967 78.5685C223.123 77.4123 224.596 76.6249 226.2 76.3058C227.804 75.9868 229.466 76.1506 230.977 76.7763C232.488 77.4021 233.779 78.4618 234.687 79.8213C235.596 81.1809 236.081 82.7794 236.081 84.4146C236.08 86.6071 235.209 88.7095 233.658 90.2598C232.108 91.8102 230.006 92.6814 227.813 92.6822V92.6822Z" fill="#366CE1"/>
<path d="M19.2911 86.479C15.4757 86.479 11.7459 87.6104 8.57355 89.7301C5.40115 91.8499 2.92854 94.8627 1.46845 98.3877C0.00835766 101.913 -0.373668 105.791 0.370681 109.534C1.11503 113.276 2.95232 116.713 5.65022 119.411C8.34812 122.109 11.7855 123.946 15.5276 124.69C19.2697 125.435 23.1485 125.053 26.6734 123.593C30.1984 122.133 33.2113 119.66 35.331 116.488C37.4507 113.315 38.5821 109.585 38.5821 105.77C38.5821 100.654 36.5497 95.747 32.9319 92.1292C29.3141 88.5114 24.4074 86.479 19.2911 86.479V86.479ZM19.2911 114.038C17.6559 114.038 16.0574 113.553 14.6978 112.644C13.3382 111.736 12.2786 110.445 11.6528 108.934C11.027 107.423 10.8633 105.761 11.1823 104.157C11.5013 102.553 12.2887 101.08 13.445 99.924C14.6012 98.7677 16.0744 97.9803 17.6781 97.6613C19.2819 97.3423 20.9442 97.506 22.4549 98.1318C23.9656 98.7575 25.2569 99.8172 26.1653 101.177C27.0738 102.536 27.5587 104.135 27.5587 105.77C27.5579 107.963 26.6866 110.065 25.1363 111.615C23.586 113.166 21.4835 114.037 19.2911 114.038V114.038Z" fill="#366CE1"/>
</svg>
