<svg width="100" height="200" viewBox="0 0 100 200" fill="none" xmlns="http://www.w3.org/2000/svg">
<path d="M50 100H0V200H50C63.2608 200 75.9785 194.732 85.3553 185.355C94.7322 175.979 100 163.261 100 150C100 136.739 94.7322 124.021 85.3553 114.645C75.9785 105.268 63.2608 100 50 100V100ZM50 180H20V120H50C57.9565 120 65.5871 123.161 71.2132 128.787C76.8393 134.413 80 142.044 80 150C80 157.956 76.8393 165.587 71.2132 171.213C65.5871 176.839 57.9565 180 50 180Z" fill="#121221"/>
<path d="M0 30V100H100V80H60V30C60 22.0435 56.8393 14.4129 51.2132 8.7868C45.5871 3.16071 37.9565 0 30 0C22.0435 0 14.4129 3.16071 8.7868 8.7868C3.16071 14.4129 0 22.0435 0 30V30ZM40 30V80H20V30C20 27.3478 21.0536 24.8043 22.9289 22.9289C24.8043 21.0536 27.3478 20 30 20C32.6522 20 35.1957 21.0536 37.0711 22.9289C38.9464 24.8043 40 27.3478 40 30V30Z" fill="#366CE1"/>
</svg>
