<svg width="640" height="200" viewBox="0 0 640 200" fill="none" xmlns="http://www.w3.org/2000/svg">
<path d="M78.2798 110H98.9898C96.5116 122.141 89.6139 132.928 79.6339 140.272C69.6539 147.616 57.3026 150.992 44.9746 149.747C32.6465 148.502 21.2201 142.723 12.9104 133.532C4.6008 124.34 0 112.391 0 100C0 87.6093 4.6008 75.6599 12.9104 66.4686C21.2201 57.2772 32.6465 51.4987 44.9746 50.2533C57.3026 49.0079 69.6539 52.3844 79.6339 59.7281C89.6139 67.0719 96.5116 77.8597 98.9898 90.0001H78.2798C75.9208 83.328 71.2791 77.7046 65.175 74.1238C59.0709 70.543 51.8974 69.2354 44.9225 70.4321C37.9475 71.6289 31.6202 75.2528 27.0587 80.6635C22.4973 86.0742 19.9955 92.9232 19.9955 100C19.9955 107.077 22.4973 113.926 27.0587 119.337C31.6202 124.747 37.9475 128.371 44.9225 129.568C51.8974 130.765 59.0709 129.457 65.175 125.876C71.2791 122.296 75.9208 116.672 78.2798 110V110Z" fill="#6C6C6C"/>
<path d="M450 80C450 82.6522 451.054 85.1957 452.929 87.0711C454.804 88.9464 457.348 90 460 90H500C507.956 90 515.587 93.1607 521.213 98.7868C526.839 104.413 530 112.044 530 120C530 127.956 526.839 135.587 521.213 141.213C515.587 146.839 507.956 150 500 150H430V130H500C502.652 130 505.196 128.946 507.071 127.071C508.946 125.196 510 122.652 510 120C510 117.348 508.946 114.804 507.071 112.929C505.196 111.054 502.652 110 500 110H460C452.044 110 444.413 106.839 438.787 101.213C433.161 95.5871 430 87.9565 430 80C430 72.0435 433.161 64.4129 438.787 58.7868C444.413 53.1607 452.044 50 460 50H530V70H460C457.348 70 454.804 71.0536 452.929 72.9289C451.054 74.8043 450 77.3478 450 80V80Z" fill="#121221"/>
<path d="M260 100H210V200H260C273.261 200 285.979 194.732 295.355 185.355C304.732 175.979 310 163.261 310 150C310 136.739 304.732 124.021 295.355 114.645C285.979 105.268 273.261 100 260 100V100ZM260 180H230V120H260C267.956 120 275.587 123.161 281.213 128.787C286.839 134.413 290 142.044 290 150C290 157.956 286.839 165.587 281.213 171.213C275.587 176.839 267.956 180 260 180Z" fill="#121221"/>
<path d="M340 70V90H420V110H340V130H420V150H320V50H420V70H340Z" fill="#121221"/>
<path d="M640 149.99V150H610.13L569.51 113.43L560 122V150H540V50H560V95.09L569.51 86.52L610.07 50H639.97L584.46 99.98L640 149.99Z" fill="#121221"/>
<path d="M159.76 51.95L158.98 50H139L138.22 51.94L98.9902 150H120.54L131.74 122H166.24L177.44 150H198.99L159.76 51.95ZM139.74 102L148.99 78.87L158.24 102H139.74Z" fill="#6C6C6C"/>
<path d="M210 30V100H310V80H270V30C270 22.0435 266.839 14.4129 261.213 8.7868C255.587 3.16071 247.956 0 240 0C232.044 0 224.413 3.16071 218.787 8.7868C213.161 14.4129 210 22.0435 210 30V30ZM250 30V80H230V30C230 27.3478 231.054 24.8043 232.929 22.9289C234.804 21.0536 237.348 20 240 20C242.652 20 245.196 21.0536 247.071 22.9289C248.946 24.8043 250 27.3478 250 30V30Z" fill="#6C6C6C"/>
</svg>
