<svg width="1050" height="280" viewBox="0 0 1050 280" fill="none" xmlns="http://www.w3.org/2000/svg">
<path d="M169.29 150H190C187.522 162.141 180.624 172.928 170.644 180.272C160.664 187.616 148.313 190.992 135.985 189.747C123.657 188.502 112.23 182.723 103.921 173.532C95.611 164.34 91.0103 152.391 91.0103 140C91.0103 127.609 95.611 115.66 103.921 106.469C112.23 97.2772 123.657 91.4987 135.985 90.2533C148.313 89.0079 160.664 92.3844 170.644 99.7281C180.624 107.072 187.522 117.86 190 130H169.29C166.931 123.328 162.289 117.705 156.185 114.124C150.081 110.543 142.908 109.235 135.933 110.432C128.958 111.629 122.63 115.253 118.069 120.664C113.508 126.074 111.006 132.923 111.006 140C111.006 147.077 113.508 153.926 118.069 159.337C122.63 164.747 128.958 168.371 135.933 169.568C142.908 170.765 150.081 169.457 156.185 165.876C162.289 162.296 166.931 156.672 169.29 150V150Z" fill="#121221"/>
<path d="M690 90C680.111 90 670.444 92.9325 662.222 98.4265C653.999 103.921 647.59 111.73 643.806 120.866C640.022 130.002 639.032 140.055 640.961 149.755C642.89 159.454 647.652 168.363 654.645 175.355C661.637 182.348 670.546 187.11 680.245 189.039C689.945 190.969 699.998 189.978 709.134 186.194C718.27 182.41 726.079 176.001 731.573 167.779C737.068 159.556 740 149.889 740 140C739.999 126.74 734.73 114.023 725.354 104.646C715.977 95.2696 703.26 90.0013 690 90V90ZM690 170C684.067 170 678.266 168.241 673.333 164.944C668.399 161.648 664.554 156.962 662.284 151.48C660.013 145.999 659.419 139.967 660.576 134.147C661.734 128.328 664.591 122.982 668.787 118.787C672.982 114.591 678.328 111.734 684.147 110.576C689.967 109.419 695.999 110.013 701.481 112.284C706.962 114.554 711.648 118.399 714.944 123.333C718.241 128.266 720 134.067 720 140C720 147.956 716.839 155.587 711.213 161.213C705.587 166.839 697.957 170 690 170Z" fill="#121221"/>
<path d="M280.992 99.4719C232.485 68.9999 181.344 117.64 206.737 166.235C209.925 172.335 217.553 179.989 223.647 183.194C244.468 194.143 265.347 191.012 280 179.994V190H300V133.985C300.009 127.094 298.269 120.314 294.945 114.278C291.621 108.242 286.82 103.148 280.992 99.4719V99.4719ZM268.092 164.633C238.34 182.733 207.264 151.657 225.364 121.905C226.99 119.235 229.232 116.993 231.902 115.367C261.654 97.2669 292.73 128.343 274.63 158.095C273.006 160.764 270.767 163.006 268.1 164.633H268.092Z" fill="#121221"/>
<path d="M360 90C346.74 90.0013 334.023 95.2696 324.646 104.646C315.27 114.023 310.001 126.74 310 140V240H330V179.99C336.338 184.746 343.715 187.929 351.524 189.274C359.332 190.619 367.349 190.09 374.913 187.728C382.477 185.367 389.371 181.242 395.028 175.693C400.684 170.144 404.941 163.33 407.447 155.813C409.953 148.296 410.636 140.291 409.441 132.458C408.246 124.624 405.206 117.187 400.572 110.76C395.938 104.332 389.843 99.0979 382.789 95.4885C375.735 91.8791 367.924 89.9979 360 90V90ZM360 170C354.067 170 348.266 168.241 343.333 164.944C338.399 161.648 334.554 156.962 332.284 151.48C330.013 145.999 329.419 139.967 330.576 134.147C331.734 128.328 334.591 122.982 338.787 118.787C342.982 114.591 348.328 111.734 354.147 110.576C359.967 109.419 365.999 110.013 371.48 112.284C376.962 114.554 381.648 118.399 384.944 123.333C388.241 128.266 390 134.067 390 140C390 147.956 386.839 155.587 381.213 161.213C375.587 166.839 367.956 170 360 170Z" fill="#121221"/>
<path d="M470 90C456.74 90.0013 444.023 95.2696 434.646 104.646C425.27 114.023 420.001 126.74 420 140V240H440V179.99C446.338 184.746 453.715 187.929 461.524 189.274C469.332 190.619 477.349 190.09 484.913 187.728C492.477 185.367 499.371 181.242 505.028 175.693C510.684 170.144 514.941 163.33 517.447 155.813C519.953 148.296 520.636 140.291 519.441 132.458C518.246 124.624 515.206 117.187 510.572 110.76C505.938 104.332 499.843 99.0979 492.789 95.4885C485.735 91.8791 477.924 89.9979 470 90V90ZM470 170C464.067 170 458.266 168.241 453.333 164.944C448.399 161.648 444.554 156.962 442.284 151.48C440.013 145.999 439.419 139.967 440.576 134.147C441.734 128.328 444.591 122.982 448.787 118.787C452.982 114.591 458.328 111.734 464.147 110.576C469.967 109.419 475.999 110.013 481.48 112.284C486.962 114.554 491.648 118.399 494.944 123.333C498.241 128.266 500 134.067 500 140C500 143.94 499.224 147.841 497.716 151.48C496.209 155.12 493.999 158.427 491.213 161.213C488.427 163.999 485.12 166.209 481.48 167.716C477.841 169.224 473.94 170 470 170V170Z" fill="#121221"/>
<path d="M630 90H610V190H630V90Z" fill="#121221"/>
<path d="M630 60H610V80H630V60Z" fill="#121221"/>
<path d="M850 140V190H830V140C830 132.044 826.839 124.413 821.213 118.787C815.587 113.161 807.956 110 800 110C792.044 110 784.413 113.161 778.787 118.787C773.161 124.413 770 132.044 770 140V190H750V140C750 126.739 755.268 114.021 764.645 104.645C774.021 95.2678 786.739 90 800 90C813.261 90 825.979 95.2678 835.355 104.645C844.732 114.021 850 126.739 850 140V140Z" fill="#121221"/>
<path d="M630 140C630 153.261 624.732 165.979 615.355 175.355C605.979 184.732 593.261 190 580 190C566.739 190 554.021 184.732 544.645 175.355C535.268 165.979 530 153.261 530 140V50H550V100.01C558.644 93.4975 569.177 89.983 580 90V110C574.067 110 568.266 111.759 563.333 115.056C558.399 118.352 554.554 123.038 552.284 128.52C550.013 134.001 549.419 140.033 550.576 145.853C551.734 151.672 554.591 157.018 558.787 161.213C562.982 165.409 568.328 168.266 574.147 169.424C579.967 170.581 585.999 169.987 591.481 167.716C596.962 165.446 601.648 161.601 604.944 156.667C608.241 151.734 610 145.933 610 140H630Z" fill="#121221"/>
<path d="M960 140C960.006 143.359 959.667 146.71 958.99 150C957.185 158.851 953.015 167.047 946.924 173.718C940.833 180.389 933.048 185.285 924.397 187.885C915.746 190.485 906.553 190.692 897.793 188.485C889.034 186.278 881.036 181.739 874.65 175.35L888.79 161.21C892.372 164.794 896.804 167.413 901.672 168.82C906.54 170.228 911.686 170.379 916.628 169.259C921.57 168.14 926.148 165.786 929.935 162.418C933.721 159.051 936.592 154.778 938.28 150H861.01C859.663 143.401 859.663 136.599 861.01 130C862.815 121.149 866.985 112.953 873.076 106.282C879.167 99.6112 886.952 94.7155 895.603 92.1153C904.254 89.5151 913.447 89.3075 922.207 91.5146C930.966 93.7217 938.964 98.261 945.35 104.65L931.21 118.79C927.628 115.206 923.196 112.587 918.328 111.18C913.46 109.772 908.314 109.621 903.372 110.741C898.43 111.86 893.852 114.214 890.065 117.582C886.279 120.949 883.408 125.222 881.72 130H958.99C959.667 133.29 960.006 136.641 960 140V140Z" fill="#121221"/>
<path d="M480 260H270V280H480V260Z" fill="white"/>
<path d="M460 260V280C449.391 280 439.217 275.786 431.716 268.284C424.214 260.783 420 250.609 420 240H440C439.999 242.627 440.516 245.228 441.521 247.655C442.526 250.081 443.999 252.287 445.856 254.144C447.713 256.001 449.919 257.474 452.345 258.479C454.772 259.484 457.373 260.001 460 260V260Z" fill="#121221"/>
<path d="M40 260V280C29.3913 280 19.2172 275.786 11.7157 268.284C4.21427 260.783 0 250.609 0 240H20C19.9992 242.627 20.516 245.228 21.5208 247.655C22.5256 250.081 23.9988 252.287 25.8561 254.144C27.7134 256.001 29.9185 257.474 32.3454 258.479C34.7723 259.484 37.3733 260.001 40 260V260Z" fill="#121221"/>
<path d="M20 40H0C0 29.3913 4.21427 19.2172 11.7157 11.7157C19.2172 4.21427 29.3913 0 40 0V20C37.3733 19.9992 34.7723 20.516 32.3454 21.5208C29.9185 22.5256 27.7134 23.9988 25.8561 25.8561C23.9988 27.7134 22.5256 29.9185 21.5208 32.3454C20.516 34.7723 19.9992 37.3733 20 40V40Z" fill="#121221"/>
<path d="M310 240H330C330 250.609 325.786 260.783 318.284 268.284C310.783 275.786 300.609 280 290 280V260C292.627 260.001 295.228 259.484 297.655 258.479C300.081 257.474 302.287 256.001 304.144 254.144C306.001 252.287 307.474 250.081 308.479 247.655C309.484 245.228 310.001 242.627 310 240V240Z" fill="#121221"/>
<path d="M1030 240H1050C1050 250.609 1045.79 260.783 1038.28 268.284C1030.78 275.786 1020.61 280 1010 280V260C1012.63 260.001 1015.23 259.484 1017.65 258.479C1020.08 257.474 1022.29 256.001 1024.14 254.144C1026 252.287 1027.47 250.081 1028.48 247.655C1029.48 245.228 1030 242.627 1030 240V240Z" fill="#121221"/>
<path d="M1010 20V0C1020.61 0 1030.78 4.21427 1038.28 11.7157C1045.79 19.2172 1050 29.3913 1050 40H1030C1030 37.3733 1029.48 34.7723 1028.48 32.3454C1027.47 29.9185 1026 27.7134 1024.14 25.8561C1022.29 23.9988 1020.08 22.5256 1017.65 21.5208C1015.23 20.516 1012.63 19.9992 1010 20V20Z" fill="#121221"/>
<path d="M290 260H40V280H290V260Z" fill="#121221"/>
<path d="M1010 260H460V280H1010V260Z" fill="#121221"/>
<path d="M1010 0H40V20H1010V0Z" fill="#121221"/>
<path d="M20 40H0V240H20V40Z" fill="#121221"/>
<path d="M1050 40H1030V240H1050V40Z" fill="#121221"/>
</svg>
