<svg width="101" height="150" viewBox="0 0 101 150" fill="none" xmlns="http://www.w3.org/2000/svg">
<path d="M50 1.77626e-06C36.7396 0.00132762 24.0226 5.2696 14.6461 14.6461C5.26959 24.0227 0.00132584 36.7396 0 50V150H20V89.99C26.3375 94.7464 33.7147 97.9285 41.5235 99.274C49.3323 100.619 57.3491 100.09 64.913 97.7284C72.4768 95.3672 79.3712 91.242 85.0277 85.693C90.6842 80.144 94.941 73.3301 97.447 65.813C99.953 58.2958 100.636 50.2907 99.4412 42.4575C98.2458 34.6243 95.2059 27.1874 90.572 20.7598C85.9381 14.3321 79.8429 9.09787 72.7888 5.48847C65.7348 1.87907 57.9239 -0.00211015 50 1.77626e-06V1.77626e-06ZM50 80C44.0666 80 38.2664 78.2405 33.3329 74.9441C28.3994 71.6476 24.5542 66.9623 22.2836 61.4805C20.013 55.9987 19.4189 49.9667 20.5764 44.1473C21.734 38.3279 24.5912 32.9824 28.7868 28.7868C32.9824 24.5912 38.3278 21.734 44.1473 20.5764C49.9667 19.4189 55.9987 20.013 61.4805 22.2836C66.9623 24.5542 71.6476 28.3994 74.9441 33.3329C78.2405 38.2664 80 44.0666 80 50C80 53.9397 79.224 57.8407 77.7164 61.4805C76.2088 65.1203 73.999 68.4275 71.2132 71.2132C68.4274 73.999 65.1203 76.2087 61.4805 77.7164C57.8407 79.224 53.9397 80 50 80V80Z" fill="#121221"/>
</svg>
