<svg width="922" height="200" viewBox="0 0 922 200" fill="none" xmlns="http://www.w3.org/2000/svg">
<path d="M863.624 166.666L844.384 200H805.891L786.651 166.666L805.891 133.333H844.384L863.624 166.666Z" fill="#5E5E5E"/>
<path d="M921.354 133.333L902.114 166.667H863.62L844.38 133.333L863.62 100H902.114L921.354 133.333Z" fill="#5E5E5E"/>
<path d="M863.663 100L844.423 133.334H805.93L786.69 100L805.93 66.667H844.423L863.663 100Z" fill="#5E5E5E"/>
<path opacity="0.14" d="M863.663 99.9906L844.423 133.324H805.93L786.69 99.9906L805.93 66.6572H844.423L863.663 99.9906Z" fill="#121221"/>
<path d="M805.973 133.333L786.733 166.667H748.24L729 133.333L748.24 100H786.733L805.973 133.333Z" fill="#5E5E5E"/>
<path d="M786.729 33.3333L805.969 0H844.463L863.703 33.3333L844.463 66.6667H805.969L786.729 33.3333Z" fill="#5E5E5E"/>
<path d="M729 66.6663L748.24 33.333H786.733L805.973 66.6663L786.733 99.9997H748.24L729 66.6663Z" fill="#5E5E5E"/>
<path d="M844.38 66.6663L863.62 33.333H902.114L921.354 66.6663L902.114 99.9997H863.62L844.38 66.6663Z" fill="#5E5E5E"/>
<path opacity="0.98" d="M863.663 166.666L844.423 200H805.93L786.69 166.666L805.93 133.333H844.423L863.663 166.666Z" fill="#121221"/>
<path opacity="0.84" d="M921.393 133.333L902.153 166.667H863.659L844.419 133.333L863.659 100H902.153L921.393 133.333Z" fill="#121221"/>
<path opacity="0.28" d="M806.013 133.333L786.773 166.667H748.28L729.04 133.333L748.28 100H786.773L806.013 133.333Z" fill="#121221"/>
<path opacity="0.56" d="M786.768 33.3333L806.008 0H844.501L863.741 33.3333L844.501 66.6667H806.008L786.768 33.3333Z" fill="#121221"/>
<path opacity="0.42" d="M729.04 66.6663L748.28 33.333H786.773L806.013 66.6663L786.773 99.9997H748.28L729.04 66.6663Z" fill="#121221"/>
<path opacity="0.7" d="M844.419 66.6663L863.659 33.333H902.153L921.393 66.6663L902.153 99.9997H863.659L844.419 66.6663Z" fill="#121221"/>
<path d="M640 50V150H620L560 80.59V150H540V50H560L620 119.41V50H640Z" fill="#121221"/>
<path d="M310 80C310 72.0435 306.839 64.4129 301.213 58.7868C295.587 53.1607 287.956 50 280 50H210V150H230V110H280C282.652 110 285.196 111.054 287.071 112.929C288.946 114.804 290 117.348 290 120V150H310V120C310.01 112.617 307.285 105.492 302.35 100C307.285 94.5083 310.01 87.3831 310 80V80ZM230 90V70H280C282.652 70 285.196 71.0536 287.071 72.9289C288.946 74.8043 290 77.3478 290 80C290 82.6522 288.946 85.1957 287.071 87.0711C285.196 88.9464 282.652 90 280 90H230Z" fill="#121221"/>
<path d="M480 50C470.111 50 460.444 52.9325 452.222 58.4265C443.999 63.9206 437.59 71.7295 433.806 80.8658C430.022 90.0021 429.031 100.055 430.961 109.755C432.89 119.454 437.652 128.363 444.645 135.355C451.637 142.348 460.546 147.11 470.246 149.039C479.945 150.969 489.998 149.978 499.134 146.194C508.271 142.41 516.079 136.001 521.574 127.779C527.068 119.556 530 109.889 530 100C529.999 86.7396 524.73 74.0227 515.354 64.6461C505.977 55.2696 493.26 50.0013 480 50V50ZM480 130C474.067 130 468.266 128.241 463.333 124.944C458.399 121.648 454.554 116.962 452.284 111.48C450.013 105.999 449.419 99.9667 450.576 94.1473C451.734 88.3279 454.591 82.9824 458.787 78.7868C462.982 74.5912 468.328 71.734 474.147 70.5764C479.967 69.4189 485.999 70.013 491.481 72.2836C496.962 74.5542 501.648 78.3994 504.944 83.3329C508.241 88.2664 510 94.0666 510 100C510 107.956 506.839 115.587 501.213 121.213C495.587 126.839 487.957 130 480 130Z" fill="#121221"/>
<path d="M78.2798 110H98.9898C96.5116 122.141 89.6139 132.928 79.6339 140.272C69.6539 147.616 57.3026 150.992 44.9746 149.747C32.6465 148.502 21.2201 142.723 12.9104 133.532C4.6008 124.34 0 112.391 0 100C0 87.6093 4.6008 75.66 12.9104 66.4686C21.2201 57.2772 32.6465 51.4987 44.9746 50.2533C57.3026 49.0079 69.6539 52.3844 79.6339 59.7281C89.6139 67.0719 96.5116 77.8597 98.9898 90.0001H78.2798C75.9208 83.328 71.2791 77.7046 65.175 74.1238C59.0709 70.543 51.8974 69.2354 44.9225 70.4322C37.9475 71.6289 31.6202 75.2528 27.0587 80.6635C22.4973 86.0742 19.9955 92.9232 19.9955 100C19.9955 107.077 22.4973 113.926 27.0587 119.337C31.6202 124.747 37.9475 128.371 44.9225 129.568C51.8974 130.765 59.0709 129.457 65.175 125.876C71.2791 122.296 75.9208 116.672 78.2798 110V110Z" fill="#121221"/>
<path d="M420 80C420 72.0435 416.839 64.4129 411.213 58.7868C405.587 53.1607 397.956 50 390 50H320V150H390C395.792 150.002 401.461 148.326 406.321 145.176C411.182 142.026 415.026 137.536 417.39 132.248C419.753 126.96 420.535 121.101 419.641 115.378C418.747 109.656 416.214 104.315 412.35 100C417.285 94.5083 420.01 87.3831 420 80V80ZM340 70H390C392.652 70 395.196 71.0536 397.071 72.9289C398.946 74.8043 400 77.3478 400 80C400 82.6522 398.946 85.1957 397.071 87.0711C395.196 88.9464 392.652 90 390 90H340V70ZM390 130H340V110H390C392.652 110 395.196 111.054 397.071 112.929C398.946 114.804 400 117.348 400 120C400 122.652 398.946 125.196 397.071 127.071C395.196 128.946 392.652 130 390 130Z" fill="#121221"/>
<path d="M160.77 51.95L159.99 50H140.01L139.23 51.94L100 150H121.55L132.75 122H167.25L178.45 150H200L160.77 51.95ZM140.75 102L150 78.87L159.25 102H140.75Z" fill="#121221"/>
</svg>
