<svg width="289" height="300" viewBox="0 0 289 300" fill="none" xmlns="http://www.w3.org/2000/svg">
<path d="M201.936 250L173.076 300H115.336L86.4761 250L115.336 200H173.076L201.936 250Z" fill="#366CE1"/>
<path d="M288.53 200L259.67 250H201.93L173.07 200L201.93 150H259.67L288.53 200Z" fill="#366CE1"/>
<path d="M201.995 150L173.135 200H115.395L86.5352 150L115.395 100H173.135L201.995 150Z" fill="#366CE1"/>
<path opacity="0.14" d="M201.995 149.986L173.135 199.986H115.395L86.5352 149.986L115.395 99.9863H173.135L201.995 149.986Z" fill="#121221"/>
<path d="M115.46 200L86.6 250H28.86L0 200L28.86 150H86.6L115.46 200Z" fill="#366CE1"/>
<path d="M86.5942 50L115.454 0H173.194L202.054 50L173.194 100H115.454L86.5942 50Z" fill="#366CE1"/>
<path d="M0 100L28.86 50H86.6L115.46 100L86.6 150H28.86L0 100Z" fill="#366CE1"/>
<path d="M173.07 100L201.93 50H259.67L288.53 100L259.67 150H201.93L173.07 100Z" fill="#366CE1"/>
<path opacity="0.98" d="M201.995 250L173.135 300H115.395L86.5352 250L115.395 200H173.135L201.995 250Z" fill="#121221"/>
<path opacity="0.84" d="M288.589 200L259.729 250H201.989L173.129 200L201.989 150H259.729L288.589 200Z" fill="#121221"/>
<path opacity="0.28" d="M115.519 200L86.6591 250H28.9191L0.059082 200L28.9191 150H86.6591L115.519 200Z" fill="#121221"/>
<path opacity="0.56" d="M86.6523 50L115.512 0H173.252L202.112 50L173.252 100H115.512L86.6523 50Z" fill="#121221"/>
<path opacity="0.42" d="M0.059082 100L28.9191 50H86.6591L115.519 100L86.6591 150H28.9191L0.059082 100Z" fill="#121221"/>
<path opacity="0.7" d="M173.129 100L201.989 50H259.729L288.589 100L259.729 150H201.989L173.129 100Z" fill="#121221"/>
</svg>
