<svg width="220" height="160" viewBox="0 0 220 160" fill="none" xmlns="http://www.w3.org/2000/svg">
<path d="M30 40C22.0435 40 14.4129 43.1607 8.7868 48.7868C3.16071 54.4129 0 62.0435 0 70V130C0 137.956 3.16071 145.587 8.7868 151.213C14.4129 156.839 22.0435 160 30 160C37.9565 160 45.5871 156.839 51.2132 151.213C56.8393 145.587 60 137.956 60 130V70C60 62.0435 56.8393 54.4129 51.2132 48.7868C45.5871 43.1607 37.9565 40 30 40ZM30 140C27.3478 140 24.8043 138.946 22.9289 137.071C21.0536 135.196 20 132.652 20 130V70C20 67.3478 21.0536 64.8043 22.9289 62.9289C24.8043 61.0536 27.3478 60 30 60C32.6522 60 35.1957 61.0536 37.071 62.9289C38.9464 64.8043 40 67.3478 40 70V130C40 132.652 38.9464 135.196 37.071 137.071C35.1957 138.946 32.6522 140 30 140V140Z" fill="#366CE1"/>
<path d="M110 0C102.044 0 94.4129 3.16071 88.7868 8.7868C83.1607 14.4129 80 22.0435 80 30V130C80 137.956 83.1607 145.587 88.7868 151.213C94.4129 156.839 102.044 160 110 160C117.956 160 125.587 156.839 131.213 151.213C136.839 145.587 140 137.956 140 130V30C140 22.0435 136.839 14.4129 131.213 8.7868C125.587 3.16071 117.956 0 110 0ZM110 140C107.348 140 104.804 138.946 102.929 137.071C101.054 135.196 100 132.652 100 130V30C100 27.3478 101.054 24.8043 102.929 22.9289C104.804 21.0536 107.348 20 110 20C112.652 20 115.196 21.0536 117.071 22.9289C118.946 24.8043 120 27.3478 120 30V130C120 132.652 118.946 135.196 117.071 137.071C115.196 138.946 112.652 140 110 140V140Z" fill="#121221"/>
<path d="M190 40C182.044 40 174.413 43.1607 168.787 48.7868C163.161 54.4129 160 62.0435 160 70V130C160 137.956 163.161 145.587 168.787 151.213C174.413 156.839 182.044 160 190 160C197.956 160 205.587 156.839 211.213 151.213C216.839 145.587 220 137.956 220 130V70C220 62.0435 216.839 54.4129 211.213 48.7868C205.587 43.1607 197.956 40 190 40ZM190 140C187.348 140 184.804 138.946 182.929 137.071C181.054 135.196 180 132.652 180 130V70C180 67.3478 181.054 64.8043 182.929 62.9289C184.804 61.0536 187.348 60 190 60C192.652 60 195.196 61.0536 197.071 62.9289C198.946 64.8043 200 67.3478 200 70V130C200 132.652 198.946 135.196 197.071 137.071C195.196 138.946 192.652 140 190 140V140Z" fill="#366CE1"/>
</svg>
