<svg width="978" height="160" viewBox="0 0 978 160" fill="none" xmlns="http://www.w3.org/2000/svg">
<path d="M627.995 40C620.038 40 612.408 43.1607 606.781 48.7868C601.155 54.4129 597.995 62.0435 597.995 70V130C597.995 137.956 601.155 145.587 606.781 151.213C612.408 156.839 620.038 160 627.995 160C635.951 160 643.582 156.839 649.208 151.213C654.834 145.587 657.995 137.956 657.995 130V70C657.995 62.0435 654.834 54.4129 649.208 48.7868C643.582 43.1607 635.951 40 627.995 40ZM627.995 140C625.342 140 622.799 138.946 620.924 137.071C619.048 135.196 617.995 132.652 617.995 130V70C617.995 67.3478 619.048 64.8043 620.924 62.9289C622.799 61.0536 625.342 60 627.995 60C630.647 60 633.19 61.0536 635.066 62.9289C636.941 64.8043 637.995 67.3478 637.995 70V130C637.995 132.652 636.941 135.196 635.066 137.071C633.19 138.946 630.647 140 627.995 140V140Z" fill="#1B4BF2"/>
<path d="M78.2748 120H98.9898C96.5116 132.141 89.6139 142.928 79.6339 150.272C69.6539 157.616 57.3026 160.992 44.9746 159.747C32.6465 158.502 21.2201 152.723 12.9104 143.532C4.6008 134.34 0 122.391 0 110C0 97.6094 4.6008 85.6599 12.9104 76.4686C21.2201 67.2772 32.6465 61.4987 44.9746 60.2533C57.3026 59.0079 69.6539 62.3844 79.6339 69.7282C89.6139 77.0719 96.5116 87.8597 98.9898 100H78.2798C75.9208 93.328 71.2791 87.7046 65.175 84.1238C59.0709 80.543 51.8974 79.2355 44.9225 80.4322C37.9475 81.6289 31.6202 85.2528 27.0587 90.6635C22.4973 96.0742 19.9955 102.923 19.9955 110C19.9955 117.077 22.4973 123.926 27.0587 129.337C31.6202 134.747 37.9475 138.371 44.9225 139.568C51.8974 140.765 59.0709 139.457 65.175 135.876C71.2791 132.296 75.9208 126.672 78.2798 120H78.2748Z" fill="#121221"/>
<path d="M387.265 120H407.975C405.497 132.141 398.599 142.928 388.619 150.272C378.639 157.616 366.287 160.992 353.959 159.747C341.631 158.502 330.205 152.723 321.895 143.532C313.586 134.34 308.985 122.391 308.985 110C308.985 97.6094 313.586 85.6599 321.895 76.4686C330.205 67.2772 341.631 61.4987 353.959 60.2533C366.287 59.0079 378.639 62.3844 388.619 69.7282C398.599 77.0719 405.497 87.8597 407.975 100H387.265C384.906 93.328 380.264 87.7046 374.16 84.1238C368.056 80.543 360.882 79.2355 353.907 80.4322C346.932 81.6289 340.605 85.2528 336.044 90.6635C331.482 96.0742 328.98 102.923 328.98 110C328.98 117.077 331.482 123.926 336.044 129.337C340.605 134.747 346.932 138.371 353.907 139.568C360.882 140.765 368.056 139.457 374.16 135.876C380.264 132.296 384.906 126.672 387.265 120Z" fill="#121221"/>
<path d="M158.985 80V140H178.985V160H118.985V140H138.985V80H118.985V60H178.985V80H158.985Z" fill="#121221"/>
<path d="M218.99 90C218.99 92.6522 220.043 95.1957 221.919 97.071C223.794 98.9464 226.338 100 228.99 100H268.99C276.946 100 284.577 103.161 290.203 108.787C295.829 114.413 298.99 122.044 298.99 130C298.99 137.956 295.829 145.587 290.203 151.213C284.577 156.839 276.946 160 268.99 160H198.99V140H268.99C271.642 140 274.185 138.946 276.061 137.071C277.936 135.196 278.99 132.652 278.99 130C278.99 127.348 277.936 124.804 276.061 122.929C274.185 121.054 271.642 120 268.99 120H228.99C221.033 120 213.403 116.839 207.777 111.213C202.15 105.587 198.99 97.9565 198.99 90C198.99 82.0435 202.15 74.4129 207.777 68.7868C213.403 63.1607 221.033 60 228.99 60H298.99V80H228.99C226.338 80 223.794 81.0536 221.919 82.929C220.043 84.8043 218.99 87.3478 218.99 90V90Z" fill="#121221"/>
<path d="M468.99 60C459.101 60 449.434 62.9324 441.211 68.4265C432.989 73.9206 426.58 81.7295 422.796 90.8658C419.011 100.002 418.021 110.055 419.951 119.755C421.88 129.454 426.642 138.363 433.634 145.355C440.627 152.348 449.536 157.11 459.235 159.039C468.934 160.969 478.988 159.978 488.124 156.194C497.26 152.41 505.069 146.001 510.563 137.779C516.057 129.556 518.99 119.889 518.99 110C518.988 96.7396 513.72 84.0226 504.344 74.6461C494.967 65.2696 482.25 60.0013 468.99 60ZM468.99 140C463.056 140 457.256 138.241 452.323 134.944C447.389 131.648 443.544 126.962 441.273 121.481C439.003 115.999 438.409 109.967 439.566 104.147C440.724 98.3278 443.581 92.9824 447.777 88.7868C451.972 84.5912 457.318 81.734 463.137 80.5764C468.956 79.4189 474.989 80.013 480.47 82.2836C485.952 84.5543 490.637 88.3994 493.934 93.3329C497.23 98.2664 498.99 104.067 498.99 110C498.99 117.956 495.829 125.587 490.203 131.213C484.577 136.839 476.946 140 468.99 140Z" fill="#121221"/>
<path d="M787.995 40C780.038 40 772.408 43.1607 766.781 48.7868C761.155 54.4129 757.995 62.0435 757.995 70V130C757.995 137.956 761.155 145.587 766.781 151.213C772.408 156.839 780.038 160 787.995 160C795.951 160 803.582 156.839 809.208 151.213C814.834 145.587 817.995 137.956 817.995 130V70C817.995 62.0435 814.834 54.4129 809.208 48.7868C803.582 43.1607 795.951 40 787.995 40ZM787.995 140C785.342 140 782.799 138.946 780.924 137.071C779.048 135.196 777.995 132.652 777.995 130V70C777.995 67.3478 779.048 64.8043 780.924 62.9289C782.799 61.0536 785.342 60 787.995 60C790.647 60 793.19 61.0536 795.066 62.9289C796.941 64.8043 797.995 67.3478 797.995 70V130C797.995 132.652 796.941 135.196 795.066 137.071C793.19 138.946 790.647 140 787.995 140V140Z" fill="#1B4BF2"/>
<path d="M867.995 0C860.038 0 852.408 3.16071 846.781 8.7868C841.155 14.4129 837.995 22.0435 837.995 30V130C837.995 137.956 841.155 145.587 846.781 151.213C852.408 156.839 860.038 160 867.995 160C875.951 160 883.582 156.839 889.208 151.213C894.834 145.587 897.995 137.956 897.995 130V30C897.995 22.0435 894.834 14.4129 889.208 8.7868C883.582 3.16071 875.951 0 867.995 0ZM867.995 140C865.342 140 862.799 138.946 860.924 137.071C859.048 135.196 857.995 132.652 857.995 130V30C857.995 27.3478 859.048 24.8043 860.924 22.9289C862.799 21.0536 865.342 20 867.995 20C870.647 20 873.19 21.0536 875.066 22.9289C876.941 24.8043 877.995 27.3478 877.995 30V130C877.995 132.652 876.941 135.196 875.066 137.071C873.19 138.946 870.647 140 867.995 140V140Z" fill="#121221"/>
<path d="M947.995 40C940.038 40 932.408 43.1607 926.781 48.7868C921.155 54.4129 917.995 62.0435 917.995 70V130C917.995 137.956 921.155 145.587 926.781 151.213C932.408 156.839 940.038 160 947.995 160C955.951 160 963.582 156.839 969.208 151.213C974.834 145.587 977.995 137.956 977.995 130V70C977.995 62.0435 974.834 54.4129 969.208 48.7868C963.582 43.1607 955.951 40 947.995 40ZM947.995 140C945.342 140 942.799 138.946 940.924 137.071C939.048 135.196 937.995 132.652 937.995 130V70C937.995 67.3478 939.048 64.8043 940.924 62.9289C942.799 61.0536 945.342 60 947.995 60C950.647 60 953.19 61.0536 955.066 62.9289C956.941 64.8043 957.995 67.3478 957.995 70V130C957.995 132.652 956.941 135.196 955.066 137.071C953.19 138.946 950.647 140 947.995 140V140Z" fill="#1B4BF2"/>
<path d="M707.995 0C700.038 0 692.408 3.16071 686.781 8.7868C681.155 14.4129 677.995 22.0435 677.995 30V130C677.995 137.956 681.155 145.587 686.781 151.213C692.408 156.839 700.038 160 707.995 160C715.951 160 723.582 156.839 729.208 151.213C734.834 145.587 737.995 137.956 737.995 130V30C737.995 22.0435 734.834 14.4129 729.208 8.7868C723.582 3.16071 715.951 0 707.995 0ZM707.995 140C705.342 140 702.799 138.946 700.924 137.071C699.048 135.196 697.995 132.652 697.995 130V30C697.995 27.3478 699.048 24.8043 700.924 22.9289C702.799 21.0536 705.342 20 707.995 20C710.647 20 713.19 21.0536 715.066 22.9289C716.941 24.8043 717.995 27.3478 717.995 30V130C717.995 132.652 716.941 135.196 715.066 137.071C713.19 138.946 710.647 140 707.995 140V140Z" fill="#121221"/>
</svg>
