<svg width="869" height="100" viewBox="0 0 869 100" fill="none" xmlns="http://www.w3.org/2000/svg">
<path d="M459 30C459 32.6522 460.054 35.1957 461.929 37.0711C463.804 38.9464 466.348 40 469 40H509C516.956 40 524.587 43.1607 530.213 48.7868C535.839 54.4129 539 62.0435 539 70C539 77.9565 535.839 85.5871 530.213 91.2132C524.587 96.8393 516.956 100 509 100H439V80H509C511.652 80 514.196 78.9464 516.071 77.0711C517.946 75.1957 519 72.6522 519 70C519 67.3478 517.946 64.8043 516.071 62.9289C514.196 61.0536 511.652 60 509 60H469C461.044 60 453.413 56.8393 447.787 51.2132C442.161 45.5871 439 37.9565 439 30C439 22.0435 442.161 14.4129 447.787 8.7868C453.413 3.16071 461.044 0 469 0L539 0V20H469C466.348 20 463.804 21.0536 461.929 22.9289C460.054 24.8043 459 27.3478 459 30V30Z" fill="#121221"/>
<path d="M569 20V40H649V60H569V80H649V100H549V0H649V20H569Z" fill="#121221"/>
<path d="M759 30C759 22.0435 755.839 14.4129 750.213 8.7868C744.587 3.16071 736.956 0 729 0L659 0V100H679V60H729C731.652 60 734.196 61.0536 736.071 62.9289C737.946 64.8043 739 67.3478 739 70V100H759V70C759.01 62.6169 756.285 55.4917 751.35 50C756.285 44.5083 759.01 37.3831 759 30V30ZM679 40V20H729C731.652 20 734.196 21.0536 736.071 22.9289C737.946 24.8043 739 27.3478 739 30C739 32.6522 737.946 35.1957 736.071 37.0711C734.196 38.9464 731.652 40 729 40H679Z" fill="#121221"/>
<path d="M429 30C429 22.0435 425.839 14.4129 420.213 8.7868C414.587 3.16071 406.956 0 399 0L329 0V100H349V60H399C401.652 60 404.196 61.0536 406.071 62.9289C407.946 64.8043 409 67.3478 409 70V100H429V70C429.01 62.6169 426.285 55.4917 421.35 50C426.285 44.5083 429.01 37.3831 429 30V30ZM349 40V20H399C401.652 20 404.196 21.0536 406.071 22.9289C407.946 24.8043 409 27.3478 409 30C409 32.6522 407.946 35.1957 406.071 37.0711C404.196 38.9464 401.652 40 399 40H349Z" fill="#121221"/>
<path d="M159 0C149.111 0 139.444 2.93245 131.222 8.42652C122.999 13.9206 116.59 21.7295 112.806 30.8658C109.022 40.0021 108.031 50.0555 109.961 59.7545C111.89 69.4536 116.652 78.3627 123.645 85.3553C130.637 92.348 139.546 97.11 149.246 99.0393C158.945 100.969 168.998 99.9784 178.134 96.194C187.27 92.4096 195.079 86.001 200.574 77.7785C206.068 69.5561 209 59.8891 209 50C208.999 36.7396 203.73 24.0227 194.354 14.6461C184.977 5.26959 172.26 0.00132584 159 0V0ZM159 80C153.067 80 147.266 78.2405 142.333 74.9441C137.399 71.6476 133.554 66.9623 131.284 61.4805C129.013 55.9987 128.419 49.9667 129.576 44.1473C130.734 38.3279 133.591 32.9824 137.787 28.7868C141.982 24.5912 147.328 21.734 153.147 20.5764C158.967 19.4189 164.999 20.013 170.481 22.2836C175.962 24.5542 180.648 28.3994 183.944 33.3329C187.241 38.2664 189 44.0666 189 50C189 57.9565 185.839 65.5871 180.213 71.2132C174.587 76.8393 166.957 80 159 80Z" fill="#121221"/>
<path d="M78.2798 60.0001H98.9898C96.5116 72.1405 89.6139 82.9283 79.6339 90.2721C69.6539 97.6158 57.3026 100.992 44.9746 99.7469C32.6465 98.5015 21.2201 92.723 12.9104 83.5316C4.6008 74.3403 0 62.3909 0 50.0001C0 37.6093 4.6008 25.6599 12.9104 16.4686C21.2201 7.27721 32.6465 1.49869 44.9746 0.253305C57.3026 -0.992078 69.6539 2.3844 79.6339 9.72814C89.6139 17.0719 96.5116 27.8597 98.9898 40.0001H78.2798C75.9208 33.328 71.2791 27.7046 65.175 24.1238C59.0709 20.543 51.8974 19.2354 44.9225 20.4322C37.9475 21.6289 31.6202 25.2528 27.0587 30.6635C22.4973 36.0742 19.9955 42.9232 19.9955 50.0001C19.9955 57.077 22.4973 63.926 27.0587 69.3367C31.6202 74.7474 37.9475 78.3714 44.9225 79.5681C51.8974 80.7648 59.0709 79.4572 65.175 75.8764C71.2791 72.2957 75.9208 66.6723 78.2798 60.0001V60.0001Z" fill="black"/>
<path d="M829.77 1.95L828.99 0H809.01L808.23 1.94L769 100H790.55L801.75 72H836.25L847.45 100H869L829.77 1.95ZM809.75 52L819 28.87L828.25 52H809.75Z" fill="#121221"/>
<path d="M319 0V50C319 63.2608 313.732 75.9785 304.355 85.3553C294.979 94.7322 282.261 100 269 100C255.739 100 243.021 94.7322 233.645 85.3553C224.268 75.9785 219 63.2608 219 50V0H239V50C239 57.9565 242.161 65.5871 247.787 71.2132C253.413 76.8393 261.044 80 269 80C276.956 80 284.587 76.8393 290.213 71.2132C295.839 65.5871 299 57.9565 299 50V0H319Z" fill="#121221"/>
</svg>
