<svg width="1330" height="200" viewBox="0 0 1330 200" fill="none" xmlns="http://www.w3.org/2000/svg">
<path d="M500 80C500 72.0435 496.839 64.4129 491.213 58.7868C485.587 53.1607 477.956 50 470 50H400V150H420V110H470C472.652 110 475.196 111.054 477.071 112.929C478.946 114.804 480 117.348 480 120V150H500V120C500.01 112.617 497.285 105.492 492.35 100C497.285 94.5083 500.01 87.3831 500 80V80ZM420 90V70H470C472.652 70 475.196 71.0536 477.071 72.9289C478.946 74.8043 480 77.3478 480 80C480 82.6522 478.946 85.1957 477.071 87.0711C475.196 88.9464 472.652 90 470 90H420Z" fill="#0E61DD"/>
<path d="M780 50C770.111 50 760.444 52.9324 752.222 58.4265C743.999 63.9206 737.59 71.7295 733.806 80.8658C730.022 90.0021 729.032 100.055 730.961 109.755C732.89 119.454 737.652 128.363 744.645 135.355C751.637 142.348 760.546 147.11 770.245 149.039C779.945 150.969 789.998 149.978 799.134 146.194C808.27 142.41 816.079 136.001 821.573 127.779C827.068 119.556 830 109.889 830 100C829.999 86.7396 824.73 74.0226 815.354 64.6461C805.977 55.2696 793.26 50.0013 780 50V50ZM780 130C774.067 130 768.266 128.241 763.333 124.944C758.399 121.648 754.554 116.962 752.284 111.48C750.013 105.999 749.419 99.9667 750.576 94.1473C751.734 88.3279 754.591 82.9824 758.787 78.7868C762.982 74.5912 768.328 71.734 774.147 70.5764C779.967 69.4189 785.999 70.013 791.481 72.2836C796.962 74.5542 801.648 78.3994 804.944 83.3329C808.241 88.2664 810 94.0666 810 100C810 107.956 806.839 115.587 801.213 121.213C795.587 126.839 787.957 130 780 130Z" fill="#0E61DD"/>
<path d="M560 50C550.111 50 540.444 52.9324 532.222 58.4265C523.999 63.9206 517.59 71.7295 513.806 80.8658C510.022 90.0021 509.031 100.055 510.961 109.755C512.89 119.454 517.652 128.363 524.645 135.355C531.637 142.348 540.546 147.11 550.246 149.039C559.945 150.969 569.998 149.978 579.134 146.194C588.27 142.41 596.079 136.001 601.574 127.779C607.068 119.556 610 109.889 610 100C609.999 86.7396 604.73 74.0226 595.354 64.6461C585.977 55.2696 573.26 50.0013 560 50V50ZM560 130C554.067 130 548.266 128.241 543.333 124.944C538.399 121.648 534.554 116.962 532.284 111.48C530.013 105.999 529.419 99.9667 530.576 94.1473C531.734 88.3279 534.591 82.9824 538.787 78.7868C542.982 74.5912 548.328 71.734 554.147 70.5764C559.967 69.4189 565.999 70.013 571.481 72.2836C576.962 74.5542 581.648 78.3994 584.944 83.3329C588.241 88.2664 590 94.0666 590 100C590 107.956 586.839 115.587 581.213 121.213C575.587 126.839 567.957 130 560 130Z" fill="#0E61DD"/>
<path d="M720 80C720 72.0435 716.839 64.4129 711.213 58.7868C705.587 53.1607 697.956 50 690 50H620V150H690C695.792 150.002 701.461 148.326 706.321 145.176C711.182 142.026 715.026 137.536 717.39 132.248C719.753 126.96 720.535 121.101 719.641 115.378C718.747 109.656 716.214 104.315 712.35 100C717.285 94.5083 720.01 87.3831 720 80ZM640 70H690C692.652 70 695.196 71.0536 697.071 72.9289C698.946 74.8043 700 77.3478 700 80C700 82.6522 698.946 85.1957 697.071 87.0711C695.196 88.9464 692.652 90 690 90H640V70ZM690 130H640V110H690C692.652 110 695.196 111.054 697.071 112.929C698.946 114.804 700 117.348 700 120C700 122.652 698.946 125.196 697.071 127.071C695.196 128.946 692.652 130 690 130Z" fill="#0E61DD"/>
<path d="M930 50V70H890V150H870V70H830V50H930Z" fill="#0E61DD"/>
<path d="M50 50H0V150H50C63.2608 150 75.9785 144.732 85.3553 135.355C94.7322 125.979 100 113.261 100 100C100 86.7392 94.7322 74.0215 85.3553 64.6447C75.9785 55.2678 63.2608 50 50 50V50ZM50 130H20V70H50C57.9565 70 65.5871 73.1607 71.2132 78.7868C76.8393 84.4129 80 92.0435 80 100C80 107.956 76.8393 115.587 71.2132 121.213C65.5871 126.839 57.9565 130 50 130Z" fill="#121221"/>
<path d="M320.77 51.95L319.99 50H300.01L299.23 51.94L260 150H281.55L292.75 122H327.25L338.45 150H360L320.77 51.95ZM300.75 102L310 78.87L319.25 102H300.75Z" fill="#121221"/>
<path d="M160.77 51.95L159.99 50H140.01L139.23 51.94L100 150H121.55L132.75 122H167.25L178.45 150H200L160.77 51.95ZM140.75 102L150 78.87L159.25 102H140.75Z" fill="#121221"/>
<path d="M280 50V70H240V150H220V70H180V50H280Z" fill="#121221"/>
<path d="M1270 0H1070C1056.74 0.00132584 1044.02 5.26959 1034.65 14.6461C1025.27 24.0227 1020 36.7396 1020 50V150C1020 163.26 1025.27 175.977 1034.65 185.354C1044.02 194.73 1056.74 199.999 1070 200H1270C1283.26 199.999 1295.98 194.73 1305.35 185.354C1314.73 175.977 1320 163.26 1320 150V50C1320 36.7396 1314.73 24.0227 1305.35 14.6461C1295.98 5.26959 1283.26 0.00132584 1270 0V0ZM1310 140C1310 153.26 1304.73 165.977 1295.35 175.354C1285.98 184.73 1273.26 189.999 1260 190H1080C1066.74 189.999 1054.02 184.73 1044.65 175.354C1035.27 165.977 1030 153.26 1030 140V60C1030 46.7396 1035.27 34.0227 1044.65 24.6461C1054.02 15.2696 1066.74 10.0013 1080 10H1260C1273.26 10.0013 1285.98 15.2696 1295.35 24.6461C1304.73 34.0227 1310 46.7396 1310 60V140Z" fill="#0E61DD"/>
<path d="M1260 10H1080C1052.39 10 1030 32.3858 1030 60V140C1030 167.614 1052.39 190 1080 190H1260C1287.61 190 1310 167.614 1310 140V60C1310 32.3858 1287.61 10 1260 10Z" fill="#121221"/>
<path d="M1115 120C1123.28 120 1130 111.046 1130 100C1130 88.9543 1123.28 80 1115 80C1106.72 80 1100 88.9543 1100 100C1100 111.046 1106.72 120 1115 120Z" fill="#0E61DD"/>
<path d="M1225 120C1233.28 120 1240 111.046 1240 100C1240 88.9543 1233.28 80 1225 80C1216.72 80 1210 88.9543 1210 100C1210 111.046 1216.72 120 1225 120Z" fill="#0E61DD"/>
<path d="M1315 120C1323.28 120 1330 111.046 1330 100C1330 88.9543 1323.28 80 1315 80C1306.72 80 1300 88.9543 1300 100C1300 111.046 1306.72 120 1315 120Z" fill="#0E61DD"/>
<path d="M1025 120C1033.28 120 1040 111.046 1040 100C1040 88.9543 1033.28 80 1025 80C1016.72 80 1010 88.9543 1010 100C1010 111.046 1016.72 120 1025 120Z" fill="#0E61DD"/>
</svg>
