<svg width="320" height="200" viewBox="0 0 320 200" fill="none" xmlns="http://www.w3.org/2000/svg">
<path d="M260 0H60C46.7396 0.00132584 34.0227 5.26959 24.6461 14.6461C15.2696 24.0227 10.0013 36.7396 10 50V150C10.0013 163.26 15.2696 175.977 24.6461 185.354C34.0227 194.73 46.7396 199.999 60 200H260C273.26 199.999 285.977 194.73 295.354 185.354C304.73 175.977 309.999 163.26 310 150V50C309.999 36.7396 304.73 24.0227 295.354 14.6461C285.977 5.26959 273.26 0.00132584 260 0V0ZM300 140C299.999 153.26 294.73 165.977 285.354 175.354C275.977 184.73 263.26 189.999 250 190H70C56.7396 189.999 44.0227 184.73 34.6461 175.354C25.2696 165.977 20.0013 153.26 20 140V60C20.0013 46.7396 25.2696 34.0227 34.6461 24.6461C44.0227 15.2696 56.7396 10.0013 70 10H250C263.26 10.0013 275.977 15.2696 285.354 24.6461C294.73 34.0227 299.999 46.7396 300 60V140Z" fill="#366CE1"/>
<path d="M250 10H70C42.3858 10 20 32.3858 20 60V140C20 167.614 42.3858 190 70 190H250C277.614 190 300 167.614 300 140V60C300 32.3858 277.614 10 250 10Z" fill="#121221"/>
<path d="M105 120C113.284 120 120 111.046 120 100C120 88.9543 113.284 80 105 80C96.7157 80 90 88.9543 90 100C90 111.046 96.7157 120 105 120Z" fill="#366CE1"/>
<path d="M215 120C223.284 120 230 111.046 230 100C230 88.9543 223.284 80 215 80C206.716 80 200 88.9543 200 100C200 111.046 206.716 120 215 120Z" fill="#366CE1"/>
<path d="M305 120C313.284 120 320 111.046 320 100C320 88.9543 313.284 80 305 80C296.716 80 290 88.9543 290 100C290 111.046 296.716 120 305 120Z" fill="#366CE1"/>
<path d="M15 120C23.2843 120 30 111.046 30 100C30 88.9543 23.2843 80 15 80C6.71573 80 0 88.9543 0 100C0 111.046 6.71573 120 15 120Z" fill="#366CE1"/>
</svg>
