<svg width="510" height="280" viewBox="0 0 510 280" fill="none" xmlns="http://www.w3.org/2000/svg">
<g clip-path="url(#clip0_5_24196)">
<path d="M255 280C395.833 280 510 217.32 510 140C510 62.6801 395.833 0 255 0C114.167 0 0 62.6801 0 140C0 217.32 114.167 280 255 280Z" fill="black"/>
<path d="M255 252C367.666 252 459 201.856 459 140C459 78.1441 367.666 28 255 28C142.334 28 51 78.1441 51 140C51 201.856 142.334 252 255 252Z" fill="white"/>
<path d="M435 155V175H355L335 155V75H355V145L365 155H435Z" fill="black"/>
<path d="M405 185V205H335L305 175V105H325V165L345 185H405Z" fill="black"/>
<path d="M165 90H85V190H165L185 170V110L165 90ZM165 160L155 170H105V110H155L165 120V160Z" fill="black"/>
<path d="M215 120V130H295V150H215V160L225 170H295V190H215L195 170V110L215 90H295V110H225L215 120Z" fill="black"/>
</g>
<defs>
<clipPath id="clip0_5_24196">
<rect width="510" height="280" fill="white"/>
</clipPath>
</defs>
</svg>
