<svg width="193" height="226" viewBox="0 0 193 226" fill="none" xmlns="http://www.w3.org/2000/svg">
<path d="M192.064 101.613C191.86 115.326 188.829 128.85 183.162 141.339C177.495 153.828 169.312 165.013 159.126 174.197C160.984 166.721 161.971 159.055 162.067 151.353C162.788 96.7168 118.842 51.1688 64.2128 50.0288C44.1695 49.572 24.4551 55.1757 7.64877 66.1068C6.75804 66.6866 5.70435 66.9642 4.64358 66.8986C3.58281 66.833 2.57133 66.4277 1.75882 65.7426C0.946301 65.0575 0.375903 64.129 0.132046 63.0946C-0.11181 62.0601 -0.0162123 60.9747 0.404751 59.9988C8.30849 41.8974 21.3951 26.5415 38.0142 15.8676C54.6334 5.19369 74.041 -0.320362 93.7898 0.0207839C148.688 0.939784 192.928 46.7138 192.064 101.613Z" fill="#366CE1"/>
<path d="M191.972 194.023C192.714 204.644 189.837 215.204 183.81 223.981C183.413 224.56 182.84 224.995 182.175 225.22C181.511 225.446 180.791 225.45 180.124 225.232C179.457 225.014 178.879 224.586 178.476 224.011C178.073 223.437 177.867 222.747 177.889 222.046C177.996 216.877 177.313 211.721 175.863 206.759C173.757 199.5 169.879 192.879 164.578 187.492C159.276 182.105 152.718 178.121 145.494 175.9C139.221 173.89 132.602 173.194 126.048 173.854C119.495 174.514 113.147 176.517 107.402 179.737C106.795 180.088 106.091 180.234 105.395 180.152C104.698 180.069 104.047 179.764 103.539 179.28C103.031 178.797 102.694 178.162 102.577 177.471C102.46 176.78 102.57 176.069 102.891 175.446C107.649 166.308 115.262 158.974 124.573 154.562C133.883 150.15 144.38 148.9 154.465 151.003C164.551 153.107 173.674 158.448 180.444 166.213C187.215 173.979 191.263 183.744 191.972 194.023Z" fill="#366CE1"/>
<path d="M133.772 0.114587C144.561 -0.639047 155.282 2.34171 164.134 8.55659C164.687 8.93535 165.102 9.48311 165.317 10.1178C165.533 10.7524 165.537 11.4398 165.328 12.0769C165.12 12.7139 164.711 13.2664 164.163 13.6514C163.614 14.0365 162.956 14.2334 162.286 14.2126C161.5 14.1859 160.709 14.1783 159.914 14.1896C151.679 14.3195 143.62 16.5988 136.537 20.8016C129.454 25.0044 123.592 30.9849 119.531 38.1507C115.47 45.3164 113.352 53.4186 113.387 61.6548C113.421 69.8909 115.607 77.9751 119.728 85.1066C120.064 85.6862 120.203 86.3591 120.124 87.0244C120.045 87.6897 119.753 88.3117 119.292 88.7971C118.83 89.2826 118.224 89.6054 117.563 89.7173C116.902 89.8291 116.223 89.724 115.628 89.4176C106.404 84.7348 98.9713 77.1555 94.4693 67.8423C89.9673 58.5291 88.6447 47.9963 90.7042 37.8591C92.7638 27.722 98.0919 18.5403 105.871 11.7224C113.651 4.90448 123.452 0.826737 133.772 0.114587V0.114587Z" fill="#366CE1"/>
</svg>
