<svg width="852" height="226" viewBox="0 0 852 226" fill="none" xmlns="http://www.w3.org/2000/svg">
<path d="M350 85.4014V105.401H410V125.401H350V165.401H330V65.4014H430V85.4014H350Z" fill="#121221"/>
<path d="M50 65.4067H0V165.407H50C63.2608 165.407 75.9785 160.139 85.3553 150.762C94.7322 141.385 100 128.668 100 115.407C100 102.146 94.7322 89.4282 85.3553 80.0514C75.9785 70.6746 63.2608 65.4067 50 65.4067V65.4067ZM50 145.407H20V85.4067H50C57.9565 85.4067 65.5871 88.5674 71.2132 94.1935C76.8393 99.8196 80 107.45 80 115.407C80 123.363 76.8393 130.994 71.2132 136.62C65.5871 142.246 57.9565 145.407 50 145.407Z" fill="#121221"/>
<path d="M320 145.401V165.401H220V65.4014H240V145.401H320Z" fill="#121221"/>
<path d="M160 65.4067C150.111 65.4067 140.444 68.3392 132.222 73.8333C123.999 79.3273 117.59 87.1363 113.806 96.2726C110.022 105.409 109.031 115.462 110.961 125.161C112.89 134.86 117.652 143.769 124.645 150.762C131.637 157.755 140.546 162.517 150.246 164.446C159.945 166.375 169.998 165.385 179.134 161.601C188.27 157.816 196.079 151.408 201.574 143.185C207.068 134.963 210 125.296 210 115.407C209.999 102.146 204.73 89.4294 195.354 80.0529C185.977 70.6763 173.26 65.4081 160 65.4067V65.4067ZM160 145.407C154.067 145.407 148.266 143.647 143.333 140.351C138.399 137.054 134.554 132.369 132.284 126.887C130.013 121.405 129.419 115.373 130.576 109.554C131.734 103.735 134.591 98.3891 138.787 94.1935C142.982 89.998 148.328 87.1407 154.147 85.9832C159.967 84.8256 165.999 85.4197 171.481 87.6904C176.962 89.961 181.648 93.8062 184.944 98.7396C188.241 103.673 190 109.473 190 115.407C190 123.363 186.839 130.994 181.213 136.62C175.587 142.246 167.957 145.407 160 145.407Z" fill="#121221"/>
<path d="M590.77 67.3514L589.99 65.4014H570.01L569.23 67.3414L530 165.406H551.55L562.75 137.406H597.25L608.45 165.406H630L590.77 67.3514ZM570.75 117.406L580 94.2714L589.25 117.401L570.75 117.406Z" fill="#121221"/>
<path d="M490 85.4014V145.401H520V165.401H440V145.401H470V85.4014H440V65.4014H520V85.4014H490Z" fill="#121221"/>
<path d="M851.064 101.613C850.86 115.326 847.829 128.85 842.162 141.339C836.495 153.828 828.312 165.013 818.126 174.197C819.984 166.721 820.971 159.055 821.067 151.353C821.788 96.7168 777.842 51.1688 723.213 50.0288C703.17 49.572 683.455 55.1757 666.649 66.1068C665.758 66.6866 664.704 66.9642 663.644 66.8986C662.583 66.833 661.571 66.4277 660.759 65.7426C659.946 65.0575 659.376 64.129 659.132 63.0946C658.888 62.0601 658.984 60.9747 659.405 59.9988C667.308 41.8974 680.395 26.5415 697.014 15.8676C713.633 5.19369 733.041 -0.320362 752.79 0.0207839C807.688 0.939784 851.928 46.7138 851.064 101.613Z" fill="black"/>
<path d="M850.972 194.023C851.714 204.644 848.837 215.204 842.81 223.981C842.413 224.56 841.84 224.995 841.175 225.22C840.511 225.446 839.791 225.45 839.124 225.232C838.457 225.014 837.879 224.586 837.476 224.011C837.073 223.437 836.867 222.747 836.889 222.046C836.996 216.877 836.313 211.721 834.863 206.759C832.757 199.5 828.879 192.879 823.578 187.492C818.276 182.105 811.718 178.121 804.494 175.9C798.221 173.89 791.602 173.194 785.048 173.854C778.495 174.514 772.147 176.517 766.402 179.737C765.795 180.088 765.091 180.234 764.395 180.152C763.698 180.069 763.047 179.764 762.539 179.28C762.031 178.797 761.694 178.162 761.577 177.471C761.46 176.78 761.57 176.069 761.891 175.446C766.649 166.308 774.262 158.974 783.573 154.562C792.883 150.15 803.38 148.9 813.465 151.003C823.551 153.107 832.674 158.448 839.444 166.213C846.215 173.979 850.263 183.744 850.972 194.023Z" fill="black"/>
<path d="M792.772 0.114587C803.561 -0.639047 814.282 2.34171 823.134 8.55659C823.687 8.93535 824.102 9.48311 824.317 10.1178C824.533 10.7524 824.537 11.4398 824.328 12.0769C824.12 12.7139 823.711 13.2664 823.163 13.6514C822.614 14.0365 821.956 14.2334 821.286 14.2126C820.5 14.1859 819.709 14.1783 818.914 14.1896C810.679 14.3195 802.62 16.5988 795.537 20.8016C788.454 25.0044 782.592 30.9849 778.531 38.1507C774.47 45.3164 772.352 53.4186 772.387 61.6548C772.421 69.8909 774.607 77.9751 778.728 85.1066C779.064 85.6862 779.203 86.3591 779.124 87.0244C779.045 87.6897 778.753 88.3117 778.292 88.7971C777.83 89.2826 777.224 89.6054 776.563 89.7173C775.902 89.8291 775.223 89.724 774.628 89.4176C765.404 84.7348 757.971 77.1555 753.469 67.8423C748.967 58.5291 747.645 47.9963 749.704 37.8591C751.764 27.722 757.092 18.5403 764.871 11.7224C772.651 4.90448 782.452 0.826737 792.772 0.114587V0.114587Z" fill="black"/>
</svg>
