<svg width="210" height="210" viewBox="0 0 210 210" fill="none" xmlns="http://www.w3.org/2000/svg">
<path d="M50 110C40.111 110 30.444 112.932 22.2215 118.427C13.9991 123.921 7.59044 131.73 3.80606 140.866C0.0216784 150.002 -0.968508 160.055 0.960754 169.755C2.89001 179.454 7.65206 188.363 14.6447 195.355C21.6373 202.348 30.5465 207.11 40.2455 209.039C49.9446 210.969 59.9979 209.978 69.1342 206.194C78.2705 202.41 86.0794 196.001 91.5735 187.779C97.0676 179.556 100 169.889 100 160V110H50ZM90 160C90 167.911 87.6541 175.645 83.2588 182.223C78.8636 188.801 72.6164 193.928 65.3074 196.955C57.9983 199.983 49.9557 200.775 42.1964 199.231C34.4372 197.688 27.3099 193.878 21.7158 188.284C16.1217 182.69 12.312 175.563 10.7686 167.804C9.22521 160.044 10.0174 152.002 13.0449 144.693C16.0724 137.384 21.1993 131.136 27.7772 126.741C34.3552 122.346 42.0888 120 50 120H90V160Z" fill="#366CE1"/>
<path d="M160 100C169.889 100 179.556 97.0676 187.779 91.5735C196.001 86.0794 202.41 78.2705 206.194 69.1342C209.978 59.9979 210.969 49.9446 209.039 40.2455C207.11 30.5465 202.348 21.6373 195.355 14.6447C188.363 7.65206 179.454 2.89001 169.755 0.960754C160.055 -0.968508 150.002 0.0216784 140.866 3.80606C131.73 7.59044 123.921 13.9991 118.427 22.2215C112.932 30.444 110 40.111 110 50V100H160ZM120 50C120 42.0888 122.346 34.3552 126.741 27.7772C131.136 21.1993 137.384 16.0724 144.693 13.0449C152.002 10.0174 160.044 9.22521 167.804 10.7686C175.563 12.312 182.69 16.1217 188.284 21.7158C193.878 27.3099 197.688 34.4372 199.231 42.1964C200.775 49.9557 199.983 57.9983 196.955 65.3074C193.928 72.6164 188.801 78.8636 182.223 83.2588C175.645 87.6541 167.911 90 160 90H120V50Z" fill="#366CE1"/>
<path d="M100 50C100 40.111 97.0676 30.444 91.5735 22.2215C86.0794 13.9991 78.2705 7.59044 69.1342 3.80606C59.9979 0.0216784 49.9446 -0.968508 40.2455 0.960754C30.5465 2.89001 21.6373 7.65206 14.6447 14.6447C7.65206 21.6373 2.89001 30.5465 0.960754 40.2455C-0.968508 49.9446 0.0216784 59.9979 3.80606 69.1342C7.59044 78.2705 13.9991 86.0794 22.2215 91.5735C30.444 97.0676 40.111 100 50 100H100V50ZM50 90C42.0888 90 34.3552 87.6541 27.7772 83.2588C21.1993 78.8636 16.0724 72.6164 13.0449 65.3074C10.0174 57.9983 9.22521 49.9557 10.7686 42.1964C12.312 34.4372 16.1217 27.3099 21.7158 21.7158C27.3099 16.1217 34.4372 12.312 42.1964 10.7686C49.9557 9.22521 57.9983 10.0174 65.3074 13.0449C72.6164 16.0724 78.8636 21.1993 83.2588 27.7772C87.6541 34.3552 90 42.0888 90 50V90H50Z" fill="#366CE1"/>
<path d="M110 160C110 169.889 112.932 179.556 118.427 187.779C123.921 196.001 131.73 202.41 140.866 206.194C150.002 209.978 160.055 210.969 169.755 209.039C179.454 207.11 188.363 202.348 195.355 195.355C202.348 188.363 207.11 179.454 209.039 169.755C210.969 160.055 209.978 150.002 206.194 140.866C202.41 131.73 196.001 123.921 187.779 118.427C179.556 112.932 169.889 110 160 110H110V160ZM160 120C167.911 120 175.645 122.346 182.223 126.741C188.801 131.136 193.928 137.384 196.955 144.693C199.983 152.002 200.775 160.044 199.231 167.804C197.688 175.563 193.878 182.69 188.284 188.284C182.69 193.878 175.563 197.688 167.804 199.231C160.044 200.775 152.002 199.983 144.693 196.955C137.384 193.928 131.136 188.801 126.741 182.223C122.346 175.645 120 167.911 120 160V120H160Z" fill="#366CE1"/>
</svg>
