<svg width="844" height="210" viewBox="0 0 844 210" fill="none" xmlns="http://www.w3.org/2000/svg">
<path d="M684 110C674.111 110 664.444 112.932 656.222 118.427C647.999 123.921 641.59 131.73 637.806 140.866C634.022 150.002 633.031 160.055 634.961 169.755C636.89 179.454 641.652 188.363 648.645 195.355C655.637 202.348 664.546 207.11 674.246 209.039C683.945 210.969 693.998 209.978 703.134 206.194C712.271 202.41 720.079 196.001 725.574 187.779C731.068 179.556 734 169.889 734 160V110H684ZM724 160C724 167.911 721.654 175.645 717.259 182.223C712.864 188.801 706.616 193.928 699.307 196.955C691.998 199.983 683.956 200.775 676.196 199.231C668.437 197.688 661.31 193.878 655.716 188.284C650.122 182.69 646.312 175.563 644.769 167.804C643.225 160.044 644.017 152.002 647.045 144.693C650.072 137.384 655.199 131.136 661.777 126.741C668.355 122.346 676.089 120 684 120H724V160Z" fill="black"/>
<path d="M794 100C803.889 100 813.556 97.0676 821.779 91.5735C830.001 86.0794 836.41 78.2705 840.194 69.1342C843.978 59.9979 844.969 49.9446 843.039 40.2455C841.11 30.5465 836.348 21.6373 829.355 14.6447C822.363 7.65206 813.454 2.89001 803.755 0.960754C794.055 -0.968508 784.002 0.0216784 774.866 3.80606C765.73 7.59044 757.921 13.9991 752.427 22.2215C746.932 30.444 744 40.111 744 50V100H794ZM754 50C754 42.0888 756.346 34.3552 760.741 27.7772C765.136 21.1993 771.384 16.0724 778.693 13.0449C786.002 10.0174 794.044 9.22521 801.804 10.7686C809.563 12.312 816.69 16.1217 822.284 21.7158C827.878 27.3099 831.688 34.4372 833.231 42.1964C834.775 49.9557 833.983 57.9983 830.955 65.3074C827.928 72.6164 822.801 78.8636 816.223 83.2588C809.645 87.6541 801.911 90 794 90H754V50Z" fill="black"/>
<path d="M734 50C734 40.111 731.068 30.444 725.574 22.2215C720.079 13.9991 712.271 7.59044 703.134 3.80606C693.998 0.0216784 683.945 -0.968508 674.246 0.960754C664.546 2.89001 655.637 7.65206 648.645 14.6447C641.652 21.6373 636.89 30.5465 634.961 40.2455C633.031 49.9446 634.022 59.9979 637.806 69.1342C641.59 78.2705 647.999 86.0794 656.222 91.5735C664.444 97.0676 674.111 100 684 100H734V50ZM684 90C676.089 90 668.355 87.6541 661.777 83.2588C655.199 78.8636 650.072 72.6164 647.045 65.3074C644.017 57.9983 643.225 49.9557 644.769 42.1964C646.312 34.4372 650.122 27.3099 655.716 21.7158C661.31 16.1217 668.437 12.312 676.196 10.7686C683.956 9.22521 691.998 10.0174 699.307 13.0449C706.616 16.0724 712.864 21.1993 717.259 27.7772C721.654 34.3552 724 42.0888 724 50V90H684Z" fill="black"/>
<path d="M744 160C744 169.889 746.932 179.556 752.427 187.779C757.921 196.001 765.73 202.41 774.866 206.194C784.002 209.978 794.055 210.969 803.755 209.039C813.454 207.11 822.363 202.348 829.355 195.355C836.348 188.363 841.11 179.454 843.039 169.755C844.969 160.055 843.978 150.002 840.194 140.866C836.41 131.73 830.001 123.921 821.779 118.427C813.556 112.932 803.889 110 794 110H744V160ZM794 120C801.911 120 809.645 122.346 816.223 126.741C822.801 131.136 827.928 137.384 830.955 144.693C833.983 152.002 834.775 160.044 833.231 167.804C831.688 175.563 827.878 182.69 822.284 188.284C816.69 193.878 809.563 197.688 801.804 199.231C794.044 200.775 786.002 199.983 778.693 196.955C771.384 193.928 765.136 188.801 760.741 182.223C756.346 175.645 754 167.911 754 160V120H794Z" fill="black"/>
<path d="M0 105C0 114.889 2.93244 124.556 8.42651 132.779C13.9206 141.001 21.7295 147.41 30.8658 151.194C40.0021 154.978 50.0555 155.969 59.7545 154.039C69.4536 152.11 78.3627 147.348 85.3553 140.355C92.348 133.363 97.11 124.454 99.0393 114.755C100.969 105.055 99.9784 95.0022 96.194 85.8658C92.4096 76.7295 86.001 68.9206 77.7785 63.4265C69.556 57.9324 59.8891 55 50 55H0V105ZM50 65C57.9113 65 65.6448 67.346 72.2228 71.7412C78.8008 76.1365 83.9277 82.3836 86.9552 89.6927C89.9827 97.0017 90.7748 105.044 89.2314 112.804C87.688 120.563 83.8784 127.69 78.2843 133.284C72.6902 138.878 65.5629 142.688 57.8036 144.231C50.0444 145.775 42.0017 144.983 34.6927 141.955C27.3836 138.928 21.1365 133.801 16.7412 127.223C12.346 120.645 10 112.911 10 105V65H50Z" fill="black"/>
<path d="M160 55C150.111 55 140.444 57.9324 132.222 63.4265C123.999 68.9206 117.59 76.7295 113.806 85.8658C110.022 95.0022 109.031 105.055 110.961 114.755C112.89 124.454 117.652 133.363 124.645 140.355C131.637 147.348 140.546 152.11 150.246 154.039C159.945 155.969 169.998 154.978 179.134 151.194C188.271 147.41 196.079 141.001 201.574 132.779C207.068 124.556 210 114.889 210 105C209.999 91.7396 204.73 79.0226 195.354 69.6461C185.977 60.2696 173.26 55.0013 160 55V55ZM160 145C152.089 145 144.355 142.654 137.777 138.259C131.199 133.864 126.072 127.616 123.045 120.307C120.017 112.998 119.225 104.956 120.769 97.1964C122.312 89.4372 126.122 82.3098 131.716 76.7157C137.31 71.1216 144.437 67.312 152.196 65.7686C159.956 64.2252 167.998 65.0173 175.307 68.0448C182.616 71.0723 188.864 76.1992 193.259 82.7772C197.654 89.3551 200 97.0887 200 105C200 115.609 195.786 125.783 188.284 133.284C180.783 140.786 170.609 145 160 145Z" fill="black"/>
<path d="M380 55C370.111 55 360.444 57.9324 352.222 63.4265C343.999 68.9206 337.59 76.7295 333.806 85.8658C330.022 95.0022 329.032 105.055 330.961 114.755C332.89 124.454 337.652 133.363 344.645 140.355C351.637 147.348 360.546 152.11 370.245 154.039C379.945 155.969 389.998 154.978 399.134 151.194C408.27 147.41 416.079 141.001 421.573 132.779C427.068 124.556 430 114.889 430 105C429.999 91.7396 424.73 79.0226 415.354 69.6461C405.977 60.2696 393.26 55.0013 380 55V55ZM380 145C372.089 145 364.355 142.654 357.777 138.259C351.199 133.864 346.072 127.616 343.045 120.307C340.017 112.998 339.225 104.956 340.769 97.1964C342.312 89.4372 346.122 82.3098 351.716 76.7157C357.31 71.1216 364.437 67.312 372.196 65.7686C379.956 64.2252 387.998 65.0173 395.307 68.0448C402.616 71.0723 408.864 76.1992 413.259 82.7772C417.654 89.3551 420 97.0887 420 105C420 115.609 415.786 125.783 408.284 133.284C400.783 140.786 390.609 145 380 145Z" fill="black"/>
<path d="M320 105V155H310V105C310 94.3913 305.786 84.2172 298.284 76.7157C290.783 69.2142 280.609 65 270 65H230V155H220V55H270C283.26 55.0013 295.977 60.2696 305.354 69.6461C314.73 79.0226 319.999 91.7396 320 105V105Z" fill="black"/>
<path d="M540 55V65H490C479.391 65 469.217 69.2142 461.716 76.7157C454.214 84.2172 450 94.3913 450 105V155H440V105C440.001 91.7396 445.27 79.0226 454.646 69.6461C464.023 60.2696 476.74 55.0013 490 55H540Z" fill="black"/>
</svg>
