<svg width="723" height="222" viewBox="0 0 723 222" fill="none" xmlns="http://www.w3.org/2000/svg">
<path d="M682.776 37.6544C682.705 37.6305 682.628 37.6114 682.552 37.5923L682.771 37.6496C682.771 37.6508 682.772 37.6521 682.773 37.653C682.774 37.6538 682.775 37.6544 682.776 37.6544V37.6544Z" fill="#121221"/>
<path d="M684.342 38.0696V38.1126C683.827 37.9503 683.306 37.7975 682.776 37.6543L684.342 38.0696Z" fill="#121221"/>
<path d="M686.596 38.8665C686.581 38.8618 686.572 38.857 686.558 38.8522C686.561 38.8479 686.565 38.8431 686.567 38.8379L686.596 38.8665Z" fill="#121221"/>
<path d="M676.374 28.6453H676.298C675.801 28.0963 675.287 27.5568 674.756 27.0269L676.374 28.6453Z" fill="#121221"/>
<path d="M682.776 37.6543L684.342 38.0696V38.1126C683.827 37.9503 683.306 37.7975 682.776 37.6543Z" fill="#121221"/>
<path d="M686.596 38.8665C686.581 38.8618 686.572 38.857 686.558 38.8522C686.561 38.8479 686.565 38.8431 686.567 38.8379L686.596 38.8665Z" fill="#121221"/>
<path d="M682.607 19.7748C681.767 19.3786 680.917 19.0094 680.058 18.6672C680.066 18.6267 680.077 18.5868 680.091 18.5479C680.943 18.9298 681.779 19.3404 682.607 19.7748Z" fill="#121221"/>
<path d="M676.374 28.6453H676.298C675.801 28.0963 675.287 27.5568 674.756 27.0269L676.374 28.6453Z" fill="#121221"/>
<path d="M680.602 105.667C680.602 105.671 680.604 105.674 680.606 105.677L681.108 105.963C680.938 105.868 680.771 105.767 680.602 105.667Z" fill="#121221"/>
<path d="M636.825 161.769H636.834L636.858 161.75L636.825 161.769Z" fill="#121221"/>
<path d="M636.228 155.242C636.195 155.218 636.161 155.195 636.123 155.171L636.133 155.161C636.166 155.19 636.195 155.218 636.228 155.242Z" fill="#121221"/>
<path d="M636.858 161.75L636.834 161.769H636.825L636.858 161.75Z" fill="#121221"/>
<path d="M636.228 155.242C636.195 155.218 636.161 155.195 636.123 155.171L636.133 155.161C636.166 155.19 636.195 155.218 636.228 155.242Z" fill="#121221"/>
<path d="M693.404 183.806C693.401 189.518 692.032 195.145 689.413 200.22C686.793 205.295 682.998 209.67 678.344 212.981C673.69 216.291 668.312 218.441 662.658 219.251C657.005 220.061 651.239 219.507 645.843 217.636C643.72 216.901 641.672 215.964 639.728 214.839H657.597C662.081 214.838 666.49 213.69 670.404 211.503C674.318 209.316 677.607 206.163 679.957 202.345C682.308 198.527 683.641 194.171 683.832 189.691C684.022 185.212 683.062 180.758 681.043 176.755C684.553 175.071 687.844 172.966 690.845 170.486C692.541 174.722 693.41 179.244 693.404 183.806V183.806Z" fill="#121221"/>
<path d="M619.53 214.839H648.175C646.139 217.553 643.728 219.964 641.014 222C634.822 217.34 627.279 214.826 619.53 214.839V214.839Z" fill="#121221"/>
<path d="M626.368 167.12L626.35 167.129C626.35 167.12 626.355 167.116 626.355 167.106L626.368 167.12Z" fill="#121221"/>
<path d="M636.114 155.161C636.118 155.161 636.118 155.166 636.123 155.171C635.202 155.982 634.312 156.827 633.454 157.706C633.316 157.849 633.178 157.992 633.044 158.135L632.853 158.341C630.521 160.826 628.462 163.555 626.713 166.481C626.594 166.681 626.479 166.877 626.365 167.078C627.062 163.775 628.222 160.588 629.812 157.61C630.852 157.83 631.903 158.007 632.963 158.126C633.039 157.973 633.12 157.825 633.201 157.677C634.423 155.4 635.888 153.261 637.57 151.299C638.477 151.709 639.403 152.087 640.344 152.421C638.871 153.234 637.458 154.15 636.114 155.161Z" fill="#121221"/>
<path d="M636.858 161.75L636.834 161.769H636.825L636.858 161.75Z" fill="#121221"/>
<path d="M636.228 155.242C636.195 155.218 636.161 155.195 636.123 155.171L636.133 155.161C636.166 155.19 636.195 155.218 636.228 155.242Z" fill="#121221"/>
<path d="M648.527 149.165C645.78 149.876 643.13 150.918 640.635 152.268C642.229 150.465 644.003 148.828 645.929 147.384C646.765 148.014 647.634 148.606 648.527 149.165Z" fill="#121221"/>
<path d="M662.204 85.9688C661.88 85.9592 661.56 85.9497 661.235 85.9449C660.968 85.9353 660.701 85.9353 660.433 85.9353C656.444 85.9404 652.498 85.1077 648.851 83.491C649.004 83.4146 649.161 83.343 649.319 83.2714C652.629 81.7552 656.102 80.6227 659.669 79.896C660.371 81.9672 661.213 83.9882 662.19 85.9449C662.195 85.9544 662.2 85.9592 662.204 85.9688Z" fill="#121221"/>
<path d="M681.11 105.963L680.609 105.677C680.606 105.674 680.604 105.671 680.604 105.667C680.771 105.767 680.938 105.868 681.11 105.963Z" fill="#121221"/>
<path d="M680.602 105.667C675.192 102.485 670.466 98.2607 666.699 93.24C666.68 93.2114 666.656 93.1828 666.637 93.1541C671.071 92.7601 675.539 92.9883 679.909 93.8321C679.646 97.7906 679.879 101.766 680.602 105.667V105.667Z" fill="#121221"/>
<path d="M687.716 129.696C684.234 127.123 680.418 125.036 676.372 123.494C676.963 121.069 677.743 118.693 678.707 116.39C682.919 119.874 686.045 124.491 687.716 129.696Z" fill="#121221"/>
<path d="M665.26 14.566C658.824 13.915 652.324 14.5727 646.149 16.4995C644.774 16.9244 643.423 17.4161 642.105 17.97C635.185 20.851 629.04 25.3209 624.168 31.0178C623.648 31.6194 623.151 32.2305 622.669 32.8559C616.229 41.1529 612.722 51.3511 612.696 61.8543C609.451 57.9382 606.853 53.5285 605 48.7921C612.191 44.8889 618.251 39.1938 622.593 32.2591C622.235 29.3309 622.149 26.3758 622.335 23.4316C629.291 23.0071 636.068 21.0577 642.186 17.7217C643.11 14.8083 644.314 11.9911 645.781 9.30957C647.625 10.0368 649.513 10.646 651.434 11.1333H651.439C651.458 11.1431 651.479 11.148 651.501 11.1476C655.975 12.2916 660.593 12.7725 665.207 12.5751C665.212 13.2387 665.231 13.9023 665.26 14.566Z" fill="#121221"/>
<path d="M694.072 29.3373C693.743 29.8959 693.394 30.4449 693.036 30.9844L690.697 28.645H693.256C693.533 28.8742 693.805 29.1033 694.072 29.3373Z" fill="#646464"/>
<path d="M670.583 28.645C670.416 29.6858 670.284 30.7313 670.187 31.7817C666.028 30.1902 661.666 29.1937 657.229 28.8217C658.293 28.7048 659.363 28.6458 660.433 28.645H670.583Z" fill="#121221"/>
<path d="M682.771 37.6496C682.771 37.6508 682.772 37.6521 682.773 37.653C682.774 37.6538 682.775 37.6544 682.776 37.6544C682.705 37.6305 682.628 37.6114 682.552 37.5923L682.771 37.6496Z" fill="#121221"/>
<path d="M682.776 37.6543L684.342 38.0696V38.1126C683.827 37.9503 683.306 37.7975 682.776 37.6543Z" fill="#121221"/>
<path d="M704.685 42.6338L704.675 42.6243C701.967 37.5951 698.375 33.0945 694.072 29.3377C693.805 29.1038 693.532 28.8746 693.256 28.6455C689.159 25.2363 684.519 22.538 679.53 20.663C679.692 19.9946 679.864 19.3262 680.055 18.6674C680.914 19.0112 681.764 19.3804 682.604 19.775C682.638 19.7893 682.671 19.8084 682.705 19.8228C687.669 22.1681 692.19 25.355 696.068 29.2422L681.42 14.595C682.51 11.7482 683.874 9.01401 685.493 6.43115L704.685 42.6338Z" fill="#121221"/>
<path d="M680.089 18.5479C680.943 18.9298 681.779 19.3404 682.605 19.7748C681.764 19.3786 680.915 19.0094 680.055 18.6672C680.063 18.6267 680.075 18.5868 680.089 18.5479V18.5479Z" fill="#121221"/>
<path d="M704.861 42.9678L704.675 42.624L704.685 42.6336L704.861 42.9678Z" fill="#121221"/>
<path d="M696.07 29.2419C692.192 25.3546 687.671 22.1678 682.707 19.8224C682.674 19.8081 682.64 19.789 682.607 19.7747C681.781 19.3403 680.945 18.9297 680.091 18.5477C680.077 18.5867 680.066 18.6266 680.057 18.6671C675.347 16.7861 670.367 15.6692 665.305 15.3586C665.295 15.2106 665.286 15.0626 665.281 14.9146C665.272 14.7952 665.267 14.6806 665.262 14.5661C665.233 13.9024 665.214 13.2388 665.209 12.5752C665.19 8.33031 665.734 4.1016 666.828 0L696.07 29.2419Z" fill="#121221"/>
<path d="M682.607 19.7748C681.767 19.3786 680.917 19.0094 680.058 18.6672C680.066 18.6267 680.077 18.5868 680.091 18.5479C680.943 18.9298 681.779 19.3404 682.607 19.7748Z" fill="#121221"/>
<path d="M705.898 43.8463L686.705 38.7045L686.333 38.6042L676.374 28.6453H684.906C685.164 27.0377 685.503 25.4443 685.922 23.8711L704.675 42.6241L704.862 42.9679L704.685 42.6337L705.898 43.8463Z" fill="#121221"/>
<path d="M704.861 42.9678L704.675 42.624L704.685 42.6336L704.861 42.9678Z" fill="#121221"/>
<path d="M686.567 38.8379L686.596 38.8665C686.581 38.8618 686.572 38.857 686.558 38.8522C686.561 38.8479 686.565 38.8431 686.567 38.8379Z" fill="#121221"/>
<path d="M688.692 39.6926C688.205 39.6163 687.713 39.5494 687.221 39.4921L686.596 38.8667C687.302 39.1245 688.002 39.3966 688.692 39.6926Z" fill="#646464"/>
<path d="M722.498 48.2957C718.835 51.9545 714.6 54.9924 709.961 57.2902C704.773 49.4468 697.372 43.3217 688.696 39.6926H688.692C688.004 39.3966 687.302 39.1244 686.596 38.8666L686.567 38.838C686.565 38.8432 686.561 38.848 686.558 38.8523H686.553C685.827 38.585 685.092 38.3415 684.342 38.1123V38.0693L686.333 38.604L686.706 38.7043L705.898 43.8461L722.498 48.2957Z" fill="#121221"/>
<path d="M703.995 56.2688C698.992 57.6046 693.805 58.119 688.637 57.7917C688.318 52.6004 687.152 47.4961 685.185 42.6814C680.37 40.7158 675.266 39.5499 670.075 39.2297C669.918 36.748 669.955 34.2579 670.185 31.7819C670.28 30.7316 670.412 29.6861 670.581 28.6453C670.839 27.0377 671.178 25.4443 671.598 23.8711L674.754 27.0268C675.283 27.5568 675.798 28.0963 676.296 28.6453H676.372L686.331 38.6042L684.34 38.0695L682.774 37.6542C682.773 37.6542 682.772 37.6537 682.771 37.6528C682.77 37.6519 682.769 37.6507 682.769 37.6494L682.55 37.5921C682.626 37.6112 682.703 37.6303 682.774 37.6542C683.304 37.7974 683.825 37.9502 684.34 38.1125C685.09 38.3417 685.825 38.5852 686.551 38.8525H686.555C686.57 38.8573 686.579 38.8621 686.594 38.8668L703.995 56.2688Z" fill="#121221"/>
<path d="M676.374 28.6453H676.298C675.801 28.0963 675.287 27.5568 674.756 27.0269L676.374 28.6453Z" fill="#121221"/>
<path d="M682.771 37.6496C682.771 37.6508 682.772 37.6521 682.773 37.653C682.774 37.6538 682.775 37.6544 682.776 37.6544C682.705 37.6305 682.628 37.6114 682.552 37.5923L682.771 37.6496Z" fill="#121221"/>
<path d="M682.776 37.6543L684.342 38.0696V38.1126C683.827 37.9503 683.306 37.7975 682.776 37.6543Z" fill="#121221"/>
<path d="M686.596 38.8665C686.581 38.8618 686.572 38.857 686.558 38.8522C686.561 38.8479 686.565 38.8431 686.567 38.8379L686.596 38.8665Z" fill="#121221"/>
<path d="M626.35 167.097H626.345L626.355 167.106C626.356 167.096 626.359 167.087 626.364 167.078C626.359 167.083 626.355 167.092 626.35 167.097ZM692.005 97.8711C683.753 90.5662 673.218 86.3584 662.204 85.9691C661.879 85.9595 661.56 85.95 661.235 85.9452C660.968 85.9356 660.7 85.9356 660.433 85.9356C656.444 85.9407 652.498 85.108 648.851 83.4913C648.688 83.4196 648.526 83.348 648.364 83.2716C642.698 80.6388 638.049 76.2263 635.123 70.7064C632.198 65.1865 631.157 58.8616 632.159 52.6953C633.161 46.5289 636.151 40.859 640.673 36.5492C645.196 32.2394 651.003 29.5259 657.21 28.822H657.215C657.216 28.8209 657.217 28.82 657.218 28.8194C657.219 28.8188 657.221 28.8185 657.222 28.8185C657.224 28.8185 657.225 28.8188 657.226 28.8194C657.227 28.82 657.229 28.8209 657.229 28.822C658.293 28.7051 659.363 28.6461 660.433 28.6453H670.583C670.841 27.0378 671.18 25.4444 671.6 23.8711L676.374 28.6453H684.905C685.164 27.0378 685.503 25.4444 685.922 23.8711L690.696 28.6453H693.255C689.158 25.2361 684.519 22.5379 679.53 20.6629C679.692 19.9945 679.864 19.3261 680.055 18.6673C675.345 16.7863 670.365 15.6694 665.303 15.3588C665.293 15.2108 665.283 15.0628 665.279 14.9148C665.269 14.7954 665.264 14.6808 665.26 14.5662C658.824 13.9152 652.323 14.573 646.148 16.4998C644.774 16.9247 643.422 17.4164 642.105 17.9702C635.185 20.8513 629.04 25.3212 624.168 31.0181C623.648 31.6197 623.151 32.2308 622.669 32.8562C616.229 41.1531 612.721 51.3514 612.696 61.8546C612.691 61.9262 612.691 61.9931 612.691 62.0647C612.694 74.7258 617.725 86.8675 626.677 95.8202C635.63 104.773 647.772 109.804 660.433 109.807C666.5 109.808 672.41 111.734 677.312 115.308C682.214 118.883 685.856 123.92 687.713 129.696V129.701C689.98 136.789 689.404 144.481 686.105 151.152C682.806 157.822 677.043 162.949 670.034 165.45H670.029C667.958 166.187 665.808 166.681 663.622 166.92C657.405 166.401 651.351 164.659 645.809 161.793C645.781 161.778 645.752 161.764 645.728 161.75C644.372 161.05 643.058 160.284 641.785 159.453L636.906 161.726L636.858 161.75L636.834 161.769H636.824L635.979 161.764L635.578 161.769C635.588 161.755 635.602 161.74 635.612 161.726C636.48 160.576 637.417 159.481 638.419 158.446L632.127 159.84C632.198 159.683 632.27 159.525 632.346 159.372C630.219 161.706 628.332 164.247 626.713 166.958L626.369 167.121C630.862 171.697 636.231 175.321 642.156 177.777C648.081 180.232 654.44 181.469 660.853 181.413C667.266 181.356 673.602 180.008 679.483 177.449C685.364 174.889 690.668 171.171 695.08 166.516C699.492 161.861 702.921 156.365 705.162 150.356C707.403 144.347 708.409 137.947 708.122 131.54C707.835 125.133 706.26 118.85 703.491 113.065C700.722 107.28 696.815 102.113 692.005 97.8711V97.8711ZM680.609 105.677C680.606 105.674 680.604 105.671 680.604 105.667C675.194 102.485 670.468 98.2608 666.701 93.2401C666.682 93.2115 666.658 93.1829 666.639 93.1542C671.073 92.7602 675.541 92.9884 679.912 93.8322C679.648 97.7907 679.881 101.767 680.604 105.667" fill="#1C1E20"/>
<path d="M681.85 157.472C678.647 161.085 674.583 163.83 670.034 165.45H670.029C666.21 163.39 661.937 162.316 657.597 162.323C657.158 162.323 656.724 162.313 656.294 162.299C656.289 162.294 656.289 162.294 656.284 162.299H656.28C655.094 162.497 653.919 162.758 652.761 163.082C651.945 163.306 651.138 163.559 650.35 163.846C648.802 163.241 647.286 162.556 645.81 161.793C645.781 161.778 645.753 161.764 645.729 161.75C644.373 161.049 643.058 160.284 641.785 159.453L636.906 161.726H636.896L636.868 161.745L636.858 161.75L636.825 161.769L635.98 161.764L635.579 161.769C635.588 161.754 635.603 161.74 635.612 161.726C636.48 160.576 637.418 159.481 638.419 158.446L632.127 159.84C632.199 159.682 632.27 159.525 632.347 159.372C630.219 161.706 628.332 164.247 626.713 166.958L626.369 167.121L626.355 167.106C626.356 167.096 626.359 167.086 626.365 167.078C626.479 166.877 626.594 166.681 626.713 166.481C628.462 163.555 630.52 160.826 632.853 158.341L633.044 158.136C633.177 157.992 633.316 157.849 633.454 157.706C634.314 156.827 635.203 155.982 636.123 155.171C636.161 155.195 636.195 155.219 636.228 155.242C636.195 155.219 636.166 155.19 636.133 155.161L636.123 155.171C636.118 155.166 636.118 155.161 636.113 155.161C637.458 154.15 638.871 153.234 640.343 152.421H640.348C640.444 152.368 640.534 152.316 640.63 152.268H640.635C643.13 150.918 645.78 149.876 648.526 149.165H648.531C653.746 147.801 659.202 147.632 664.492 148.671C669.781 149.709 674.768 151.928 679.081 155.161C680.044 155.883 680.968 156.654 681.85 157.472V157.472Z" fill="#121221"/>
<path d="M636.858 161.75L636.834 161.769H636.825L636.858 161.75Z" fill="#121221"/>
<path d="M636.906 161.726L636.868 161.745L636.896 161.726H636.906Z" fill="#121221"/>
<path d="M636.858 161.75L636.834 161.769H636.825L636.858 161.75Z" fill="#121221"/>
<path d="M636.906 161.726L636.868 161.745L636.896 161.726H636.906Z" fill="#121221"/>
<path d="M44.5 66H0V155H44.5C56.3021 155 67.6209 150.312 75.9663 141.966C84.3116 133.621 89 122.302 89 110.5C89 98.6979 84.3116 87.3791 75.9663 79.0337C67.6209 70.6884 56.3021 66 44.5 66V66ZM44.5 137.2H17.8V83.8H44.5C51.5813 83.8 58.3725 86.613 63.3798 91.6203C68.387 96.6275 71.2 103.419 71.2 110.5C71.2 117.581 68.387 124.373 63.3798 129.38C58.3725 134.387 51.5813 137.2 44.5 137.2Z" fill="#121221"/>
<path d="M165.75 110.5C171.651 110.5 177.31 108.156 181.483 103.983C185.656 99.8104 188 94.1511 188 88.25C188 82.3489 185.656 76.6896 181.483 72.5169C177.31 68.3442 171.651 66 165.75 66H99V155H116.8V110.5H134.6L170.2 155H188L152.4 110.5H165.75ZM116.8 92.7V83.8H165.75C166.93 83.8 168.062 84.2688 168.897 85.1034C169.731 85.9379 170.2 87.0698 170.2 88.25C170.2 89.4302 169.731 90.5621 168.897 91.3966C168.062 92.2312 166.93 92.7 165.75 92.7H116.8Z" fill="#121221"/>
<path d="M249.4 66H231.6L196 155H213.8L224.48 128.3H256.52L267.2 155H285L249.4 66ZM231.6 110.5L240.5 88.25L249.4 110.5H231.6Z" fill="#121221"/>
<path d="M374 110.5C374.001 113.489 373.703 116.47 373.11 119.4C372.492 122.459 371.547 125.443 370.293 128.3C366.203 137.67 359.011 145.346 349.927 150.038C340.843 154.729 330.42 156.15 320.411 154.061C310.403 151.973 301.419 146.502 294.97 138.568C288.521 130.635 285 120.723 285 110.5C285 100.277 288.521 90.3649 294.97 82.4317C301.419 74.4984 310.403 69.0275 320.411 66.9387C330.42 64.85 340.843 66.2708 349.927 70.9624C359.011 75.654 366.203 83.3301 370.293 92.7H349.403C345.501 88.3397 340.275 85.3817 334.528 84.2811C328.781 83.1805 322.832 83.9981 317.595 86.6083C312.358 89.2185 308.124 93.4767 305.544 98.7279C302.963 103.979 302.18 109.933 303.314 115.672C304.447 121.412 307.436 126.621 311.819 130.497C316.202 134.373 321.737 136.702 327.573 137.125C333.409 137.549 339.223 136.044 344.119 132.841C349.016 129.639 352.726 124.916 354.676 119.4H329.496V101.6H373.11C373.703 104.53 374.001 107.511 374 110.5V110.5Z" fill="#121221"/>
<path d="M428.5 66C419.699 66 411.095 68.6099 403.777 73.4996C396.459 78.3893 390.755 85.3393 387.387 93.4706C384.019 101.602 383.138 110.549 384.855 119.182C386.572 127.814 390.81 135.743 397.034 141.966C403.257 148.19 411.186 152.428 419.818 154.145C428.451 155.862 437.398 154.981 445.529 151.613C453.661 148.245 460.611 142.541 465.5 135.223C470.39 127.905 473 119.301 473 110.5C473 98.6979 468.312 87.3791 459.966 79.0337C451.621 70.6884 440.302 66 428.5 66ZM428.5 137.2C423.219 137.2 418.057 135.634 413.666 132.7C409.275 129.766 405.853 125.596 403.832 120.718C401.812 115.839 401.283 110.47 402.313 105.291C403.343 100.112 405.886 95.3543 409.62 91.6203C413.354 87.8862 418.112 85.3432 423.291 84.313C428.47 83.2828 433.839 83.8116 438.718 85.8324C443.596 87.8533 447.766 91.2755 450.7 95.6663C453.634 100.057 455.2 105.219 455.2 110.5C455.2 117.581 452.387 124.373 447.38 129.38C442.373 134.387 435.581 137.2 428.5 137.2Z" fill="#121221"/>
<path d="M570 66V155H552.2L498.8 88.25V155H481V66H498.8L552.2 132.75V66H570Z" fill="#121221"/>
</svg>
