<svg width="118" height="222" viewBox="0 0 118 222" fill="none" xmlns="http://www.w3.org/2000/svg">
<path d="M77.7761 37.6544C77.7045 37.6305 77.6281 37.6114 77.5518 37.5923L77.7714 37.6496C77.7714 37.6508 77.7719 37.6521 77.7728 37.653C77.7736 37.6538 77.7749 37.6544 77.7761 37.6544V37.6544Z" fill="#121221"/>
<path d="M79.3423 38.0696V38.1126C78.8267 37.9503 78.3063 37.7975 77.7764 37.6543L79.3423 38.0696Z" fill="#121221"/>
<path d="M81.5958 38.8665C81.5815 38.8618 81.5719 38.857 81.5576 38.8522C81.5615 38.8479 81.5647 38.8431 81.5671 38.8379L81.5958 38.8665Z" fill="#121221"/>
<path d="M71.3743 28.6453H71.2979C70.8014 28.0963 70.2874 27.5568 69.7559 27.0269L71.3743 28.6453Z" fill="#121221"/>
<path d="M77.7764 37.6543L79.3423 38.0696V38.1126C78.8267 37.9503 78.3063 37.7975 77.7764 37.6543Z" fill="#121221"/>
<path d="M81.5958 38.8665C81.5815 38.8618 81.5719 38.857 81.5576 38.8522C81.5615 38.8479 81.5647 38.8431 81.5671 38.8379L81.5958 38.8665Z" fill="#121221"/>
<path d="M77.607 19.7748C76.7668 19.3786 75.917 19.0094 75.0576 18.6672C75.0659 18.6267 75.0771 18.5868 75.091 18.5479C75.9432 18.9298 76.7787 19.3404 77.607 19.7748Z" fill="#121221"/>
<path d="M71.3743 28.6453H71.2979C70.8014 28.0963 70.2874 27.5568 69.7559 27.0269L71.3743 28.6453Z" fill="#121221"/>
<path d="M75.6016 105.667C75.6019 105.671 75.6036 105.674 75.6063 105.677L76.1076 105.963C75.9381 105.868 75.771 105.767 75.6016 105.667Z" fill="#121221"/>
<path d="M31.8247 161.769H31.8343L31.8581 161.75L31.8247 161.769Z" fill="#121221"/>
<path d="M31.2281 155.242C31.1947 155.218 31.1612 155.195 31.123 155.171L31.1326 155.161C31.166 155.19 31.1947 155.218 31.2281 155.242Z" fill="#121221"/>
<path d="M31.8581 161.75L31.8343 161.769H31.8247L31.8581 161.75Z" fill="#121221"/>
<path d="M31.2281 155.242C31.1947 155.218 31.1612 155.195 31.123 155.171L31.1326 155.161C31.166 155.19 31.1947 155.218 31.2281 155.242Z" fill="#121221"/>
<path d="M88.4038 183.806C88.4007 189.518 87.0323 195.145 84.4125 200.22C81.7928 205.295 77.9977 209.67 73.3437 212.981C68.6897 216.291 63.3117 218.441 57.6582 219.251C52.0047 220.061 46.2394 219.507 40.8433 217.636C38.7202 216.901 36.6724 215.964 34.7275 214.839H52.5973C57.0809 214.838 61.4896 213.69 65.4036 211.503C69.3177 209.316 72.6066 206.163 74.9571 202.345C77.3076 198.527 78.6415 194.171 78.8316 189.691C79.0218 185.212 78.0619 180.758 76.0434 176.755C79.5529 175.071 82.8443 172.966 85.8448 170.486C87.5411 174.722 88.4097 179.244 88.4038 183.806V183.806Z" fill="#121221"/>
<path d="M14.5298 214.839H43.1749C41.1388 217.553 38.7277 219.964 36.0137 222C29.8219 217.34 22.2794 214.826 14.5298 214.839V214.839Z" fill="#121221"/>
<path d="M21.3685 167.12L21.3501 167.129C21.3501 167.12 21.3547 167.116 21.3547 167.106L21.3685 167.12Z" fill="#121221"/>
<path d="M31.1136 155.161C31.1184 155.161 31.1184 155.166 31.1232 155.171C30.2018 155.982 29.3122 156.827 28.4544 157.706C28.316 157.849 28.1775 157.992 28.0438 158.135L27.8529 158.341C25.5206 160.826 23.4623 163.555 21.7133 166.481C21.5939 166.681 21.4793 166.877 21.3647 167.078C22.0617 163.775 23.2222 160.588 24.8117 157.61C25.8525 157.83 26.9028 158.007 27.9627 158.126C28.0391 157.973 28.1202 157.825 28.2014 157.677C29.4233 155.4 30.888 153.261 32.5698 151.299C33.4769 151.709 34.4031 152.087 35.3436 152.421C33.8713 153.234 32.4578 154.15 31.1136 155.161Z" fill="#121221"/>
<path d="M31.8581 161.75L31.8343 161.769H31.8247L31.8581 161.75Z" fill="#121221"/>
<path d="M31.2281 155.242C31.1947 155.218 31.1612 155.195 31.123 155.171L31.1326 155.161C31.166 155.19 31.1947 155.218 31.2281 155.242Z" fill="#121221"/>
<path d="M43.5265 149.165C40.78 149.876 38.13 150.918 35.6348 152.268C37.2291 150.465 39.0031 148.828 40.9293 147.384C41.7648 148.014 42.6337 148.606 43.5265 149.165Z" fill="#121221"/>
<path d="M57.2045 85.9688C56.8798 85.9592 56.56 85.9497 56.2353 85.9449C55.968 85.9353 55.7006 85.9353 55.4333 85.9353C51.444 85.9404 47.4981 85.1077 43.8511 83.491C44.0038 83.4146 44.1614 83.343 44.3189 83.2714C47.6291 81.7552 51.1018 80.6227 54.6694 79.896C55.3712 81.9672 56.2134 83.9882 57.1902 85.9449C57.1949 85.9544 57.1997 85.9592 57.2045 85.9688Z" fill="#121221"/>
<path d="M76.1101 105.963L75.6088 105.677C75.6061 105.674 75.6044 105.671 75.604 105.667C75.7711 105.767 75.9382 105.868 76.1101 105.963Z" fill="#121221"/>
<path d="M75.6017 105.667C70.1917 102.485 65.4664 98.2607 61.6993 93.24C61.6802 93.2114 61.6563 93.1828 61.6372 93.1541C66.0713 92.7601 70.5386 92.9883 74.9095 93.8321C74.6463 97.7906 74.8789 101.766 75.6017 105.667V105.667Z" fill="#121221"/>
<path d="M82.7156 129.696C79.2339 127.123 75.4176 125.036 71.3721 123.494C71.9626 121.069 72.7432 118.693 73.7067 116.39C77.9192 119.874 81.0455 124.491 82.7156 129.696Z" fill="#121221"/>
<path d="M60.2599 14.566C53.8243 13.915 47.3235 14.5727 41.1488 16.4995C39.7738 16.9244 38.4227 17.4161 37.105 17.97C30.1849 20.851 24.0402 25.3209 19.1684 31.0178C18.648 31.6194 18.1515 32.2305 17.6693 32.8559C11.229 41.1529 7.72151 51.3511 7.696 61.8543C4.45101 57.9382 1.8529 53.5285 0 48.7921C7.19075 44.8889 13.2509 39.1938 17.5929 32.2591C17.2351 29.3309 17.1488 26.3758 17.3351 23.4316C24.2908 23.0071 31.0679 21.0577 37.1862 17.7217C38.1105 14.8083 39.3144 11.9911 40.7811 9.30957C42.6247 10.0368 44.5128 10.646 46.4338 11.1333H46.4386C46.4578 11.1431 46.4791 11.148 46.5006 11.1476C50.9751 12.2916 55.5932 12.7725 60.2073 12.5751C60.2121 13.2387 60.2312 13.9023 60.2599 14.566Z" fill="#121221"/>
<path d="M89.0721 29.3373C88.7427 29.8959 88.3942 30.4449 88.0361 30.9844L85.6968 28.645H88.2557C88.5326 28.8742 88.8048 29.1033 89.0721 29.3373Z" fill="#646464"/>
<path d="M65.5829 28.645C65.4158 29.6858 65.2837 30.7313 65.1866 31.7817C61.0284 30.1902 56.6663 29.1937 52.2295 28.8217C53.2933 28.7048 54.3627 28.6458 55.433 28.645H65.5829Z" fill="#121221"/>
<path d="M77.7714 37.6496C77.7714 37.6508 77.7719 37.6521 77.7728 37.653C77.7736 37.6538 77.7749 37.6544 77.7761 37.6544C77.7045 37.6305 77.6281 37.6114 77.5518 37.5923L77.7714 37.6496Z" fill="#121221"/>
<path d="M77.7764 37.6543L79.3423 38.0696V38.1126C78.8267 37.9503 78.3063 37.7975 77.7764 37.6543Z" fill="#121221"/>
<path d="M99.685 42.6338L99.6754 42.6243C96.9668 37.5951 93.3751 33.0945 89.072 29.3377C88.8046 29.1038 88.5325 28.8746 88.2556 28.6455C84.1586 25.2363 79.519 22.538 74.5298 20.663C74.6921 19.9946 74.864 19.3262 75.055 18.6674C75.9143 19.0112 76.7641 19.3804 77.6044 19.775C77.6378 19.7893 77.6712 19.8084 77.7046 19.8228C82.669 22.1681 87.1901 25.355 91.0676 29.2422L76.4204 14.595C77.51 11.7482 78.8739 9.01401 80.4927 6.43115L99.685 42.6338Z" fill="#121221"/>
<path d="M75.0886 18.5479C75.9431 18.9298 76.7786 19.3404 77.6046 19.7748C76.7643 19.3786 75.9145 19.0094 75.0552 18.6672C75.0635 18.6267 75.0746 18.5868 75.0886 18.5479V18.5479Z" fill="#121221"/>
<path d="M99.8615 42.9678L99.6753 42.624L99.6849 42.6336L99.8615 42.9678Z" fill="#121221"/>
<path d="M91.0699 29.2419C87.1924 25.3546 82.6713 22.1678 77.7069 19.8224C77.6735 19.8081 77.6401 19.789 77.6067 19.7747C76.7807 19.3403 75.9452 18.9297 75.0906 18.5477C75.0767 18.5867 75.0655 18.6266 75.0572 18.6671C70.3472 16.7861 65.3672 15.6692 60.305 15.3586C60.2954 15.2106 60.2859 15.0626 60.2811 14.9146C60.2716 14.7952 60.2668 14.6806 60.262 14.5661C60.2334 13.9024 60.2143 13.2388 60.2095 12.5752C60.1899 8.33031 60.7341 4.1016 61.828 0L91.0699 29.2419Z" fill="#121221"/>
<path d="M77.607 19.7748C76.7668 19.3786 75.917 19.0094 75.0576 18.6672C75.0659 18.6267 75.0771 18.5868 75.091 18.5479C75.9432 18.9298 76.7787 19.3404 77.607 19.7748Z" fill="#121221"/>
<path d="M100.898 43.8463L81.7054 38.7045L81.333 38.6042L71.374 28.6453H79.9055C80.1637 27.0377 80.5031 25.4443 80.9224 23.8711L99.6754 42.6241L99.8616 42.9679L99.685 42.6337L100.898 43.8463Z" fill="#121221"/>
<path d="M99.8615 42.9678L99.6753 42.624L99.6849 42.6336L99.8615 42.9678Z" fill="#121221"/>
<path d="M81.5671 38.8379L81.5958 38.8665C81.5815 38.8618 81.5719 38.857 81.5576 38.8522C81.5615 38.8479 81.5647 38.8431 81.5671 38.8379Z" fill="#121221"/>
<path d="M83.6916 39.6926C83.2046 39.6163 82.7129 39.5494 82.2211 39.4921L81.5957 38.8667C82.3023 39.1245 83.0017 39.3966 83.6916 39.6926Z" fill="#646464"/>
<path d="M117.498 48.2957C113.835 51.9545 109.6 54.9924 104.961 57.2902C99.7729 49.4468 92.3716 43.3217 83.6963 39.6926H83.6916C83.0041 39.3966 82.3023 39.1244 81.5957 38.8666L81.567 38.838C81.5646 38.8432 81.5614 38.848 81.5575 38.8523H81.5527C80.8271 38.585 80.0918 38.3415 79.3423 38.1123V38.0693L81.3331 38.604L81.7055 38.7043L100.898 43.8461L117.498 48.2957Z" fill="#121221"/>
<path d="M98.9955 56.2688C93.9922 57.6046 88.8051 58.119 83.6369 57.7917C83.3185 52.6004 82.1525 47.4961 80.1852 42.6814C75.3699 40.7158 70.2659 39.5499 65.0748 39.2297C64.918 36.748 64.9547 34.2579 65.1846 31.7819C65.2801 30.7316 65.4122 29.6861 65.5809 28.6453C65.8391 27.0377 66.1785 25.4443 66.5978 23.8711L69.7535 27.0268C70.2835 27.5568 70.7975 28.0963 71.2956 28.6453H71.372L81.3309 38.6042L79.3401 38.0695L77.7742 37.6542C77.7729 37.6542 77.7717 37.6537 77.7708 37.6528C77.7699 37.6519 77.7694 37.6507 77.7694 37.6494L77.5498 37.5921C77.6262 37.6112 77.7026 37.6303 77.7742 37.6542C78.3041 37.7974 78.8245 37.9502 79.3401 38.1125C80.0897 38.3417 80.8249 38.5852 81.5506 38.8525H81.5553C81.5697 38.8573 81.5792 38.8621 81.5935 38.8668L98.9955 56.2688Z" fill="#121221"/>
<path d="M71.3743 28.6453H71.2979C70.8014 28.0963 70.2874 27.5568 69.7559 27.0269L71.3743 28.6453Z" fill="#121221"/>
<path d="M77.7714 37.6496C77.7714 37.6508 77.7719 37.6521 77.7728 37.653C77.7736 37.6538 77.7749 37.6544 77.7761 37.6544C77.7045 37.6305 77.6281 37.6114 77.5518 37.5923L77.7714 37.6496Z" fill="#121221"/>
<path d="M77.7764 37.6543L79.3423 38.0696V38.1126C78.8267 37.9503 78.3063 37.7975 77.7764 37.6543Z" fill="#121221"/>
<path d="M81.5958 38.8665C81.5815 38.8618 81.5719 38.857 81.5576 38.8522C81.5615 38.8479 81.5647 38.8431 81.5671 38.8379L81.5958 38.8665Z" fill="#121221"/>
<path d="M21.3499 167.097H21.3451L21.3547 167.106C21.3556 167.096 21.3589 167.087 21.3642 167.078C21.3594 167.083 21.3547 167.092 21.3499 167.097ZM87.0046 97.8711C78.753 90.5662 68.2177 86.3584 57.2041 85.9691C56.8794 85.9595 56.5595 85.95 56.2349 85.9452C55.9675 85.9356 55.7002 85.9356 55.4328 85.9356C51.4436 85.9407 47.4977 85.108 43.8507 83.4913C43.6883 83.4196 43.526 83.348 43.3637 83.2716C37.6984 80.6388 33.0489 76.2263 30.1234 70.7064C27.198 65.1865 26.1569 58.8616 27.1588 52.6953C28.1606 46.5289 31.1505 40.859 35.6731 36.5492C40.1956 32.2394 46.0028 29.5259 52.2103 28.822H52.215C52.2159 28.8209 52.217 28.82 52.2182 28.8194C52.2195 28.8188 52.2208 28.8185 52.2222 28.8185C52.2236 28.8185 52.2249 28.8188 52.2262 28.8194C52.2274 28.82 52.2285 28.8209 52.2294 28.822C53.2932 28.7051 54.3626 28.6461 55.4328 28.6453H65.5828C65.841 27.0378 66.1804 25.4444 66.5997 23.8711L71.3739 28.6453H79.9054C80.1636 27.0378 80.503 25.4444 80.9223 23.8711L85.6965 28.6453H88.2554C84.1584 25.2361 79.5188 22.5379 74.5296 20.6629C74.6919 19.9945 74.8638 19.3261 75.0548 18.6673C70.3448 16.7863 65.3647 15.6694 60.3025 15.3588C60.293 15.2108 60.2834 15.0628 60.2786 14.9148C60.2691 14.7954 60.2643 14.6808 60.2596 14.5662C53.824 13.9152 47.3232 14.573 41.1485 16.4998C39.7735 16.9247 38.4224 17.4164 37.1047 17.9702C30.1846 20.8513 24.0399 25.3212 19.1681 31.0181C18.6477 31.6197 18.1512 32.2308 17.669 32.8562C11.2287 41.1531 7.72122 51.3514 7.6957 61.8546C7.69092 61.9262 7.69092 61.9931 7.69092 62.0647C7.6937 74.7258 12.7245 86.8675 21.6773 95.8202C30.63 104.773 42.7718 109.804 55.4328 109.807C61.4997 109.808 67.4097 111.734 72.3119 115.308C77.2142 118.883 80.8558 123.92 82.7126 129.696V129.701C84.9803 136.789 84.4038 144.481 81.1049 151.152C77.806 157.822 72.0431 162.949 65.0337 165.45H65.029C62.9577 166.187 60.8075 166.681 58.622 166.92C52.4047 166.401 46.3512 164.659 40.8095 161.793C40.7808 161.778 40.7522 161.764 40.7283 161.75C39.3725 161.05 38.058 160.284 36.7848 159.453L31.9056 161.726L31.8579 161.75L31.834 161.769H31.8245L30.9794 161.764L30.5784 161.769C30.5879 161.755 30.6023 161.74 30.6118 161.726C31.4798 160.576 32.4173 159.481 33.419 158.446L27.1267 159.84C27.1983 159.683 27.2699 159.525 27.3463 159.372C25.2191 161.706 23.3317 164.247 21.7127 166.958L21.369 167.121C25.8621 171.697 31.2314 175.321 37.1562 177.777C43.081 180.232 49.4398 181.469 55.8531 181.413C62.2663 181.356 68.6024 180.008 74.4831 177.449C80.3638 174.889 85.6684 171.171 90.0804 166.516C94.4923 161.861 97.921 156.365 100.162 150.356C102.403 144.347 103.409 137.947 103.122 131.54C102.835 125.133 101.26 118.85 98.4909 113.065C95.7216 107.28 91.8151 102.113 87.0046 97.8711V97.8711ZM75.6086 105.677C75.6059 105.674 75.6042 105.671 75.6038 105.667C70.1937 102.485 65.4685 98.2608 61.7014 93.2401C61.6823 93.2115 61.6584 93.1829 61.6393 93.1542C66.0733 92.7602 70.5407 92.9884 74.9115 93.8322C74.6484 97.7907 74.881 101.767 75.6038 105.667" fill="#1C1E20"/>
<path d="M76.8502 157.472C73.6475 161.085 69.5827 163.83 65.0341 165.45H65.0293C61.2095 163.39 56.9368 162.316 52.5973 162.323C52.1581 162.323 51.7236 162.313 51.294 162.299C51.2892 162.294 51.2892 162.294 51.2844 162.299H51.2796C50.0937 162.497 48.9192 162.758 47.761 163.082C46.9446 163.306 46.1378 163.559 45.3501 163.846C43.8017 163.241 42.2862 162.556 40.8098 161.793C40.7812 161.778 40.7525 161.764 40.7287 161.75C39.3728 161.049 38.0583 160.284 36.7852 159.453L31.9059 161.726H31.8964L31.8678 161.745L31.8582 161.75L31.8248 161.769L30.9798 161.764L30.5787 161.769C30.5883 161.754 30.6026 161.74 30.6121 161.726C31.4801 160.576 32.4176 159.481 33.4194 158.446L27.127 159.84C27.1986 159.682 27.2702 159.525 27.3466 159.372C25.2194 161.706 23.3321 164.247 21.713 166.958L21.3693 167.121L21.355 167.106C21.356 167.096 21.3592 167.086 21.3645 167.078C21.4791 166.877 21.5937 166.681 21.713 166.481C23.4621 163.555 25.5204 160.826 27.8527 158.341L28.0436 158.136C28.1773 157.992 28.3158 157.849 28.4542 157.706C29.3136 156.827 30.2032 155.982 31.123 155.171C31.1612 155.195 31.1946 155.219 31.228 155.242C31.1946 155.219 31.166 155.19 31.1325 155.161L31.123 155.171C31.1182 155.166 31.1182 155.161 31.1134 155.161C32.4576 154.15 33.8711 153.234 35.3434 152.421H35.3481C35.4436 152.368 35.5343 152.316 35.6298 152.268H35.6346C38.1298 150.918 40.7798 149.876 43.5263 149.165H43.5311C48.7463 147.801 54.202 147.632 59.4916 148.671C64.7812 149.709 69.7683 151.928 74.0812 155.161C75.0439 155.883 75.9681 156.654 76.8502 157.472V157.472Z" fill="#121221"/>
<path d="M31.8581 161.75L31.8343 161.769H31.8247L31.8581 161.75Z" fill="#121221"/>
<path d="M31.9059 161.726L31.8677 161.745L31.8963 161.726H31.9059Z" fill="#121221"/>
<path d="M31.8581 161.75L31.8343 161.769H31.8247L31.8581 161.75Z" fill="#121221"/>
<path d="M31.9059 161.726L31.8677 161.745L31.8963 161.726H31.9059Z" fill="#121221"/>
</svg>
