<svg width="669" height="138" viewBox="0 0 669 138" fill="none" xmlns="http://www.w3.org/2000/svg">
<path d="M446.391 85.4287H460.001C458.372 93.4067 453.839 100.496 447.281 105.322C440.723 110.148 432.606 112.366 424.505 111.548C416.404 110.73 408.895 106.932 403.434 100.892C397.974 94.8522 394.95 86.9998 394.95 78.8573C394.95 70.7147 397.974 62.8623 403.434 56.8222C408.895 50.7822 416.404 46.9849 424.505 46.1665C432.606 45.3481 440.723 47.5669 447.281 52.3928C453.839 57.2187 458.372 64.3078 460.001 72.2858H446.391C444.841 67.9013 441.791 64.2059 437.78 61.8528C433.768 59.4997 429.054 58.6404 424.471 59.4269C419.887 60.2133 415.729 62.5947 412.732 66.1503C409.734 69.7059 408.09 74.2067 408.09 78.8573C408.09 83.5078 409.734 88.0086 412.732 91.5642C415.729 95.1198 419.887 97.5012 424.471 98.2877C429.054 99.0741 433.768 98.2148 437.78 95.8617C441.791 93.5086 444.841 89.8132 446.391 85.4287V85.4287Z" fill="#121221"/>
<path d="M374.572 59.1429V98.5715H387.715V111.714H348.286V98.5715H361.429V59.1429H348.286V46H387.715V59.1429H374.572Z" fill="#121221"/>
<path d="M197.143 46V111.714H184L144.572 66.102V111.714H131.429V46H144.572L184 91.6123V46H197.143Z" fill="#121221"/>
<path d="M32.8572 46H0V111.714H32.8572C41.5715 111.714 49.9288 108.253 56.0907 102.091C62.2526 95.9288 65.7144 87.5715 65.7144 78.8572C65.7144 70.1429 62.2526 61.7856 56.0907 55.6236C49.9288 49.4617 41.5715 46 32.8572 46V46ZM32.8572 98.5715H13.1429V59.1429H32.8572C38.0857 59.1429 43.1002 61.2199 46.7973 64.9171C50.4945 68.6142 52.5715 73.6286 52.5715 78.8572C52.5715 84.0857 50.4945 89.1002 46.7973 92.7973C43.1002 96.4945 38.0857 98.5715 32.8572 98.5715Z" fill="#121221"/>
<path d="M341.715 46V111.714H328.572V66.102L317.532 78.89L308.851 88.9509L300.17 78.89L289.143 66.1217V111.714H276V46H289.143V46.0066L308.851 68.8357L328.559 46H341.715Z" fill="#121221"/>
<path d="M100.431 76.5309L98.5715 78.8572H98.6044V111.714H85.4615V78.8572L83.6018 76.5309L59.1758 46H76.0052L92.0133 66.01L108.021 46H124.857L100.431 76.5309Z" fill="#121221"/>
<path d="M479.715 65.7143C479.715 67.4572 480.408 69.1286 481.64 70.361C482.872 71.5934 484.544 72.2857 486.287 72.2857H512.572C517.801 72.2857 522.815 74.3628 526.512 78.0599C530.21 81.7571 532.287 86.7715 532.287 92.0001C532.287 97.2286 530.21 102.243 526.512 105.94C522.815 109.637 517.801 111.714 512.572 111.714H466.572V98.5715H512.572C514.315 98.5715 515.987 97.8792 517.219 96.6468C518.451 95.4144 519.144 93.7429 519.144 92.0001C519.144 90.2572 518.451 88.5857 517.219 87.3533C515.987 86.121 514.315 85.4286 512.572 85.4286H486.287C481.058 85.4286 476.044 83.3516 472.346 79.6544C468.649 75.9573 466.572 70.9429 466.572 65.7143C466.572 60.4858 468.649 55.4713 472.346 51.7742C476.044 48.077 481.058 46 486.287 46H532.287V59.1429H486.287C484.544 59.1429 482.872 59.8352 481.64 61.0676C480.408 62.3 479.715 63.9715 479.715 65.7143V65.7143Z" fill="#121221"/>
<path d="M243.649 47.2814L243.136 46H230.007L229.494 47.2749L203.714 111.714H217.876L225.236 93.3143H247.907L255.267 111.714H269.429L243.649 47.2814ZM230.493 80.1715L236.572 64.9717L242.65 80.1715H230.493Z" fill="#121221"/>
<path d="M668.054 138L573.947 83.6676L668.055 29.333L668.054 138Z" fill="black"/>
<path d="M554.234 138L648.341 83.6676L554.232 29.333L554.234 138Z" fill="black"/>
<path d="M665.687 94.1096H557.021L611.354 0L665.687 94.1096Z" fill="black"/>
<path opacity="0.38" d="M667.793 138L573.687 83.6676L667.795 29.333L667.793 138Z" fill="#121221"/>
<path opacity="0.62" d="M553.973 138L648.08 83.6676L553.972 29.333L553.973 138Z" fill="#121221"/>
</svg>
