<svg width="580" height="410" viewBox="0 0 580 410" fill="none" xmlns="http://www.w3.org/2000/svg">
<path d="M300 160L330 130H360L390 160L350 200H340L300 160Z" fill="black"/>
<path d="M370 130L400 160C413.917 159.728 427.592 156.309 440 150C457.128 141.095 471.095 127.128 480 110C454.725 121.344 427.639 128.115 400 130C390.011 130.656 379.989 130.656 370 130Z" fill="black"/>
<path d="M320 129.983L290 159.983C276.083 159.711 262.408 156.292 250 149.983C232.875 141.082 218.908 127.121 210 110C235.277 121.335 262.362 128.101 290 129.983C299.989 130.639 310.011 130.639 320 129.983V129.983Z" fill="black"/>
<path d="M281.852 140C276.015 135.982 249.304 116.674 241.852 80C233.052 36.68 258.286 4.4 261.852 0C258.552 10.771 251.795 38.1 261.852 70C276.228 115.6 314.071 136.012 321.852 140H281.852Z" fill="black"/>
<path d="M311.852 140C305.061 134.069 287.838 117.4 281.852 90C272.544 47.4 298.2 14.522 301.852 10C300.77 56.5196 314.806 102.135 341.852 140H311.852Z" fill="black"/>
<path d="M321.852 140C315.361 98.8897 322.379 56.7829 341.852 20C361.325 56.7829 368.343 98.8897 361.852 140H321.852Z" fill="black"/>
<path d="M401.852 140C407.69 135.982 434.4 116.674 441.852 80C450.652 36.68 425.418 4.4 421.852 0C425.152 10.771 431.91 38.1 421.852 70C407.476 115.6 369.634 136.012 361.852 140H401.852Z" fill="black"/>
<path d="M371.852 140C378.644 134.069 395.866 117.4 401.852 90C411.161 47.4 385.504 14.522 381.852 10C382.934 56.5196 368.898 102.135 341.852 140H371.852Z" fill="black"/>
<path d="M100 170H80V270H100V170Z" fill="black"/>
<path d="M180 280H160V380H180V280Z" fill="black"/>
<path d="M230 280H210V380H230V280Z" fill="black"/>
<path d="M160 280H180L230 380H210L160 280Z" fill="black"/>
<path d="M390 280H370V380H390V280Z" fill="black"/>
<path d="M440 280H420V380H440V280Z" fill="black"/>
<path d="M370 280H390L440 380H420L370 280Z" fill="black"/>
<path d="M500 280H480V380H500V280Z" fill="black"/>
<path d="M550 280H530V380H550V280Z" fill="black"/>
<path d="M480 280H500L550 380H530L480 280Z" fill="black"/>
<path d="M20 190V210H70V230H20V250H70V270H0V170H70V190H20Z" fill="black"/>
<path d="M205 270V230H185V270H205Z" fill="black"/>
<path d="M355 410V210H335V410H355Z" fill="black"/>
<path d="M150 250H80V270H150V250Z" fill="black"/>
<path d="M62.35 330C65.9417 325.993 68.3879 321.093 69.4313 315.814C70.4748 310.535 70.0771 305.072 68.28 300C66.215 294.15 62.3859 289.085 57.3207 285.502C52.2556 281.92 46.2038 279.998 40 280H0V380H40C46.2038 380.002 52.2556 378.08 57.3207 374.498C62.3859 370.915 66.215 365.85 68.28 360C70.0749 354.928 70.4715 349.466 69.4281 344.187C68.3847 338.908 65.9398 334.008 62.35 330V330ZM50 310C50 312.652 48.9464 315.196 47.0711 317.071C45.1957 318.946 42.6522 320 40 320H20V300H40C42.6522 300 45.1957 301.054 47.0711 302.929C48.9464 304.804 50 307.348 50 310ZM20 360V340H40C42.6522 340 45.1957 341.054 47.0711 342.929C48.9464 344.804 50 347.348 50 350C50 352.652 48.9464 355.196 47.0711 357.071C45.1957 358.946 42.6522 360 40 360H20Z" fill="black"/>
<path d="M308.28 300C306.215 294.15 302.386 289.085 297.321 285.502C292.256 281.92 286.204 279.998 280 280H240V380H280C286.204 380.002 292.256 378.08 297.321 374.498C302.386 370.915 306.215 365.85 308.28 360C309.425 356.791 310.007 353.408 310 350V310C310.007 306.593 309.425 303.209 308.28 300V300ZM280 360H260V300H280C282.652 300 285.196 301.054 287.071 302.929C288.946 304.804 290 307.348 290 310V350C290 352.652 288.946 355.196 287.071 357.071C285.196 358.946 282.652 360 280 360V360Z" fill="black"/>
<path d="M260 200C260 202.652 261.054 205.196 262.929 207.071C264.804 208.946 267.348 210 270 210H280C287.956 210 295.587 213.161 301.213 218.787C306.839 224.413 310 232.044 310 240C310 247.956 306.839 255.587 301.213 261.213C295.587 266.839 287.956 270 280 270H240V250H280C282.652 250 285.196 248.946 287.071 247.071C288.946 245.196 290 242.652 290 240C290 237.348 288.946 234.804 287.071 232.929C285.196 231.054 282.652 230 280 230H270C262.044 230 254.413 226.839 248.787 221.213C243.161 215.587 240 207.956 240 200C240 192.044 243.161 184.413 248.787 178.787C254.413 173.161 262.044 170 270 170H310V190H270C267.348 190 264.804 191.054 262.929 192.929C261.054 194.804 260 197.348 260 200V200Z" fill="black"/>
<path d="M160 170L185 230H205L230 170H210L195 210L180 170H160Z" fill="black"/>
<path d="M470 170V240C470.002 246.204 468.08 252.256 464.498 257.321C460.915 262.386 455.85 266.215 450 268.28C446.791 269.425 443.408 270.007 440 270H430C426.593 270.007 423.209 269.425 420 268.28C414.15 266.215 409.085 262.386 405.502 257.321C401.92 252.256 399.998 246.204 400 240V170H420V240C420 242.652 421.054 245.196 422.929 247.071C424.804 248.946 427.348 250 430 250H440C442.652 250 445.196 248.946 447.071 247.071C448.946 245.196 450 242.652 450 240V170H470Z" fill="black"/>
<path d="M130 281.72C126.791 280.575 123.408 279.993 120 280H110C106.593 279.993 103.209 280.575 100 281.72C94.1499 283.785 89.0846 287.614 85.5025 292.679C81.9203 297.745 79.9978 303.796 80 310V380H100V340H130V380H150V310C150.002 303.796 148.08 297.745 144.498 292.679C140.915 287.614 135.85 283.785 130 281.72V281.72ZM100 320V310C100 307.348 101.054 304.804 102.929 302.929C104.804 301.054 107.348 300 110 300H120C122.652 300 125.196 301.054 127.071 302.929C128.946 304.804 130 307.348 130 310V320H100Z" fill="black"/>
<path d="M580 170V270H560V190H550C547.348 190 544.804 191.054 542.929 192.929C541.054 194.804 540 197.348 540 200V270H520V200C520 197.348 518.946 194.804 517.071 192.929C515.196 191.054 512.652 190 510 190H500V270H480V170H510C517.383 169.99 524.508 172.715 530 177.65C535.492 172.715 542.617 169.99 550 170H580Z" fill="black"/>
<path d="M470 280H450V380H470V280Z" fill="black"/>
<path d="M580 280H560V380H580V280Z" fill="black"/>
<path d="M580 390H0V410H580V390Z" fill="black"/>
</svg>
