<svg width="379" height="379" viewBox="0 0 379 379" fill="none" xmlns="http://www.w3.org/2000/svg">
<g clip-path="url(#clip0_3_22615)">
<path d="M189.43 378.86C294.049 378.86 378.86 294.049 378.86 189.43C378.86 84.8107 294.049 0 189.43 0C84.8107 0 0 84.8107 0 189.43C0 294.049 84.8107 378.86 189.43 378.86Z" fill="white"/>
<path d="M114.57 262.577C124.681 213.328 149.019 168.128 184.57 132.577C220.12 97.0262 265.321 72.6876 314.57 62.5769C304.459 111.826 280.121 157.026 244.57 192.577C209.019 228.128 163.819 252.466 114.57 262.577Z" fill="#366CE1"/>
<path d="M84.5698 292.577C124.263 249.288 166.681 205.237 211.825 160.422C246.471 126.155 280.72 93.5402 314.571 62.5769C284.197 96.2836 251.892 130.547 217.656 165.366C172.537 211.105 127.991 253.45 84.5698 292.577Z" fill="#121221"/>
</g>
<defs>
<clipPath id="clip0_3_22615">
<rect width="378.859" height="378.859" fill="white"/>
</clipPath>
</defs>
</svg>
