<svg width="801" height="318" viewBox="0 0 801 318" fill="none" xmlns="http://www.w3.org/2000/svg">
<path d="M800.78 105.7L588.65 317.83L507 236.19L528.22 214.98L581.57 268.33L772.49 77.4104L800.78 105.7Z" fill="#121221"/>
<path d="M628.4 107.83H528.4V207.83H628.4V107.83Z" fill="black"/>
<path d="M765.795 70.7107L695.084 0L624.373 70.7107L695.084 141.421L765.795 70.7107Z" fill="black"/>
<path d="M20.7798 131V151H100.78V171H20.7798V191H100.78V211H0.779785V111H100.78V131H20.7798Z" fill="#121221"/>
<path d="M410.78 111V211H390.78V141L360.78 171L330.78 141V211H310.78V111H330.78L360.78 141L390.78 111H410.78Z" fill="#121221"/>
<path d="M165.78 161L195.78 191L180.78 206L150.78 176L120.78 206L105.78 191L135.78 161L105.78 131L120.78 116L150.78 146L180.78 116L195.78 131L165.78 161Z" fill="black"/>
<path d="M200.78 111V211H220.78V181H280.78V211H300.78V111H200.78ZM280.78 161H220.78V131H280.78V161Z" fill="#121221"/>
</svg>
