<svg width="735" height="200" viewBox="0 0 735 200" fill="none" xmlns="http://www.w3.org/2000/svg">
<path d="M735 0V100H665V40H695V60H685V80H715V20H645V200H535V100H605V160H575V140H585V120H555V180H625V0H735Z" fill="#646464"/>
<path d="M735 200H635V130H695V160H675V150H655V180H715V110H535V0H635V70H575V40H595V50H615V20H555V90H735V200Z" fill="#121221"/>
<path d="M100 50V150H80V110H20V150H0V50H20V90H80V50H100Z" fill="#121221"/>
<path d="M130 70V90H210V110H130V130H210V150H110V50H210V70H130Z" fill="#121221"/>
<path d="M320 130V150H220V50H240V130H320Z" fill="#121221"/>
<path d="M380 70V130H410V150H330V130H360V70H330V50H410V70H380Z" fill="#121221"/>
<path d="M482.5 100.03L519.95 150H494.96L470.01 116.7L445.05 150H420.07L457.51 100.03L420.02 50H445L470.01 83.36L495.01 50H520L482.5 100.03Z" fill="#121221"/>
</svg>
