<svg width="850" height="200" viewBox="0 0 850 200" fill="none" xmlns="http://www.w3.org/2000/svg">
<path d="M150 84.9999V140C150 142.652 148.946 145.196 147.071 147.071C145.196 148.946 142.652 150 140 150C137.348 150 134.804 148.946 132.929 147.071C131.054 145.196 130 142.652 130 140V84.9999C130 81.0216 128.42 77.2063 125.607 74.3933C122.794 71.5802 118.978 69.9999 115 69.9999C111.022 69.9999 107.206 71.5802 104.393 74.3933C101.58 77.2063 100 81.0216 100 84.9999V84.9999V140C100 142.652 98.9464 145.196 97.0711 147.071C95.1957 148.946 92.6522 150 90 150C87.3478 150 84.8043 148.946 82.9289 147.071C81.0536 145.196 80 142.652 80 140V84.9999C80 81.0216 78.4196 77.2063 75.6066 74.3933C72.7936 71.5802 68.9782 69.9999 65 69.9999C61.0218 69.9999 57.2064 71.5802 54.3934 74.3933C51.5804 77.2063 50 81.0216 50 84.9999V140C50 142.652 48.9464 145.196 47.0711 147.071C45.1957 148.946 42.6522 150 40 150C37.3478 150 34.8043 148.946 32.9289 147.071C31.0536 145.196 30 142.652 30 140V84.9999C29.9996 83.3271 30.1166 81.6563 30.35 79.9999C31.2841 73.5409 34.0049 67.4716 38.2053 62.4769C42.4058 57.4821 47.9186 53.7609 54.1217 51.7331C60.3248 49.7052 66.9713 49.4515 73.3109 51.0006C79.6506 52.5497 85.431 55.8399 90 60.4999C94.569 55.8399 100.349 52.5497 106.689 51.0006C113.029 49.4515 119.675 49.7052 125.878 51.7331C132.081 53.7609 137.594 57.4821 141.795 62.4769C145.995 67.4716 148.716 73.5409 149.65 79.9999C149.883 81.6563 150 83.3271 150 84.9999V84.9999Z" fill="#646464"/>
<path d="M20 60C20 54.4772 15.5228 50 10 50C4.47715 50 0 54.4772 0 60V140C0 145.523 4.47715 150 10 150C15.5228 150 20 145.523 20 140V60Z" fill="#646464"/>
<path d="M10 40C15.5228 40 20 35.5228 20 30C20 24.4772 15.5228 20 10 20C4.47715 20 0 24.4772 0 30C0 35.5228 4.47715 40 10 40Z" fill="#646464"/>
<path d="M210 50C196.74 50.0013 184.023 55.2696 174.646 64.6461C165.27 74.0227 160.001 86.7396 160 100V190C160 192.652 161.054 195.196 162.929 197.071C164.804 198.946 167.348 200 170 200C172.652 200 175.196 198.946 177.071 197.071C178.946 195.196 180 192.652 180 190V139.99C186.338 144.746 193.715 147.929 201.524 149.274C209.332 150.619 217.349 150.09 224.913 147.728C232.477 145.367 239.371 141.242 245.028 135.693C250.684 130.144 254.941 123.33 257.447 115.813C259.953 108.296 260.636 100.291 259.441 92.4575C258.246 84.6243 255.206 77.1874 250.572 70.7598C245.938 64.3321 239.843 59.0979 232.789 55.4885C225.735 51.8791 217.924 49.9979 210 50ZM210 130C204.067 130 198.266 128.241 193.333 124.944C188.399 121.648 184.554 116.962 182.284 111.48C180.013 105.999 179.419 99.9667 180.576 94.1473C181.734 88.3278 184.591 82.9824 188.787 78.7868C192.982 74.5912 198.328 71.734 204.147 70.5764C209.967 69.4189 215.999 70.013 221.48 72.2836C226.962 74.5542 231.648 78.3994 234.944 83.3329C238.241 88.2664 240 94.0666 240 100C240 107.956 236.839 115.587 231.213 121.213C225.587 126.839 217.956 130 210 130V130Z" fill="#121221"/>
<path d="M690 150C703.261 149.999 715.978 144.73 725.354 135.354C734.731 125.977 739.999 113.26 740 100V10C740 7.34784 738.947 4.80429 737.071 2.92892C735.196 1.05356 732.652 0 730 0C727.348 0 724.804 1.05356 722.929 2.92892C721.054 4.80429 720 7.34784 720 10V60.01C713.663 55.2536 706.285 52.0715 698.477 50.726C690.668 49.3806 682.651 49.9104 675.087 52.2716C667.523 54.6329 660.629 58.758 654.972 64.307C649.316 69.856 645.059 76.6699 642.553 84.187C640.047 91.7042 639.364 99.7093 640.559 107.542C641.754 115.376 644.794 122.813 649.428 129.24C654.062 135.668 660.157 140.902 667.211 144.512C674.265 148.121 682.076 150.002 690 150V150ZM690 70C695.934 70 701.734 71.7595 706.667 75.0559C711.601 78.3524 715.446 83.0377 717.717 88.5195C719.987 94.0013 720.581 100.033 719.424 105.853C718.266 111.672 715.409 117.018 711.213 121.213C707.018 125.409 701.672 128.266 695.853 129.424C690.033 130.581 684.001 129.987 678.52 127.716C673.038 125.446 668.352 121.601 665.056 116.667C661.76 111.734 660 105.933 660 100C660 92.0435 663.161 84.4129 668.787 78.7868C674.413 73.1607 682.044 70 690 70V70Z" fill="#121221"/>
<path d="M579.712 50.0001C572.982 50.0397 566.329 51.4373 560.152 54.1092C553.976 56.7811 548.402 60.6723 543.764 65.5497C539.127 70.4272 535.522 76.1904 533.166 82.4943C530.809 88.7981 529.749 95.5128 530.049 102.236C531.125 126.9 552.891 148.762 577.549 149.936C589.197 150.525 600.682 147.005 610 139.99V140C610 142.652 611.053 145.196 612.929 147.071C614.804 148.946 617.348 150 620 150C622.652 150 625.195 148.946 627.071 147.071C628.946 145.196 630 142.652 630 140V100.82C630 72.9601 607.571 49.8441 579.712 50.0001ZM580 130C574.066 130 568.266 128.241 563.333 124.944C558.399 121.648 554.554 116.962 552.283 111.481C550.013 105.999 549.419 99.9668 550.576 94.1473C551.734 88.3279 554.591 82.9824 558.787 78.7869C562.982 74.5913 568.328 71.7341 574.147 70.5765C579.966 69.4189 585.999 70.013 591.48 72.2837C596.962 74.5543 601.647 78.3995 604.944 83.3329C608.24 88.2664 610 94.0666 610 100C610 107.957 606.839 115.587 601.213 121.213C595.587 126.839 587.956 130 580 130V130Z" fill="#121221"/>
<path d="M800 50C790.111 50 780.444 52.9324 772.222 58.4265C763.999 63.9206 757.59 71.7295 753.806 80.8658C750.022 90.0021 749.032 100.055 750.961 109.755C752.89 119.454 757.652 128.363 764.645 135.355C771.637 142.348 780.546 147.11 790.245 149.039C799.945 150.969 809.998 149.978 819.134 146.194C828.27 142.41 836.079 136.001 841.573 127.779C847.068 119.556 850 109.889 850 100C849.999 86.7396 844.73 74.0226 835.354 64.6461C825.977 55.2696 813.26 50.0013 800 50ZM800 130C794.067 130 788.266 128.241 783.333 124.944C778.399 121.648 774.554 116.962 772.284 111.48C770.013 105.999 769.419 99.9667 770.576 94.1473C771.734 88.3278 774.591 82.9824 778.787 78.7868C782.982 74.5912 788.328 71.734 794.147 70.5764C799.967 69.4189 805.999 70.013 811.481 72.2836C816.962 74.5542 821.648 78.3994 824.944 83.3329C828.241 88.2664 830 94.0666 830 100C830 107.956 826.839 115.587 821.213 121.213C815.587 126.839 807.957 130 800 130V130Z" fill="#121221"/>
<path d="M390 50C380.111 50 370.444 52.9324 362.222 58.4265C353.999 63.9206 347.59 71.7295 343.806 80.8658C340.022 90.0021 339.031 100.055 340.961 109.755C342.89 119.454 347.652 128.363 354.645 135.355C361.637 142.348 370.546 147.11 380.246 149.039C389.945 150.969 399.998 149.978 409.134 146.194C418.271 142.41 426.079 136.001 431.574 127.779C437.068 119.556 440 109.889 440 100C439.999 86.7396 434.73 74.0226 425.354 64.6461C415.977 55.2696 403.26 50.0013 390 50V50ZM390 130C384.067 130 378.266 128.241 373.333 124.944C368.399 121.648 364.554 116.962 362.284 111.48C360.013 105.999 359.419 99.9667 360.576 94.1473C361.734 88.3278 364.591 82.9824 368.787 78.7868C372.982 74.5912 378.328 71.734 384.147 70.5764C389.967 69.4189 395.999 70.013 401.481 72.2836C406.962 74.5542 411.648 78.3994 414.944 83.3329C418.241 88.2664 420 94.0666 420 100C420 107.956 416.839 115.587 411.213 121.213C405.587 126.839 397.957 130 390 130V130Z" fill="#121221"/>
<path d="M350 60.0001C350 62.6522 348.946 65.1958 347.071 67.0711C345.196 68.9465 342.652 70.0001 340 70.0001H320C312.044 70.0001 304.413 73.1608 298.787 78.7869C293.161 84.413 290 92.0436 290 100V140C290 142.652 288.946 145.196 287.071 147.071C285.196 148.946 282.652 150 280 150C277.348 150 274.804 148.946 272.929 147.071C271.054 145.196 270 142.652 270 140V60.0001C270 57.3479 271.054 54.8043 272.929 52.929C274.804 51.0536 277.348 50.0001 280 50.0001V50.0001C282.652 50.0001 285.196 51.0536 287.071 52.929C288.946 54.8043 290 57.3479 290 60.0001V60.0101C298.644 53.4976 309.177 49.9831 320 50.0001H340C342.652 50.0001 345.196 51.0536 347.071 52.929C348.946 54.8043 350 57.3479 350 60.0001Z" fill="#121221"/>
<path d="M529.741 63.707L497.741 143.716C496.999 145.57 495.719 147.159 494.066 148.279C492.412 149.399 490.462 149.998 488.465 150H482C480.002 149.999 478.05 149.4 476.396 148.28C474.742 147.16 473.461 145.571 472.719 143.716C462.052 117.049 451.385 90.3797 440.719 63.707C440.113 62.1899 439.889 60.5475 440.064 58.9235C440.24 57.2994 440.811 55.7432 441.728 54.3908C442.644 53.0385 443.877 51.9312 445.321 51.1658C446.764 50.4003 448.372 50.0001 450.006 50H450.015C452.013 50.0006 453.964 50.5995 455.618 51.7195C457.273 52.8395 458.554 54.4293 459.296 56.284L485.233 121.14L511.179 56.283C511.921 54.4285 513.202 52.839 514.856 51.7191C516.511 50.5993 518.462 50.0005 520.46 50V50C522.093 50.0011 523.701 50.402 525.143 51.1679C526.585 51.9337 527.818 53.0411 528.734 54.3933C529.649 55.7455 530.22 57.3014 530.395 58.9249C530.571 60.5485 530.346 62.1903 529.741 63.707V63.707Z" fill="#121221"/>
</svg>
