<svg width="150" height="130" viewBox="0 0 150 130" fill="none" xmlns="http://www.w3.org/2000/svg">
<path d="M150 64.9999V120C150 122.652 148.946 125.196 147.071 127.071C145.196 128.946 142.652 130 140 130C137.348 130 134.804 128.946 132.929 127.071C131.054 125.196 130 122.652 130 120V64.9999C130 61.0216 128.42 57.2063 125.607 54.3933C122.794 51.5802 118.978 49.9999 115 49.9999C111.022 49.9999 107.206 51.5802 104.393 54.3933C101.58 57.2063 100 61.0216 100 64.9999V64.9999V120C100 122.652 98.9464 125.196 97.0711 127.071C95.1957 128.946 92.6522 130 90 130C87.3478 130 84.8043 128.946 82.9289 127.071C81.0536 125.196 80 122.652 80 120V64.9999C80 61.0216 78.4196 57.2063 75.6066 54.3933C72.7936 51.5802 68.9782 49.9999 65 49.9999C61.0218 49.9999 57.2064 51.5802 54.3934 54.3933C51.5804 57.2063 50 61.0216 50 64.9999V120C50 122.652 48.9464 125.196 47.0711 127.071C45.1957 128.946 42.6522 130 40 130C37.3478 130 34.8043 128.946 32.9289 127.071C31.0536 125.196 30 122.652 30 120V64.9999C29.9996 63.3271 30.1166 61.6563 30.35 59.9999C31.2841 53.5409 34.0049 47.4716 38.2053 42.4769C42.4058 37.4821 47.9186 33.7609 54.1217 31.7331C60.3248 29.7052 66.9713 29.4515 73.3109 31.0006C79.6506 32.5497 85.431 35.8399 90 40.4999C94.569 35.8399 100.349 32.5497 106.689 31.0006C113.029 29.4515 119.675 29.7052 125.878 31.7331C132.081 33.7609 137.594 37.4821 141.795 42.4769C145.995 47.4716 148.716 53.5409 149.65 59.9999C149.883 61.6563 150 63.3271 150 64.9999V64.9999Z" fill="#366CE1"/>
<path d="M20 40C20 34.4772 15.5228 30 10 30C4.47715 30 0 34.4772 0 40V120C0 125.523 4.47715 130 10 130C15.5228 130 20 125.523 20 120V40Z" fill="#366CE1"/>
<path d="M10 20C15.5228 20 20 15.5228 20 10C20 4.47715 15.5228 0 10 0C4.47715 0 0 4.47715 0 10C0 15.5228 4.47715 20 10 20Z" fill="#366CE1"/>
</svg>
