<svg width="424" height="262" viewBox="0 0 424 262" fill="none" xmlns="http://www.w3.org/2000/svg">
<path d="M254.43 130.9C234.474 171.821 222.926 216.328 220.47 261.79H0V0H203.12C192.765 42.8623 187.548 86.8047 187.58 130.9H254.43Z" fill="#1C1E20"/>
<path d="M423.58 0V261.79H220.47C222.926 216.328 234.474 171.821 254.43 130.9H187.58C187.549 86.8047 192.765 42.8623 203.12 0H423.58Z" fill="#E1DFDF"/>
<path d="M297.831 71.8274C314.897 71.8274 328.732 57.9925 328.732 40.9264C328.732 23.8602 314.897 10.0254 297.831 10.0254C280.765 10.0254 266.93 23.8602 266.93 40.9264C266.93 57.9925 280.765 71.8274 297.831 71.8274Z" fill="#F5F5F5"/>
<path d="M301.768 236.036C312.316 236.036 320.867 227.485 320.867 216.937C320.867 206.389 312.316 197.838 301.768 197.838C291.22 197.838 282.669 206.389 282.669 216.937C282.669 227.485 291.22 236.036 301.768 236.036Z" fill="#F5F5F5"/>
<path d="M121.822 63.9616C132.37 63.9616 140.92 55.4112 140.92 44.8636C140.92 34.3161 132.37 25.7656 121.822 25.7656C111.275 25.7656 102.724 34.3161 102.724 44.8636C102.724 55.4112 111.275 63.9616 121.822 63.9616Z" fill="#F5F5F5"/>
<path d="M125.758 251.775C142.824 251.775 156.659 237.94 156.659 220.874C156.659 203.808 142.824 189.973 125.758 189.973C108.692 189.973 94.8569 203.808 94.8569 220.874C94.8569 237.94 108.692 251.775 125.758 251.775Z" fill="#F5F5F5"/>
</svg>
