<svg width="310" height="336" viewBox="0 0 310 336" fill="none" xmlns="http://www.w3.org/2000/svg">
<path d="M297.794 275.539C274.074 319.886 213.641 342.582 163.935 333.004C72.044 315.297 16.352 187.199 59.822 113.285C80.422 78.255 122.769 56.3 162.549 57.839C256.332 61.466 340.42 195.844 297.794 275.539Z" fill="black"/>
<path d="M48.1963 156.137C60.8603 130.906 92.6523 76.872 154.88 51.337C208.065 29.513 269.943 34.06 272.442 45.343C273.942 52.097 254.063 60.843 184.217 93.005C126.593 119.533 79.6393 141.422 48.1963 156.137Z" fill="#CDCDCD"/>
<path d="M297.535 265.649C290.747 278.517 282.168 286.208 277.006 290.749C271.573 295.53 251.07 312.555 220.47 316.608C188.45 320.85 137.15 311.977 127.322 279.951C125.842 275.127 122.247 259.82 135.782 237.091C116.922 199.781 121.442 159.501 145.942 147.001C161.332 139.151 180.952 144.111 198.162 158.071C199.072 134.211 207.402 116.181 221.752 111.771C244.862 104.671 274.862 135.591 288.762 180.841C289.962 184.761 291.012 188.661 291.892 192.511C295.021 194.827 297.78 197.605 300.076 200.749C318.064 225.532 298.519 263.784 297.535 265.649Z" fill="#CDCDCD"/>
<path d="M17.9071 226.356C16.6251 212.417 24.9571 195.19 37.6821 191.877C54.4201 187.519 71.7202 209.077 78.2452 224.835C82.9282 236.145 87.4892 257.579 78.2452 264.384C64.9092 274.201 20.5631 255.247 17.9071 226.356Z" fill="#CDCDCD"/>
<path d="M195.136 62.631C165.395 66.845 136.898 77.3681 111.555 93.4949C86.2125 109.622 64.6102 130.98 48.1961 156.137C43.0492 159.35 36.856 160.438 30.9221 159.173C27.983 158.524 25.2011 157.3 22.7364 155.573C20.2717 153.845 18.1727 151.647 16.5601 149.106L3.58511 128.716C0.322237 123.589 -0.77019 117.375 0.548185 111.442C1.86656 105.509 5.48775 100.343 10.6151 97.08C52.4007 55.8337 102.49 23.9582 157.552 3.57399C162.699 0.361738 168.892 -0.727059 174.826 0.537001C177.765 1.18616 180.547 2.40968 183.012 4.13731C185.476 5.86494 187.575 8.0626 189.188 10.604L202.164 30.995C205.427 36.1222 206.52 42.3356 205.202 48.2685C203.884 54.2013 200.263 59.3677 195.136 62.631V62.631Z" fill="#CDCDCD"/>
<path d="M251.894 186.327C256.877 183.946 257.057 173.937 252.295 163.97C247.534 154.003 239.634 147.854 234.651 150.234C229.667 152.615 229.487 162.625 234.249 172.591C239.011 182.558 246.91 188.708 251.894 186.327Z" fill="black"/>
<path d="M194.76 192.346C195.018 193.293 195.064 194.285 194.895 195.251C194.726 196.218 194.347 197.136 193.783 197.939C189.557 196.192 182.802 196.318 175.783 198.651C168.764 200.984 163.272 204.924 160.931 208.851C159.999 208.544 159.145 208.035 158.432 207.361C157.718 206.687 157.162 205.864 156.802 204.951C155.062 199.712 162.144 192.639 172.63 189.156C183.116 185.673 193.02 187.108 194.76 192.346Z" fill="black"/>
<path d="M301.09 228.637C293.352 222.529 279.081 242.742 247.851 251.961C204.444 264.775 167.871 244.661 158.696 260.661C156.673 264.256 156.099 268.488 157.09 272.492C157.735 274.769 160.436 280.98 175.344 286.435C183.067 289.262 201.833 294.68 252.16 281.365C285.539 272.534 292.06 266.825 296.02 261.337C303.969 250.327 307.167 233.435 301.09 228.637Z" fill="black"/>
<path d="M297.963 233.116C292.085 227.857 277.763 246.848 248.484 255.004C209.105 265.974 176.038 248.043 167.569 262.44C167.269 262.954 164.616 267.607 165.916 272.614C166.316 274.165 168.334 280.502 182.475 285.263C189.291 287.558 207.682 292.436 251.146 280.271C279.527 272.329 285.993 266.245 289.597 261.849C297.571 252.122 302.552 237.222 297.963 233.116Z" fill="#CDCDCD"/>
<path d="M223.259 215.708C222.286 216.434 223.624 220.838 226.639 223.483C229.557 226.041 233.974 226.889 234.583 225.849C235.69 223.955 225.011 214.4 223.259 215.708Z" fill="black"/>
<path d="M238.164 209.298C239.332 208.966 242.017 212.705 242.285 216.707C242.544 220.579 240.534 224.602 239.337 224.453C237.161 224.182 236.061 209.895 238.164 209.298Z" fill="black"/>
<path d="M157.344 269.074C157.549 267.774 165.273 267.968 168.879 268.06C177.035 268.268 181.113 268.372 189.034 269.96C211.255 274.42 245.19 264.688 245.569 266.411C245.819 267.548 231.218 272.578 214.893 275.284C214.893 275.284 187.381 279.846 164.062 272.369C162.308 271.807 157.172 270.161 157.344 269.074Z" fill="black"/>
<path d="M34.4702 225.849C34.2232 220.091 39.5542 213.771 45.9632 212.159C55.0432 209.874 65.0822 217.341 65.5692 223.821C66.1312 231.304 53.7952 235.371 55.4282 241.229C56.4372 244.845 62.3062 247.483 66.5832 246.637C70.5182 245.86 72.8252 242.191 73.8512 242.919C74.5512 243.413 74.2032 245.611 73.1752 247.145C70.2752 251.473 60.3192 252.881 55.0902 247.821C53.5634 246.236 52.4793 244.278 51.9461 242.142C51.413 240.007 51.4496 237.769 52.0522 235.652C53.6032 230.512 58.1042 230.052 58.4742 225.68C58.5395 223.845 58.0396 222.034 57.0422 220.492C56.0447 218.951 54.5978 217.753 52.8972 217.06C47.6152 215.118 42.4422 220.398 42.0802 220.778C37.8932 225.178 38.4002 231.078 36.8412 231.088C35.7792 231.093 34.5792 228.381 34.4702 225.849Z" fill="black"/>
<path d="M171.034 219.257C170.6 218.857 174.753 210.209 183.203 207.426C191.261 204.772 199.35 208.731 199.259 209.285C199.177 209.785 192.389 207.216 184.386 209.792C175.652 212.605 171.439 219.629 171.034 219.257Z" fill="black"/>
</svg>
