<svg width="945" height="160" viewBox="0 0 945 160" fill="none" xmlns="http://www.w3.org/2000/svg">
<path d="M100 27.4941V127.494H80V58.0841L63.2 77.5441L49.99 92.8541L36.78 77.5441L20 58.1141V127.494H0V27.4941H20V27.5041L49.99 62.2441L79.98 27.4941H100Z" fill="#121221"/>
<path d="M460 47.4941V67.4941H540V87.4941H460V107.494H540V127.494H440V27.4941H540V47.4941H460Z" fill="#121221"/>
<path d="M320 57.4941C320 49.5376 316.839 41.907 311.213 36.2809C305.587 30.6548 297.956 27.4941 290 27.4941H220V127.494H240V87.4941H290C292.652 87.4941 295.196 88.5477 297.071 90.4231C298.946 92.2984 300 94.842 300 97.4941V127.494H320V97.4941C320.01 90.111 317.285 82.9859 312.35 77.4941C317.285 72.0024 320.01 64.8773 320 57.4941V57.4941ZM240 67.4941V47.4941H290C292.652 47.4941 295.196 48.5477 297.071 50.4231C298.946 52.2984 300 54.842 300 57.4941C300 60.1463 298.946 62.6898 297.071 64.5652C295.196 66.4406 292.652 67.4941 290 67.4941H240Z" fill="#121221"/>
<path d="M700 27.4941C690.111 27.4941 680.444 30.4266 672.222 35.9207C663.999 41.4147 657.59 49.2237 653.806 58.36C650.022 67.4963 649.032 77.5496 650.961 87.2487C652.89 96.9477 657.652 105.857 664.645 112.849C671.637 119.842 680.546 124.604 690.245 126.533C699.945 128.463 709.998 127.472 719.134 123.688C728.27 119.904 736.079 113.495 741.573 105.273C747.068 97.0502 750 87.3832 750 77.4941C749.999 64.2337 744.73 51.5168 735.354 42.1403C725.977 32.7637 713.26 27.4955 700 27.4941V27.4941ZM700 107.494C694.067 107.494 688.266 105.735 683.333 102.438C678.399 99.1418 674.554 94.4564 672.284 88.9746C670.013 83.4929 669.419 77.4609 670.576 71.6414C671.734 65.822 674.591 60.4765 678.787 56.2809C682.982 52.0854 688.328 49.2281 694.147 48.0706C699.967 46.913 705.999 47.5071 711.481 49.7778C716.962 52.0484 721.648 55.8936 724.944 60.827C728.241 65.7605 730 71.5607 730 77.4941C730 85.4506 726.839 93.0813 721.213 98.7074C715.587 104.333 707.957 107.494 700 107.494Z" fill="#121221"/>
<path d="M430 127.484V127.494H400.13L359.51 90.9241L350 99.4941V127.494H330V27.4941H350V72.5841L359.51 64.0141L400.07 27.4941H429.97L374.46 77.4741L430 127.484Z" fill="#121221"/>
<path d="M170.77 29.4441L169.99 27.4941H150.01L149.23 29.4341L110 127.494H131.55L142.75 99.4941H177.25L188.45 127.494H210L170.77 29.4441ZM150.75 79.4941L160 56.3641L169.25 79.4941H150.75Z" fill="#121221"/>
<path d="M650 27.4941V47.4941H610V127.494H590V47.4941H550V27.4941H650Z" fill="#121221"/>
<path d="M805 130L855 130L855 30L805 30L805 130Z" fill="#5E5E5E"/>
<path opacity="0.75" d="M835 140L885 140L885 20L835 20L835 140Z" fill="#5E5E5E"/>
<path opacity="0.5" d="M865 150L915 150L915 10L865 10L865 150Z" fill="#5E5E5E"/>
<path opacity="0.25" d="M895 160L945 160L945 0L895 -4.37114e-06L895 160Z" fill="#5E5E5E"/>
</svg>
