<svg width="798" height="191" viewBox="0 0 798 191" fill="none" xmlns="http://www.w3.org/2000/svg">
<path d="M578.307 77.7811C575.692 65.3811 594.529 47.1231 606.591 49.4971C629.691 54.0451 629.778 134.658 634.875 134.35C640.709 133.997 637.699 28.5641 641.946 28.2841C646.759 27.9671 657.346 162.906 663.159 162.634C669.52 162.334 665.893 0.150104 670.231 0.000104225C674.94 -0.162896 681.765 190.918 691.444 190.918C701.123 190.918 707.464 -0.157896 712.657 0.000104225C717.443 0.145104 715.904 162.556 719.728 162.634C723.298 162.708 727.779 21.1821 733.87 21.2131C739.318 21.2401 744.491 134.484 748.012 134.35C750.942 134.238 741.786 56.0581 762.154 49.4971C775.209 45.2971 801.619 70.1131 797.51 84.8521C787.365 121.243 586.067 114.579 578.307 77.7811Z" fill="black"/>
<path d="M380 75.4591C380 78.1113 381.054 80.6548 382.929 82.5302C384.804 84.4055 387.348 85.4591 390 85.4591H430C437.956 85.4591 445.587 88.6198 451.213 94.2459C456.839 99.872 460 107.503 460 115.459C460 123.416 456.839 131.046 451.213 136.672C445.587 142.298 437.956 145.459 430 145.459H360V125.459H430C432.652 125.459 435.196 124.406 437.071 122.53C438.946 120.655 440 118.111 440 115.459C440 112.807 438.946 110.263 437.071 108.388C435.196 106.513 432.652 105.459 430 105.459H390C382.044 105.459 374.413 102.298 368.787 96.6723C363.161 91.0462 360 83.4156 360 75.4591C360 67.5026 363.161 59.872 368.787 54.2459C374.413 48.6198 382.044 45.4591 390 45.4591H460V65.4591H390C387.348 65.4591 384.804 66.5127 382.929 68.3881C381.054 70.2634 380 72.8069 380 75.4591Z" fill="black"/>
<path d="M160 45.4591C146.74 45.4604 134.023 50.7287 124.646 60.1052C115.27 69.4818 110.001 82.1987 110 95.4591V145.459H130V115.459H190V145.459H210V95.4591C209.999 82.1987 204.73 69.4818 195.354 60.1052C185.977 50.7287 173.26 45.4604 160 45.4591ZM130 95.4591C130 87.5026 133.161 79.872 138.787 74.2459C144.413 68.6198 152.044 65.4591 160 65.4591C167.956 65.4591 175.587 68.6198 181.213 74.2459C186.839 79.872 190 87.5026 190 95.4591H130Z" fill="black"/>
<path d="M100 75.4591V145.459H80V75.4591C80 72.8069 78.9464 70.2634 77.0711 68.388C75.1957 66.5127 72.6522 65.4591 70 65.4591C67.3478 65.4591 64.8043 66.5127 62.9289 68.388C61.0536 70.2634 60 72.8069 60 75.4591V145.459H40V75.4591C40 72.8069 38.9464 70.2634 37.0711 68.388C35.1957 66.5127 32.6522 65.4591 30 65.4591C27.3478 65.4591 24.8043 66.5127 22.9289 68.388C21.0536 70.2634 20 72.8069 20 75.4591V145.459H1.86839e-06V75.4591C-0.00218781 69.2553 1.92033 63.2036 5.50247 58.1384C9.08462 53.0733 14.1499 49.2441 20 47.1791C25.0721 45.382 30.5347 44.9843 35.8137 46.0278C41.0926 47.0712 45.993 49.5174 50 53.1091C54.3145 49.2448 59.6558 46.7126 65.3784 45.8183C71.101 44.924 76.9601 45.7059 82.2479 48.0696C87.5357 50.4332 92.026 54.2775 95.1762 59.1379C98.3264 63.9984 100.002 69.667 100 75.4591Z" fill="black"/>
<path d="M320 59.5991L284.14 95.4591L320 131.319V145.459H305.86L270 109.599L234.14 145.459H220V131.319L255.86 95.4591L220 59.5991V45.4591H234.14L270 81.3191L305.86 45.4591H320V59.5991Z" fill="black"/>
<path d="M350 45.4591H330V145.459H350V45.4591Z" fill="black"/>
<path d="M340 35.4591C345.523 35.4591 350 30.982 350 25.4591C350 19.9363 345.523 15.4591 340 15.4591C334.477 15.4591 330 19.9363 330 25.4591C330 30.982 334.477 35.4591 340 35.4591Z" fill="#F5F5F5"/>
</svg>
