<svg width="220" height="192" viewBox="0 0 220 192" fill="none" xmlns="http://www.w3.org/2000/svg">
<path d="M0.306921 78.322C-2.30808 65.922 16.5289 47.664 28.5909 50.038C51.6909 54.586 51.7779 135.199 56.8749 134.891C62.7089 134.538 59.6989 29.105 63.9459 28.825C68.7589 28.508 79.3459 163.447 85.1589 163.175C91.5199 162.875 87.8929 0.690998 92.2309 0.540998C96.9399 0.377998 103.765 191.459 113.444 191.459C123.123 191.459 129.464 0.382998 134.657 0.540998C139.443 0.685998 137.904 163.097 141.728 163.175C145.298 163.249 149.779 21.723 155.87 21.754C161.318 21.781 166.491 135.025 170.012 134.891C172.942 134.779 163.786 56.599 184.154 50.038C197.209 45.838 223.619 70.654 219.51 85.393C209.365 121.784 8.06692 115.12 0.306921 78.322Z" fill="#366CE1"/>
</svg>
