<svg width="1068" height="282" viewBox="0 0 1068 282" fill="none" xmlns="http://www.w3.org/2000/svg">
<path d="M580 110.725V170.725H600V190.725H540V170.725H560V110.725H540V90.725H600V110.725H580Z" fill="#121221"/>
<path d="M270 90.725H220V190.725H270C283.261 190.725 295.979 185.457 305.355 176.08C314.732 166.703 320 153.986 320 140.725C320 127.464 314.732 114.746 305.355 105.37C295.979 95.9928 283.261 90.725 270 90.725ZM270 170.725H240V110.725H270C277.956 110.725 285.587 113.886 291.213 119.512C296.839 125.138 300 132.768 300 140.725C300 148.681 296.839 156.312 291.213 161.938C285.587 167.564 277.956 170.725 270 170.725Z" fill="#121221"/>
<path d="M100 90.725V190.725H80V121.314L63.2 140.775L49.99 156.085L36.78 140.775L20 121.345V190.725H0V90.725H20V90.735L49.99 125.475L79.98 90.725H100Z" fill="#121221"/>
<path d="M130 110.725V130.725H210V150.725H130V170.725H210V190.725H110V90.725H210V110.725H130Z" fill="#121221"/>
<path d="M530 170.725V190.725H430V90.725H450V170.725H530Z" fill="#121221"/>
<path d="M380.77 92.675L379.99 90.725H360.01L359.23 92.665L320 190.725H341.55L352.75 162.725H387.25L398.45 190.725H420L380.77 92.675ZM360.75 142.725L370 119.6L379.25 142.73L360.75 142.725Z" fill="#121221"/>
<path d="M670.77 92.675L669.99 90.725H650.01L649.23 92.665L610 190.725H631.55L642.75 162.725H677.25L688.45 190.725H710L670.77 92.675ZM650.75 142.725L660 119.6L669.25 142.73L650.75 142.725Z" fill="#121221"/>
<path d="M864.967 202.16L935.678 131.449L996.389 210.738L925.678 281.449L864.967 202.16Z" fill="#646464"/>
<path d="M935.678 131.449L1006.39 60.738L1067.1 140.028L996.389 210.738L935.678 131.449Z" fill="#646464"/>
<path d="M864.986 202.136L935.697 131.425L996.408 210.714L925.697 281.425L864.986 202.136Z" fill="#121221"/>
<path opacity="0.62" d="M935.697 131.425L1006.41 60.714L1067.12 140.004L996.408 210.714L935.697 131.425Z" fill="#121221"/>
<path d="M784.32 141.421L855.031 70.7109L935.742 131.421L865.031 202.132L784.32 141.421Z" fill="#646464"/>
<path d="M855.031 70.711L925.742 0L1006.45 60.711L935.742 131.421L855.031 70.711Z" fill="#646464"/>
<path opacity="0.38" d="M784.328 141.364L855.038 70.653L935.749 131.364L865.038 202.075L784.328 141.364Z" fill="#121221"/>
</svg>
