<svg width="283" height="282" viewBox="0 0 283 282" fill="none" xmlns="http://www.w3.org/2000/svg">
<path d="M80.647 202.16L151.358 131.449L212.069 210.738L141.358 281.449L80.647 202.16Z" fill="#366CE1"/>
<path d="M151.358 131.449L222.069 60.738L282.779 140.028L212.069 210.738L151.358 131.449Z" fill="#366CE1"/>
<path d="M80.666 202.136L151.377 131.425L212.088 210.714L141.377 281.425L80.666 202.136Z" fill="#121221"/>
<path opacity="0.62" d="M151.377 131.425L222.088 60.714L282.798 140.004L212.088 210.714L151.377 131.425Z" fill="#121221"/>
<path d="M0 141.421L70.711 70.7109L151.422 131.421L80.711 202.132L0 141.421Z" fill="#366CE1"/>
<path d="M70.7114 70.711L141.422 0L222.132 60.711L151.422 131.421L70.7114 70.711Z" fill="#366CE1"/>
<path opacity="0.38" d="M0.00830078 141.364L70.7183 70.653L151.429 131.364L80.7183 202.075L0.00830078 141.364Z" fill="#121221"/>
</svg>
