<svg width="633" height="153" viewBox="0 0 633 153" fill="none" xmlns="http://www.w3.org/2000/svg">
<path d="M586.333 65.2051C591.889 58.8034 597.444 52.4017 603 46V128.308L578 153L553 128.308V46C558.556 52.4017 564.111 58.8034 569.667 65.2051V106.359H586.333V65.2051Z" fill="#121221"/>
<path d="M633 27.3564V87.3792C633 100.535 628.102 113.225 619.25 123V35.5634H602.75L578 66.3394L553.25 35.5634H536.75V123C527.898 113.225 523 100.535 523 87.3792V27.3564C543.213 0.547129 574.576 0 578 0C611.688 0 630.946 24.6317 633 27.3564Z" fill="#121221"/>
<path d="M10 37H0V117H10V37Z" fill="#121221"/>
<path d="M70 37H60V117H70V37Z" fill="#121221"/>
<path d="M40 77H30V87H40V77Z" fill="#121221"/>
<path d="M40 67H30V77H40V67Z" fill="#121221"/>
<path d="M30 57H20V67H30V57Z" fill="#121221"/>
<path d="M50 57H40V67H50V57Z" fill="#121221"/>
<path d="M20 47H10V57H20V47Z" fill="#121221"/>
<path d="M60 47H50V57H60V47Z" fill="#121221"/>
<path d="M90 67H80V117H90V67Z" fill="#121221"/>
<path d="M250 67H240V117H250V67Z" fill="#121221"/>
<path d="M190 67H180V117H190V67Z" fill="#121221"/>
<path d="M170 67H160V117H170V67Z" fill="#121221"/>
<path d="M140 67H130V117H140V67Z" fill="#121221"/>
<path d="M110 107H90V117H110V107Z" fill="#121221"/>
<path d="M110 87H90V97H110V87Z" fill="#121221"/>
<path d="M110 67H90V77H110V67Z" fill="#121221"/>
<path d="M230 67H200V77H230V67Z" fill="#121221"/>
<path d="M230 87H200V97H230V87Z" fill="#121221"/>
<path d="M230 107H200V117H230V107Z" fill="#121221"/>
<path d="M180 67H170V77H180V67Z" fill="#121221"/>
<path d="M180 97H170V107H180V97Z" fill="#121221"/>
<path d="M150 67H120V77H150V67Z" fill="#121221"/>
<path d="M420 67H410V117H420V67Z" fill="#121221"/>
<path d="M430 67H400V77H430V67Z" fill="#121221"/>
<path d="M210 77H200V87H210V77Z" fill="#121221"/>
<path d="M240 97H270V87H240V97Z" fill="#121221"/>
<path d="M240 77H270V67H240V77Z" fill="#121221"/>
<path d="M290 67H280V117H290V67Z" fill="#121221"/>
<path d="M280 117H310V107H280V117Z" fill="#121221"/>
<path d="M260 87H270V77H260V87Z" fill="#121221"/>
<path d="M230 97H220V107H230V97Z" fill="#121221"/>
<path d="M330 67H320V117H330V67Z" fill="#121221"/>
<path d="M350 67H340V117H350V67Z" fill="#121221"/>
<path d="M380 77H370V117H380V77Z" fill="#121221"/>
<path d="M340 107H330V117H340V107Z" fill="#121221"/>
<path d="M340 67H330V77H340V67Z" fill="#121221"/>
<path d="M390 67H360V77H390V67Z" fill="#121221"/>
<path d="M390 107H360V117H390V107Z" fill="#121221"/>
</svg>
