<svg width="110" height="153" viewBox="0 0 110 153" fill="none" xmlns="http://www.w3.org/2000/svg">
<path d="M63.3333 65.2051C68.8889 58.8034 74.4444 52.4017 80 46V128.308L55 153L30 128.308V46C35.5556 52.4017 41.1111 58.8034 46.6667 65.2051V106.359H63.3333V65.2051Z" fill="#121221"/>
<path d="M110 27.3564V87.3792C110 100.535 105.102 113.225 96.25 123V35.5634H79.75L55 66.3394L30.25 35.5634H13.75V123C4.8985 113.225 9.29012e-05 100.535 0 87.3792V27.3564C20.2125 0.547129 51.5763 0 55 0C88.6875 0 107.946 24.6317 110 27.3564Z" fill="#121221"/>
<path d="M96 27V114.475C95.3823 115.162 94.7454 115.834 94.0894 116.492L79.6 131V48.8947C74.1333 55.2807 68.6667 61.6667 63.2 68.0526V109.105H46.8V68.0526C41.3333 61.6667 35.8667 55.2807 30.4 48.8947V131L15.9106 116.492C15.2546 115.835 14.6177 115.163 14 114.475V27H30.4L55 57.7895L79.6 27H96Z" fill="#366CE1"/>
</svg>
