<svg width="160" height="300" viewBox="0 0 160 300" fill="none" xmlns="http://www.w3.org/2000/svg">
<path opacity="0.62" d="M76 130H126V205C126 211.63 123.366 217.989 118.678 222.678C113.989 227.366 107.63 230 101 230V230C94.3696 230 88.0108 227.366 83.3224 222.678C78.634 217.989 76 211.63 76 205V130Z" fill="#366CE1"/>
<path opacity="0.62" d="M101 120C114.807 120 126 108.807 126 95C126 81.1929 114.807 70 101 70C87.1929 70 76 81.1929 76 95C76 108.807 87.1929 120 101 120Z" fill="#366CE1"/>
<path opacity="0.38" d="M110 130H160V205C160 211.63 157.366 217.989 152.678 222.678C147.989 227.366 141.63 230 135 230V230C128.37 230 122.011 227.366 117.322 222.678C112.634 217.989 110 211.63 110 205V130Z" fill="#366CE1"/>
<path opacity="0.38" d="M135 120C148.807 120 160 108.807 160 95C160 81.1929 148.807 70 135 70C121.193 70 110 81.1929 110 95C110 108.807 121.193 120 135 120Z" fill="#366CE1"/>
<path d="M0 50L100 0V300L0 250V50Z" fill="#121221"/>
<path d="M20 90L80 70V100L20 110V90Z" fill="#366CE1"/>
<path d="M38 100L58 90V210L38.2111 207.845C38.1411 171.897 38.0707 135.949 38 100Z" fill="#366CE1"/>
</svg>
