<svg width="1750" height="300" viewBox="0 0 1750 300" fill="none" xmlns="http://www.w3.org/2000/svg">
<path d="M1360 100V200H1340V130.59L1323.2 150.05L1309.99 165.36L1296.78 150.05L1280 130.62V200H1260V100H1280V100.01L1309.99 134.75L1339.98 100H1360Z" fill="#656565"/>
<path d="M1390 130C1390 132.652 1391.05 135.196 1392.93 137.071C1394.8 138.946 1397.35 140 1400 140H1440C1447.96 140 1455.59 143.161 1461.21 148.787C1466.84 154.413 1470 162.044 1470 170C1470 177.957 1466.84 185.587 1461.21 191.213C1455.59 196.839 1447.96 200 1440 200H1370V180H1440C1442.65 180 1445.2 178.946 1447.07 177.071C1448.95 175.196 1450 172.652 1450 170C1450 167.348 1448.95 164.804 1447.07 162.929C1445.2 161.054 1442.65 160 1440 160H1400C1392.04 160 1384.41 156.839 1378.79 151.213C1373.16 145.587 1370 137.956 1370 130C1370 122.044 1373.16 114.413 1378.79 108.787C1384.41 103.161 1392.04 100 1400 100H1470V120H1400C1397.35 120 1394.8 121.054 1392.93 122.929C1391.05 124.804 1390 127.348 1390 130Z" fill="#656565"/>
<path d="M1060 120V140H1140V160H1060V180H1140V200H1040V100H1140V120H1060Z" fill="#656565"/>
<path d="M1210.77 101.95L1209.99 100H1190.01L1189.23 101.94L1150 200H1171.55L1182.75 172H1217.25L1228.45 200H1250L1210.77 101.95ZM1190.75 152L1200 128.87L1209.25 152H1190.75Z" fill="#656565"/>
<path d="M1030 100V120H990V200H970V120H930V100H1030Z" fill="#656565"/>
<path d="M430 100C420.111 100 410.444 102.932 402.222 108.427C393.999 113.921 387.59 121.73 383.806 130.866C380.022 140.002 379.031 150.055 380.961 159.755C382.89 169.454 387.652 178.363 394.645 185.355C401.637 192.348 410.546 197.11 420.246 199.039C429.945 200.969 439.998 199.978 449.134 196.194C458.271 192.41 466.079 186.001 471.574 177.779C477.068 169.556 480 159.889 480 150C479.999 136.74 474.73 124.023 465.354 114.646C455.977 105.27 443.26 100.001 430 100ZM430 190C422.089 190 414.355 187.654 407.777 183.259C401.199 178.864 396.072 172.616 393.045 165.307C390.017 157.998 389.225 149.956 390.769 142.196C392.312 134.437 396.122 127.31 401.716 121.716C407.31 116.122 414.437 112.312 422.196 110.769C429.956 109.225 437.998 110.017 445.307 113.045C452.616 116.072 458.864 121.199 463.259 127.777C467.654 134.355 470 142.089 470 150C470 155.253 468.965 160.454 466.955 165.307C464.945 170.16 461.999 174.57 458.284 178.284C454.57 181.999 450.16 184.945 445.307 186.955C440.454 188.965 435.253 190 430 190V190Z" fill="#121221"/>
<path d="M650 100C640.111 100 630.444 102.932 622.222 108.427C613.999 113.921 607.59 121.73 603.806 130.866C600.022 140.002 599.032 150.055 600.961 159.755C602.89 169.454 607.652 178.363 614.645 185.355C621.637 192.348 630.546 197.11 640.245 199.039C649.945 200.969 659.998 199.978 669.134 196.194C678.27 192.41 686.079 186.001 691.573 177.779C697.068 169.556 700 159.889 700 150C699.999 136.74 694.73 124.023 685.354 114.646C675.977 105.27 663.26 100.001 650 100ZM650 190C642.089 190 634.355 187.654 627.777 183.259C621.199 178.864 616.072 172.616 613.045 165.307C610.017 157.998 609.225 149.956 610.769 142.196C612.312 134.437 616.122 127.31 621.716 121.716C627.31 116.122 634.437 112.312 642.196 110.769C649.956 109.225 657.998 110.017 665.307 113.045C672.616 116.072 678.864 121.199 683.259 127.777C687.654 134.355 690 142.089 690 150C690 155.253 688.965 160.454 686.955 165.307C684.945 170.16 681.999 174.57 678.284 178.284C674.57 181.999 670.16 184.945 665.307 186.955C660.454 188.965 655.253 190 650 190V190Z" fill="#121221"/>
<path d="M238.28 178.28L245.35 185.35C238.358 192.344 229.449 197.108 219.749 199.038C210.05 200.969 199.996 199.979 190.859 196.195C181.721 192.412 173.912 186.003 168.417 177.78C162.922 169.557 159.989 159.89 159.989 150C159.989 140.11 162.922 130.443 168.417 122.22C173.912 113.997 181.721 107.589 190.859 103.805C199.996 100.021 210.05 99.0314 219.749 100.962C229.449 102.892 238.358 107.656 245.35 114.65L238.28 121.72C232.686 116.125 225.559 112.314 217.799 110.769C210.04 109.225 201.997 110.017 194.687 113.044C187.377 116.071 181.129 121.198 176.733 127.776C172.338 134.354 169.991 142.088 169.991 150C169.991 157.912 172.338 165.646 176.733 172.224C181.129 178.802 187.377 183.929 194.687 186.956C201.997 189.984 210.04 190.775 217.799 189.231C225.559 187.686 232.686 183.875 238.28 178.28V178.28Z" fill="#121221"/>
<path d="M29.99 100.07V100.04L30 100H39.97L59.98 178.98C66.6533 152.653 73.3267 126.327 80 100H89.99L90 100.01C100 133.343 109.997 166.673 119.99 200H109.55L85.37 119.43L65.13 199.33L64.99 199.89L64.96 200H54.99L54.82 199.34L34.59 119.51L10.44 200H0C10 166.693 19.9967 133.383 29.99 100.07Z" fill="#121221"/>
<path d="M356.57 155C361.944 151.441 366.028 146.245 368.217 140.182C370.407 134.12 370.585 127.513 368.726 121.342C366.866 115.17 363.068 109.762 357.894 105.918C352.72 102.074 346.446 99.9985 340 100H270V200H280V160H340C342.627 159.999 345.228 160.516 347.655 161.521C350.081 162.526 352.287 163.999 354.144 165.856C356.001 167.713 357.474 169.919 358.479 172.345C359.484 174.772 360.001 177.373 360 180V200H370V180C370.005 175.047 368.781 170.17 366.437 165.807C364.093 161.443 360.703 157.73 356.57 155V155ZM330 152.04L329.98 152H330V152.04ZM340 150H280V110H340C345.304 110 350.391 112.107 354.142 115.858C357.893 119.609 360 124.696 360 130C360 135.304 357.893 140.391 354.142 144.142C350.391 147.893 345.304 150 340 150Z" fill="#121221"/>
<path d="M500 127.5C500.002 132.141 501.846 136.591 505.127 139.873C508.409 143.154 512.859 144.998 517.5 145H562.5C569.133 145.006 575.54 147.41 580.541 151.768C585.541 156.125 588.798 162.144 589.712 168.713C590.625 175.283 589.133 181.962 585.511 187.518C581.888 193.075 576.38 197.135 570 198.95C567.562 199.652 565.037 200.005 562.5 200H490V190H562.5C567.141 190 571.593 188.156 574.874 184.874C578.156 181.593 580 177.141 580 172.5C580 167.859 578.156 163.408 574.874 160.126C571.593 156.844 567.141 155 562.5 155H517.5C510.867 154.994 504.46 152.59 499.459 148.232C494.459 143.875 491.202 137.856 490.288 131.287C489.375 124.717 490.867 118.038 494.489 112.482C498.112 106.925 503.62 102.865 510 101.05C512.438 100.348 514.963 99.9948 517.5 100H590V110H517.5C512.859 110.002 508.409 111.846 505.127 115.127C501.846 118.409 500.002 122.859 500 127.5V127.5Z" fill="#121221"/>
<path d="M145 110V190H150V200H130V190H135V110H130V100H150V110H145Z" fill="#121221"/>
<path d="M720 110V145H780V155H720V200H710V100H810V110H720Z" fill="#121221"/>
<path d="M920 100V110H875V200H865V110H820V100H920Z" fill="#121221"/>
<path opacity="0.62" d="M1666 130H1716V205C1716 211.63 1713.37 217.989 1708.68 222.678C1703.99 227.366 1697.63 230 1691 230V230C1684.37 230 1678.01 227.366 1673.32 222.678C1668.63 217.989 1666 211.63 1666 205V130Z" fill="#656565"/>
<path opacity="0.62" d="M1691 120C1704.81 120 1716 108.807 1716 95C1716 81.1929 1704.81 70 1691 70C1677.19 70 1666 81.1929 1666 95C1666 108.807 1677.19 120 1691 120Z" fill="#656565"/>
<path opacity="0.38" d="M1700 130H1750V205C1750 211.63 1747.37 217.989 1742.68 222.678C1737.99 227.366 1731.63 230 1725 230V230C1718.37 230 1712.01 227.366 1707.32 222.678C1702.63 217.989 1700 211.63 1700 205V130Z" fill="#656565"/>
<path opacity="0.38" d="M1725 120C1738.81 120 1750 108.807 1750 95C1750 81.1929 1738.81 70 1725 70C1711.19 70 1700 81.1929 1700 95C1700 108.807 1711.19 120 1725 120Z" fill="#656565"/>
<path d="M1590 50L1690 0V300L1590 250V50Z" fill="#121221"/>
<path d="M1610 90L1670 70V100L1610 110V90Z" fill="#656565"/>
<path d="M1628 100L1648 90V210L1628.21 207.845C1628.14 171.897 1628.07 135.949 1628 100Z" fill="#656565"/>
</svg>
