<svg width="156" height="235" viewBox="0 0 156 235" fill="none" xmlns="http://www.w3.org/2000/svg">
<path d="M18.295 0V200.236L0 189.675V10.562L18.295 0Z" fill="#366CE1"/>
<path d="M155.118 10.562V189.675L136.818 200.236V0L155.118 10.562Z" fill="#366CE1"/>
<path d="M136.818 175.183V200.236L77.5569 234.445L18.2949 200.236V175.341L77.4139 209.471L136.818 175.183Z" fill="#366CE1"/>
<path opacity="0.62" d="M136.818 174.946V199.999L77.5569 234.208L18.2949 199.999V175.104L77.4139 209.234L136.818 174.946Z" fill="#121221"/>
<path d="M136.818 0V175.183L77.4139 209.471L18.2949 175.341V0.158L77.4139 34.288L136.818 0Z" fill="#121221"/>
<path d="M136.818 0V25.053L77.5569 59.262L18.2949 25.053V0.158L77.4139 34.288L136.818 0Z" fill="#366CE1"/>
<path opacity="0.38" d="M136.818 0V25.053L77.5569 59.262L18.2949 25.053V0.158L77.4139 34.288L136.818 0Z" fill="#121221"/>
</svg>
