<svg width="873" height="235" viewBox="0 0 873 235" fill="none" xmlns="http://www.w3.org/2000/svg">
<path d="M735.475 0.448975V200.685L717.18 190.124V11.011L735.475 0.448975Z" fill="#646464"/>
<path d="M872.298 11.011V190.124L853.998 200.685V0.448975L872.298 11.011Z" fill="#646464"/>
<path d="M853.998 175.632V200.685L794.737 234.894L735.475 200.685V175.79L794.594 209.92L853.998 175.632Z" fill="#646464"/>
<path opacity="0.62" d="M853.998 175.395V200.448L794.737 234.657L735.475 200.448V175.553L794.594 209.683L853.998 175.395Z" fill="#121221"/>
<path d="M853.998 0.448975V175.632L794.594 209.92L735.475 175.79V0.606975L794.594 34.737L853.998 0.448975Z" fill="#121221"/>
<path d="M853.998 0.448975V25.502L794.737 59.711L735.475 25.502V0.606975L794.594 34.737L853.998 0.448975Z" fill="#646464"/>
<path opacity="0.38" d="M853.998 0.448975V25.502L794.737 59.711L735.475 25.502V0.606975L794.594 34.737L853.998 0.448975Z" fill="#121221"/>
<path d="M150 87.671V147.671H170V167.671H110V147.671H130V87.671H110V67.671H170V87.671H150Z" fill="#121221"/>
<path d="M450 87.671V147.671H470V167.671H410V147.671H430V87.671H410V67.671H470V87.671H450Z" fill="#121221"/>
<path d="M290 67.671V167.671H270L210 98.261V167.671H190V67.671H210L270 137.081V67.671H290Z" fill="#121221"/>
<path d="M100 67.671V167.671H80V98.261L63.2 117.721L49.99 133.031L36.78 117.721L20 98.291V167.671H0V67.671H20V67.681L49.99 102.421L79.98 67.671H100Z" fill="#121221"/>
<path d="M630 67.671C620.111 67.671 610.444 70.6034 602.222 76.0975C593.999 81.5916 587.59 89.4005 583.806 98.5368C580.022 107.673 579.032 117.726 580.961 127.425C582.89 137.125 587.652 146.034 594.645 153.026C601.637 160.019 610.546 164.781 620.245 166.71C629.945 168.639 639.998 167.649 649.134 163.865C658.27 160.081 666.079 153.672 671.573 145.449C677.068 137.227 680 127.56 680 117.671C679.999 104.411 674.73 91.6936 665.354 82.3171C655.977 72.9406 643.26 67.6723 630 67.671ZM630 147.671C624.067 147.671 618.266 145.911 613.333 142.615C608.399 139.319 604.554 134.633 602.284 129.151C600.013 123.67 599.419 117.638 600.576 111.818C601.734 105.999 604.591 100.653 608.787 96.4578C612.982 92.2622 618.328 89.405 624.147 88.2474C629.967 87.0898 635.999 87.6839 641.481 89.9546C646.962 92.2252 651.648 96.0704 654.944 101.004C658.241 105.937 660 111.738 660 117.671C660 121.611 659.224 125.512 657.716 129.151C656.209 132.791 653.999 136.098 651.213 138.884C648.427 141.67 645.12 143.88 641.481 145.387C637.841 146.895 633.94 147.671 630 147.671Z" fill="#121221"/>
<path d="M570 107.671V117.671C570.006 121.03 569.667 124.381 568.99 127.671C566.766 138.586 560.961 148.447 552.496 155.688C544.031 162.93 533.391 167.138 522.262 167.645C511.134 168.153 500.155 164.93 491.066 158.489C481.977 152.048 475.299 142.757 472.091 132.089C468.882 121.422 469.327 109.988 473.355 99.6019C477.382 89.2157 484.762 80.4715 494.324 74.7559C503.886 69.0404 515.082 66.6807 526.137 68.0512C537.192 69.4216 547.473 74.4437 555.35 82.321L541.21 96.461C536.611 91.8616 530.642 88.8813 524.203 87.9691C517.763 87.0569 511.201 88.2622 505.506 91.4035C499.811 94.5448 495.291 99.4518 492.627 105.385C489.963 111.319 489.3 117.957 490.736 124.301C492.173 130.644 495.633 136.348 500.594 140.555C505.555 144.761 511.748 147.241 518.241 147.621C524.734 148.002 531.175 146.261 536.592 142.663C542.01 139.065 546.112 133.803 548.28 127.671H520V107.671H570Z" fill="#121221"/>
<path d="M400 67.671V87.671H360V167.671H340V87.671H300V67.671H400Z" fill="#121221"/>
</svg>
