<svg width="231" height="227" viewBox="0 0 231 227" fill="none" xmlns="http://www.w3.org/2000/svg">
<path d="M79.0197 220.459C75.9911 215.655 81.8757 211.498 83.9032 194.823C84.9065 186.571 85.6497 179.685 81.8273 173.276C79.4892 169.355 75.9044 167.065 68.8258 162.655C68.0183 162.149 67.2498 161.688 66.4199 161.215C60.5963 157.915 54.5469 155.031 48.3168 152.584C37.9525 148.426 32.7707 146.346 31.4092 146.236C19.7158 145.284 15.1993 153.025 7.72562 149.898C3.0061 147.923 -0.832917 142.476 0.156637 138.667C1.72909 132.612 15.5156 130.643 25.0609 131.098C46.7299 132.131 58.273 146.213 62.0507 142.51C65.7683 138.868 56.8407 123.015 51.794 117.057C45.5215 109.647 42.4561 110.232 32.9325 100.393C28.1747 95.4773 23.5758 90.6538 19.7483 83.1794C16.6952 77.2182 12.2573 68.5528 14.2545 58.2752C15.7121 50.7777 21.1727 39.4455 28.9042 39.5972C33.6765 39.6911 38.7622 44.1476 39.7084 49.1192C40.9768 55.7846 33.9098 58.7064 32.7498 65.9662C30.3525 80.9662 55.7479 98.3557 58.5692 95.9981C59.9516 94.8424 54.8406 89.8506 53.0761 78.0525C51.944 71.4617 52.3196 64.7 54.1747 58.2752C55.1823 54.9468 59.8729 39.4549 71.9368 36.6675C77.3909 35.4071 84.6038 36.6855 85.8541 40.1468C87.233 43.9642 80.1111 46.9769 73.7686 58.0924C71.7179 61.6851 67.2505 69.7381 67.7251 79.8835C67.863 82.8197 68.3513 93.2591 73.7686 95.4484C77.6025 96.9985 81.4647 93.4259 94.3996 83.4849C115.043 67.6152 118.629 66.3902 119.06 61.5103C119.651 54.7987 113.218 53.1367 104.166 38.6856C100.131 32.2427 88.9643 14.4119 94.8265 6.82272C97.9743 2.74749 105.924 1.76661 110.392 4.80822C115.537 8.3121 112.901 14.997 117.167 28.2476C120.049 37.1948 125.835 48.3796 129.436 47.7194C132.488 47.1596 133.384 38.2103 134.381 28.2476C136.186 10.1959 133.798 3.19821 137.86 0.779945C141.963 -1.6636 150.317 1.9544 152.326 7.18892C153.883 11.2475 150.716 13.9063 148.114 23.3035C147.154 26.7705 143.404 40.3231 147.382 42.8974C151.279 45.4189 162.128 39.8167 168.256 31.5435C172.985 25.1634 173.324 19.3366 176.68 19.0303C179.652 18.7602 183.429 22.964 184.249 27.0876C185.179 31.7667 182.885 39.2656 155.194 59.0726C140.485 69.5943 126.302 78.0872 107.583 89.1037C80.4188 105.093 74.1326 108.49 73.0347 116.145C71.3279 128.048 82.9302 144.786 89.6989 143.978C91.7214 143.738 92.9666 142.326 99.9556 130.794C110.297 113.726 111.6 110.169 116.803 106.256C117.752 105.543 129.017 97.2657 135.962 101.592C138.521 103.186 140.913 106.755 140.425 110.284C139.468 117.203 128.42 116.641 118.817 127.131C116.686 129.461 108.242 138.688 111.126 146.725C113.153 152.374 120.29 156.549 126.63 156.003C135.976 155.197 135.998 144.794 149.407 137.074C160.892 130.461 169.105 133.358 171.738 127.131C173.167 123.753 171.658 119.361 168.442 110.651C165.107 101.622 163.735 101.389 162.033 95.9403C159.741 88.6046 157.627 74.3009 164.047 70.5478C168.072 68.1938 175.256 70.1057 178.026 74.3326C180.963 78.8174 176.713 82.525 177.414 93.9872C177.721 98.9978 178.802 102.677 180.589 108.759C182.684 115.892 184.345 121.544 186.021 121.455C188.554 121.321 186.532 108.34 193.713 95.6355C199.072 86.1509 209.758 76.4714 216.786 78.9713C221.299 80.5769 224.434 87.2524 222.829 91.2403C221.61 94.2645 218.394 93.9323 213.489 97.283C212.28 98.1093 209.661 100.053 202.685 111.017C196.121 121.338 192.839 126.498 193.962 128.377C196.738 133.018 210.467 124.413 222.34 131.709C226.241 134.105 231.029 138.886 230.031 142.941C229.074 146.831 223.114 148.358 221.852 148.678C211.73 151.27 206.232 144.351 194.75 141.6C176.409 137.202 159.425 147.42 157.394 148.678C146.219 155.613 148.663 160.954 135.664 168.455C125.335 174.417 120.423 172.894 115.52 179.321C111.011 185.228 110.35 192.564 109.661 200.195C108.493 213.137 111.511 216.357 108.563 220.521C103.057 228.296 83.8656 228.148 79.0197 220.459Z" fill="#121221"/>
</svg>
