<svg width="1345" height="306" viewBox="0 0 1345 306" fill="none" xmlns="http://www.w3.org/2000/svg">
<path d="M1206.64 276.875C1283.06 276.875 1345 214.93 1345 138.517C1345 62.104 1283.06 0.15918 1206.64 0.15918C1130.23 0.15918 1068.28 62.104 1068.28 138.517C1068.28 214.93 1130.23 276.875 1206.64 276.875Z" fill="white"/>
<path d="M1168.65 255.449C1165.29 250.126 1171.81 245.521 1174.06 227.048C1175.17 217.905 1175.99 210.277 1171.76 203.176C1169.17 198.832 1165.2 196.295 1157.36 191.409C1156.46 190.849 1155.61 190.338 1154.69 189.814C1148.24 186.158 1141.54 182.963 1134.63 180.252C1123.15 175.645 1117.41 173.341 1115.9 173.219C1102.95 172.164 1097.94 180.741 1089.66 177.276C1084.44 175.088 1080.18 169.054 1081.28 164.833C1083.02 158.125 1098.29 155.944 1108.87 156.448C1132.88 157.593 1145.66 173.194 1149.85 169.091C1153.97 165.057 1144.08 147.494 1138.49 140.893C1131.54 132.683 1128.14 133.331 1117.59 122.431C1112.32 116.986 1107.22 111.642 1102.98 103.361C1099.6 96.7569 1094.68 87.1568 1096.9 75.7705C1098.51 67.4643 1104.56 54.9098 1113.13 55.0778C1118.41 55.1818 1124.05 60.1191 1125.1 65.627C1126.5 73.0114 1118.67 76.2482 1117.39 84.2912C1114.73 100.909 1142.87 120.174 1145.99 117.562C1147.52 116.282 1141.86 110.752 1139.91 97.6812C1138.65 90.3794 1139.07 82.8884 1141.12 75.7705C1142.24 72.0831 1147.44 54.9202 1160.8 51.8321C1166.84 50.4358 1174.84 51.8521 1176.22 55.6868C1177.75 59.9159 1169.86 63.2536 1162.83 75.5681C1160.56 79.5483 1155.61 88.4699 1156.14 99.7097C1156.29 102.963 1156.83 114.528 1162.83 116.954C1167.08 118.671 1171.36 114.713 1185.69 103.7C1208.56 86.1181 1212.53 84.7609 1213.01 79.3547C1213.66 71.9191 1206.54 70.0778 1196.51 54.0679C1192.04 46.93 1179.67 27.176 1186.16 18.7681C1189.65 14.2533 1198.46 13.1666 1203.41 16.5363C1209.11 20.4182 1206.18 27.8241 1210.91 42.504C1214.1 52.4163 1220.51 64.8076 1224.5 64.0762C1227.88 63.456 1228.88 53.5414 1229.98 42.504C1231.98 22.5051 1229.34 14.7527 1233.84 12.0735C1238.38 9.36643 1247.64 13.3747 1249.86 19.1738C1251.59 23.6702 1248.08 26.6158 1245.2 37.0266C1244.13 40.8676 1239.98 55.882 1244.38 58.734C1248.7 61.5275 1260.72 55.3211 1267.51 46.1554C1272.75 39.0872 1273.13 32.6318 1276.84 32.2925C1280.14 31.9933 1284.32 36.6505 1285.23 41.2189C1286.26 46.4027 1283.72 54.7105 1253.04 76.6539C1236.74 88.3106 1221.03 97.7196 1200.29 109.924C1170.2 127.639 1163.23 131.401 1162.02 139.882C1160.13 153.07 1172.98 171.613 1180.48 170.718C1182.72 170.452 1184.1 168.887 1191.84 156.112C1203.3 137.202 1204.74 133.262 1210.51 128.927C1211.56 128.136 1224.04 118.967 1231.73 123.759C1234.57 125.525 1237.22 129.479 1236.68 133.39C1235.62 141.054 1223.38 140.432 1212.74 152.054C1210.38 154.635 1201.02 164.857 1204.22 173.761C1206.46 180.02 1214.37 184.644 1221.39 184.04C1231.75 183.147 1231.77 171.622 1246.63 163.069C1259.35 155.742 1268.45 158.952 1271.37 152.054C1272.95 148.311 1271.28 143.445 1267.72 133.796C1264.02 123.793 1262.5 123.534 1260.62 117.498C1258.08 109.371 1255.74 93.5249 1262.85 89.3669C1267.31 86.7591 1275.27 88.8772 1278.33 93.5601C1281.59 98.5286 1276.88 102.636 1277.66 115.335C1278 120.886 1279.19 124.962 1281.17 131.7C1283.49 139.603 1285.33 145.864 1287.19 145.765C1290 145.617 1287.76 131.236 1295.71 117.161C1301.65 106.653 1313.49 95.9295 1321.27 98.699C1326.27 100.478 1329.75 107.873 1327.97 112.291C1326.62 115.642 1323.06 115.274 1317.62 118.986C1316.28 119.901 1313.38 122.055 1305.65 134.201C1298.38 145.636 1294.74 151.352 1295.99 153.434C1299.07 158.576 1314.27 149.042 1327.43 157.126C1331.75 159.78 1337.05 165.077 1335.95 169.569C1334.89 173.879 1328.29 175.571 1326.89 175.925C1315.67 178.796 1309.58 171.131 1296.86 168.083C1276.54 163.211 1257.73 174.531 1255.48 175.925C1243.1 183.607 1245.8 189.525 1231.4 197.835C1219.96 204.44 1214.52 202.752 1209.09 209.873C1204.09 216.418 1203.36 224.545 1202.6 232.999C1201.3 247.336 1204.64 250.904 1201.38 255.518C1195.28 264.131 1174.02 263.967 1168.65 255.449Z" fill="#121221"/>
<path d="M14.0134 209.616C4.11517 202.008 10.7768 188.155 6.3854 161.385C3.08656 141.277 -3.33333 132.871 2.1131 126.452C5.9858 121.883 14.1355 120.368 17.584 123.284C22.7382 127.644 15.8823 140.634 19.9645 143.084C23.2011 145.028 28.0344 136.38 37.9197 135.84C44.8355 135.463 50.2672 139.243 53.1676 141.261C61.3625 146.963 64.5229 154.948 66.4815 159.898C68.1444 164.099 68.902 171.865 70.3495 187.224C71.6727 201.264 71.644 204.58 69.1519 206.645C65.6683 209.531 58.7115 208.966 55.466 205.457C52.2975 202.033 54.6534 197.955 54.5812 185.144C54.5348 176.967 54.4445 171.16 51.6056 164.947C50.2214 161.918 45.9902 152.659 38.1099 151.599C31.548 150.715 23.8742 155.708 20.9608 162.274C17.8539 169.277 21.5946 174.838 25.7137 201.697C26.3281 205.7 27.0251 210.667 24.5237 212.389C21.9079 214.189 16.7906 211.751 14.0134 209.616Z" fill="#121221"/>
<path d="M122.796 186.697C118.148 187.136 117.802 191.638 111.801 193.976C104.38 196.872 97.1829 193.003 96.796 192.787C93.3678 190.855 90.6962 187.817 89.2176 184.171C88.5945 182.588 86.3345 176.837 88.7698 174.067C91.4595 171.007 97.2415 174.58 108.087 175.256C115.3 175.705 126.235 176.386 131.121 170.203C135.974 164.059 132.955 153.553 129.187 147.614C123.927 139.324 114.246 134.931 105.115 135.434C94.4873 136.02 87.8455 143.043 85.2056 145.834C76.7422 154.782 75.7141 165.447 75.3994 169.312C75.1298 172.617 74.029 186.211 83.5698 197.546C85.5333 199.879 91.2596 206.701 100.807 208.542C116.468 211.554 133.454 199.445 132.61 192.787C132.174 189.401 126.963 186.304 122.796 186.697ZM105.115 147.765C112.242 147.124 117.056 152.677 117.298 152.965C119.232 155.274 121.97 160.067 120.27 162.478C119.167 164.041 116.858 163.672 105.412 162.326C94.1867 161.005 92.7067 160.924 92.1874 159.653C90.8487 156.378 97.2286 148.475 105.115 147.765Z" fill="#121221"/>
<path d="M281.26 155.196C285.863 154.759 286.206 150.28 292.15 147.953C299.499 145.073 306.627 148.921 307.01 149.137C310.405 151.06 313.051 154.081 314.515 157.709C315.132 159.284 317.37 165.006 314.958 167.762C312.295 170.806 306.568 167.252 295.828 166.579C288.684 166.132 277.854 165.454 273.015 171.605C268.276 177.631 270.888 187.991 274.93 194.079C280.051 201.794 289.487 205.71 297.31 205.189C304.651 204.699 306.366 200.582 312.615 201.937C318.56 203.225 320.114 207.629 325.712 207.406C329.124 207.271 333.262 205.449 333.659 202.971C334.213 199.522 326.935 198.409 323.8 192.179C320.665 185.95 325.428 182.062 326.154 170.004C326.444 165.184 327.133 153.745 320.109 144.405C318.873 142.761 313.021 135.395 303.037 133.465C287.527 130.468 270.704 142.515 271.54 149.14C271.972 152.508 277.133 155.587 281.26 155.196ZM298.77 193.928C291.711 194.566 286.944 189.042 286.704 188.755C284.786 186.458 282.077 181.689 283.761 179.291C284.852 177.736 287.14 178.102 298.476 179.442C309.593 180.756 311.059 180.837 311.573 182.101C312.899 185.36 306.581 193.222 298.77 193.928Z" fill="#121221"/>
<path d="M145.114 139.932C135.764 145.481 138.566 164.699 139.845 173.469C141.308 183.502 142.964 194.858 152.092 200.861C155.864 203.228 160.182 204.603 164.639 204.859C175.172 205.314 180.378 198.463 186.843 201.502C189.872 202.927 189.237 204.656 193.961 207.425C196.455 208.885 201.914 212.081 205.063 209.844C207.841 207.871 207.89 202.341 205.711 198.936C203.52 195.514 200.303 196.148 196.949 193.902C188.844 188.475 189.735 172.791 190.328 162.363C191.089 148.969 194.112 142.821 190.32 139.536C187.533 137.122 182.259 137.311 178.969 139.536C171.664 144.477 173.748 159.729 174.796 167.395C176.608 180.658 180.915 187.282 177.177 191.259C174.962 193.615 171.146 193.738 168.812 193.233C161.566 191.663 158.718 181.796 157.461 177.439C155.538 170.772 155.769 164.967 156.067 158.684C156.622 147.04 158.927 142.578 156.067 139.929C153.587 137.633 148.496 137.924 145.114 139.932Z" fill="#121221"/>
<path d="M208.858 141.769C210.548 133.889 213.384 132.141 214.186 131.699C218.654 129.237 225.583 131.135 227.508 134.957C229.814 139.535 224.463 145.926 225.732 146.804C226.786 147.534 230.044 142.823 236.093 139.103C238.805 137.437 246.35 132.798 254.745 134.664C259.113 135.634 266.313 138.942 267.181 145.03C267.696 148.656 265.972 153.321 263.036 154.212C259.47 155.293 257.602 149.75 250.898 148.288C243.461 146.667 236.757 151.526 235.503 152.436C234.219 153.367 229.514 156.875 227.51 163.099C226.137 167.363 226.962 170.018 230.175 185.608C232.718 197.949 233.269 201.478 231.063 204.86C229.25 207.533 226.505 209.434 223.366 210.191C222.592 210.375 218.615 211.32 215.668 209.599C211.671 207.262 212.048 201.469 211.228 186.793C210.57 175.018 210.241 169.131 209.451 162.802C208.403 154.409 207.238 149.316 208.858 141.769Z" fill="#121221"/>
<path d="M343.811 185.819C343.811 185.761 343.811 185.678 343.811 185.571C343.878 177.129 343.342 168.692 342.208 160.325C339.81 142.713 336.65 140.466 335.08 124.984C333.684 111.223 335.042 101.763 336.268 95.961C337.967 87.9235 340.842 74.3442 348.137 73.0755C351.85 72.4331 356.339 75.0614 358.05 78.5864C360.398 83.4167 356.244 87.3715 352.901 98.6262C351.976 101.741 349.22 111.295 349.931 122.467C350.234 127.233 351.588 132.482 354.297 142.981C354.941 145.476 356.586 151.67 358.535 160.386C358.729 161.254 358.881 161.946 358.99 162.445C359.279 163.764 360.717 172.094 363.594 188.753C365.777 201.394 366.785 207.761 364.004 211.088C359.849 216.062 349.603 216.966 344.995 212.665C340.923 208.868 343.612 203.19 343.811 185.819Z" fill="#121221"/>
<path d="M506.096 147.337C491.099 123.977 456.787 118.548 449.606 127.413C446.532 131.213 450.592 134.948 452.984 154.467C454.442 166.399 456.093 179.879 452.266 194.901C448.609 209.26 443.172 212.391 445.465 216.607C450.446 225.754 484.391 226.129 502.252 205.9C516.357 189.934 517.267 164.728 506.096 147.337ZM499.26 174.983C498.741 196.067 472.135 210.644 466.727 206.792C463.029 204.165 470.834 194.062 470.869 172.309C470.904 152.555 464.499 143.649 467.911 141.392C473.348 137.791 499.791 153.658 499.26 174.983V174.983Z" fill="#121221"/>
<path d="M589.032 172.509C597.265 164.987 596.16 146.558 586.645 135.234C576.124 122.714 558.071 122.203 546.392 126.992C522.705 136.702 522.558 169.282 522.54 172.904C522.523 176.979 522.37 211.178 544.704 217.638C567.098 224.115 590.873 196.568 588.238 190.758C586.762 187.513 575.736 188.146 567.762 190.955C556.448 194.943 554.008 202.355 548.88 201.351C541.429 199.9 534.707 181.953 540.688 174.738C549.168 164.505 576.583 183.886 589.032 172.509ZM563.787 137.782C575.642 139.877 582.105 152.943 579.288 158.19C574.884 166.386 543.775 162.897 541.523 154.266C539.988 148.392 550.579 135.454 563.787 137.782V137.782Z" fill="#121221"/>
<path d="M917.12 171.318C925.353 163.732 924.247 145.147 914.732 133.727C904.212 121.101 886.158 120.586 874.48 125.415C850.793 135.208 850.645 168.064 850.628 171.716C850.61 175.825 850.457 210.314 872.792 216.829C895.185 223.362 918.96 195.581 916.326 189.722C914.85 186.449 903.824 187.087 895.85 189.921C884.535 193.942 882.095 201.417 876.967 200.404C869.516 198.941 862.795 180.842 868.775 173.566C877.255 163.246 904.67 182.791 917.12 171.318ZM891.874 136.296C903.73 138.41 910.192 151.586 907.376 156.877C902.971 165.143 871.863 161.625 869.61 152.92C868.076 146.997 878.667 133.949 891.874 136.296V136.296Z" fill="#121221"/>
<path d="M605.441 146.233C606.588 138.55 612.458 134.028 615.256 131.871C626.546 123.168 642.443 123.431 653.73 128.723C657.179 130.339 664.805 133.913 667.668 141.904C669.526 147.084 669.381 154.127 666.686 155.283C663.326 156.728 659.742 147.414 649.02 142.298C638.667 137.359 624.07 137.482 620.556 143.87C618.563 147.493 620.403 152.644 622.519 155.674C626.342 161.149 632.122 161.213 640.775 164.134C648.595 166.774 662.607 171.503 667.275 181.84C671.108 190.326 667.98 201.124 662.761 207.81C652.564 220.87 633.973 218.761 627.623 218.04C611.818 216.248 596.056 206.989 596.999 201.908C597.635 198.487 605.918 196.534 612.114 196.793C621.763 197.196 623.765 202.856 634.493 203.678C638.335 203.973 644.435 204.441 649.216 200.334C652.851 197.212 655.945 191.255 654.319 186.366C652.97 182.305 649.049 181.04 629.978 173.381C617.091 168.205 614.429 166.994 611.526 163.741C610.4 162.48 604.074 155.391 605.441 146.233Z" fill="#121221"/>
<path d="M687.53 152.204C686.188 152.336 685.738 155.1 682.707 182.541C680.633 201.304 679.689 210.771 684.214 214.958C687.964 218.43 694.626 219.865 698.383 217.337C703.946 213.596 701.768 202.095 698.383 185.217C696.8 177.327 691.68 151.8 687.53 152.204Z" fill="#121221"/>
<path d="M688.946 127.781C686.291 126.243 680.158 129.409 678.833 134.995C677.167 142.015 684.207 148.174 687.26 147.319C691.47 146.141 693.157 130.218 688.946 127.781Z" fill="#121221"/>
<path d="M752.913 247.425C740.451 238.187 730.868 235.534 729.519 226.681C728.445 219.588 734.097 213.54 734.553 213.055C740.001 207.259 751.213 207.247 757.059 204.758C768.277 199.984 774.257 179.906 771.862 165.947C770.747 159.432 768.131 156.171 769.789 150.246C772.049 142.171 779.285 140.289 778.38 135.428C777.375 130.064 768.493 125.722 764.166 128.024C761.1 129.655 762.396 133.517 759.424 135.726C754.53 139.366 747.295 131.6 738.401 131.875C723.306 132.343 713.314 155.692 712.351 157.948C710.716 161.757 702.768 180.333 710.867 194.386C714.64 200.936 719.329 202.058 720.345 208.906C721.367 215.819 717.186 218.746 717.676 226.979C718.091 233.892 721.46 238.9 723.008 241.202C726.594 246.537 730.424 248.675 735.014 250.843C729.281 252.502 723.973 255.378 719.452 259.275C717.256 261.186 704.058 273.123 707.019 286.236C710.202 300.341 729.992 306.488 743.733 305.787C759.909 304.963 778.309 294.101 779.361 281.193C780.441 267.829 762.723 254.693 752.913 247.425ZM726.307 190.208C716.946 181.052 723.183 165.62 724.485 162.388C725.712 159.362 730.389 147.798 738.699 146.986C748.393 146.039 758.671 160.139 758.834 173.058C758.863 175.121 759.027 188.052 748.767 193.498C741.269 197.483 731.779 195.566 726.307 190.208V190.208ZM765.941 282.385C764.3 290.326 752.592 295.55 742.845 294.883C733.946 294.282 723.586 288.555 722.12 280.603C720.065 269.46 736.381 258.813 740.568 253.496C744.101 255.272 747.444 257.406 750.542 259.865C756.387 264.493 767.775 273.508 765.941 282.385V282.385Z" fill="#121221"/>
<path d="M785.035 131.71C788.083 125.323 791.734 123.383 793.808 122.637C798.101 121.093 804.125 121.615 805.771 124.609C807.962 128.596 801.16 134.723 802.979 136.839C804.673 138.808 810.564 133.499 818.133 134.078C828.754 134.888 835.592 146.75 836.477 148.28C840.639 155.495 839.34 159.799 840.465 174.711C842.484 201.466 848.375 210.294 842.459 215.739C838.743 219.162 831.306 220.374 827.306 217.315C818.936 210.92 832.075 190.785 823.318 166.818C820.233 158.376 816.73 155.747 813.747 154.984C809.64 153.933 805.23 156.093 802.9 158.033C788.449 170.086 812.397 208.555 798.993 219.682C794.121 223.725 785.148 223.467 780.649 219.682C771.534 212.013 787.595 195.588 783.839 163.663C782.696 153.959 779.725 142.842 785.035 131.71Z" fill="#121221"/>
<path d="M933.164 208.868C928.155 200.353 935.685 193.767 935.901 174.915C935.985 167.502 934.813 169.253 932.948 147.832C931.456 130.694 931.911 126.174 935.016 123.726C939.2 120.424 947.247 121.632 949.191 125.214C951.404 129.294 945.285 135.68 946.828 137.119C948.251 138.446 953.471 133.026 961.003 129.976C972.2 125.442 987.919 126.384 991.421 133.547C993.284 137.357 991.956 143.472 988.467 145.749C983.089 149.259 976.64 140.995 965.728 142.774C964.913 142.906 956.108 144.462 951.848 151.108C946.929 158.781 952.771 165.911 954.211 184.142C954.593 188.985 956.501 213.16 948.009 216.582C943.552 218.376 936.412 214.389 933.164 208.868Z" fill="#121221"/>
</svg>
