<svg width="860" height="240" viewBox="0 0 860 240" fill="none" xmlns="http://www.w3.org/2000/svg">
<path d="M280 90V150H300V170H240V150H260V90H240V70H300V90H280Z" fill="black"/>
<path d="M480 90V150H500V170H440V150H460V90H440V70H500V90H480Z" fill="black"/>
<path d="M100 70V170H80L20 100.59V170H0V70H20L80 139.41V70H100Z" fill="black"/>
<path d="M370 70H320V170H370C383.261 170 395.979 164.732 405.355 155.355C414.732 145.979 420 133.261 420 120C420 106.739 414.732 94.0215 405.355 84.6447C395.979 75.2678 383.261 70 370 70ZM370 150H340V90H370C377.956 90 385.587 93.1607 391.213 98.7868C396.839 104.413 400 112.044 400 120C400 127.956 396.839 135.587 391.213 141.213C385.587 146.839 377.956 150 370 150Z" fill="black"/>
<path d="M580.77 71.95L579.99 70H560.01L559.23 71.94L520 170H541.55L552.75 142H587.25L598.45 170H620L580.77 71.95ZM560.75 122L570 98.87L579.25 122H560.75Z" fill="black"/>
<path d="M219.98 70L180.76 168.07L179.99 170H159.99L159.22 168.07L120 70H141.54L169.99 141.14L198.45 70H219.98Z" fill="black"/>
<path d="M660 60V220H680V60H660Z" fill="black"/>
<path d="M740 60H660V80H740V60Z" fill="black"/>
<path d="M740 160H700V180H740V160Z" fill="black"/>
<path d="M700 100V180H720V100H700Z" fill="black"/>
<path d="M740 100H700V120H740V100Z" fill="black"/>
<path d="M740 200H660V220H740V200Z" fill="black"/>
<path d="M740 20H640V40H740V20Z" fill="black"/>
<path d="M840 20V220H740V200H820V40H740V20H840Z" fill="white"/>
<path d="M800 60V180H740V160H780V80H740V60H800Z" fill="white"/>
<path d="M760 100H740V140H760V100Z" fill="white"/>
<path d="M780 80V160H740V140H760V100H740V80H780Z" fill="black"/>
<path d="M820 40V200H740V180H800V60H740V40H820Z" fill="black"/>
<path d="M860 0V240H740V220H840V20H740V0H860Z" fill="black"/>
</svg>
