<svg width="220" height="240" viewBox="0 0 220 240" fill="none" xmlns="http://www.w3.org/2000/svg">
<path d="M20 60L20 220H40L40 60H20Z" fill="#366CE1"/>
<path d="M100 60H20V80H100V60Z" fill="#366CE1"/>
<path d="M100 160H60V180H100V160Z" fill="#366CE1"/>
<path d="M60 100L60 180H80V100H60Z" fill="#366CE1"/>
<path d="M100 100H60V120H100V100Z" fill="#366CE1"/>
<path d="M100 200H20V220H100V200Z" fill="#366CE1"/>
<path d="M100 20H0V40H100V20Z" fill="#366CE1"/>
<path d="M200 20V220H100V200H180V40H100V20H200Z" fill="#121221"/>
<path d="M160 60V180H100V160H140V80H100V60H160Z" fill="#121221"/>
<path d="M120 100H100V140H120V100Z" fill="#121221"/>
<path d="M140 80V160H100V140H120V100H100V80H140Z" fill="#366CE1"/>
<path d="M180 40V200H100V180H160V60H100V40H180Z" fill="#366CE1"/>
<path d="M220 0V240H100V220H200V20H100V0H220Z" fill="#366CE1"/>
</svg>
