<svg width="144" height="168" viewBox="0 0 144 168" fill="none" xmlns="http://www.w3.org/2000/svg">
<path d="M0.0880108 150.958C-2.04999 139.288 35.315 133.591 52.274 98.7722C64.721 73.2162 60.182 44.2722 52.274 20.4932H91.413C83.505 44.2732 78.966 73.2162 91.413 98.7722C108.372 133.591 145.737 139.288 143.599 150.958C139.585 172.878 4.10201 172.878 0.0880108 150.958Z" fill="#366CE1"/>
<path d="M52.2743 20.4932C52.2743 20.4932 38.5033 11.8092 39.2273 7.44719C40.6763 -1.27381 101.864 -3.62181 104.46 7.44719C105.493 11.8472 97.1253 17.8592 91.4133 20.4932C74.8543 28.1312 52.2733 20.4932 52.2743 20.4932Z" fill="#366CE1"/>
<path d="M84.9642 2.94533C90.4642 3.34533 94.8112 5.83932 95.2582 8.59532C95.7892 11.8643 91.0703 16.9813 82.7723 17.8953C79.7128 28.2078 77.8584 38.84 77.2463 49.5793C76.4463 63.6603 74.7463 93.6223 91.7993 117.163C98.3626 126.348 106.238 134.52 115.173 141.419C122.18 146.425 125.683 147.373 125.536 149.577C125.061 156.715 87.3822 161.063 56.9592 160.382C41.0312 160.023 25.1664 158.252 9.55127 155.09C29.2835 162.273 50.0762 166.111 71.0723 166.446C103.446 166.908 138.665 158.862 138.872 150.79C138.963 147.334 132.557 146.897 119.137 136.457C111.131 130.378 104.006 123.217 97.9683 115.179C90.9605 105.666 85.8681 94.882 82.9742 83.4263C79.2742 67.8483 81.0812 54.9513 83.6362 36.6793C84.6872 29.1583 85.9452 23.0293 86.8602 18.9703C95.7882 17.9003 101.107 12.3413 100.628 8.92333C100.16 5.54433 93.6562 1.73333 84.9642 2.94533Z" fill="#121221"/>
</svg>
