<svg width="1210" height="168" viewBox="0 0 1210 168" fill="none" xmlns="http://www.w3.org/2000/svg">
<path d="M1066.09 150.958C1063.95 139.288 1101.31 133.591 1118.27 98.7722C1130.72 73.2162 1126.18 44.2722 1118.27 20.4932H1157.41C1149.51 44.2732 1144.97 73.2162 1157.41 98.7722C1174.37 133.591 1211.74 139.288 1209.6 150.958C1205.58 172.878 1070.1 172.878 1066.09 150.958Z" fill="#3E70D1"/>
<path d="M1118.27 20.4932C1118.27 20.4932 1104.5 11.8092 1105.23 7.44719C1106.68 -1.27381 1167.86 -3.62181 1170.46 7.44719C1171.49 11.8472 1163.13 17.8592 1157.41 20.4932C1140.85 28.1312 1118.27 20.4932 1118.27 20.4932Z" fill="#3E70D1"/>
<path d="M1150.96 2.94533C1156.46 3.34533 1160.81 5.83932 1161.26 8.59532C1161.79 11.8643 1157.07 16.9813 1148.77 17.8953C1145.71 28.2078 1143.86 38.84 1143.25 49.5793C1142.45 63.6603 1140.75 93.6223 1157.8 117.163C1164.36 126.348 1172.24 134.52 1181.17 141.419C1188.18 146.425 1191.68 147.373 1191.54 149.577C1191.06 156.715 1153.38 161.063 1122.96 160.382C1107.03 160.023 1091.17 158.252 1075.55 155.09C1095.28 162.273 1116.08 166.111 1137.07 166.446C1169.45 166.908 1204.67 158.862 1204.87 150.79C1204.96 147.334 1198.56 146.897 1185.14 136.457C1177.13 130.378 1170.01 123.217 1163.97 115.179C1156.96 105.666 1151.87 94.882 1148.97 83.4263C1145.27 67.8483 1147.08 54.9513 1149.64 36.6793C1150.69 29.1583 1151.95 23.0293 1152.86 18.9703C1161.79 17.9003 1167.11 12.3413 1166.63 8.92333C1166.16 5.54433 1159.66 1.73333 1150.96 2.94533Z" fill="#121221"/>
<path d="M100 64C100 56.0435 96.8393 48.4129 91.2132 42.7868C85.5871 37.1607 77.9565 34 70 34H0V134H10V94H66L90 134H100L75.67 93.45C82.5169 92.1355 88.6916 88.4761 93.1321 83.1012C97.5725 77.7263 100.001 70.9719 100 64V64ZM10 84V44H70C75.3043 44 80.3914 46.1071 84.1421 49.8578C87.8929 53.6086 90 58.6957 90 64C90 69.3043 87.8929 74.3914 84.1421 78.1422C80.3914 81.8929 75.3043 84 70 84H10Z" fill="#121221"/>
<path d="M120 44V79H210V89H120V124H210V134H110V34H210V44H120Z" fill="#121221"/>
<path d="M270 34H220V134H270C283.261 134 295.979 128.732 305.355 119.355C314.732 109.979 320 97.2608 320 84C320 70.7392 314.732 58.0215 305.355 48.6447C295.979 39.2678 283.261 34 270 34V34ZM270 124H230V44H270C280.609 44 290.783 48.2143 298.284 55.7157C305.786 63.2172 310 73.3913 310 84C310 94.6087 305.786 104.783 298.284 112.284C290.783 119.786 280.609 124 270 124Z" fill="#121221"/>
<path d="M340 34H330V134H340V34Z" fill="#121221"/>
<path d="M450 106.5C450 113.793 447.103 120.788 441.946 125.945C436.788 131.103 429.794 134 422.5 134H350V124H422.5C427.141 124 431.593 122.156 434.875 118.874C438.156 115.592 440 111.141 440 106.5C440 101.859 438.156 97.4075 434.875 94.1256C431.593 90.8438 427.141 89 422.5 89H377.5C370.207 89.0225 363.203 86.1469 358.03 81.0056C352.857 75.8642 349.938 68.8784 349.915 61.585C349.893 54.2915 352.768 47.2878 357.91 42.1147C363.051 36.9415 370.037 34.0225 377.33 34H449.83V44H377.33C375.032 44.0112 372.759 44.4749 370.64 45.3646C368.521 46.2544 366.598 47.5528 364.981 49.1857C361.715 52.4836 359.893 56.9437 359.915 61.585C359.938 66.2263 361.803 70.6685 365.101 73.9345C368.399 77.2004 372.859 79.0225 377.5 79H422.5C429.794 79 436.788 81.8973 441.946 87.0546C447.103 92.2118 450 99.2065 450 106.5V106.5Z" fill="#121221"/>
<path d="M615 114V134H515V34H535V114H615Z" fill="#121221"/>
<path d="M835 64C835 56.0435 831.839 48.4129 826.213 42.7868C820.587 37.1607 812.956 34 805 34H735V134H805C810.792 134.002 816.461 132.326 821.321 129.176C826.182 126.026 830.026 121.536 832.39 116.248C834.753 110.96 835.535 105.101 834.641 99.3784C833.747 93.6558 831.214 88.3145 827.35 84C832.285 78.5083 835.01 71.3831 835 64ZM805 114H755V94H805C807.652 94 810.196 95.0536 812.071 96.929C813.946 98.8043 815 101.348 815 104C815 106.652 813.946 109.196 812.071 111.071C810.196 112.946 807.652 114 805 114ZM805 74H755V54H805C807.652 54 810.196 55.0536 812.071 56.929C813.946 58.8043 815 61.3478 815 64C815 66.6522 813.946 69.1957 812.071 71.071C810.196 72.9464 807.652 74 805 74Z" fill="#121221"/>
<path d="M865 64C865 66.6522 866.054 69.1957 867.929 71.071C869.804 72.9464 872.348 74 875 74H915C922.956 74 930.587 77.1607 936.213 82.7868C941.839 88.4129 945 96.0435 945 104C945 111.956 941.839 119.587 936.213 125.213C930.587 130.839 922.956 134 915 134H845V114H915C917.652 114 920.196 112.946 922.071 111.071C923.946 109.196 925 106.652 925 104C925 101.348 923.946 98.8043 922.071 96.929C920.196 95.0536 917.652 94 915 94H875C867.044 94 859.413 90.8393 853.787 85.2132C848.161 79.5871 845 71.9565 845 64C845 56.0435 848.161 48.4129 853.787 42.7868C859.413 37.1607 867.044 34 875 34H945V54H875C872.348 54 869.804 55.0536 867.929 56.929C866.054 58.8043 865 61.3478 865 64Z" fill="#121221"/>
<path d="M675 34C661.74 34.0013 649.023 39.2696 639.646 48.6461C630.27 58.0226 625.001 70.7396 625 84V134H645V104H705V134H725V84C724.999 70.7396 719.73 58.0226 710.354 48.6461C700.977 39.2696 688.26 34.0013 675 34V34ZM645 84C645 76.0435 648.161 68.4129 653.787 62.7868C659.413 57.1607 667.044 54 675 54C682.956 54 690.587 57.1607 696.213 62.7868C701.839 68.4129 705 76.0435 705 84H645Z" fill="#121221"/>
</svg>
