<svg width="206" height="205" viewBox="0 0 206 205" fill="none" xmlns="http://www.w3.org/2000/svg">
<path d="M134.3 181.113C133.96 183.773 133.74 186.453 133.62 189.173C133.231 188.764 132.928 188.281 132.73 187.753C132.08 185.993 132.67 183.723 134.3 181.113Z" fill="black"/>
<path d="M103 202.5C158.228 202.5 203 157.728 203 102.5C203 47.2715 158.228 2.5 103 2.5C47.7715 2.5 3 47.2715 3 102.5C3 157.728 47.7715 202.5 103 202.5Z" fill="white" stroke="black" stroke-width="5" stroke-miterlimit="10"/>
<path d="M32.133 36.841C29.433 30.118 46.833 15.859 62.558 8.84103C78.7 1.63203 101.152 -1.55197 104.328 5.03203C107.41 11.42 92.244 26.779 76.339 34.332C58.453 42.815 34.877 43.68 32.133 36.841Z" fill="black"/>
<path d="M131.965 77.1551C123.979 82.9819 115.486 88.0812 106.589 92.3921C98.0916 96.4746 89.2734 99.8526 80.2231 102.492C67.7116 106.084 54.848 108.311 41.8571 109.133C35.9341 109.446 29.995 109.232 24.1101 108.492C16.9671 107.61 12.9731 106.335 9.31009 104.212C7.30355 103.048 5.43675 101.658 3.74609 100.069V100.059C3.86609 97.3391 4.08609 94.6591 4.42609 91.9991V91.9891C5.73598 81.4297 8.74128 71.1509 13.3261 61.5491C13.8737 62.6528 14.483 63.7248 15.1511 64.7601C26.8001 82.8001 53.3371 84.5791 70.1091 85.7001C91.0921 87.0283 112.128 84.1224 131.965 77.1551V77.1551Z" fill="black"/>
<path d="M159.364 51.828C161.72 41.3219 161.633 30.4152 159.11 19.948C161.354 21.564 163.636 23.2753 165.955 25.082C167.555 26.3287 169.103 27.5707 170.599 28.808C170.228 31.76 169.51 34.6577 168.459 37.441C167.134 40.8488 165.365 44.0667 163.198 47.011C162.017 48.6919 160.737 50.3005 159.364 51.828V51.828Z" fill="black"/>
<path d="M175.41 133.245C165.393 141.788 154.506 149.253 142.927 155.518C124.2 165.72 103.839 172.583 82.7579 175.8C67.0324 178.075 51.0718 178.219 35.3079 176.228C21.7597 163.4 11.863 147.203 6.63086 129.294C10.9644 132.027 15.4455 134.519 20.0539 136.758C53.6369 153.071 85.3149 151.607 103.581 150.548C128.357 149.06 152.674 143.203 175.41 133.245Z" fill="black"/>
<path d="M194.547 113.777C190.78 119.378 186.009 124.234 180.477 128.101C185.85 121.716 193.437 110.541 195.501 95.4141C197.508 80.7141 193.563 67.6531 190.927 58.9271C189.741 55.0011 188.535 51.7921 187.627 49.5471C188.827 51.6551 197.378 66.7471 200.691 77.0821C201.497 79.5522 202.088 82.0873 202.458 84.6591C202.939 88.1297 202.968 91.6481 202.544 95.1261C201.437 103.565 197.459 109.445 194.547 113.777Z" fill="black"/>
<path d="M132.4 191.1C114.057 197.701 94.4063 199.842 75.0721 197.346C72.9631 196.746 70.7101 195.993 68.3541 195.065C64.761 193.65 61.2841 191.957 57.9551 190C63.2786 191.575 68.6986 192.803 74.1811 193.676C82.4872 194.916 90.886 195.425 99.2811 195.197C110.431 194.95 121.527 193.578 132.4 191.1V191.1Z" fill="black"/>
<path d="M192.533 144.363C191.47 146.136 190.343 147.939 189.152 149.772C187.071 152.966 184.975 155.951 182.899 158.73C174.616 167.36 165.14 174.759 154.758 180.7C151.438 182.6 148.185 184.245 145.04 185.686C162.848 174.363 178.857 160.433 192.533 144.362V144.363Z" fill="black"/>
</svg>
