<svg width="794" height="205" viewBox="0 0 794 205" fill="none" xmlns="http://www.w3.org/2000/svg">
<path d="M722.3 181.113C721.96 183.773 721.74 186.453 721.62 189.173C721.231 188.764 720.928 188.281 720.73 187.753C720.08 185.993 720.67 183.723 722.3 181.113Z" fill="black"/>
<path d="M691 202.5C746.228 202.5 791 157.728 791 102.5C791 47.2715 746.228 2.5 691 2.5C635.772 2.5 591 47.2715 591 102.5C591 157.728 635.772 202.5 691 202.5Z" fill="white" stroke="black" stroke-width="5" stroke-miterlimit="10"/>
<path d="M620.133 36.841C617.433 30.118 634.833 15.859 650.558 8.84103C666.7 1.63203 689.152 -1.55197 692.328 5.03203C695.41 11.42 680.244 26.779 664.339 34.332C646.453 42.815 622.877 43.68 620.133 36.841Z" fill="black"/>
<path d="M719.965 77.1551C711.979 82.9819 703.486 88.0812 694.589 92.3921C686.092 96.4746 677.273 99.8526 668.223 102.492C655.712 106.084 642.848 108.311 629.857 109.133C623.934 109.446 617.995 109.232 612.11 108.492C604.967 107.61 600.973 106.335 597.31 104.212C595.304 103.048 593.437 101.658 591.746 100.069V100.059C591.866 97.3391 592.086 94.6591 592.426 91.9991V91.9891C593.736 81.4297 596.741 71.1509 601.326 61.5491C601.874 62.6528 602.483 63.7248 603.151 64.7601C614.8 82.8001 641.337 84.5791 658.109 85.7001C679.092 87.0283 700.128 84.1224 719.965 77.1551V77.1551Z" fill="black"/>
<path d="M747.364 51.828C749.72 41.3219 749.633 30.4152 747.11 19.948C749.354 21.564 751.636 23.2753 753.955 25.082C755.555 26.3287 757.103 27.5707 758.599 28.808C758.228 31.76 757.51 34.6577 756.459 37.441C755.134 40.8488 753.365 44.0667 751.198 47.011C750.017 48.6919 748.737 50.3005 747.364 51.828V51.828Z" fill="black"/>
<path d="M763.41 133.245C753.393 141.788 742.506 149.253 730.927 155.518C712.2 165.72 691.839 172.583 670.758 175.8C655.032 178.075 639.072 178.219 623.308 176.228C609.76 163.4 599.863 147.203 594.631 129.294C598.964 132.027 603.446 134.519 608.054 136.758C641.637 153.071 673.315 151.607 691.581 150.548C716.357 149.06 740.674 143.203 763.41 133.245Z" fill="black"/>
<path d="M782.547 113.777C778.78 119.378 774.009 124.234 768.477 128.101C773.85 121.716 781.437 110.541 783.501 95.4141C785.508 80.7141 781.563 67.6531 778.927 58.9271C777.741 55.0011 776.535 51.7921 775.627 49.5471C776.827 51.6551 785.378 66.7471 788.691 77.0821C789.497 79.5522 790.088 82.0873 790.458 84.6591C790.939 88.1297 790.968 91.6481 790.544 95.1261C789.437 103.565 785.459 109.445 782.547 113.777Z" fill="black"/>
<path d="M720.4 191.1C702.057 197.701 682.406 199.842 663.072 197.346C660.963 196.746 658.71 195.993 656.354 195.065C652.761 193.65 649.284 191.957 645.955 190C651.279 191.575 656.699 192.803 662.181 193.676C670.487 194.916 678.886 195.425 687.281 195.197C698.431 194.95 709.527 193.578 720.4 191.1V191.1Z" fill="black"/>
<path d="M780.533 144.363C779.47 146.136 778.343 147.939 777.152 149.772C775.071 152.966 772.975 155.951 770.899 158.73C762.616 167.36 753.14 174.759 742.758 180.7C739.438 182.6 736.185 184.245 733.04 185.686C750.848 174.363 766.857 160.433 780.533 144.362V144.363Z" fill="black"/>
<path d="M130.5 21.4431V91.4431H210.5V111.443H130.5V181.443H210.5V201.443H110.5V1.44312H210.5V21.4431H130.5Z" fill="black"/>
<path d="M80.49 91.4431C88.8846 85.1472 95.0857 76.3697 98.2149 66.3539C101.344 56.3381 101.243 45.5916 97.9258 35.6365C94.6085 25.6813 88.2433 17.0222 79.7316 10.8854C71.2199 4.74859 60.9933 1.44521 50.5 1.44312H0.5V201.443H20.5V101.443H50.5C58.4565 101.443 66.0871 104.604 71.7132 110.23C77.3393 115.856 80.5 123.487 80.5 131.443V201.443H100.5V131.443C100.507 123.679 98.7012 116.02 95.2275 109.076C91.7537 102.132 86.7074 96.094 80.49 91.4431V91.4431ZM50.5 81.4431H20.5V21.4431H50.5C58.4565 21.4431 66.0871 24.6038 71.7132 30.2299C77.3393 35.856 80.5 43.4866 80.5 51.4431C80.5 59.3996 77.3393 67.0302 71.7132 72.6563C66.0871 78.2824 58.4565 81.4431 50.5 81.4431V81.4431Z" fill="black"/>
<path d="M248.954 1.91688C247.393 1.60011 245.804 1.44131 244.211 1.44288H220.5V96.2879H229.985V48.8649H244.211C250.087 48.8639 255.753 46.6814 260.112 42.7404C264.47 38.7994 267.21 33.3807 267.801 27.5345C268.391 21.6883 266.791 15.831 263.308 11.0979C259.826 6.36488 254.711 3.09314 248.954 1.91688V1.91688ZM244.211 39.3809H229.985V10.9269H244.211C247.984 10.9269 251.603 12.4258 254.271 15.0939C256.939 17.762 258.438 21.3806 258.438 25.1539C258.438 28.9271 256.939 32.5458 254.271 35.2139C251.603 37.882 247.984 39.3809 244.211 39.3809V39.3809Z" fill="black"/>
<path d="M324.83 1.44312V72.5761C324.851 75.7029 324.252 78.8028 323.07 81.6975C321.887 84.5921 320.144 87.2243 317.94 89.4425C315.736 91.6607 313.115 93.4211 310.228 94.6224C307.342 95.8237 304.246 96.4421 301.119 96.4421C297.992 96.4421 294.896 95.8237 292.009 94.6224C289.122 93.4211 286.501 91.6607 284.297 89.4425C282.094 87.2243 280.35 84.5921 279.168 81.6975C277.985 78.8028 277.387 75.7029 277.407 72.5761V1.44312H286.892V72.5761C286.876 74.4544 287.233 76.3172 287.941 78.0571C288.649 79.7969 289.694 81.3794 291.017 82.7131C292.339 84.0469 293.913 85.1055 295.647 85.828C297.381 86.5504 299.24 86.9224 301.119 86.9224C302.997 86.9224 304.857 86.5504 306.591 85.828C308.325 85.1055 309.898 84.0469 311.221 82.7131C312.543 81.3794 313.589 79.7969 314.297 78.0571C315.005 76.3172 315.361 74.4544 315.345 72.5761V1.44312H324.83Z" fill="black"/>
<path d="M372.252 44.1229C376.24 41.1405 379.187 36.9777 380.676 32.2253C382.164 27.4729 382.117 22.3725 380.542 17.6481C378.968 12.9237 375.945 8.81546 371.903 5.90652C367.861 2.99759 363.005 1.43581 358.025 1.4429H334.314V96.2879H358.025C361.14 96.2909 364.224 95.6797 367.103 94.4891C369.981 93.2985 372.596 91.552 374.799 89.3496C377.001 87.1471 378.748 84.5319 379.938 81.6537C381.129 78.7754 381.74 75.6906 381.737 72.5759V63.0919C381.741 59.4101 380.885 55.7782 379.239 52.4852C377.592 49.1921 375.2 46.3288 372.252 44.1229ZM343.8 10.9269H358.026C361.799 10.9269 365.418 12.4258 368.086 15.0939C370.754 17.762 372.253 21.3807 372.253 25.1539C372.253 28.9271 370.754 32.5458 368.086 35.2139C365.418 37.882 361.799 39.3809 358.026 39.3809H343.8V10.9269ZM372.253 72.5759C372.251 76.2227 370.85 79.7297 368.338 82.3734C365.826 85.0171 362.395 86.5958 358.753 86.7839C358.506 86.8029 358.269 86.8029 358.022 86.8029H343.8V48.8649H358.026C358.273 48.8649 358.52 48.8749 358.757 48.8839C362.399 49.0722 365.83 50.651 368.341 53.2946C370.853 55.9383 372.255 59.4452 372.257 63.0919L372.253 72.5759Z" fill="black"/>
<path d="M381.737 149.278C385.724 146.296 388.671 142.133 390.158 137.381C391.646 132.629 391.599 127.529 390.025 122.805C388.45 118.081 385.427 113.973 381.386 111.064C377.344 108.156 372.489 106.594 367.51 106.6H343.8V201.445H353.284V154.02H367.51C371.283 154.022 374.9 155.521 377.568 158.189C380.236 160.857 381.735 164.474 381.737 168.247V201.447H391.221V168.247C391.226 164.565 390.371 160.933 388.724 157.64C387.078 154.347 384.685 151.484 381.737 149.278V149.278ZM367.51 144.536H353.283V116.082H367.51C371.283 116.082 374.902 117.581 377.57 120.249C380.238 122.917 381.737 126.536 381.737 130.309C381.737 134.082 380.238 137.701 377.57 140.369C374.902 143.037 371.283 144.536 367.51 144.536Z" fill="black"/>
<path d="M505.035 72.576H514.52C514.541 75.7028 513.942 78.8027 512.76 81.6973C511.577 84.592 509.834 87.2241 507.63 89.4423C505.426 91.6605 502.805 93.4209 499.918 94.6222C497.032 95.8235 493.936 96.4419 490.809 96.4419C487.682 96.4419 484.586 95.8235 481.699 94.6222C478.812 93.4209 476.191 91.6605 473.987 89.4423C471.784 87.2241 470.04 84.592 468.858 81.6973C467.675 78.8027 467.077 75.7028 467.097 72.576V25.154C467.138 18.892 469.654 12.9003 474.096 8.48668C478.539 4.07308 484.547 1.59595 490.809 1.59595C497.071 1.59595 503.079 4.07308 507.521 8.48668C511.963 12.9003 514.48 18.892 514.52 25.154H505.035C505.051 23.2757 504.695 21.4129 503.987 19.673C503.279 17.9331 502.233 16.3507 500.911 15.0169C499.588 13.6832 498.015 12.6245 496.281 11.9021C494.547 11.1796 492.687 10.8077 490.809 10.8077C488.93 10.8077 487.071 11.1796 485.337 11.9021C483.603 12.6245 482.029 13.6832 480.707 15.0169C479.384 16.3507 478.339 17.9331 477.631 19.673C476.923 21.4129 476.566 23.2757 476.582 25.154V72.576C476.566 74.4542 476.923 76.3171 477.631 78.0569C478.339 79.7968 479.384 81.3792 480.707 82.713C482.029 84.0467 483.603 85.1054 485.337 85.8278C487.071 86.5503 488.93 86.9222 490.809 86.9222C492.687 86.9222 494.547 86.5503 496.281 85.8278C498.015 85.1054 499.588 84.0467 500.911 82.713C502.233 81.3792 503.279 79.7968 503.987 78.0569C504.695 76.3171 505.051 74.4542 505.035 72.576Z" fill="black"/>
<path d="M258.438 177.731H267.923C267.943 180.858 267.345 183.958 266.162 186.852C264.98 189.747 263.237 192.379 261.033 194.597C258.829 196.816 256.208 198.576 253.321 199.777C250.434 200.979 247.338 201.597 244.211 201.597C241.085 201.597 237.989 200.979 235.102 199.777C232.215 198.576 229.594 196.816 227.39 194.597C225.186 192.379 223.443 189.747 222.261 186.852C221.078 183.958 220.48 180.858 220.5 177.731V130.309C220.541 124.047 223.057 118.055 227.499 113.642C231.941 109.228 237.949 106.751 244.211 106.751C250.474 106.751 256.482 109.228 260.924 113.642C265.366 118.055 267.882 124.047 267.923 130.309H258.438C258.454 128.431 258.097 126.568 257.39 124.828C256.682 123.088 255.636 121.506 254.314 120.172C252.991 118.838 251.417 117.78 249.683 117.057C247.95 116.335 246.09 115.963 244.211 115.963C242.333 115.963 240.473 116.335 238.74 117.057C237.006 117.78 235.432 118.838 234.109 120.172C232.787 121.506 231.741 123.088 231.033 124.828C230.326 126.568 229.969 128.431 229.985 130.309V177.731C229.969 179.609 230.326 181.472 231.033 183.212C231.741 184.952 232.787 186.534 234.109 187.868C235.432 189.202 237.006 190.26 238.74 190.983C240.473 191.705 242.333 192.077 244.211 192.077C246.09 192.077 247.95 191.705 249.683 190.983C251.417 190.26 252.991 189.202 254.314 187.868C255.636 186.534 256.682 184.952 257.39 183.212C258.097 181.472 258.454 179.609 258.438 177.731V177.731Z" fill="black"/>
<path d="M329.1 125.567C327.929 119.805 324.659 114.684 319.925 111.197C315.191 107.71 309.33 106.107 303.48 106.697C297.63 107.288 292.208 110.032 288.267 114.395C284.326 118.758 282.146 124.429 282.151 130.309V177.731C282.131 180.858 282.729 183.958 283.911 186.852C285.094 189.747 286.837 192.379 289.041 194.597C291.245 196.816 293.866 198.576 296.753 199.777C299.64 200.979 302.736 201.597 305.862 201.597C308.989 201.597 312.085 200.979 314.972 199.777C317.859 198.576 320.48 196.816 322.684 194.597C324.888 192.379 326.631 189.747 327.813 186.852C328.996 183.958 329.594 180.858 329.574 177.731V130.309C329.575 128.717 329.417 127.128 329.1 125.567V125.567ZM305.863 191.958C302.09 191.957 298.472 190.458 295.804 187.79C293.136 185.122 291.637 181.504 291.636 177.731V130.309C291.62 128.431 291.977 126.568 292.684 124.828C293.392 123.088 294.438 121.506 295.76 120.172C297.083 118.838 298.657 117.78 300.39 117.057C302.124 116.335 303.984 115.963 305.862 115.963C307.741 115.963 309.601 116.335 311.334 117.057C313.068 117.78 314.642 118.838 315.964 120.172C317.287 121.506 318.333 123.088 319.04 124.828C319.748 126.568 320.105 128.431 320.089 130.309V177.731C320.088 181.504 318.588 185.122 315.92 187.79C313.252 190.458 309.634 191.957 305.861 191.958H305.863Z" fill="black"/>
<path d="M452.4 125.567C451.468 121.012 449.217 116.831 445.928 113.544C442.639 110.257 438.456 108.01 433.9 107.081C432.341 106.756 430.751 106.594 429.158 106.598H405.448V201.443H429.159C430.752 201.446 432.342 201.284 433.901 200.959C439.259 199.873 444.076 196.966 447.534 192.732C450.991 188.498 452.877 183.198 452.87 177.731V130.309C452.873 128.717 452.716 127.128 452.4 125.567ZM443.39 177.731C443.389 181.504 441.89 185.122 439.222 187.79C436.554 190.457 432.936 191.957 429.163 191.958H414.932V116.082H429.159C432.932 116.084 436.55 117.583 439.217 120.251C441.885 122.918 443.385 126.536 443.386 130.309L443.39 177.731Z" fill="black"/>
<path d="M438.644 86.8031V96.2881H391.221V1.44312H400.706V86.8031H438.644Z" fill="black"/>
<path d="M457.613 1.44312H448.128V96.2881H457.613V1.44312Z" fill="black"/>
<path d="M514.52 172.989V177.731C514.524 183.856 512.157 189.746 507.915 194.164C503.673 198.583 497.885 201.188 491.765 201.434C485.644 201.68 479.666 199.547 475.084 195.482C470.501 191.418 467.67 185.737 467.183 179.631H476.715C477.195 183.208 479.016 186.47 481.81 188.754C484.605 191.038 488.163 192.175 491.764 191.933C495.365 191.692 498.74 190.09 501.204 187.453C503.668 184.816 505.038 181.34 505.035 177.731V172.989C505.034 169.216 503.534 165.598 500.867 162.931C498.199 160.263 494.581 158.763 490.808 158.762C487.694 158.764 484.61 158.153 481.732 156.962C478.855 155.771 476.24 154.024 474.038 151.822C471.836 149.62 470.09 147.005 468.899 144.127C467.709 141.25 467.097 138.165 467.1 135.051V130.309C467.099 124.19 469.463 118.308 473.699 113.892C477.934 109.476 483.713 106.869 489.827 106.616C495.94 106.362 501.915 108.482 506.502 112.532C511.089 116.582 513.932 122.248 514.437 128.346H504.9C504.403 124.777 502.571 121.53 499.772 119.26C496.974 116.99 493.419 115.866 489.824 116.115C486.23 116.364 482.863 117.968 480.405 120.602C477.947 123.237 476.58 126.706 476.58 130.309V135.051C476.581 138.824 478.081 142.442 480.748 145.109C483.416 147.777 487.034 149.277 490.806 149.278C493.921 149.276 497.005 149.887 499.883 151.078C502.761 152.269 505.376 154.015 507.578 156.217C509.781 158.42 511.527 161.034 512.718 163.912C513.909 166.79 514.521 169.875 514.518 172.989H514.52Z" fill="black"/>
</svg>
