<svg width="130" height="130" viewBox="0 0 130 130" fill="none" xmlns="http://www.w3.org/2000/svg">
<path d="M130 79.986C130.001 82.6127 129.484 85.2137 128.479 87.6406C127.474 90.0675 126.001 92.2726 124.144 94.1299C122.287 95.9872 120.082 97.4604 117.655 98.4652C115.228 99.47 112.627 99.9868 110 99.986V89.986C111.978 89.986 113.911 89.3995 115.556 88.3007C117.2 87.2019 118.482 85.6401 119.239 83.8128C119.996 81.9856 120.194 79.9749 119.808 78.0351C119.422 76.0953 118.47 74.3135 117.071 72.9149C115.673 71.5164 113.891 70.564 111.951 70.1782C110.011 69.7923 108 69.9903 106.173 70.7472C104.346 71.5041 102.784 72.7858 101.685 74.4303C100.587 76.0748 100 78.0082 100 79.986C100 89.8751 97.0676 99.5421 91.5735 107.765C86.0794 115.987 78.2705 122.396 69.1342 126.18C59.9979 129.964 49.9446 130.955 40.2455 129.025C30.5465 127.096 21.6373 122.334 14.6447 115.341C7.65206 108.349 2.89001 99.4396 0.960754 89.7405C-0.968508 80.0415 0.0216784 69.9881 3.80606 60.8518C7.59044 51.7155 13.9991 43.9066 22.2215 38.4125C30.444 32.9185 40.111 29.986 50 29.986C51.9778 29.986 53.9112 29.3995 55.5557 28.3007C57.2002 27.2019 58.482 25.6401 59.2388 23.8128C59.9957 21.9856 60.1937 19.9749 59.8079 18.0351C59.422 16.0953 58.4696 14.3135 57.0711 12.9149C55.6726 11.5164 53.8907 10.564 51.9509 10.1782C50.0111 9.7923 48.0004 9.99034 46.1732 10.7472C44.3459 11.5041 42.7841 12.7858 41.6853 14.4303C40.5865 16.0748 40 18.0082 40 19.986H30C30.0014 16.0324 31.175 12.1679 33.3724 8.88113C35.5698 5.59437 38.6923 3.0329 42.3453 1.52055C45.9982 0.00819111 50.0176 -0.387147 53.8952 0.38451C57.7728 1.15617 61.3346 3.06017 64.1302 5.85582C66.9259 8.65147 68.8299 12.2132 69.6015 16.0909C70.3732 19.9685 69.9778 23.9878 68.4655 27.6408C66.9531 31.2937 64.3917 34.4163 61.1049 36.6137C57.8182 38.8111 53.9537 39.9846 50 39.986C42.0888 39.986 34.3552 42.332 27.7772 46.7272C21.1993 51.1225 16.0724 57.3696 13.0449 64.6787C10.0174 71.9877 9.22521 80.0304 10.7686 87.7896C12.312 95.5489 16.1217 102.676 21.7158 108.27C27.3099 113.864 34.4372 117.674 42.1964 119.217C49.9557 120.761 57.9983 119.969 65.3074 116.941C72.6164 113.914 78.8636 108.787 83.2588 102.209C87.6541 95.6309 90 87.8973 90 79.986C90 74.6817 92.1072 69.5946 95.8579 65.8439C99.6086 62.0931 104.696 59.986 110 59.986C115.304 59.986 120.391 62.0931 124.142 65.8439C127.893 69.5946 130 74.6817 130 79.986V79.986Z" fill="#121221"/>
<path d="M110 89.9863V99.9863C88.7827 99.9863 68.4344 91.5578 53.4315 76.5549C38.4285 61.552 30 41.2036 30 19.9863H40C40 38.5515 47.375 56.3563 60.5025 69.4838C73.6301 82.6113 91.4348 89.9863 110 89.9863V89.9863Z" fill="#366CE1"/>
</svg>
