<svg width="1115" height="130" viewBox="0 0 1115 130" fill="none" xmlns="http://www.w3.org/2000/svg">
<path d="M1115 79.986C1115 82.6127 1114.48 85.2137 1113.48 87.6406C1112.47 90.0675 1111 92.2726 1109.14 94.1299C1107.29 95.9872 1105.08 97.4604 1102.65 98.4652C1100.23 99.47 1097.63 99.9868 1095 99.986V89.986C1096.98 89.986 1098.91 89.3995 1100.56 88.3007C1102.2 87.2019 1103.48 85.6401 1104.24 83.8128C1105 81.9856 1105.19 79.9749 1104.81 78.0351C1104.42 76.0953 1103.47 74.3135 1102.07 72.9149C1100.67 71.5164 1098.89 70.564 1096.95 70.1782C1095.01 69.7923 1093 69.9903 1091.17 70.7472C1089.35 71.5041 1087.78 72.7858 1086.69 74.4303C1085.59 76.0748 1085 78.0082 1085 79.986C1085 89.8751 1082.07 99.5421 1076.57 107.765C1071.08 115.987 1063.27 122.396 1054.13 126.18C1045 129.964 1034.94 130.955 1025.25 129.025C1015.55 127.096 1006.64 122.334 999.645 115.341C992.652 108.349 987.89 99.4396 985.961 89.7405C984.031 80.0415 985.022 69.9881 988.806 60.8518C992.59 51.7155 998.999 43.9066 1007.22 38.4125C1015.44 32.9185 1025.11 29.986 1035 29.986C1036.98 29.986 1038.91 29.3995 1040.56 28.3007C1042.2 27.2019 1043.48 25.6401 1044.24 23.8128C1045 21.9856 1045.19 19.9749 1044.81 18.0351C1044.42 16.0953 1043.47 14.3135 1042.07 12.9149C1040.67 11.5164 1038.89 10.564 1036.95 10.1782C1035.01 9.7923 1033 9.99034 1031.17 10.7472C1029.35 11.5041 1027.78 12.7858 1026.69 14.4303C1025.59 16.0748 1025 18.0082 1025 19.986H1015C1015 16.0324 1016.17 12.1679 1018.37 8.88113C1020.57 5.59437 1023.69 3.0329 1027.35 1.52055C1031 0.00819111 1035.02 -0.387147 1038.9 0.38451C1042.77 1.15617 1046.33 3.06017 1049.13 5.85582C1051.93 8.65147 1053.83 12.2132 1054.6 16.0909C1055.37 19.9685 1054.98 23.9878 1053.47 27.6408C1051.95 31.2937 1049.39 34.4163 1046.1 36.6137C1042.82 38.8111 1038.95 39.9846 1035 39.986C1027.09 39.986 1019.36 42.332 1012.78 46.7272C1006.2 51.1225 1001.07 57.3696 998.045 64.6787C995.017 71.9877 994.225 80.0304 995.769 87.7896C997.312 95.5489 1001.12 102.676 1006.72 108.27C1012.31 113.864 1019.44 117.674 1027.2 119.217C1034.96 120.761 1043 119.969 1050.31 116.941C1057.62 113.914 1063.86 108.787 1068.26 102.209C1072.65 95.6309 1075 87.8973 1075 79.986C1075 74.6817 1077.11 69.5946 1080.86 65.8439C1084.61 62.0931 1089.7 59.986 1095 59.986C1100.3 59.986 1105.39 62.0931 1109.14 65.8439C1112.89 69.5946 1115 74.6817 1115 79.986V79.986Z" fill="#121221"/>
<path d="M1095 89.9863V99.9863C1073.78 99.9863 1053.43 91.5578 1038.43 76.5549C1023.43 61.552 1015 41.2036 1015 19.9863H1025C1025 38.5515 1032.37 56.3563 1045.5 69.4838C1058.63 82.6113 1076.43 89.9863 1095 89.9863V89.9863Z" fill="black"/>
<path d="M120 25V60H210V70H120V105H210V115H110V15H210V25H120Z" fill="#121221"/>
<path d="M560.02 25V60H650.02V70H560.02V105H650.02V115H550.02V15H650.02V25H560.02Z" fill="#121221"/>
<path d="M739.72 70L735.21 60L715.5 16.27L715.51 16.26L715.02 15.18H715.01L714.93 15H705.09L705.01 15.18V15.2L704.54 16.25H704.53L684.81 60L680.3 70L660.02 115H670.99L691.27 70H728.75L749.03 115H760L739.72 70ZM720.01 67.04L719.99 67H720.01V67.04ZM695.78 60L710.01 28.42L724.25 60H695.78Z" fill="#121221"/>
<path d="M800 15.07V15.04L800.01 15H809.98L829.99 93.98C836.663 67.6533 843.336 41.3267 850.01 15H860L860.01 15.01C870.01 48.3433 880.006 81.6733 890 115H879.56L855.38 34.43L835.14 114.33L835 114.89L834.97 115H825L824.83 114.34L804.6 34.51L780.45 115H770.01C780.007 81.69 790.004 48.38 800 15.07Z" fill="#121221"/>
<path d="M86.57 70C91.9438 66.4406 96.0279 61.2448 98.2174 55.1823C100.407 49.1199 100.585 42.5134 98.7258 36.3418C96.8664 30.1701 93.0683 24.7616 87.8943 20.9176C82.7203 17.0735 76.4457 14.9985 70 15H0V115H10V75H70C72.6267 74.9992 75.2277 75.516 77.6546 76.5208C80.0815 77.5256 82.2866 78.9988 84.1439 80.8561C86.0012 82.7134 87.4744 84.9185 88.4792 87.3454C89.484 89.7723 90.0008 92.3733 90 95V115H100V95C100.005 90.0469 98.7812 85.17 96.4372 80.8066C94.0932 76.4433 90.7028 72.73 86.57 70V70ZM60 67.04L59.98 67H60V67.04ZM70 65H10V25H70C75.3043 25 80.3914 27.1071 84.1421 30.8579C87.8929 34.6086 90 39.6957 90 45C90 50.3043 87.8929 55.3914 84.1421 59.1421C80.3914 62.8929 75.3043 65 70 65Z" fill="#121221"/>
<path d="M526.57 70C531.944 66.4406 536.028 61.2448 538.217 55.1823C540.407 49.1199 540.585 42.5134 538.726 36.3418C536.866 30.1701 533.068 24.7616 527.894 20.9176C522.72 17.0735 516.446 14.9985 510 15H440V115H450V75H510C512.627 74.9992 515.228 75.516 517.655 76.5208C520.081 77.5256 522.287 78.9988 524.144 80.8561C526.001 82.7134 527.474 84.9185 528.479 87.3454C529.484 89.7723 530.001 92.3733 530 95V115H540V95C540.005 90.0469 538.781 85.17 536.437 80.8066C534.093 76.4433 530.703 72.73 526.57 70V70ZM500 67.04L499.98 67H500V67.04ZM510 65H450V25H510C515.304 25 520.391 27.1071 524.142 30.8579C527.893 34.6086 530 39.6957 530 45C530 50.3043 527.893 55.3914 524.142 59.1421C520.391 62.8929 515.304 65 510 65V65Z" fill="#121221"/>
<path d="M230 42.5001C230.002 47.1409 231.846 51.5911 235.127 54.8727C238.409 58.1542 242.859 59.9985 247.5 60.0001H292.5C299.133 60.0064 305.54 62.4099 310.541 66.7677C315.541 71.1254 318.798 77.1437 319.712 83.7135C320.625 90.2832 319.133 96.9617 315.511 102.518C311.888 108.075 306.38 112.135 300 113.95C297.562 114.652 295.037 115.005 292.5 115H220V105H292.5C297.141 105 301.592 103.156 304.874 99.8744C308.156 96.5925 310 92.1413 310 87.5001C310 82.8588 308.156 78.4076 304.874 75.1257C301.592 71.8438 297.141 70.0001 292.5 70.0001H247.5C240.867 69.9937 234.46 67.5902 229.459 63.2324C224.459 58.8747 221.202 52.8564 220.288 46.2866C219.375 39.7169 220.867 33.0384 224.489 27.4819C228.112 21.9254 233.62 17.8654 240 16.0501C242.438 15.3483 244.963 14.9948 247.5 15.0001H320V25.0001H247.5C242.859 25.0016 238.409 26.8459 235.127 30.1274C231.846 33.409 230.002 37.8593 230 42.5001V42.5001Z" fill="#121221"/>
<path d="M430 15V25H385V115H375V25H330V15H430Z" fill="#121221"/>
</svg>
