<svg width="80" height="80" viewBox="0 0 80 80" fill="none" xmlns="http://www.w3.org/2000/svg">
<path d="M40 0C32.0888 0 24.3552 2.34596 17.7772 6.74122C11.1992 11.1365 6.07234 17.3836 3.04484 24.6927C0.0173314 32.0017 -0.774802 40.0444 0.768607 47.8036C2.31202 55.5629 6.12165 62.6902 11.7157 68.2843C17.3098 73.8784 24.4372 77.688 32.1964 79.2314C39.9556 80.7748 47.9983 79.9827 55.3074 76.9552C62.6164 73.9277 68.8635 68.8008 73.2588 62.2228C77.6541 55.6448 80 47.9113 80 40C80 29.3913 75.7857 19.2172 68.2843 11.7157C60.7828 4.21427 50.6087 0 40 0V0ZM40 72C33.671 72 27.4841 70.1232 22.2218 66.607C16.9594 63.0908 12.8579 58.0931 10.4359 52.2459C8.01387 46.3986 7.38016 39.9645 8.61489 33.7571C9.84962 27.5497 12.8973 21.8479 17.3726 17.3726C21.8479 12.8973 27.5497 9.8496 33.7571 8.61487C39.9645 7.38014 46.3987 8.01385 52.2459 10.4359C58.0931 12.8579 63.0908 16.9594 66.607 22.2218C70.1232 27.4841 72 33.671 72 40C72 48.4869 68.6286 56.6263 62.6274 62.6274C56.6263 68.6286 48.4869 72 40 72V72Z" fill="#001E02"/>
<path d="M71.7239 44.228C71.3394 47.1428 70.5519 49.99 69.3839 52.688C64.3773 53.7483 59.6975 55.9925 55.7363 59.2327C51.775 62.4729 48.6476 66.6149 46.6159 71.312C45.8119 71.484 44.9972 71.624 44.1719 71.732C44.1159 71.732 44.0559 71.744 43.9999 71.752C43.9439 71.76 43.8999 71.764 43.8519 71.768C43.2879 71.84 42.7199 71.892 42.1439 71.928C41.4359 71.976 40.7199 72 39.9999 72C39.2799 72 38.5639 71.976 37.8559 71.928C37.2799 71.892 36.7119 71.84 36.1479 71.768C36.0999 71.768 36.0479 71.76 35.9999 71.752C35.9519 71.744 35.8839 71.736 35.8279 71.732C35.0039 71.624 34.1892 71.484 33.3839 71.312C31.3521 66.6149 28.2247 62.4729 24.2635 59.2327C20.3023 55.9925 15.6225 53.7483 10.6159 52.688C9.44788 49.99 8.66035 47.1428 8.27588 44.228C17.0385 45.1581 25.2454 48.9676 31.6119 55.06C27.0487 44.7227 19.2544 36.1451 9.39988 30.616C10.1847 28.0471 11.2936 25.5886 12.6999 23.3C20.3195 27.4599 26.9497 33.2181 32.1359 40.18C29.8412 30.9032 26.5375 21.9056 22.2839 13.348C24.5117 11.8621 26.9189 10.6646 29.4479 9.784C31.9427 14.8014 34.1307 19.9655 35.9999 25.248V4H43.9999V25.248C45.8691 19.9655 48.0571 14.8014 50.5519 9.784C53.0809 10.6646 55.488 11.8621 57.7159 13.348C53.4623 21.9056 50.1586 30.9032 47.8639 40.18C53.0501 33.2181 59.6802 27.4599 67.2999 23.3C68.7062 25.5886 69.8151 28.0471 70.5999 30.616C60.7453 36.1451 52.951 44.7227 48.3879 55.06C54.7543 48.9676 62.9612 45.1581 71.7239 44.228V44.228Z" fill="#34A541"/>
</svg>
