<svg width="657" height="80" viewBox="0 0 657 80" fill="none" xmlns="http://www.w3.org/2000/svg">
<path d="M617 0C609.089 0 601.355 2.34596 594.777 6.74122C588.199 11.1365 583.072 17.3836 580.045 24.6927C577.017 32.0017 576.225 40.0444 577.769 47.8036C579.312 55.5629 583.122 62.6902 588.716 68.2843C594.31 73.8784 601.437 77.688 609.196 79.2314C616.956 80.7748 624.998 79.9827 632.307 76.9552C639.616 73.9277 645.864 68.8008 650.259 62.2228C654.654 55.6448 657 47.9113 657 40C657 29.3913 652.786 19.2172 645.284 11.7157C637.783 4.21427 627.609 0 617 0V0ZM617 72C610.671 72 604.484 70.1232 599.222 66.607C593.959 63.0908 589.858 58.0931 587.436 52.2459C585.014 46.3986 584.38 39.9645 585.615 33.7571C586.85 27.5497 589.897 21.8479 594.373 17.3726C598.848 12.8973 604.55 9.8496 610.757 8.61487C616.965 7.38014 623.399 8.01385 629.246 10.4359C635.093 12.8579 640.091 16.9594 643.607 22.2218C647.123 27.4841 649 33.671 649 40C649 48.4869 645.629 56.6263 639.627 62.6274C633.626 68.6286 625.487 72 617 72V72Z" fill="black"/>
<path d="M648.723 44.228C648.339 47.1428 647.551 49.99 646.383 52.688C641.377 53.7483 636.697 55.9925 632.736 59.2327C628.775 62.4729 625.647 66.6149 623.615 71.312C622.811 71.484 621.997 71.624 621.171 71.732C621.115 71.732 621.055 71.744 620.999 71.752C620.943 71.76 620.899 71.764 620.851 71.768C620.287 71.84 619.719 71.892 619.143 71.928C618.435 71.976 617.719 72 616.999 72C616.279 72 615.563 71.976 614.855 71.928C614.279 71.892 613.711 71.84 613.147 71.768C613.099 71.768 613.047 71.76 612.999 71.752C612.951 71.744 612.883 71.736 612.827 71.732C612.003 71.624 611.189 71.484 610.383 71.312C608.352 66.6149 605.224 62.4729 601.263 59.2327C597.302 55.9925 592.622 53.7483 587.615 52.688C586.447 49.99 585.66 47.1428 585.275 44.228C594.038 45.1581 602.245 48.9676 608.611 55.06C604.048 44.7227 596.254 36.1451 586.399 30.616C587.184 28.0471 588.293 25.5886 589.699 23.3C597.319 27.4599 603.949 33.2181 609.135 40.18C606.841 30.9032 603.537 21.9056 599.283 13.348C601.511 11.8621 603.918 10.6646 606.447 9.784C608.942 14.8014 611.13 19.9655 612.999 25.248V4H620.999V25.248C622.869 19.9655 625.057 14.8014 627.551 9.784C630.08 10.6646 632.488 11.8621 634.715 13.348C630.462 21.9056 627.158 30.9032 624.863 40.18C630.05 33.2181 636.68 27.4599 644.299 23.3C645.706 25.5886 646.815 28.0471 647.599 30.616C637.745 36.1451 629.951 44.7227 625.387 55.06C631.754 48.9676 639.961 45.1581 648.723 44.228V44.228Z" fill="black"/>
<path d="M54 37C56.5186 35.1111 58.379 32.4775 59.3177 29.4725C60.2564 26.4675 60.2258 23.2433 59.2303 20.2566C58.2347 17.2699 56.3246 14.6722 53.7707 12.8314C51.2167 10.9906 48.1482 10 45 10H0V70H6V40H45C47.3869 40 49.6761 40.9482 51.364 42.636C53.0518 44.3239 54 46.6131 54 49V70H60V49C60.0023 46.6709 59.4611 44.3734 58.4195 42.2903C57.3779 40.2071 55.8646 38.3956 54 37V37ZM45 34H6V16H45C47.3869 16 49.6761 16.9482 51.364 18.636C53.0518 20.3239 54 22.6131 54 25C54 27.3869 53.0518 29.6761 51.364 31.364C49.6761 33.0518 47.3869 34 45 34Z" fill="black"/>
<path d="M93 10C87.0666 10 81.2664 11.7595 76.3329 15.0559C71.3994 18.3524 67.5543 23.0377 65.2836 28.5195C63.013 34.0013 62.4189 40.0333 63.5765 45.8527C64.734 51.6721 67.5912 57.0176 71.7868 61.2132C75.9824 65.4088 81.3279 68.266 87.1473 69.4236C92.9667 70.5811 98.9987 69.987 104.481 67.7164C109.962 65.4458 114.648 61.6006 117.944 56.6671C121.241 51.7336 123 45.9334 123 40C123 32.0435 119.839 24.4129 114.213 18.7868C108.587 13.1607 100.957 10 93 10V10ZM93 64C88.2533 64 83.6131 62.5924 79.6663 59.9553C75.7196 57.3181 72.6434 53.5698 70.8269 49.1844C69.0104 44.799 68.5351 39.9734 69.4612 35.3178C70.3872 30.6623 72.673 26.3859 76.0294 23.0294C79.3859 19.673 83.6623 17.3872 88.3178 16.4612C92.9734 15.5351 97.799 16.0104 102.184 17.8269C106.57 19.6434 110.318 22.7195 112.955 26.6663C115.592 30.6131 117 35.2532 117 40C117 46.3652 114.471 52.4697 109.971 56.9706C105.47 61.4714 99.3652 64 93 64Z" fill="black"/>
<path d="M439 10C433.067 10 427.266 11.7595 422.333 15.0559C417.399 18.3524 413.554 23.0377 411.284 28.5195C409.013 34.0013 408.419 40.0333 409.576 45.8527C410.734 51.6721 413.591 57.0176 417.787 61.2132C421.982 65.4088 427.328 68.266 433.147 69.4236C438.967 70.5811 444.999 69.987 450.481 67.7164C455.962 65.4458 460.648 61.6006 463.944 56.6671C467.241 51.7336 469 45.9334 469 40C469 32.0435 465.839 24.4129 460.213 18.7868C454.587 13.1607 446.957 10 439 10V10ZM439 64C434.253 64 429.613 62.5924 425.666 59.9553C421.72 57.3181 418.643 53.5698 416.827 49.1844C415.01 44.799 414.535 39.9734 415.461 35.3178C416.387 30.6623 418.673 26.3859 422.029 23.0294C425.386 19.673 429.662 17.3872 434.318 16.4612C438.973 15.5351 443.799 16.0104 448.184 17.8269C452.57 19.6434 456.318 22.7195 458.955 26.6663C461.592 30.6131 463 35.2532 463 40C463 46.3652 460.471 52.4697 455.971 56.9706C451.47 61.4714 445.365 64 439 64Z" fill="black"/>
<path d="M172.971 56.971L177.213 61.213C173.018 65.4086 167.672 68.2659 161.853 69.4235C156.033 70.5811 150.001 69.9871 144.52 67.7165C139.038 65.4458 134.352 61.6007 131.056 56.6672C127.759 51.7337 126 45.9335 126 40C126 34.0665 127.759 28.2663 131.056 23.3328C134.352 18.3994 139.038 14.5542 144.52 12.2836C150.001 10.013 156.033 9.41889 161.853 10.5765C167.672 11.7341 173.018 14.5914 177.213 18.787L172.971 23.029C169.615 19.6727 165.339 17.387 160.683 16.4611C156.027 15.5351 151.202 16.0105 146.817 17.827C142.431 19.6436 138.683 22.7197 136.046 26.6665C133.409 30.6132 132.001 35.2533 132.001 40C132.001 44.7467 133.409 49.3868 136.046 53.3336C138.683 57.2803 142.431 60.3565 146.817 62.173C151.202 63.9895 156.027 64.4649 160.683 63.539C165.339 62.613 169.615 60.3274 172.971 56.971V56.971Z" fill="black"/>
<path d="M245 10V70H239L191 19.333V70H185V10H191L239 60.667V10H245Z" fill="black"/>
<path d="M532 10V70H526L478 19.333V70H472V10H478L526 60.667V10H532Z" fill="black"/>
<path d="M281 10H275C266 30 257 50 248 70H254C258.5 60 263 50 267.5 40H288.5C293 50 297.5 60 302 70H308C299 50 290 30 281 10ZM270.2 34C272.8 28.222 275.4 22.444 278 16.666C280.6 22.444 283.2 28.222 285.8 34H270.2Z" fill="black"/>
<path d="M350 10V16H323V70H317V16H290V10H350Z" fill="black"/>
<path d="M386 16V64H413V70H353V64H380V16H353V10H413V16H386Z" fill="black"/>
</svg>
