<svg width="162" height="220" viewBox="0 0 162 220" fill="none" xmlns="http://www.w3.org/2000/svg">
<path d="M161.956 162.026V186.576C161.916 186.925 161.856 187.272 161.776 187.616C161.639 188.271 161.466 188.919 161.256 189.556C161.206 189.686 161.166 189.826 161.116 189.956C159.226 195.146 154.576 200.495 147.786 205.625C146.376 206.415 144.876 207.166 143.296 207.896C137.522 210.483 131.519 212.528 125.366 214.005H125.336C110.834 217.471 95.966 219.167 81.0562 219.055C51.4462 219.055 25.5562 212.985 11.4562 203.915C11.4536 203.915 11.451 203.914 11.4492 203.913C11.4473 203.911 11.4462 203.908 11.4462 203.906C10.6162 203.386 9.83624 202.836 9.08624 202.286C3.64624 198.246 0.466249 193.696 0.186249 188.866C0.166249 188.636 0.15625 188.396 0.15625 188.156V163.496L0.186249 163.486L0.336243 163.456H0.346252C0.345599 163.461 0.346141 163.466 0.34787 163.472C0.349599 163.477 0.352452 163.482 0.356232 163.486C0.358196 163.51 0.365014 163.534 0.376251 163.556V163.586C0.394864 163.68 0.418204 163.773 0.446228 163.866C2.32623 171.106 10.7362 176.306 23.2662 179.096C31.2223 180.743 39.3318 181.534 47.4562 181.456C60.9479 181.362 74.3934 179.867 87.5762 176.996C96.7526 175.062 105.787 172.506 114.616 169.346C119.796 167.476 124.666 165.456 129.166 163.316C129.476 163.176 129.776 163.026 130.076 162.876C131.826 162.036 133.516 161.176 135.146 160.296C141.618 156.954 147.628 152.785 153.026 147.896C153.086 147.946 153.146 147.986 153.206 148.036C158.166 151.756 161.196 155.906 161.826 160.306V160.316C161.915 160.881 161.959 161.453 161.956 162.026V162.026Z" fill="#121221"/>
<path d="M81.0562 163.465C52.9262 163.465 28.1462 157.985 13.6562 149.665C29.4362 143.115 57.2662 142.335 87.6362 148.785C99.3458 151.237 110.812 154.734 121.896 159.235C108.477 162.124 94.7828 163.542 81.0562 163.465V163.465Z" fill="#121221"/>
<path d="M161.636 190.855C160.416 196.305 155.476 201.355 147.786 205.625C146.376 206.415 144.876 207.165 143.296 207.895C137.522 210.482 131.519 212.528 125.366 214.005H125.336C121.936 212.505 118.363 211.079 114.616 209.725C105.787 206.565 96.7526 204.009 87.5762 202.075C74.3934 199.204 60.9479 197.709 47.4562 197.615C32.5062 197.625 19.8962 199.825 11.4462 203.905C10.6162 203.385 9.83624 202.835 9.08624 202.285C3.64624 198.245 0.466249 193.695 0.186249 188.865C0.166249 188.635 0.15625 188.395 0.15625 188.155V162.595H0.186249L0.266235 162.575L0.326233 162.595H0.366241C0.362977 162.607 0.36217 162.619 0.363892 162.631C0.365613 162.643 0.369834 162.655 0.376251 162.665V162.695C0.394864 162.79 0.418204 162.883 0.446228 162.975C2.11623 169.995 9.84624 175.125 21.5162 178.045C30.0332 180.013 38.7557 180.949 47.4962 180.835C60.9945 180.741 74.4465 179.246 87.6362 176.375C96.8057 174.44 105.833 171.884 114.656 168.725C119.926 166.815 124.886 164.765 129.456 162.585C129.666 162.675 129.876 162.775 130.076 162.875C145.546 170.335 156.536 179.115 160.456 187.565C160.692 188.054 160.902 188.555 161.086 189.065C161.146 189.225 161.206 189.395 161.256 189.555C161.401 189.962 161.525 190.376 161.626 190.795C161.634 190.814 161.638 190.835 161.636 190.855V190.855Z" fill="#121221"/>
<path d="M154.536 90.2354C149.396 95.5454 141.796 100.785 132.396 105.545C126.641 108.43 120.717 110.965 114.656 113.135C105.833 116.294 96.8057 118.85 87.6362 120.785C74.4465 123.657 60.9945 125.151 47.4962 125.245C21.6762 125.225 2.84625 118.685 0.376251 107.105C0.364719 107.063 0.35799 107.019 0.356232 106.975H0.336243L0.15625 107.015V105.855C0.19625 105.535 0.246254 105.215 0.316254 104.895C0.326254 104.865 0.326243 104.835 0.336243 104.805C1.39624 99.9754 5.32624 96.0254 11.4262 93.0654C11.4362 93.0654 11.4362 93.0554 11.4462 93.0554C11.4462 93.058 11.4473 93.0606 11.4492 93.0624C11.451 93.0643 11.4536 93.0654 11.4562 93.0654C25.5562 102.135 51.4462 108.205 81.0562 108.205C95.966 108.317 110.834 106.621 125.336 103.155H125.366C125.806 103.045 126.236 102.935 126.666 102.815C132.369 101.388 137.934 99.4566 143.296 97.0453C144.876 96.3153 146.376 95.5654 147.786 94.7754C150.174 93.4782 152.434 91.9581 154.536 90.2354V90.2354Z" fill="#121221"/>
<path d="M0.316254 104.895C0.246254 105.215 0.19625 105.535 0.15625 105.855V104.075L0.336243 104.115H0.356232C0.35799 104.071 0.364719 104.027 0.376251 103.985C1.36625 99.3246 5.00625 95.4846 10.6862 92.5546C25.7762 84.7746 55.2562 83.4246 87.6362 90.3046C101.05 93.0886 114.133 97.2819 126.666 102.815C126.236 102.935 125.806 103.045 125.366 103.155H125.336C110.834 106.62 95.966 108.316 81.0562 108.205C51.4462 108.205 25.5562 102.135 11.4562 93.0646C11.4536 93.0646 11.451 93.0635 11.4492 93.0617C11.4473 93.0598 11.4462 93.0572 11.4462 93.0546C11.4362 93.0546 11.4362 93.0646 11.4262 93.0646C5.32624 96.0246 1.39624 99.9746 0.336243 104.805C0.326243 104.835 0.326254 104.865 0.316254 104.895Z" fill="#121221"/>
<path d="M156.056 144.165C155.196 145.165 154.246 146.155 153.206 147.145C147.609 152.246 141.349 156.568 134.596 159.995C132.946 160.875 131.24 161.735 129.476 162.575C129.466 162.575 129.466 162.585 129.456 162.585C124.886 164.765 119.926 166.815 114.656 168.725C105.833 171.884 96.806 174.44 87.6364 176.375C74.4467 179.246 60.9947 180.741 47.4965 180.835C38.756 180.949 30.0334 180.012 21.5164 178.045C9.84645 175.125 2.11644 169.995 0.446442 162.975C0.418417 162.883 0.395078 162.789 0.376465 162.695V162.665C0.370048 162.655 0.365826 162.643 0.364105 162.631C0.362384 162.619 0.363191 162.607 0.366455 162.595H0.356445V162.565C0.358264 162.531 0.36502 162.497 0.376465 162.465C0.630285 161.275 1.05821 160.13 1.64645 159.065C3.73645 155.215 7.89646 152.055 13.6565 149.665C28.1465 157.985 52.9265 163.465 81.0565 163.465C94.783 163.542 108.477 162.124 121.896 159.235C124.476 158.665 126.966 158.035 129.346 157.355C141.136 154.008 150.456 149.445 156.056 144.165Z" fill="#121221"/>
<path d="M161.956 134.015V158.565C161.958 159.147 161.915 159.729 161.826 160.305C161.186 164.755 158.076 168.945 153.026 172.695C147.63 167.803 141.619 163.634 135.146 160.295C134.966 160.195 134.776 160.095 134.596 159.995C141.349 156.568 147.609 152.245 153.206 147.145C154.246 146.155 155.196 145.165 156.056 144.165C150.456 149.445 141.136 154.005 129.346 157.355C124.796 155.195 119.866 153.145 114.616 151.245C105.787 148.085 96.7526 145.529 87.5762 143.595C74.3934 140.723 60.9479 139.229 47.4562 139.135C31.0362 139.145 17.4462 141.795 9.08624 146.695C3.37624 142.455 0.15625 137.655 0.15625 132.565V107.015L0.336243 106.975H0.356232C0.35799 107.019 0.364719 107.062 0.376251 107.105C2.84625 118.685 21.6762 125.225 47.4962 125.245C60.9945 125.151 74.4465 123.656 87.6362 120.785C96.8057 118.85 105.833 116.294 114.656 113.135C120.717 110.964 126.641 108.429 132.396 105.545C148.966 113.915 159.926 123.815 161.776 132.975C161.806 133.095 161.836 133.225 161.856 133.345C161.876 133.435 161.886 133.515 161.906 133.605C161.926 133.745 161.936 133.875 161.956 134.015Z" fill="#121221"/>
<path d="M161.956 132.686V188.156C161.956 189.044 161.856 189.93 161.656 190.796C161.654 190.817 161.647 190.837 161.636 190.856C160.416 196.306 155.476 201.356 147.786 205.626C146.376 206.416 144.876 207.166 143.296 207.896C137.522 210.483 131.519 212.528 125.366 214.006H125.336C110.834 217.471 95.966 219.167 81.0562 219.056C51.4462 219.056 25.5562 212.986 11.4562 203.916C11.4536 203.916 11.451 203.914 11.4492 203.913C11.4473 203.911 11.4462 203.908 11.4462 203.906C10.6162 203.386 9.83624 202.836 9.08624 202.286C3.64624 198.246 0.466249 193.696 0.186249 188.866C0.166249 188.636 0.15625 188.396 0.15625 188.156V162.609L0.186249 162.599L0.266235 162.579H0.286255L0.336243 162.569H0.356232V162.599H0.366241C0.362977 162.61 0.36217 162.623 0.363892 162.635C0.365613 162.647 0.369834 162.658 0.376251 162.669V162.699C0.394864 162.793 0.418204 162.886 0.446228 162.979C2.11623 169.999 9.84624 175.129 21.5162 178.049C30.0332 180.016 38.7557 180.953 47.4962 180.839C60.9945 180.744 74.4465 179.25 87.6362 176.379C96.8057 174.443 105.833 171.887 114.656 168.729C119.926 166.819 124.886 164.769 129.456 162.589C129.466 162.589 129.466 162.579 129.476 162.579C131.236 161.739 132.943 160.879 134.596 159.999C141.349 156.571 147.609 152.249 153.206 147.149C154.246 146.159 155.196 145.169 156.056 144.169C159.116 140.659 161.086 137.129 161.776 133.709C161.806 133.589 161.826 133.469 161.856 133.349C161.896 133.126 161.926 132.909 161.956 132.686Z" fill="#366CE1"/>
<path d="M161.636 80.0084C160.826 83.6384 158.366 87.0884 154.536 90.2384C152.434 91.9611 150.174 93.4812 147.786 94.7784C146.376 95.5684 144.876 96.3184 143.296 97.0484C137.934 99.4597 132.369 101.391 126.666 102.818C126.236 102.938 125.806 103.048 125.366 103.158H125.336C121.936 101.658 118.363 100.232 114.616 98.8784C105.787 95.7182 96.7526 93.1623 87.5762 91.2284C74.3934 88.3568 60.9479 86.8621 47.4562 86.7684C32.5062 86.7784 19.8962 88.9784 11.4462 93.0584C11.1862 92.8984 10.9362 92.7284 10.6862 92.5584C10.1362 92.1984 9.60624 91.8184 9.08624 91.4384C3.64624 87.3984 0.466249 82.8484 0.186249 78.0184C0.166249 77.7884 0.15625 77.5484 0.15625 77.3084V51.7484H0.186249L0.266235 51.7284L0.326233 51.7484H0.356232V51.7184C0.358051 51.6843 0.364807 51.6506 0.376251 51.6184C0.630071 50.4288 1.058 49.2831 1.64624 48.2184C9.46624 33.8084 46.1762 29.1284 87.6362 37.9384C101.943 40.8919 115.867 45.4682 129.136 51.5784C129.236 51.6284 129.346 51.6784 129.446 51.7284L129.456 51.7384C129.666 51.8284 129.876 51.9284 130.076 52.0284C145.546 59.4884 156.536 68.2684 160.456 76.7184C160.692 77.2074 160.902 77.708 161.086 78.2184C161.146 78.3784 161.206 78.5484 161.256 78.7084C161.336 78.9284 161.406 79.1484 161.466 79.3584C161.526 79.5684 161.576 79.7484 161.626 79.9484C161.634 79.9673 161.638 79.9879 161.636 80.0084Z" fill="#121221"/>
<path d="M161.956 21.8154V77.3084C161.956 78.1969 161.856 79.0826 161.656 79.9484C161.654 79.9697 161.647 79.9902 161.636 80.0084C160.826 83.6384 158.366 87.0884 154.536 90.2384C152.434 91.9612 150.174 93.4813 147.786 94.7784C146.376 95.5684 144.876 96.3184 143.296 97.0484C137.934 99.4597 132.369 101.391 126.666 102.818C126.236 102.938 125.806 103.048 125.366 103.158H125.336C110.834 106.624 95.966 108.32 81.0562 108.208C51.4462 108.208 25.5562 102.138 11.4562 93.0684C11.4536 93.0684 11.451 93.0674 11.4492 93.0655C11.4473 93.0636 11.4462 93.0611 11.4462 93.0584C11.1862 92.8984 10.9362 92.7284 10.6862 92.5584C10.1362 92.1984 9.60624 91.8184 9.08624 91.4384C3.64624 87.3984 0.466249 82.8484 0.186249 78.0184C0.166249 77.7884 0.15625 77.5484 0.15625 77.3084V51.7584L0.186249 51.7484L0.266235 51.7284H0.286255L0.336243 51.7184H0.356232V51.7484H0.366241C0.362977 51.7601 0.36217 51.7724 0.363892 51.7845C0.365613 51.7965 0.369834 51.8081 0.376251 51.8184V51.8484C0.394864 51.9429 0.418204 52.0363 0.446228 52.1284C2.11623 59.1484 9.84624 64.2784 21.5162 67.1984C30.0332 69.1658 38.7557 70.1025 47.4962 69.9884C60.9945 69.8942 74.4465 68.3996 87.6362 65.5284C96.8057 63.5932 105.833 61.0373 114.656 57.8784C119.926 55.9684 124.886 53.9184 129.456 51.7384C129.466 51.7384 129.466 51.7284 129.476 51.7284C139.416 46.9884 147.556 41.6984 153.206 36.2984C157.906 31.8084 160.886 27.2484 161.776 22.8584C161.856 22.5144 161.916 22.1662 161.956 21.8154V21.8154Z" fill="#366CE1"/>
<path d="M161.956 77.0752V132.685C161.956 132.995 161.936 133.295 161.906 133.605C161.586 137.325 159.536 140.885 156.056 144.165C150.456 149.445 141.136 154.005 129.346 157.355C126.966 158.035 124.476 158.665 121.896 159.235C108.477 162.124 94.7828 163.543 81.0562 163.465C52.9262 163.465 28.1462 157.985 13.6562 149.665C12.0788 148.761 10.5531 147.77 9.08624 146.695C3.37624 142.455 0.15625 137.655 0.15625 132.565V107.015L0.336243 106.975H0.356232C0.35799 107.019 0.364719 107.063 0.376251 107.105C2.84625 118.685 21.6762 125.225 47.4962 125.245C60.9945 125.151 74.4465 123.656 87.6362 120.785C96.8057 118.85 105.833 116.294 114.656 113.135C120.717 110.964 126.641 108.43 132.396 105.545C141.796 100.785 149.396 95.5452 154.536 90.2352C158.066 86.5952 160.436 82.9252 161.466 79.3552C161.586 78.9352 161.696 78.5252 161.776 78.1152C161.856 77.7722 161.916 77.425 161.956 77.0752V77.0752Z" fill="#366CE1"/>
<path d="M161.849 22.4078C160.709 31.3278 150.709 41.0278 135.119 49.3978C122.389 56.2478 105.929 62.1978 87.5287 66.1178C42.9587 75.5878 3.88872 69.4678 0.268723 52.4378C0.25719 52.3953 0.250492 52.3517 0.248734 52.3078C0.147845 51.8433 0.081019 51.372 0.0487518 50.8978C-0.0162506 50.1792 -0.0162506 49.4563 0.0487518 48.7378C1.42875 32.4078 33.0187 13.2678 74.4287 4.45775C118.999 -5.01225 158.069 1.09776 161.689 18.1278C161.759 18.4478 161.809 18.7678 161.849 19.0878C161.899 19.4123 161.929 19.7396 161.939 20.0678C161.979 20.8489 161.948 21.632 161.849 22.4078Z" fill="#121221"/>
</svg>
