<svg width="694" height="198" viewBox="0 0 694 198" fill="none" xmlns="http://www.w3.org/2000/svg">
<path d="M196.921 181.81C190 188.875 181.139 193.728 171.459 195.757C161.779 197.786 151.715 196.898 142.54 193.207C133.365 189.515 125.49 183.185 119.913 175.018C114.335 166.851 111.305 157.213 111.206 147.323C111.106 137.434 113.942 127.737 119.354 119.459C124.766 111.181 132.512 104.694 141.611 100.819C150.71 96.9434 160.754 95.8536 170.473 97.6871C180.192 99.5207 189.148 104.195 196.21 111.12L174.371 132.96C171.63 130.361 168.18 128.633 164.457 127.994C160.735 127.355 156.906 127.835 153.456 129.372C150.005 130.909 147.088 133.434 145.073 136.629C143.058 139.824 142.036 143.544 142.135 147.32C142.234 151.096 143.45 154.758 145.63 157.842C147.81 160.927 150.856 163.296 154.382 164.65C157.908 166.004 161.756 166.282 165.441 165.449C169.125 164.616 172.479 162.709 175.08 159.97L196.921 181.81Z" fill="black"/>
<path d="M288.59 111.447C281.568 104.423 272.614 99.6488 262.868 97.7348C253.122 95.8208 243.027 96.8536 233.87 100.701C224.714 104.549 216.911 111.037 211.458 119.338C206.004 127.639 203.147 137.376 203.251 147.307V196.817H234.14V186.627H272.33V196.817H303.22V146.31C303.115 133.218 297.859 120.694 288.59 111.447V111.447ZM234.14 155.737V147.31C234.007 142.246 235.892 137.336 239.379 133.662C242.866 129.987 247.67 127.848 252.735 127.715C257.799 127.583 262.709 129.467 266.383 132.955C270.058 136.442 272.197 141.246 272.33 146.31V155.74L234.14 155.737Z" fill="black"/>
<path d="M344.11 34.9238H313.221V196.724H344.11V34.9238Z" fill="black"/>
<path d="M438.59 111.447C431.568 104.423 422.614 99.6488 412.868 97.7348C403.122 95.8208 393.027 96.8536 383.87 100.701C374.714 104.549 366.911 111.037 361.458 119.338C356.004 127.639 353.147 137.376 353.251 147.307V196.817H384.14V186.627H422.33V196.817H453.22V146.31C453.115 133.218 447.859 120.694 438.59 111.447V111.447ZM384.14 155.737V147.31C384.074 144.803 384.503 142.307 385.402 139.965C386.301 137.623 387.652 135.481 389.379 133.662C391.106 131.842 393.174 130.381 395.465 129.36C397.757 128.34 400.227 127.781 402.735 127.715C405.242 127.65 407.738 128.079 410.08 128.978C412.422 129.876 414.564 131.228 416.383 132.955C418.203 134.681 419.665 136.749 420.685 139.041C421.705 141.333 422.264 143.803 422.33 146.31V155.74L384.14 155.737Z" fill="black"/>
<path d="M105.21 148.735C105.219 148.887 105.219 149.049 105.219 149.202C105.231 161.75 100.285 173.795 91.4582 182.713C82.631 191.631 70.6376 196.7 58.09 196.817H48.082C41.8291 196.884 35.6243 195.717 29.8226 193.384C24.0209 191.051 18.7361 187.597 14.2704 183.22C9.80465 178.842 6.2457 173.628 3.79706 167.874C1.34842 162.12 0.0581328 155.94 0 149.687H29.416C29.4912 152.705 30.3189 155.657 31.824 158.275C33.3292 160.893 35.464 163.093 38.035 164.677L40.311 162.401C43.8132 165.719 48.4891 167.511 53.3118 167.384C58.1345 167.258 62.7098 165.222 66.033 161.725L68.261 163.953C69.0546 163.394 69.7972 162.766 70.48 162.077C73.8945 158.662 75.8129 154.031 75.813 149.202H75.804C75.688 144.544 73.7811 140.11 70.48 136.822C70.347 136.688 70.213 136.555 70.071 136.422C66.5794 133.136 61.9309 131.363 57.138 131.489V129.389C54.464 129.865 51.754 130.11 49.038 130.122C48.924 130.132 48.81 130.132 48.695 130.132H48.524C47.771 130.132 47.019 130.113 46.276 130.075H46.238C42.5474 129.882 38.8917 129.262 35.344 128.227L35.41 128.294C25.5543 125.465 16.8758 119.529 10.6668 111.37C4.45779 103.21 1.05039 93.2627 0.951996 83.0097H0.960999C0.894613 76.7577 2.0611 70.5539 4.39383 64.7531C6.72656 58.9522 10.1798 53.6679 14.556 49.2024C18.9322 44.7369 24.1457 41.1777 29.8983 38.7284C35.6509 36.279 41.8299 34.9876 48.082 34.9277H58.091C70.5544 35.0443 82.4744 40.0472 91.2877 48.8607C100.101 57.6742 105.104 69.5943 105.22 82.0577H75.804C75.6863 77.3976 73.7799 72.9614 70.48 69.6687C69.6806 68.8672 68.807 68.1433 67.871 67.5067L66.033 69.3447C62.5307 66.0268 57.8548 64.2344 53.0321 64.3611C48.2094 64.4879 43.6341 66.5234 40.311 70.0208L38.006 67.7207C37.1874 68.308 36.4182 68.9611 35.706 69.6737C34.0144 71.3608 32.672 73.365 31.7558 75.5715C30.8396 77.778 30.3676 80.1435 30.3666 82.5327C30.3657 84.9218 30.836 87.2877 31.7504 89.4949C32.6649 91.7021 34.0057 93.7073 35.696 95.3958C35.829 95.5288 35.963 95.6617 36.106 95.7857C39.5974 99.0712 44.2454 100.844 49.038 100.719V102.824C51.7119 102.347 54.4219 102.102 57.138 102.09C57.614 102.081 58.1 102.09 58.576 102.1C58.757 102.1 58.938 102.1 59.119 102.109C59.767 102.128 60.424 102.166 61.071 102.209C61.471 102.238 61.881 102.276 62.281 102.314C62.681 102.352 63.071 102.4 63.462 102.447C65.9567 102.756 68.4219 103.269 70.833 103.98L70.775 103.923C80.5497 106.732 89.1671 112.6 95.3641 120.664C101.561 128.729 105.012 138.566 105.21 148.735V148.735Z" fill="black"/>
<path d="M226.71 141.454H226.7L226.65 141.464L226.55 141.484L226.52 141.494V140.364C226.56 140.684 226.61 141.004 226.68 141.324C226.685 141.364 226.695 141.41 226.71 141.454Z" fill="black"/>
<path d="M693.824 145.754V167.838C693.788 168.153 693.733 168.465 693.662 168.774C693.539 169.364 693.383 169.947 693.194 170.519C693.149 170.636 693.113 170.762 693.068 170.879C691.368 175.548 687.185 180.36 681.077 184.975C679.809 185.686 678.459 186.361 677.038 187.017C671.843 189.345 666.444 191.185 660.909 192.514H660.882C647.836 195.631 634.461 197.157 621.049 197.056C594.412 197.056 571.123 191.596 558.439 183.437C558.436 183.437 558.434 183.436 558.432 183.434C558.431 183.433 558.43 183.43 558.43 183.428C557.683 182.96 556.981 182.465 556.307 181.971C551.413 178.336 548.552 174.243 548.3 169.898C548.282 169.692 548.273 169.476 548.273 169.26V147.076L548.3 147.067L548.435 147.04H548.444C548.444 147.045 548.444 147.05 548.446 147.055C548.447 147.059 548.45 147.064 548.453 147.067C548.455 147.089 548.461 147.111 548.471 147.13V147.157C548.488 147.242 548.509 147.326 548.534 147.409C550.225 153.922 557.791 158.6 569.063 161.11C576.22 162.591 583.515 163.303 590.823 163.233C602.96 163.148 615.055 161.804 626.914 159.22C635.169 157.481 643.296 155.182 651.238 152.339C655.898 150.657 660.279 148.839 664.327 146.914C664.606 146.788 664.876 146.653 665.146 146.519C666.72 145.763 668.24 144.989 669.707 144.198C675.528 141.191 680.935 137.442 685.791 133.043C685.845 133.088 685.899 133.124 685.953 133.169C690.415 136.515 693.14 140.249 693.707 144.207V144.216C693.787 144.724 693.826 145.239 693.824 145.754V145.754Z" fill="white"/>
<path d="M621.049 147.048C595.744 147.048 573.453 142.118 560.418 134.634C574.613 128.742 599.648 128.04 626.968 133.842C637.502 136.048 647.816 139.194 657.788 143.243C645.716 145.842 633.397 147.118 621.049 147.048V147.048Z" fill="white"/>
<path d="M693.536 171.688C692.439 176.591 687.995 181.133 681.077 184.975C679.809 185.685 678.459 186.36 677.038 187.017C671.843 189.344 666.444 191.184 660.909 192.513H660.882C657.823 191.164 654.609 189.88 651.238 188.663C643.296 185.82 635.169 183.521 626.914 181.781C615.055 179.198 602.96 177.853 590.823 177.769C577.375 177.778 566.031 179.757 558.43 183.427C557.683 182.96 556.981 182.465 556.307 181.97C551.413 178.336 548.552 174.243 548.3 169.898C548.282 169.691 548.273 169.475 548.273 169.259V146.266H548.3L548.372 146.248L548.426 146.266H548.462C548.459 146.277 548.459 146.288 548.46 146.298C548.462 146.309 548.466 146.32 548.471 146.329V146.356C548.488 146.441 548.509 146.525 548.534 146.608C550.037 152.923 556.99 157.538 567.488 160.164C575.15 161.934 582.996 162.777 590.859 162.674C603.002 162.59 615.103 161.245 626.968 158.662C635.217 156.921 643.337 154.622 651.274 151.78C656.015 150.062 660.477 148.218 664.588 146.257C664.777 146.338 664.966 146.428 665.146 146.518C679.062 153.229 688.948 161.127 692.475 168.728C692.686 169.168 692.876 169.619 693.041 170.078C693.095 170.222 693.149 170.375 693.194 170.518C693.325 170.884 693.436 171.257 693.527 171.634C693.535 171.651 693.538 171.669 693.536 171.688V171.688Z" fill="white"/>
<path d="M687.149 81.1729C682.525 85.9496 675.689 90.6633 667.233 94.9453C662.055 97.5402 656.726 99.8202 651.274 101.773C643.337 104.615 635.217 106.914 626.968 108.655C615.103 111.238 603.002 112.582 590.859 112.667C567.632 112.649 550.693 106.766 548.471 96.3486C548.461 96.3104 548.455 96.2712 548.453 96.2317H548.435L548.273 96.2677V95.2241C548.309 94.9363 548.354 94.6484 548.417 94.3606C548.426 94.3336 548.426 94.3066 548.435 94.2796C549.389 89.9347 552.924 86.3814 558.412 83.7187C558.421 83.7187 558.421 83.7096 558.43 83.7096C558.43 83.712 558.431 83.7143 558.432 83.716C558.434 83.7177 558.436 83.7187 558.439 83.7187C571.123 91.8778 594.412 97.3381 621.049 97.3381C634.461 97.4383 647.836 95.9129 660.882 92.7953H660.909C661.305 92.6964 661.691 92.5974 662.078 92.4895C667.208 91.205 672.215 89.468 677.038 87.2989C678.459 86.6422 679.809 85.9676 681.077 85.2569C683.225 84.09 685.258 82.7226 687.149 81.1729V81.1729Z" fill="white"/>
<path d="M548.417 94.3598C548.354 94.6477 548.309 94.9356 548.273 95.2234V93.6222L548.435 93.6582H548.453C548.455 93.6186 548.461 93.5794 548.471 93.5412C549.362 89.3492 552.636 85.8949 557.746 83.2591C571.32 76.2605 597.84 75.046 626.968 81.2351C639.035 83.7396 650.804 87.5117 662.078 92.4887C661.691 92.5967 661.305 92.6956 660.909 92.7946H660.882C647.836 95.9122 634.461 97.4376 621.049 97.3374C594.412 97.3374 571.123 91.877 558.439 83.7179C558.436 83.7179 558.434 83.717 558.432 83.7153C558.431 83.7136 558.43 83.7113 558.43 83.7089C558.421 83.7089 558.421 83.7179 558.412 83.7179C552.924 86.3807 549.389 89.934 548.435 94.2789C548.426 94.3059 548.426 94.3329 548.417 94.3598Z" fill="white"/>
<path d="M688.516 129.687C687.743 130.586 686.888 131.477 685.953 132.367C680.917 136.956 675.286 140.844 669.212 143.927C667.727 144.718 666.192 145.492 664.606 146.248C664.597 146.248 664.597 146.257 664.588 146.257C660.477 148.218 656.015 150.062 651.274 151.78C643.337 154.622 635.216 156.921 626.968 158.662C615.103 161.245 603.002 162.589 590.859 162.674C582.996 162.776 575.15 161.934 567.488 160.164C556.99 157.537 550.036 152.922 548.534 146.607C548.509 146.525 548.488 146.441 548.471 146.356V146.329C548.465 146.319 548.462 146.309 548.46 146.298C548.458 146.287 548.459 146.276 548.462 146.266H548.453V146.239C548.455 146.208 548.461 146.178 548.471 146.149C548.699 145.079 549.084 144.048 549.614 143.09C551.494 139.627 555.236 136.784 560.417 134.634C573.452 142.119 595.744 147.048 621.049 147.048C633.397 147.118 645.715 145.842 657.787 143.243C660.108 142.73 662.348 142.164 664.489 141.552C675.095 138.541 683.479 134.436 688.516 129.687Z" fill="white"/>
<path d="M693.824 120.556V142.641C693.826 143.165 693.787 143.688 693.707 144.206C693.131 148.209 690.334 151.978 685.791 155.352C680.937 150.951 675.53 147.201 669.707 144.197C669.545 144.107 669.374 144.017 669.212 143.927C675.286 140.844 680.918 136.956 685.953 132.367C686.888 131.477 687.743 130.586 688.517 129.687C683.479 134.436 675.095 138.539 664.489 141.552C660.396 139.609 655.961 137.765 651.238 136.056C643.296 133.213 635.169 130.914 626.914 129.174C615.055 126.591 602.96 125.246 590.823 125.162C576.052 125.171 563.827 127.555 556.307 131.963C551.17 128.148 548.273 123.831 548.273 119.252V96.2677L548.435 96.2317H548.453C548.455 96.2712 548.461 96.3105 548.471 96.3486C550.693 106.766 567.632 112.649 590.859 112.667C603.002 112.582 615.103 111.238 626.968 108.655C635.217 106.914 643.337 104.615 651.274 101.773C656.726 99.8202 662.055 97.5402 667.233 94.9453C682.139 102.475 691.998 111.38 693.662 119.621C693.689 119.728 693.716 119.845 693.734 119.953C693.752 120.034 693.761 120.106 693.779 120.187C693.797 120.313 693.806 120.43 693.824 120.556Z" fill="white"/>
<path d="M693.824 119.36V169.26C693.824 170.059 693.734 170.856 693.554 171.634C693.552 171.654 693.546 171.672 693.536 171.688C692.439 176.591 687.995 181.134 681.077 184.975C679.809 185.686 678.459 186.36 677.038 187.017C671.843 189.344 666.444 191.184 660.909 192.513H660.882C647.836 195.631 634.461 197.156 621.049 197.056C594.412 197.056 571.123 191.596 558.439 183.437C558.436 183.437 558.434 183.436 558.432 183.434C558.431 183.432 558.43 183.43 558.43 183.428C557.683 182.96 556.981 182.465 556.307 181.971C551.413 178.336 548.552 174.243 548.3 169.898C548.282 169.691 548.273 169.475 548.273 169.26V146.278L548.3 146.269L548.372 146.251H548.39L548.435 146.242H548.453V146.269H548.462C548.459 146.28 548.459 146.291 548.46 146.302C548.462 146.312 548.466 146.323 548.471 146.332V146.359C548.488 146.444 548.509 146.528 548.534 146.611C550.037 152.926 556.99 157.541 567.488 160.168C575.15 161.937 582.996 162.78 590.859 162.677C603.002 162.593 615.103 161.248 626.968 158.665C635.217 156.924 643.337 154.625 651.274 151.784C656.015 150.065 660.477 148.221 664.588 146.26C664.597 146.26 664.597 146.251 664.606 146.251C666.189 145.496 667.724 144.722 669.212 143.93C675.286 140.847 680.918 136.959 685.953 132.371C686.888 131.48 687.743 130.59 688.517 129.69C691.269 126.533 693.041 123.357 693.662 120.281C693.689 120.173 693.707 120.065 693.734 119.957C693.77 119.756 693.797 119.561 693.824 119.36Z" fill="black"/>
<path d="M693.536 71.9735C692.808 75.239 690.595 78.3425 687.149 81.1761C685.258 82.7259 683.225 84.0933 681.077 85.2602C679.809 85.9709 678.459 86.6456 677.038 87.3022C672.215 89.4713 667.208 91.2083 662.078 92.4928C661.691 92.6007 661.305 92.6997 660.909 92.7986H660.882C657.823 91.4492 654.609 90.1659 651.238 88.9484C643.296 86.1056 635.169 83.8064 626.914 82.0667C615.055 79.4835 602.96 78.1389 590.823 78.0546C577.375 78.0636 566.031 80.0427 558.43 83.7129C558.196 83.569 557.971 83.4161 557.746 83.2632C557.251 82.9393 556.774 82.5975 556.307 82.2556C551.413 78.6214 548.552 74.5283 548.3 70.1834C548.282 69.9765 548.273 69.7606 548.273 69.5447V46.5517H548.3L548.372 46.5337L548.426 46.5517H548.453V46.5247C548.455 46.494 548.461 46.4637 548.471 46.4347C548.7 45.3646 549.085 44.3339 549.614 43.3762C556.648 30.4133 589.672 26.2034 626.968 34.1286C639.838 36.7855 652.363 40.9021 664.3 46.3987C664.39 46.4437 664.489 46.4887 664.579 46.5337L664.588 46.5426C664.777 46.6236 664.966 46.7136 665.146 46.8035C679.062 53.5143 688.948 61.4126 692.475 69.0139C692.686 69.4538 692.876 69.9042 693.041 70.3633C693.095 70.5072 693.149 70.6602 693.194 70.8041C693.266 71.002 693.329 71.1999 693.383 71.3888C693.437 71.5777 693.482 71.7397 693.527 71.9196C693.535 71.9366 693.538 71.9551 693.536 71.9735Z" fill="white"/>
<path d="M693.824 19.625V69.5449C693.824 70.3442 693.734 71.1409 693.554 71.9198C693.552 71.9389 693.546 71.9573 693.536 71.9737C692.808 75.2392 690.595 78.3427 687.149 81.1763C685.258 82.7261 683.225 84.0935 681.077 85.2604C679.809 85.9711 678.459 86.6458 677.038 87.3024C672.215 89.4715 667.208 91.2085 662.078 92.493C661.691 92.6009 661.305 92.6999 660.909 92.7988H660.882C647.836 95.9164 634.461 97.4418 621.049 97.3416C594.412 97.3416 571.123 91.8813 558.439 83.7221C558.436 83.7221 558.434 83.7212 558.432 83.7195C558.431 83.7178 558.43 83.7155 558.43 83.7131C558.196 83.5692 557.971 83.4163 557.746 83.2634C557.251 82.9395 556.774 82.5977 556.307 82.2558C551.413 78.6216 548.552 74.5285 548.3 70.1836C548.282 69.9767 548.273 69.7608 548.273 69.5449V46.5609L548.3 46.5519L548.372 46.5339H548.39L548.435 46.5249H548.453V46.5519H548.462C548.459 46.5624 548.459 46.5734 548.46 46.5843C548.462 46.5951 548.466 46.6055 548.471 46.6148V46.6418C548.488 46.7268 548.509 46.8108 548.534 46.8937C550.037 53.2087 556.99 57.8235 567.488 60.4502C575.15 62.2201 582.996 63.0627 590.859 62.96C603.002 62.8753 615.103 61.5308 626.968 58.9479C635.217 57.2071 643.337 54.9079 651.274 52.0662C656.015 50.348 660.477 48.5039 664.588 46.5428C664.597 46.5428 664.597 46.5339 664.606 46.5339C673.548 42.2699 680.87 37.5112 685.953 32.6535C690.181 28.6144 692.861 24.5124 693.662 20.5633C693.734 20.2538 693.788 19.9405 693.824 19.625V19.625Z" fill="black"/>
<path d="M693.824 69.335V119.36C693.824 119.639 693.806 119.909 693.779 120.188C693.491 123.534 691.647 126.737 688.517 129.687C683.479 134.437 675.095 138.539 664.489 141.553C662.348 142.164 660.108 142.731 657.787 143.244C645.716 145.843 633.397 147.119 621.049 147.049C595.744 147.049 573.452 142.119 560.418 134.635C558.999 133.822 557.626 132.93 556.307 131.963C551.17 128.149 548.273 123.831 548.273 119.252V96.2681L548.435 96.2321H548.453C548.455 96.2717 548.461 96.3109 548.471 96.3491C550.693 106.766 567.632 112.649 590.859 112.667C603.002 112.583 615.103 111.238 626.968 108.655C635.217 106.914 643.337 104.615 651.274 101.773C656.726 99.8207 662.055 97.5406 667.233 94.9458C675.689 90.6638 682.525 85.95 687.149 81.1733C690.325 77.8989 692.457 74.5975 693.383 71.386C693.491 71.0082 693.59 70.6393 693.662 70.2705C693.734 69.9619 693.788 69.6496 693.824 69.335V69.335Z" fill="black"/>
<path d="M693.727 20.1574C692.702 28.1816 683.706 36.9074 669.682 44.4368C658.23 50.5989 643.423 55.9513 626.871 59.4776C586.777 67.9966 551.631 62.4912 548.375 47.1715C548.364 47.1333 548.358 47.0941 548.357 47.0546C548.266 46.6367 548.206 46.2128 548.177 45.7862C548.118 45.1398 548.118 44.4894 548.177 43.8431C549.418 29.1531 577.836 11.9353 615.087 4.01006C655.181 -4.50888 690.327 0.987516 693.583 16.3072C693.646 16.5951 693.691 16.8829 693.727 17.1708C693.772 17.4627 693.799 17.7572 693.808 18.0524C693.844 18.7551 693.817 19.4595 693.727 20.1574Z" fill="white"/>
</svg>
