<svg width="210" height="320" viewBox="0 0 210 320" fill="none" xmlns="http://www.w3.org/2000/svg">
<path d="M150 30H60V280H150V30Z" fill="#366CE1"/>
<path opacity="0.62" d="M150 70H210V260C210 275.913 203.679 291.174 192.426 302.426C181.174 313.679 165.913 320 150 320V70Z" fill="#366CE1"/>
<path opacity="0.62" d="M0 70H60V320C44.087 320 28.8258 313.679 17.5736 302.426C6.32143 291.174 0 275.913 0 260V70Z" fill="#366CE1"/>
<path opacity="0.38" d="M180 0C187.956 0 195.587 3.16071 201.213 8.7868C206.839 14.4129 210 22.0435 210 30V250H180V0Z" fill="#366CE1"/>
<path opacity="0.38" d="M30 0V250H0V30C0 22.0435 3.16071 14.4129 8.7868 8.7868C14.4129 3.16071 22.0435 0 30 0V0Z" fill="#366CE1"/>
</svg>
