<svg width="1458" height="220" viewBox="0 0 1458 220" fill="none" xmlns="http://www.w3.org/2000/svg">
<path d="M478 80V140H498V160H438V140H458V80H438V60H498V80H478Z" fill="#121221"/>
<path d="M320 60V160H300L240 90.59V160H220V60H240L300 129.41V60H320Z" fill="#121221"/>
<path d="M606 60V160H586L526 90.59V160H506V60H526L586 129.41V60H606Z" fill="#121221"/>
<path d="M20 90C20 92.6522 21.0536 95.1957 22.9289 97.0711C24.8043 98.9464 27.3478 100 30 100H70C77.9565 100 85.5871 103.161 91.2132 108.787C96.8393 114.413 100 122.044 100 130C100 137.956 96.8393 145.587 91.2132 151.213C85.5871 156.839 77.9565 160 70 160H0V140H70C72.6522 140 75.1957 138.946 77.0711 137.071C78.9464 135.196 80 132.652 80 130C80 127.348 78.9464 124.804 77.0711 122.929C75.1957 121.054 72.6522 120 70 120H30C22.0435 120 14.4129 116.839 8.7868 111.213C3.16071 105.587 4.47035e-07 97.9565 4.47035e-07 90C4.47035e-07 82.0435 3.16071 74.4129 8.7868 68.7868C14.4129 63.1607 22.0435 60 30 60H100V80H30C27.3478 80 24.8043 81.0536 22.9289 82.9289C21.0536 84.8043 20 87.3478 20 90V90Z" fill="#121221"/>
<path d="M130 80V100H210V120H130V140H210V160H110V60H210V80H130Z" fill="#121221"/>
<path d="M636 80V100H716V120H636V140H716V160H616V60H716V80H636Z" fill="#121221"/>
<path d="M826 140V160H726V60H746V140H826Z" fill="#121221"/>
<path d="M430 60V80H390V160H370V80H330V60H430Z" fill="#121221"/>
<path d="M926 60C916.111 60 906.444 62.9324 898.222 68.4265C889.999 73.9206 883.59 81.7295 879.806 90.8658C876.022 100.002 875.031 110.055 876.961 119.755C878.89 129.454 883.652 138.363 890.645 145.355C897.637 152.348 906.546 157.11 916.246 159.039C925.945 160.969 935.998 159.978 945.134 156.194C954.27 152.41 962.079 146.001 967.574 137.779C973.068 129.556 976 119.889 976 110C975.999 96.7396 970.73 84.0226 961.354 74.6461C951.977 65.2696 939.26 60.0013 926 60V60ZM926 150C918.089 150 910.355 147.654 903.777 143.259C897.199 138.864 892.072 132.616 889.045 125.307C886.017 117.998 885.225 109.956 886.769 102.196C888.312 94.4371 892.122 87.3098 897.716 81.7157C903.31 76.1216 910.437 72.312 918.196 70.7686C925.956 69.2252 933.998 70.0173 941.307 73.0448C948.616 76.0723 954.864 81.1992 959.259 87.7772C963.654 94.3552 966 102.089 966 110C966 120.609 961.786 130.783 954.284 138.284C946.783 145.786 936.609 150 926 150Z" fill="#121221"/>
<path d="M1106 70V105H1196V115H1106V150H1196V160H1096V60H1196V70H1106Z" fill="#121221"/>
<path d="M1086 60V160H1076.07L1076 159.92L996 74.59V160H986V60H996.02L1076 145.3V60H1086Z" fill="#121221"/>
<path d="M1417 21H1355V192H1417V21Z" fill="black"/>
<path opacity="0.62" d="M1417 48H1458V178.72C1458 189.668 1453.68 200.168 1445.99 207.909C1438.3 215.651 1427.87 220 1417 220V48Z" fill="black"/>
<path opacity="0.62" d="M1314 48H1355V220C1344.13 220 1333.7 215.651 1326.01 207.909C1318.32 200.168 1314 189.668 1314 178.72V48Z" fill="black"/>
<path opacity="0.38" d="M1438 0C1443.3 0 1448.39 2.17457 1452.14 6.04532C1455.89 9.91607 1458 15.1659 1458 20.64V172H1438V0Z" fill="black"/>
<path opacity="0.38" d="M1334 0V172H1314V20.64C1314 15.1659 1316.11 9.91607 1319.86 6.04532C1323.61 2.17457 1328.7 0 1334 0V0Z" fill="black"/>
</svg>
