<svg width="1220" height="200" viewBox="0 0 1220 200" fill="none" xmlns="http://www.w3.org/2000/svg">
<path d="M1220 66.6667V133.333C1220 142.089 1218.28 150.761 1214.93 158.851C1211.59 166.942 1206.68 174.293 1200.48 180.484C1194.29 186.676 1186.94 191.586 1178.85 194.935C1170.76 198.283 1162.09 200.005 1153.33 200H1086.67C1077.91 200.005 1069.24 198.283 1061.15 194.935C1053.06 191.586 1045.71 186.676 1039.52 180.484C1033.32 174.293 1028.41 166.942 1025.07 158.851C1021.72 150.761 1020 142.089 1020 133.333V66.6667C1020 48.9856 1027.02 32.0286 1039.53 19.5262C1052.03 7.02379 1068.99 0 1086.67 0H1153.33C1171.01 0 1187.97 7.02379 1200.47 19.5262C1212.98 32.0286 1220 48.9856 1220 66.6667V66.6667Z" fill="#F5F5F5"/>
<path d="M1140 133.333V200H1100V133.333C1100 151.74 1108.95 166.667 1120 166.667C1131.05 166.667 1140 151.74 1140 133.333Z" fill="#1C1E20"/>
<path opacity="0.38" d="M1140 133.333V200H1100V133.333C1100 151.74 1108.95 166.667 1120 166.667C1131.05 166.667 1140 151.74 1140 133.333Z" fill="#8B8B8B"/>
<path d="M1180 126.667V194.447C1171.59 198.122 1162.51 200.013 1153.33 200H1140V133.333C1141.59 146.493 1148.12 156.8 1156.11 159.373C1156.36 159.46 1156.62 159.533 1156.87 159.6C1157.1 159.66 1157.33 159.713 1157.56 159.753C1157.87 159.821 1158.19 159.872 1158.51 159.906C1158.75 159.94 1158.97 159.96 1159.21 159.973C1159.47 159.993 1159.73 160 1160 160C1171.05 160 1180 145.073 1180 126.667Z" fill="#1C1E20"/>
<path d="M1156.87 159.6C1148.54 157.453 1141.64 146.913 1140 133.333L1140.04 133.327L1140.39 133.267C1142.03 146.84 1148.61 157.433 1156.87 159.6Z" fill="#1C1E20"/>
<path d="M1100 133.333V200H1086.67C1077.49 200.013 1068.41 198.122 1060 194.447V126.667C1060 145.073 1068.95 160 1080 160C1081.06 160.001 1082.11 159.866 1083.13 159.6C1083.32 159.553 1083.51 159.5 1083.7 159.433C1083.77 159.418 1083.83 159.398 1083.89 159.373C1084.15 159.287 1084.41 159.193 1084.65 159.1C1084.9 159.007 1085.13 158.907 1085.37 158.8C1085.87 158.578 1086.35 158.328 1086.81 158.053C1086.98 157.96 1087.15 157.853 1087.31 157.747C1087.68 157.52 1088.03 157.273 1088.39 157.007C1088.59 156.86 1088.81 156.693 1089.01 156.527C1090.05 155.678 1091.01 154.737 1091.87 153.713C1092 153.573 1092.11 153.433 1092.23 153.286C1092.41 153.073 1092.58 152.86 1092.75 152.633C1092.91 152.407 1093.09 152.193 1093.25 151.96C1093.39 151.76 1093.54 151.553 1093.68 151.34C1094.14 150.673 1094.57 149.973 1094.99 149.24C1095.11 149.026 1095.23 148.813 1095.34 148.6C1095.48 148.36 1095.61 148.113 1095.73 147.866C1095.82 147.686 1095.91 147.5 1096.01 147.313C1096.09 147.14 1096.17 146.967 1096.25 146.793C1096.39 146.513 1096.52 146.233 1096.64 145.94C1096.73 145.733 1096.82 145.533 1096.91 145.32C1096.99 145.14 1097.06 144.96 1097.13 144.78C1097.24 144.507 1097.35 144.227 1097.46 143.94C1097.53 143.727 1097.61 143.513 1097.69 143.3C1097.77 143.067 1097.85 142.827 1097.93 142.593C1098.03 142.313 1098.12 142.033 1098.21 141.747C1098.31 141.433 1098.4 141.12 1098.49 140.8C1099.2 138.356 1099.7 135.859 1100 133.333V133.333Z" fill="#1C1E20"/>
<path opacity="0.62" d="M1100 133.333V200H1086.67C1077.49 200.013 1068.41 198.122 1060 194.447V126.667C1060 145.073 1068.95 160 1080 160C1081.06 160.001 1082.11 159.866 1083.13 159.6C1083.32 159.553 1083.51 159.5 1083.7 159.433C1083.77 159.418 1083.83 159.398 1083.89 159.373C1084.15 159.287 1084.41 159.193 1084.65 159.1C1084.9 159.007 1085.13 158.907 1085.37 158.8C1085.87 158.578 1086.35 158.328 1086.81 158.053C1086.98 157.96 1087.15 157.853 1087.31 157.747C1087.68 157.52 1088.03 157.273 1088.39 157.007C1088.59 156.86 1088.81 156.693 1089.01 156.527C1090.05 155.678 1091.01 154.737 1091.87 153.713C1092 153.573 1092.11 153.433 1092.23 153.286C1092.41 153.073 1092.58 152.86 1092.75 152.633C1092.91 152.407 1093.09 152.193 1093.25 151.96C1093.39 151.76 1093.54 151.553 1093.68 151.34C1094.14 150.673 1094.57 149.973 1094.99 149.24C1095.11 149.026 1095.23 148.813 1095.34 148.6C1095.48 148.36 1095.61 148.113 1095.73 147.866C1095.82 147.686 1095.91 147.5 1096.01 147.313C1096.09 147.14 1096.17 146.967 1096.25 146.793C1096.39 146.513 1096.52 146.233 1096.64 145.94C1096.73 145.733 1096.82 145.533 1096.91 145.32C1096.99 145.14 1097.06 144.96 1097.13 144.78C1097.24 144.507 1097.35 144.227 1097.46 143.94C1097.53 143.727 1097.61 143.513 1097.69 143.3C1097.77 143.067 1097.85 142.827 1097.93 142.593C1098.03 142.313 1098.12 142.033 1098.21 141.747C1098.31 141.433 1098.4 141.12 1098.49 140.8C1099.2 138.356 1099.7 135.859 1100 133.333V133.333Z" fill="#8B8B8B"/>
<path d="M1100 133.333C1098.36 146.913 1091.46 157.453 1083.13 159.6C1091.39 157.433 1097.97 146.84 1099.61 133.267L1099.96 133.327L1100 133.333Z" fill="#1C1E20"/>
<path d="M1180 126.666C1180 145.073 1171.05 160 1160 160C1159.73 160 1159.47 159.993 1159.21 159.973C1158.97 159.96 1158.75 159.94 1158.51 159.906C1158.19 159.872 1157.87 159.821 1157.56 159.753C1157.33 159.713 1157.1 159.66 1156.87 159.6C1148.54 157.453 1141.64 146.913 1140 133.333C1139.21 128.1 1138.43 122.864 1137.65 117.626C1133.75 91.6464 1129.85 65.6641 1125.95 39.6797C1129.91 39.2711 1133.79 38.3731 1137.53 37.0063C1146.57 56.0863 1155.6 75.1641 1164.64 94.2397C1169.76 105.046 1174.88 115.855 1180 126.666Z" fill="#8B8B8B"/>
<path opacity="0.62" d="M1180 126.666C1180 145.073 1171.05 160 1160 160C1159.73 160 1159.47 159.993 1159.21 159.973C1158.97 159.96 1158.75 159.94 1158.51 159.906C1158.19 159.872 1157.87 159.821 1157.56 159.753C1157.33 159.713 1157.1 159.66 1156.87 159.6C1148.54 157.453 1141.64 146.913 1140 133.333C1139.21 128.1 1138.43 122.864 1137.65 117.626C1133.75 91.6464 1129.85 65.6641 1125.95 39.6797C1129.91 39.2711 1133.79 38.3731 1137.53 37.0063C1146.57 56.0863 1155.6 75.1641 1164.64 94.2397C1169.76 105.046 1174.88 115.855 1180 126.666Z" fill="#1C1E20"/>
<path d="M1140 133.334C1140 151.74 1131.05 166.667 1120 166.667C1108.95 166.667 1100 151.74 1100 133.334C1100.79 128.1 1101.57 122.865 1102.35 117.627C1102.36 117.62 1102.36 117.62 1102.36 117.614C1106.25 91.6335 1110.15 65.6557 1114.05 39.6802C1118 40.1068 1122 40.1068 1125.95 39.6802C1129.85 65.6602 1133.74 91.6424 1137.65 117.627C1138.43 122.86 1139.21 128.096 1140 133.334Z" fill="#8B8B8B"/>
<path opacity="0.38" d="M1140 133.653C1140 152.06 1131.05 166.987 1120 166.987C1108.95 166.987 1100 152.06 1100 133.653C1100.79 128.42 1101.57 123.184 1102.35 117.947C1102.36 117.94 1102.36 117.94 1102.36 117.933C1106.25 91.9533 1110.15 65.9756 1114.05 40C1118 40.4267 1122 40.4267 1125.95 40C1129.85 65.98 1133.74 91.9622 1137.65 117.947C1138.43 123.18 1139.21 128.416 1140 133.653Z" fill="#1C1E20"/>
<path d="M1114.05 39.6797C1110.15 65.6597 1106.26 91.6375 1102.36 117.613C1102.36 117.62 1102.36 117.62 1102.35 117.626C1101.57 122.86 1100.79 128.095 1100 133.333C1098.36 146.913 1091.46 157.453 1083.13 159.6C1082.11 159.866 1081.06 160.001 1080 160C1068.95 160 1060 145.073 1060 126.666C1065.12 115.86 1070.24 105.051 1075.36 94.2397C1084.4 75.1597 1093.44 56.0819 1102.47 37.0063C1106.21 38.3731 1110.09 39.2711 1114.05 39.6797V39.6797Z" fill="#8B8B8B"/>
<path d="M1137.53 37.0066C1133.79 38.3734 1129.91 39.2714 1125.95 39.68C1122 40.1066 1118 40.1066 1114.05 39.68C1110.09 39.2714 1106.21 38.3734 1102.47 37.0066C1107.99 25.3591 1113.51 13.7095 1119.03 2.05796C1119.11 1.87349 1119.25 1.71762 1119.42 1.60848C1119.6 1.49934 1119.8 1.44141 1120 1.44141C1120.2 1.44141 1120.4 1.49934 1120.58 1.60848C1120.75 1.71762 1120.89 1.87349 1120.97 2.05796C1126.49 13.7082 1132.01 25.3577 1137.53 37.0066Z" fill="#1C1E20"/>
<path d="M100 145C100 175.38 77.61 200 50 200C22.39 200 0 175.38 0 145H20C20 164.33 33.43 180 50 180C66.57 180 80 164.33 80 145C80 125.67 66.57 110 50 110C39.5725 109.967 29.4556 106.447 21.26 100C8.4 90.06 0 73.61 0 55C0 24.62 22.39 0 50 0C77.61 0 100 24.62 100 55H80C80 35.67 66.57 20 50 20C33.43 20 20 35.67 20 55C20 74.33 33.43 90 50 90C60.4275 90.0326 70.5444 93.5527 78.74 100C91.6 109.94 100 126.39 100 145Z" fill="#1C1E20"/>
<path d="M166.41 165H187.27C181.45 185.49 166.96 200 150 200C127.91 200 110 175.38 110 145C110 114.62 127.91 90 150 90C166.96 90 181.45 104.51 187.27 125H166.41C162.8 115.93 156.8 110 150 110C138.95 110 130 125.67 130 145C130 164.33 138.95 180 150 180C156.8 180 162.8 174.07 166.41 165Z" fill="#1C1E20"/>
<path d="M436.41 165H457.27C451.45 185.49 436.96 200 420 200C397.91 200 380 175.38 380 145C380 114.62 397.91 90 420 90C436.96 90 451.45 104.51 457.27 125H436.41C432.8 115.93 426.8 110 420 110C408.95 110 400 125.67 400 145C400 164.33 408.95 180 420 180C426.8 180 432.8 174.07 436.41 165Z" fill="#1C1E20"/>
<path d="M550 145V200H530V145C530 125.67 521.05 110 510 110C498.95 110 490 125.67 490 145V200H470V0H490V97.36C495.629 92.6924 502.688 90.0948 510 90C532.09 90 550 114.62 550 145Z" fill="#1C1E20"/>
<path d="M369.83 150C368 178.04 350.86 200 330 200C307.91 200 290 175.38 290 145V0H310V145C310 164.33 318.95 180 330 180C340.08 180 348.41 166.96 349.79 150H369.83Z" fill="#1C1E20"/>
<path d="M279.34 155C280.22 148.362 280.22 141.638 279.34 135C275.92 109.4 259.61 90 240 90C217.91 90 200 114.62 200 145C200 175.38 217.91 200 240 200C254.04 200 266.39 190.05 273.53 175H250.3C247.29 178.17 243.77 180 240 180C236.23 180 232.71 178.17 229.7 175C225.47 170.55 222.26 163.44 220.83 155H279.34ZM220.83 135C223.29 120.54 230.94 110 240 110C249.06 110 256.71 120.54 259.17 135H220.83Z" fill="#1C1E20"/>
<path d="M610 90C587.91 90 570 114.62 570 145C570 175.38 587.91 200 610 200C632.09 200 650 175.38 650 145C650 114.62 632.09 90 610 90ZM610 180C598.95 180 590 164.33 590 145C590 125.67 598.95 110 610 110C621.05 110 630 125.67 630 145C630 164.33 621.05 180 610 180Z" fill="#1C1E20"/>
<path d="M700 90C677.91 90 660 114.62 660 145C660 175.38 677.91 200 700 200C722.09 200 740 175.38 740 145C740 114.62 722.09 90 700 90ZM700 180C688.95 180 680 164.33 680 145C680 125.67 688.95 110 700 110C711.05 110 720 125.67 720 145C720 164.33 711.05 180 700 180Z" fill="#1C1E20"/>
<path d="M790 90C767.91 90 750 114.62 750 145C750 175.38 767.91 200 790 200C812.09 200 830 175.38 830 145C830 114.62 812.09 90 790 90ZM790 180C778.95 180 770 164.33 770 145C770 125.67 778.95 110 790 110C801.05 110 810 125.67 810 145C810 164.33 801.05 180 790 180Z" fill="#1C1E20"/>
<path d="M590 0H570V200H590V0Z" fill="#1C1E20"/>
<path d="M880 150L920 200H900L860 153.49V200H840V0H860V146.51L900 100H920L880 150Z" fill="#1C1E20"/>
<path d="M370 90H310V110H370V90Z" fill="#1C1E20"/>
</svg>
