<svg width="200" height="200" viewBox="0 0 200 200" fill="none" xmlns="http://www.w3.org/2000/svg">
<path d="M200 66.6667V133.333C200.005 142.089 198.283 150.761 194.935 158.851C191.586 166.942 186.676 174.293 180.484 180.484C174.293 186.676 166.942 191.586 158.851 194.935C150.761 198.283 142.089 200.005 133.333 200H66.6667C57.9106 200.005 49.2394 198.283 41.149 194.935C33.0585 191.586 25.7074 186.676 19.5159 180.484C13.3244 174.293 8.41392 166.942 5.06526 158.851C1.71659 150.761 -0.00463505 142.089 9.37409e-06 133.333V66.6667C9.37409e-06 48.9856 7.02379 32.0286 19.5262 19.5262C32.0286 7.02379 48.9856 0 66.6667 0H133.333C151.014 0 167.971 7.02379 180.474 19.5262C192.976 32.0286 200 48.9856 200 66.6667V66.6667Z" fill="#366CE1"/>
<path d="M120 133.333V200H80V133.333C80 151.74 88.9533 166.667 100 166.667C111.047 166.667 120 151.74 120 133.333Z" fill="#1C1E20"/>
<path opacity="0.38" d="M120 133.333V200H80V133.333C80 151.74 88.9533 166.667 100 166.667C111.047 166.667 120 151.74 120 133.333Z" fill="#E1DFDF"/>
<path d="M160 126.667V194.447C151.591 198.122 142.511 200.013 133.333 200H120V133.333C121.587 146.493 128.12 156.8 136.107 159.373C136.36 159.46 136.62 159.533 136.873 159.6C137.1 159.66 137.333 159.713 137.56 159.753C137.875 159.821 138.193 159.872 138.513 159.906C138.747 159.94 138.973 159.96 139.207 159.973C139.473 159.993 139.733 160 140 160C151.047 160 160 145.073 160 126.667Z" fill="#1C1E20"/>
<path d="M136.873 159.6C128.54 157.453 121.64 146.913 120 133.333L120.04 133.327L120.393 133.267C122.033 146.84 128.613 157.433 136.873 159.6Z" fill="#1C1E20"/>
<path d="M80 133.333V200H66.6667C57.4894 200.013 48.4093 198.122 40 194.447V126.667C40 145.073 48.9533 160 60 160C61.055 160.001 62.1058 159.866 63.1267 159.6C63.32 159.553 63.5067 159.5 63.7 159.433C63.7659 159.418 63.8306 159.398 63.8933 159.373C64.1533 159.287 64.4067 159.193 64.6533 159.1C64.9 159.007 65.1333 158.907 65.3733 158.8C65.8666 158.578 66.3474 158.328 66.8133 158.053C66.98 157.96 67.1467 157.853 67.3133 157.747C67.68 157.52 68.0333 157.273 68.3867 157.007C68.5933 156.86 68.8067 156.693 69.0133 156.527C70.0509 155.678 71.0083 154.737 71.8733 153.713C72 153.573 72.1133 153.433 72.2333 153.286C72.4067 153.073 72.58 152.86 72.7467 152.633C72.9133 152.407 73.0867 152.193 73.2467 151.96C73.3933 151.76 73.54 151.553 73.68 151.34C74.14 150.673 74.5733 149.973 74.9867 149.24C75.1067 149.026 75.2267 148.813 75.34 148.6C75.48 148.36 75.6067 148.113 75.7333 147.866C75.82 147.686 75.9133 147.5 76.0067 147.313C76.0933 147.14 76.1733 146.967 76.2533 146.793C76.3867 146.513 76.52 146.233 76.64 145.94C76.7333 145.733 76.82 145.533 76.9067 145.32C76.9867 145.14 77.06 144.96 77.1267 144.78C77.24 144.507 77.3467 144.227 77.46 143.94C77.5333 143.727 77.6133 143.513 77.6867 143.3C77.7733 143.067 77.8533 142.827 77.9333 142.593C78.0267 142.313 78.12 142.033 78.2067 141.747C78.3067 141.433 78.4 141.12 78.4933 140.8C79.1968 138.356 79.7007 135.859 80 133.333V133.333Z" fill="#1C1E20"/>
<path opacity="0.62" d="M80 133.333V200H66.6667C57.4894 200.013 48.4093 198.122 40 194.447V126.667C40 145.073 48.9533 160 60 160C61.055 160.001 62.1058 159.866 63.1267 159.6C63.32 159.553 63.5067 159.5 63.7 159.433C63.7659 159.418 63.8306 159.398 63.8933 159.373C64.1533 159.287 64.4067 159.193 64.6533 159.1C64.9 159.007 65.1333 158.907 65.3733 158.8C65.8666 158.578 66.3474 158.328 66.8133 158.053C66.98 157.96 67.1467 157.853 67.3133 157.747C67.68 157.52 68.0333 157.273 68.3867 157.007C68.5933 156.86 68.8067 156.693 69.0133 156.527C70.0509 155.678 71.0083 154.737 71.8733 153.713C72 153.573 72.1133 153.433 72.2333 153.286C72.4067 153.073 72.58 152.86 72.7467 152.633C72.9133 152.407 73.0867 152.193 73.2467 151.96C73.3933 151.76 73.54 151.553 73.68 151.34C74.14 150.673 74.5733 149.973 74.9867 149.24C75.1067 149.026 75.2267 148.813 75.34 148.6C75.48 148.36 75.6067 148.113 75.7333 147.866C75.82 147.686 75.9133 147.5 76.0067 147.313C76.0933 147.14 76.1733 146.967 76.2533 146.793C76.3867 146.513 76.52 146.233 76.64 145.94C76.7333 145.733 76.82 145.533 76.9067 145.32C76.9867 145.14 77.06 144.96 77.1267 144.78C77.24 144.507 77.3467 144.227 77.46 143.94C77.5333 143.727 77.6133 143.513 77.6867 143.3C77.7733 143.067 77.8533 142.827 77.9333 142.593C78.0267 142.313 78.12 142.033 78.2067 141.747C78.3067 141.433 78.4 141.12 78.4933 140.8C79.1968 138.356 79.7007 135.859 80 133.333V133.333Z" fill="#E1DFDF"/>
<path d="M79.9998 133.333C78.3598 146.913 71.4598 157.453 63.1265 159.6C71.3865 157.433 77.9665 146.84 79.6065 133.267L79.9598 133.327L79.9998 133.333Z" fill="#1C1E20"/>
<path d="M160 126.666C160 145.073 151.046 160 140 160C139.733 160 139.473 159.993 139.206 159.973C138.973 159.96 138.746 159.94 138.513 159.906C138.193 159.872 137.875 159.821 137.56 159.753C137.333 159.713 137.1 159.66 136.873 159.6C128.54 157.453 121.64 146.913 120 133.333C119.213 128.1 118.429 122.864 117.646 117.626C113.746 91.6464 109.849 65.6641 105.953 39.6797C109.907 39.2711 113.794 38.3731 117.526 37.0063C126.566 56.0863 135.604 75.1641 144.64 94.2397C149.76 105.046 154.88 115.855 160 126.666Z" fill="#E1DFDF"/>
<path opacity="0.62" d="M160 126.666C160 145.073 151.046 160 140 160C139.733 160 139.473 159.993 139.206 159.973C138.973 159.96 138.746 159.94 138.513 159.906C138.193 159.872 137.875 159.821 137.56 159.753C137.333 159.713 137.1 159.66 136.873 159.6C128.54 157.453 121.64 146.913 120 133.333C119.213 128.1 118.429 122.864 117.646 117.626C113.746 91.6464 109.849 65.6641 105.953 39.6797C109.907 39.2711 113.794 38.3731 117.526 37.0063C126.566 56.0863 135.604 75.1641 144.64 94.2397C149.76 105.046 154.88 115.855 160 126.666Z" fill="#1C1E20"/>
<path d="M120 133.334C120 151.74 111.047 166.667 100 166.667C88.9533 166.667 80 151.74 80 133.334C80.7867 128.1 81.5711 122.865 82.3533 117.627C82.36 117.62 82.36 117.62 82.36 117.614C86.2533 91.6335 90.1489 65.6557 94.0467 39.6802C98.0041 40.1068 101.996 40.1068 105.953 39.6802C109.847 65.6602 113.744 91.6424 117.647 117.627C118.427 122.86 119.211 128.096 120 133.334Z" fill="#E1DFDF"/>
<path opacity="0.38" d="M120 133.653C120 152.06 111.047 166.987 100 166.987C88.9533 166.987 80 152.06 80 133.653C80.7867 128.42 81.5711 123.184 82.3533 117.947C82.36 117.94 82.36 117.94 82.36 117.933C86.2533 91.9533 90.1489 65.9756 94.0467 40C98.0041 40.4267 101.996 40.4267 105.953 40C109.847 65.98 113.744 91.9622 117.647 117.947C118.427 123.18 119.211 128.416 120 133.653Z" fill="#1C1E20"/>
<path d="M94.0467 39.6797C90.1533 65.6597 86.2578 91.6375 82.36 117.613C82.36 117.62 82.36 117.62 82.3533 117.626C81.5733 122.86 80.7889 128.095 80 133.333C78.36 146.913 71.46 157.453 63.1267 159.6C62.1058 159.866 61.055 160.001 60 160C48.9533 160 40 145.073 40 126.666C45.12 115.86 50.24 105.051 55.36 94.2397C64.4 75.1597 73.4378 56.0819 82.4733 37.0063C86.2056 38.3731 90.0931 39.2711 94.0467 39.6797V39.6797Z" fill="#E1DFDF"/>
<path d="M117.526 37.0066C113.794 38.3734 109.907 39.2714 105.953 39.68C101.996 40.1066 98.0039 40.1066 94.0465 39.68C90.0929 39.2714 86.2054 38.3734 82.4731 37.0066C87.9887 25.3591 93.506 13.7095 99.0251 2.05796C99.1126 1.87349 99.2506 1.71762 99.4232 1.60848C99.5957 1.49934 99.7957 1.44141 99.9998 1.44141C100.204 1.44141 100.404 1.49934 100.576 1.60848C100.749 1.71762 100.887 1.87349 100.974 2.05796C106.49 13.7082 112.008 25.3577 117.526 37.0066Z" fill="#1C1E20"/>
</svg>
