<svg width="1448" height="144" viewBox="0 0 1448 144" fill="none" xmlns="http://www.w3.org/2000/svg">
<path d="M1341.76 96.9953C1336.58 102.176 1329.55 105.086 1322.23 105.086C1314.9 105.086 1307.87 102.176 1302.69 96.9953C1297.51 91.8148 1294.6 84.7886 1294.6 77.4623C1294.6 70.136 1297.51 63.1097 1302.69 57.9292L1310.51 65.7429C1308.97 67.282 1307.75 69.1091 1306.91 71.12C1306.08 73.1309 1305.65 75.2862 1305.65 77.4627C1305.65 79.6393 1306.08 81.7946 1306.91 83.8054C1307.75 85.8163 1308.97 87.6435 1310.51 89.1825C1312.05 90.7216 1313.87 91.9424 1315.88 92.7753C1317.89 93.6082 1320.05 94.0369 1322.23 94.0369C1324.4 94.0368 1326.56 93.6081 1328.57 92.7752C1330.58 91.9422 1332.41 90.7213 1333.95 89.1822L1341.76 96.9953Z" fill="#5E5E5E"/>
<path d="M1439.42 85.2757C1441.99 82.7106 1444.02 79.6653 1445.41 76.3138C1446.8 72.9623 1447.51 69.3702 1447.51 65.7426C1447.51 62.115 1446.8 58.5229 1445.41 55.1714C1444.02 51.8199 1441.99 48.7746 1439.42 46.2095C1436.86 43.6444 1433.81 41.6096 1430.46 40.2214C1427.11 38.8332 1423.52 38.1187 1419.89 38.1187C1416.26 38.1187 1412.67 38.8332 1409.32 40.2214C1405.97 41.6096 1402.92 43.6444 1400.36 46.2095L1408.17 54.0226C1409.7 52.4596 1411.53 51.216 1413.55 50.3636C1415.57 49.5112 1417.73 49.067 1419.92 49.0565C1422.11 49.0461 1424.28 49.4698 1426.31 50.3029C1428.33 51.1361 1430.17 52.3623 1431.72 53.9107C1433.27 55.4591 1434.5 57.299 1435.33 59.3241C1436.16 61.3492 1436.59 63.5193 1436.58 65.709C1436.57 67.8988 1436.12 70.0648 1435.27 72.0819C1434.42 74.099 1433.17 75.9272 1431.61 77.4609L1439.42 85.2757Z" fill="#5E5E5E"/>
<path d="M1380.82 26.6766L1373.01 18.8634C1378.19 13.6838 1385.22 10.7739 1392.54 10.7739C1399.87 10.7739 1406.9 13.6838 1412.08 18.8634L1404.26 26.6766C1401.15 23.569 1396.94 21.8233 1392.54 21.8233C1388.15 21.8233 1383.93 23.569 1380.82 26.6766Z" fill="#5E5E5E"/>
<path d="M1365.2 11.0495L1357.38 3.23633L1302.69 57.9287L1310.51 65.7419L1365.2 11.0495Z" fill="#5E5E5E"/>
<path d="M1400.36 38.3962L1392.54 30.583L1333.95 89.182L1341.76 96.9952L1400.36 38.3962Z" fill="#5E5E5E"/>
<path d="M1380.82 26.677L1373.01 18.8638L1314.41 77.4627L1322.23 85.2759L1380.82 26.677Z" fill="#5E5E5E"/>
<path d="M1318.32 86.8933C1321.37 86.8933 1323.84 84.4198 1323.84 81.3685C1323.84 78.3173 1321.37 75.8438 1318.32 75.8438C1315.27 75.8438 1312.79 78.3173 1312.79 81.3685C1312.79 84.4198 1315.27 86.8933 1318.32 86.8933Z" fill="#5E5E5E"/>
<path d="M1423.8 67.361C1426.85 67.361 1429.32 64.8875 1429.32 61.8363C1429.32 58.785 1426.85 56.3115 1423.8 56.3115C1420.75 56.3115 1418.27 58.785 1418.27 61.8363C1418.27 64.8875 1420.75 67.361 1423.8 67.361Z" fill="#5E5E5E"/>
<path d="M1396.45 40.0144C1399.5 40.0144 1401.98 37.5408 1401.98 34.4896C1401.98 31.4384 1399.5 28.9648 1396.45 28.9648C1393.4 28.9648 1390.93 31.4384 1390.93 34.4896C1390.93 37.5408 1393.4 40.0144 1396.45 40.0144Z" fill="#5E5E5E"/>
<path d="M1373.01 3.23642L1357.38 18.8632C1355.31 16.791 1354.15 13.9804 1354.15 11.0498C1354.15 8.11922 1355.31 5.30867 1357.38 3.23642C1359.46 1.16418 1362.27 0 1365.2 0C1368.13 0 1370.94 1.16418 1373.01 3.23642V3.23642Z" fill="#5E5E5E"/>
<path d="M1361.29 116.527L1369.1 124.341C1363.92 129.521 1356.9 132.43 1349.57 132.43C1342.25 132.43 1335.22 129.521 1330.04 124.341L1337.85 116.527C1340.96 119.635 1345.18 121.381 1349.57 121.381C1353.97 121.381 1358.18 119.635 1361.29 116.527V116.527Z" fill="#5E5E5E"/>
<path d="M1376.92 132.155L1384.73 139.968L1439.42 85.2754L1431.61 77.4622L1376.92 132.155Z" fill="#5E5E5E"/>
<path d="M1341.76 104.808L1349.57 112.621L1408.17 54.0221L1400.36 46.2089L1341.76 104.808Z" fill="#5E5E5E"/>
<path d="M1361.29 116.528L1369.1 124.341L1427.7 65.7419L1419.89 57.9287L1361.29 116.528Z" fill="#5E5E5E"/>
<path d="M1345.66 114.239C1348.72 114.239 1351.19 111.765 1351.19 108.714C1351.19 105.663 1348.72 103.189 1345.66 103.189C1342.61 103.189 1340.14 105.663 1340.14 108.714C1340.14 111.765 1342.61 114.239 1345.66 114.239Z" fill="#5E5E5E"/>
<path d="M1369.1 139.968L1384.73 124.342C1385.76 125.368 1386.57 126.586 1387.13 127.927C1387.68 129.267 1387.97 130.704 1387.97 132.155C1387.97 133.606 1387.68 135.043 1387.13 136.384C1386.57 137.724 1385.76 138.942 1384.73 139.968C1383.7 140.994 1382.49 141.808 1381.15 142.364C1379.81 142.919 1378.37 143.205 1376.92 143.205C1375.47 143.205 1374.03 142.919 1372.69 142.363C1371.35 141.808 1370.13 140.994 1369.1 139.968V139.968Z" fill="#5E5E5E"/>
<path d="M1337.85 116.529L1310.51 89.1826L1302.69 96.9958L1330.04 124.342L1337.85 116.529Z" fill="#5E5E5E"/>
<path d="M1439.42 46.2099L1412.08 18.8638L1404.26 26.677L1431.61 54.0231L1439.42 46.2099Z" fill="#5E5E5E"/>
<path d="M210 72.022C210.003 60.6661 206.14 49.6474 199.048 40.7783C191.956 31.9091 182.057 25.7177 170.978 23.2224C159.9 20.727 148.302 22.0763 138.093 27.0484C127.883 32.0204 119.669 40.3191 114.803 50.5794C109.936 60.8398 108.707 72.4509 111.316 83.503C113.926 94.5551 120.219 104.39 129.161 111.39C138.103 118.39 149.161 122.139 160.516 122.019C171.871 121.9 182.848 117.919 191.64 110.732L202.93 122.022L210 114.952L198.71 103.662C206.023 94.7405 210.013 83.5577 210 72.022V72.022ZM184.53 103.622C176.494 109.86 166.383 112.8 156.255 111.845C146.127 110.891 136.744 106.112 130.016 98.4824C123.287 90.8528 119.719 80.9458 120.038 70.7781C120.356 60.6104 124.538 50.9463 131.731 43.7531C138.924 36.5599 148.588 32.3783 158.756 32.0596C168.924 31.7409 178.831 35.309 186.46 42.0376C194.09 48.7662 198.869 58.1494 199.823 68.2772C200.778 78.405 197.838 88.516 191.6 96.552C189.542 99.1898 187.168 101.564 184.53 103.622Z" fill="#121221"/>
<path d="M10 49.522C10.0016 54.1628 11.8458 58.6131 15.1274 61.8946C18.4089 65.1762 22.8592 67.0204 27.5 67.022H72.5C79.1329 67.0284 85.5401 69.4319 90.5407 73.7897C95.5413 78.1474 98.7983 84.1657 99.7116 90.7354C100.625 97.3052 99.133 103.984 95.5106 109.54C91.8883 115.097 86.3797 119.157 80 120.972C77.562 121.674 75.037 122.027 72.5 122.022H0V112.022H72.5C77.1413 112.022 81.5925 110.178 84.8744 106.896C88.1562 103.615 90 99.1633 90 94.522C90 89.8807 88.1562 85.4296 84.8744 82.1477C81.5925 78.8658 77.1413 77.022 72.5 77.022H27.5C20.8671 77.0157 14.4599 74.6121 9.45934 70.2544C4.45874 65.8967 1.20166 59.8784 0.288345 53.3086C-0.624967 46.7389 0.867032 40.0604 4.48938 34.5039C8.11173 28.9474 13.6203 24.8874 20 23.072C22.438 22.3702 24.963 22.0168 27.5 22.022H100V32.022H27.5C22.8592 32.0236 18.4089 33.8679 15.1274 37.1494C11.8458 40.431 10.0016 44.8812 10 49.522V49.522Z" fill="#121221"/>
<path d="M533.72 77.022C532.148 75.1212 530.329 73.4396 528.31 72.022C533.092 68.6617 536.679 63.8654 538.55 58.3289C540.422 52.7923 540.481 46.8035 538.719 41.2311C536.957 35.6587 533.466 30.7925 528.751 27.3385C524.037 23.8845 518.344 22.0223 512.5 22.022H440V122.022H450V77.022H512.5C517.141 77.0236 521.591 78.8678 524.873 82.1494C528.154 85.4309 529.998 89.8812 530 94.522V122.022H540V94.522C540 93.682 539.96 92.842 539.88 92.022C539.389 86.5146 537.241 81.2851 533.72 77.022ZM512.5 67.022H450V32.022H512.5C517.141 32.022 521.593 33.8657 524.874 37.1476C528.156 40.4295 530 44.8807 530 49.522C530 54.1633 528.156 58.6144 524.874 61.8963C521.593 65.1782 517.141 67.022 512.5 67.022V67.022Z" fill="#121221"/>
<path d="M557 32.022V67.022H647V77.022H557V112.022H647V122.022H547V22.022H647V32.022H557Z" fill="#121221"/>
<path d="M320 22.022V72.022C320 85.2828 314.732 98.0005 305.355 107.377C295.979 116.754 283.261 122.022 270 122.022C256.739 122.022 244.021 116.754 234.645 107.377C225.268 98.0005 220 85.2828 220 72.022V22.022H230V72.022C230 82.6306 234.214 92.8048 241.716 100.306C249.217 107.808 259.391 112.022 270 112.022C280.609 112.022 290.783 107.808 298.284 100.306C305.786 92.8048 310 82.6306 310 72.022V22.022H320Z" fill="#121221"/>
<path d="M430 72.0219C430.003 70.352 429.919 68.6831 429.75 67.0219C428.512 54.6876 422.736 43.253 413.543 34.9367C404.351 26.6205 392.396 22.0156 380 22.0156C367.604 22.0156 355.649 26.6205 346.457 34.9367C337.264 43.253 331.488 54.6876 330.25 67.0219C329.917 70.3469 329.917 73.6969 330.25 77.0219H330V122.022H340V77.0219H420V122.022H430V77.0219H429.75C429.919 75.3606 430.003 73.6917 430 72.0219V72.0219ZM340.31 67.0219C341.521 57.3496 346.223 48.4524 353.531 42.0021C360.84 35.5517 370.252 31.9922 380 31.9922C389.748 31.9922 399.16 35.5517 406.469 42.0021C413.777 48.4524 418.479 57.3496 419.69 67.0219H340.31Z" fill="#121221"/>
<path d="M1106.74 82.0285H1116.99C1114.51 94.1689 1107.61 104.957 1097.63 112.3C1087.65 119.644 1075.3 123.021 1062.97 121.775C1050.65 120.53 1039.22 114.751 1030.91 105.56C1022.6 96.3686 1018 84.4192 1018 72.0285C1018 59.6377 1022.6 47.6883 1030.91 38.4969C1039.22 29.3055 1050.65 23.527 1062.97 22.2816C1075.3 21.0362 1087.65 24.4127 1097.63 31.7565C1107.61 39.1002 1114.51 49.888 1116.99 62.0285H1106.74C1104.31 52.6019 1098.52 44.3866 1090.46 38.9224C1082.4 33.4583 1072.63 31.1205 1062.97 32.3472C1053.31 33.574 1044.43 38.2811 1038 45.5861C1031.56 52.8912 1028.01 62.2927 1028.01 72.0285C1028.01 81.7642 1031.56 91.1657 1038 98.4708C1044.43 105.776 1053.31 110.483 1062.97 111.71C1072.63 112.936 1082.4 110.599 1090.46 105.134C1098.52 99.6703 1104.31 91.455 1106.74 82.0285V82.0285Z" fill="#121221"/>
<path d="M698 49.5284C698.002 54.1692 699.846 58.6195 703.127 61.901C706.409 65.1825 710.859 67.0268 715.5 67.0284H760.5C767.133 67.0347 773.54 69.4383 778.541 73.796C783.541 78.1538 786.798 84.1721 787.712 90.7418C788.625 97.3116 787.133 103.99 783.511 109.547C779.888 115.103 774.38 119.163 768 120.978C765.562 121.68 763.037 122.034 760.5 122.028H688V112.028H760.5C765.141 112.028 769.592 110.185 772.874 106.903C776.156 103.621 778 99.1697 778 94.5284C778 89.8871 776.156 85.4359 772.874 82.154C769.592 78.8721 765.141 77.0284 760.5 77.0284H715.5C708.867 77.022 702.46 74.6185 697.459 70.2607C692.459 65.903 689.202 59.8847 688.288 53.3149C687.375 46.7452 688.867 40.0667 692.489 34.5103C696.112 28.9538 701.62 24.8937 708 23.0784C710.438 22.3766 712.963 22.0231 715.5 22.0284H788V32.0284H715.5C710.859 32.03 706.409 33.8742 703.127 37.1558C699.846 40.4373 698.002 44.8876 698 49.5284V49.5284Z" fill="#121221"/>
<path d="M778 120.979V122.029H770.5C773.037 122.034 775.562 121.68 778 120.979V120.979Z" fill="#121221"/>
<path d="M891.72 32.0283C889.142 28.8968 885.902 26.3758 882.232 24.6466C878.563 22.9175 874.556 22.0233 870.5 22.0283H798V122.028H808V77.0283H870.5C875.715 77.0272 880.822 75.5437 885.226 72.7508C889.629 69.9579 893.149 65.9707 895.373 61.254C897.597 56.5373 898.434 51.2856 897.788 46.1111C897.141 40.9366 895.037 36.0525 891.72 32.0283V32.0283ZM870.5 67.0283H808V32.0283H870.5C875.141 32.0283 879.592 33.8721 882.874 37.154C886.156 40.4358 888 44.8871 888 49.5283C888 54.1696 886.156 58.6208 882.874 61.9027C879.592 65.1846 875.141 67.0283 870.5 67.0283V67.0283Z" fill="#121221"/>
<path d="M1138 32.0283V67.0283H1228V77.0283H1138V112.028H1228V122.028H1128V22.0283H1228V32.0283H1138Z" fill="#121221"/>
<path d="M1008 72.0282C1008 70.3583 1007.92 68.6895 1007.75 67.0282C1006.51 54.6939 1000.74 43.2593 991.543 34.9431C982.351 26.6268 970.396 22.022 958 22.022C945.604 22.022 933.649 26.6268 924.457 34.9431C915.264 43.2593 909.488 54.6939 908.25 67.0282C907.917 70.3532 907.917 73.7032 908.25 77.0282H908V122.028H918V77.0282H998V122.028H1008V77.0282H1007.75C1007.92 75.3669 1008 73.6981 1008 72.0282V72.0282ZM918.31 67.0282C919.521 57.3559 924.223 48.4588 931.531 42.0084C938.84 35.5581 948.252 31.9985 958 31.9985C967.748 31.9985 977.16 35.5581 984.469 42.0084C991.777 48.4588 996.479 57.3559 997.69 67.0282H918.31Z" fill="#121221"/>
</svg>
