<svg width="157" height="147" viewBox="0 0 157 147" fill="none" xmlns="http://www.w3.org/2000/svg">
<path d="M48.1449 99.0271C42.8559 104.316 35.6825 107.288 28.2026 107.288C20.7228 107.288 13.5494 104.316 8.26037 99.0271C2.97135 93.7381 5.57289e-08 86.5647 0 79.0849C-5.57289e-08 71.6051 2.97135 64.4316 8.26037 59.1426L16.2383 67.1199C14.667 68.6913 13.4206 70.5567 12.5702 72.6097C11.7199 74.6628 11.2822 76.8632 11.2822 79.0853C11.2823 81.3075 11.72 83.5079 12.5704 85.5609C13.4208 87.6139 14.6673 89.4793 16.2386 91.0506C17.8099 92.6219 19.6753 93.8683 21.7284 94.7187C23.7814 95.5691 25.9818 96.0067 28.204 96.0067C30.4261 96.0066 32.6265 95.5689 34.6796 94.7185C36.7326 93.8681 38.598 92.6217 40.1692 91.0503L48.1449 99.0271Z" fill="#366CE1"/>
<path d="M147.856 87.0619C150.475 84.4431 152.552 81.334 153.97 77.9123C155.387 74.4906 156.117 70.8232 156.117 67.1196C156.117 63.416 155.387 59.7486 153.97 56.3269C152.552 52.9052 150.475 49.7962 147.856 47.1773C145.237 44.5585 142.128 42.4811 138.707 41.0638C135.285 39.6465 131.618 38.917 127.914 38.917C124.21 38.917 120.543 39.6465 117.121 41.0638C113.7 42.4811 110.591 44.5585 107.972 47.1773L115.948 55.1541C117.514 53.5584 119.381 52.2887 121.44 51.4184C123.499 50.5482 125.711 50.0947 127.946 50.084C130.182 50.0734 132.398 50.5059 134.465 51.3565C136.533 52.2072 138.411 53.459 139.992 55.0399C141.573 56.6207 142.825 58.4992 143.675 60.5667C144.526 62.6341 144.959 64.8497 144.948 67.0854C144.938 69.321 144.484 71.5324 143.614 73.5917C142.744 75.6511 141.474 77.5176 139.878 79.0834L147.856 87.0619Z" fill="#366CE1"/>
<path d="M88.0295 27.2353L80.0527 19.2585C85.3421 13.9703 92.5153 10.9995 99.9947 10.9995C107.474 10.9995 114.647 13.9703 119.937 19.2585L111.958 27.2353C108.784 24.0626 104.481 22.2803 99.9936 22.2803C95.5063 22.2803 91.2028 24.0626 88.0295 27.2353Z" fill="#366CE1"/>
<path d="M72.0755 11.2811L64.0986 3.3042L8.26051 59.1423L16.2374 67.1192L72.0755 11.2811Z" fill="#366CE1"/>
<path d="M107.972 39.2005L99.9946 31.2236L40.1681 91.0502L48.1449 99.0271L107.972 39.2005Z" fill="#366CE1"/>
<path d="M88.0296 27.2357L80.0527 19.2588L20.2262 79.0854L28.203 87.0622L88.0296 27.2357Z" fill="#366CE1"/>
<path d="M24.2147 88.7141C27.3299 88.7141 29.8552 86.1888 29.8552 83.0736C29.8552 79.9584 27.3299 77.4331 24.2147 77.4331C21.0996 77.4331 18.5742 79.9584 18.5742 83.0736C18.5742 86.1888 21.0996 88.7141 24.2147 88.7141Z" fill="#366CE1"/>
<path d="M131.902 68.7722C135.017 68.7722 137.542 66.2469 137.542 63.1317C137.542 60.0165 135.017 57.4912 131.902 57.4912C128.787 57.4912 126.261 60.0165 126.261 63.1317C126.261 66.2469 128.787 68.7722 131.902 68.7722Z" fill="#366CE1"/>
<path d="M103.983 40.8528C107.098 40.8528 109.623 38.3274 109.623 35.2123C109.623 32.0971 107.098 29.5718 103.983 29.5718C100.868 29.5718 98.3423 32.0971 98.3423 35.2123C98.3423 38.3274 100.868 40.8528 103.983 40.8528Z" fill="#366CE1"/>
<path d="M80.0528 3.30422L64.0987 19.2584C61.983 17.1427 60.7944 14.2733 60.7944 11.2813C60.7944 8.28931 61.983 5.41988 64.0987 3.30422C66.2143 1.18857 69.0837 0 72.0757 0C75.0677 0 77.9372 1.18857 80.0528 3.30422V3.30422Z" fill="#366CE1"/>
<path d="M68.0869 118.969L76.0637 126.946C70.7743 132.234 63.6011 135.205 56.1217 135.205C48.6422 135.205 41.469 132.234 36.1797 126.946L44.1587 118.969C47.332 122.141 51.6356 123.924 56.1228 123.924C60.6101 123.924 64.9136 122.141 68.0869 118.969V118.969Z" fill="#366CE1"/>
<path d="M84.0407 134.924L92.0176 142.9L147.856 87.0623L139.879 79.0854L84.0407 134.924Z" fill="#366CE1"/>
<path d="M48.1447 107.004L56.1216 114.981L115.948 55.1544L107.971 47.1775L48.1447 107.004Z" fill="#366CE1"/>
<path d="M68.0871 118.968L76.064 126.945L135.891 67.1188L127.914 59.1419L68.0871 118.968Z" fill="#366CE1"/>
<path d="M52.1332 116.633C55.2483 116.633 57.7737 114.107 57.7737 110.992C57.7737 107.877 55.2483 105.352 52.1332 105.352C49.018 105.352 46.4927 107.877 46.4927 110.992C46.4927 114.107 49.018 116.633 52.1332 116.633Z" fill="#366CE1"/>
<path d="M76.0635 142.9L92.0177 126.946C93.0652 127.994 93.8961 129.237 94.463 130.606C95.0299 131.975 95.3217 133.442 95.3217 134.923C95.3216 136.405 95.0298 137.872 94.4629 139.24C93.8959 140.609 93.0649 141.853 92.0173 142.9C90.9698 143.948 89.7262 144.779 88.3575 145.346C86.9888 145.912 85.5218 146.204 84.0404 146.204C82.5589 146.204 81.092 145.912 79.7233 145.345C78.3546 144.778 77.111 143.947 76.0635 142.9V142.9Z" fill="#366CE1"/>
<path d="M44.1564 118.969L16.2373 91.0503L8.26043 99.0272L36.1795 126.946L44.1564 118.969Z" fill="#366CE1"/>
<path d="M147.856 47.1778L119.937 19.2588L111.96 27.2357L139.879 55.1547L147.856 47.1778Z" fill="#366CE1"/>
</svg>
