<svg width="912" height="210" viewBox="0 0 912 210" fill="none" xmlns="http://www.w3.org/2000/svg">
<path d="M754.25 65.625V91.875C745.5 87.5 736.75 83.125 728 78.75V52.5C736.75 56.875 745.5 61.25 754.25 65.625Z" fill="#969696"/>
<path d="M911.75 39.375C903 43.75 894.25 48.125 885.5 52.5C868 43.75 850.5 35 833 26.25L754.25 65.625C745.5 61.25 736.75 56.875 728 52.5L806.75 13.125C815.5 8.75 824.25 4.375 833 0C841.75 4.375 850.5 8.75 859.25 13.125C876.75 21.8794 894.25 30.6294 911.75 39.375Z" fill="#969696"/>
<path d="M911.75 39.375V65.625C903 70 894.25 74.375 885.5 78.75V52.5C894.25 48.1294 903 43.7544 911.75 39.375Z" fill="#969696"/>
<path d="M885.5 52.5V78.75C868 70 850.5 61.25 833 52.5V26.25C850.5 35.0044 868 43.7544 885.5 52.5Z" fill="#969696"/>
<path opacity="0.62" d="M754.25 65.625V91.875C745.5 87.5 736.75 83.125 728 78.75V52.5C736.75 56.875 745.5 61.25 754.25 65.625Z" fill="#121221"/>
<path opacity="0.62" d="M885.5 52.5V78.75C868 70 850.5 61.25 833 52.5V26.25C850.5 35.0044 868 43.7544 885.5 52.5Z" fill="#121221"/>
<path d="M833 105V131.25C824.25 126.875 815.5 122.5 806.75 118.125V210C798 205.625 789.25 201.25 780.5 196.875V78.75C789.25 74.375 798 70 806.75 65.625V91.875C815.5 96.25 824.25 100.625 833 105Z" fill="#969696"/>
<path opacity="0.62" d="M833 105V131.25C824.25 126.875 815.5 122.5 806.75 118.125V210C798 205.625 789.25 201.25 780.5 196.875V78.75C789.25 74.375 798 70 806.75 65.625V91.875C815.5 96.25 824.25 100.625 833 105Z" fill="#121221"/>
<path d="M859.25 91.875V118.125C850.5 122.5 841.75 126.875 833 131.25V105C841.75 100.629 850.5 96.2544 859.25 91.875Z" fill="#969696"/>
<path d="M833 105L859.25 91.875L833 78.75L806.75 91.875L833 105Z" fill="#969696"/>
<path d="M833 131.25V196.875C824.25 201.25 815.5 205.625 806.75 210V118.125C815.5 122.5 824.25 126.875 833 131.25Z" fill="#969696"/>
<path opacity="0.38" d="M911.75 39.375V65.625C903 70 894.25 74.375 885.5 78.75V52.5C894.25 48.1294 903 43.7544 911.75 39.375Z" fill="#121221"/>
<path d="M833 26.25V78.75C824.25 83.125 815.5 87.5 806.75 91.875V65.625C798 70 789.25 74.375 780.5 78.75C771.75 83.125 763 87.5 754.25 91.875V65.625L833 26.25Z" fill="#969696"/>
<path opacity="0.38" d="M833 26.25V78.75C824.25 83.125 815.5 87.5 806.75 91.875V65.625C798 70 789.25 74.375 780.5 78.75C771.75 83.125 763 87.5 754.25 91.875V65.625L833 26.25Z" fill="#121221"/>
<path opacity="0.38" d="M859.25 91.875V118.125C850.5 122.5 841.75 126.875 833 131.25V105C841.75 100.629 850.5 96.2544 859.25 91.875Z" fill="#121221"/>
<path opacity="0.38" d="M833 131.25V196.875C824.25 201.25 815.5 205.625 806.75 210V118.125C815.5 122.5 824.25 126.875 833 131.25Z" fill="#121221"/>
<path d="M100 0H0V20H100V0Z" fill="#121221"/>
<path d="M210 0H110V20H210V0Z" fill="#121221"/>
<path d="M210 40H110V60H210V40Z" fill="#121221"/>
<path d="M210 80H110V100H210V80Z" fill="#121221"/>
<path d="M60 0H40V100H60V0Z" fill="#121221"/>
<path d="M280.03 100H280V99.96L280.03 100Z" fill="#121221"/>
<path d="M320 0V100H300.03L300 99.96L240 30.57V100H220V0H240L300 69.38V0H320Z" fill="#121221"/>
<path d="M490 0C480.111 0 470.444 2.93244 462.222 8.42651C453.999 13.9206 447.59 21.7295 443.806 30.8658C440.022 40.0021 439.032 50.0555 440.961 59.7545C442.89 69.4536 447.652 78.3627 454.645 85.3553C461.637 92.348 470.546 97.11 480.245 99.0393C489.945 100.969 499.998 99.9784 509.134 96.194C518.27 92.4096 526.079 86.001 531.573 77.7785C537.068 69.556 540 59.8891 540 50C539.999 36.7396 534.73 24.0226 525.354 14.6461C515.977 5.26959 503.26 0.00132584 490 0V0ZM490 80C484.067 80 478.266 78.2405 473.333 74.9441C468.399 71.6476 464.554 66.9623 462.284 61.4805C460.013 55.9987 459.419 49.9667 460.576 44.1473C461.734 38.3278 464.591 32.9824 468.787 28.7868C472.982 24.5912 478.328 21.734 484.147 20.5764C489.967 19.4189 495.999 20.013 501.481 22.2836C506.962 24.5542 511.648 28.3994 514.944 33.3329C518.241 38.2664 520 44.0666 520 50C520 57.9565 516.839 65.5871 511.213 71.2132C505.587 76.8393 497.957 80 490 80Z" fill="#121221"/>
<path d="M430 50C430.002 60.8204 426.489 71.3486 419.99 80C415.335 86.2096 409.297 91.2498 402.356 94.7212C395.415 98.1927 387.761 100 380 100C372.239 100 364.585 98.1927 357.644 94.7212C350.703 91.2498 344.665 86.2096 340.01 80H380C386.204 80.0022 392.256 78.0797 397.321 74.4975C402.386 70.9154 406.215 65.8501 408.28 60H331.01C329.663 53.4013 329.663 46.5987 331.01 40H428.99C429.667 43.2901 430.006 46.6409 430 50V50Z" fill="#121221"/>
<path d="M419.99 20H340.01C344.665 13.7904 350.702 8.75023 357.644 5.27878C364.585 1.80733 372.239 0 380 0C387.761 0 395.415 1.80733 402.356 5.27878C409.297 8.75023 415.334 13.7904 419.99 20V20Z" fill="#121221"/>
<path d="M570 40H550V100H570V40Z" fill="#121221"/>
<path d="M650 50V60H550V40H628.28C626.215 34.1499 622.386 29.0846 617.321 25.5025C612.256 21.9203 606.204 19.9978 600 20H550V0H600C611.524 0.00277441 622.694 3.98503 631.62 11.2735C640.547 18.5619 646.682 28.7093 648.99 40C649.667 43.2901 650.006 46.6409 650 50V50Z" fill="#121221"/>
<path d="M650 80H630V100H650V80Z" fill="#121221"/>
<path d="M458.09 110C448.201 110 438.534 112.932 430.311 118.427C422.089 123.921 415.68 131.73 411.896 140.866C408.111 150.002 407.121 160.055 409.051 169.755C410.98 179.454 415.742 188.363 422.735 195.355C429.727 202.348 438.636 207.11 448.335 209.039C458.034 210.969 468.088 209.978 477.224 206.194C486.36 202.41 494.169 196.001 499.663 187.779C505.157 179.556 508.09 169.889 508.09 160C508.089 146.74 502.82 134.023 493.444 124.646C484.067 115.27 471.35 110.001 458.09 110V110ZM458.09 190C452.156 190 446.356 188.241 441.423 184.944C436.489 181.648 432.644 176.962 430.373 171.481C428.103 165.999 427.509 159.967 428.666 154.147C429.824 148.328 432.681 142.982 436.877 138.787C441.072 134.591 446.418 131.734 452.237 130.576C458.057 129.419 464.089 130.013 469.57 132.284C475.052 134.554 479.738 138.399 483.034 143.333C486.33 148.266 488.09 154.067 488.09 160C488.09 167.956 484.929 175.587 479.303 181.213C473.677 186.839 466.046 190 458.09 190Z" fill="#969696"/>
<path d="M218.09 130V150H278.09V170H218.09V210H198.09V110H298.09V130H218.09Z" fill="#969696"/>
<path d="M408.09 190H308.09V210H408.09V190Z" fill="#969696"/>
<path d="M328.09 110H308.09V170H328.09V110Z" fill="#969696"/>
<path d="M650 110L614.35 208.24L613.73 209.95L613.71 210H593.71L593.08 208.24L568.72 141.11V141.1L564.69 130L558.73 113.56L558.09 111.79V111.78L558.73 110.01V110H578.71L578.73 110.04L579.36 111.78L603.71 178.92L628.72 110H650Z" fill="#969696"/>
<path d="M565.01 208.24L564.37 210H544.36L543.73 208.25L508.09 110H529.37L554.37 178.92L558.39 190L564.37 206.48L565.01 208.24Z" fill="#969696"/>
</svg>
