<svg width="140" height="160" viewBox="0 0 140 160" fill="none" xmlns="http://www.w3.org/2000/svg">
<path d="M20 50V70C13.3333 66.6667 6.66667 63.3333 0 60V40C6.66667 43.3333 13.3333 46.6667 20 50Z" fill="#366CE1"/>
<path d="M140 30C133.333 33.3333 126.667 36.6667 120 40C106.667 33.3333 93.3333 26.6667 80 20L20 50C13.3333 46.6667 6.66667 43.3333 0 40L60 10C66.6667 6.66667 73.3333 3.33333 80 0C86.6667 3.33333 93.3333 6.66667 100 10C113.333 16.67 126.667 23.3367 140 30Z" fill="#366CE1"/>
<path d="M140 30V50C133.333 53.3333 126.667 56.6667 120 60V40C126.667 36.67 133.333 33.3367 140 30Z" fill="#366CE1"/>
<path d="M120 40V60C106.667 53.3333 93.3333 46.6667 80 40V20C93.3333 26.67 106.667 33.3367 120 40Z" fill="#366CE1"/>
<path opacity="0.62" d="M20 50V70C13.3333 66.6667 6.66667 63.3333 0 60V40C6.66667 43.3333 13.3333 46.6667 20 50Z" fill="#121221"/>
<path opacity="0.62" d="M120 40V60C106.667 53.3333 93.3333 46.6667 80 40V20C93.3333 26.67 106.667 33.3367 120 40Z" fill="#121221"/>
<path d="M80 80V100C73.3333 96.6667 66.6667 93.3333 60 90V160C53.3333 156.667 46.6667 153.333 40 150V60C46.6667 56.6667 53.3333 53.3333 60 50V70C66.6667 73.3333 73.3333 76.6667 80 80Z" fill="#366CE1"/>
<path opacity="0.62" d="M80 80V100C73.3333 96.6667 66.6667 93.3333 60 90V160C53.3333 156.667 46.6667 153.333 40 150V60C46.6667 56.6667 53.3333 53.3333 60 50V70C66.6667 73.3333 73.3333 76.6667 80 80Z" fill="#121221"/>
<path d="M100 70V90C93.3333 93.3333 86.6667 96.6667 80 100V80C86.6667 76.67 93.3333 73.3367 100 70Z" fill="#366CE1"/>
<path d="M80 80L100 70L80 60L60 70L80 80Z" fill="#366CE1"/>
<path d="M80 100V150C73.3333 153.333 66.6667 156.667 60 160V90C66.6667 93.3333 73.3333 96.6667 80 100Z" fill="#366CE1"/>
<path opacity="0.38" d="M140 30V50C133.333 53.3333 126.667 56.6667 120 60V40C126.667 36.67 133.333 33.3367 140 30Z" fill="#121221"/>
<path d="M80 20V60C73.3333 63.3333 66.6667 66.6667 60 70V50C53.3333 53.3333 46.6667 56.6667 40 60C33.3333 63.3333 26.6667 66.6667 20 70V50L80 20Z" fill="#366CE1"/>
<path opacity="0.38" d="M80 20V60C73.3333 63.3333 66.6667 66.6667 60 70V50C53.3333 53.3333 46.6667 56.6667 40 60C33.3333 63.3333 26.6667 66.6667 20 70V50L80 20Z" fill="#121221"/>
<path opacity="0.38" d="M100 70V90C93.3333 93.3333 86.6667 96.6667 80 100V80C86.6667 76.67 93.3333 73.3367 100 70Z" fill="#121221"/>
<path opacity="0.38" d="M80 100V150C73.3333 153.333 66.6667 156.667 60 160V90C66.6667 93.3333 73.3333 96.6667 80 100Z" fill="#121221"/>
</svg>
