<svg width="628" height="118" viewBox="0 0 628 118" fill="none" xmlns="http://www.w3.org/2000/svg">
<path d="M43.5808 34.3916V94.9133H34.8648V91.1312C31.6285 93.2424 27.7782 94.5289 23.7462 94.8463C19.7143 95.1636 15.6602 94.4992 12.0391 92.9277C8.41803 91.3562 5.3733 88.9397 3.24669 85.9496C1.12008 82.9595 -0.00421889 79.5141 1.18965e-05 76.0001V34.3916H8.71697V76.0001C8.70188 77.4986 9.02889 78.9849 9.67915 80.3732C10.3294 81.7615 11.29 83.0242 12.5055 84.0885C13.7211 85.1528 15.1674 85.9976 16.7611 86.5741C18.3548 87.1506 20.0643 87.4474 21.7909 87.4474C23.5174 87.4474 25.2269 87.1506 26.8206 86.5741C28.4143 85.9976 29.8607 85.1528 31.0762 84.0885C32.2918 83.0242 33.2524 81.7615 33.9026 80.3732C34.5529 78.9849 34.8799 77.4986 34.8648 76.0001V34.3916H43.5808Z" fill="black"/>
<path d="M52.2969 94.9135V34.3918H61.0128V38.1722C64.2493 36.0609 68.0997 34.7744 72.1319 34.4571C76.164 34.1398 80.2183 34.8044 83.8394 36.3761C87.4606 37.9478 90.5053 40.3645 92.6317 43.3549C94.7582 46.3453 95.8822 49.7909 95.8776 53.305V94.9135H87.1617V53.305C87.1617 50.2953 85.7842 47.4089 83.3322 45.2807C80.8803 43.1525 77.5548 41.9569 74.0872 41.9569C70.6197 41.9569 67.2942 43.1525 64.8422 45.2807C62.3903 47.4089 61.0128 50.2953 61.0128 53.305V94.9135H52.2969Z" fill="black"/>
<path d="M478.827 94.5663V34.0446H487.543V37.8267C490.779 35.7154 494.629 34.4289 498.661 34.1115C502.693 33.7941 506.747 34.4584 510.368 36.0298C513.989 37.6013 517.034 40.0176 519.16 43.0077C521.287 45.9977 522.411 49.4431 522.407 52.9569V94.5663H513.689V52.9569C513.659 49.9645 512.268 47.1036 509.82 44.9968C507.371 42.8901 504.063 41.7081 500.615 41.7081C497.167 41.7081 493.859 42.8901 491.411 44.9968C488.962 47.1036 487.571 49.9645 487.541 52.9569V94.5663H478.827Z" fill="black"/>
<path d="M113.31 57.0879H104.594V94.9143H113.31V57.0879Z" fill="black"/>
<path d="M130.741 76.0004C130.741 79.0101 132.119 81.8966 134.571 84.0247C137.023 86.1529 140.348 87.3485 143.816 87.3485C147.283 87.3485 150.609 86.1529 153.061 84.0247C155.513 81.8966 156.89 79.0101 156.89 76.0004H165.606C165.606 81.0165 163.31 85.8272 159.224 89.3741C155.137 92.921 149.595 94.9136 143.816 94.9136C138.037 94.9136 132.494 92.921 128.408 89.3741C124.321 85.8272 122.025 81.0165 122.025 76.0004V19.2617H130.741V34.3919H165.606V41.957H130.741V76.0004Z" fill="black"/>
<path d="M539.84 75.6536C539.87 78.646 541.261 81.507 543.709 83.6137C546.158 85.7205 549.466 86.9025 552.914 86.9025C556.362 86.9025 559.67 85.7205 562.118 83.6137C564.567 81.507 565.958 78.646 565.988 75.6536H574.704C574.704 80.6697 572.408 85.4804 568.322 89.0273C564.235 92.5742 558.693 94.5668 552.913 94.5668C547.134 94.5668 541.592 92.5742 537.505 89.0273C533.419 85.4804 531.123 80.6697 531.123 75.6536V18.9141H539.84V34.0451H574.704V41.6102H539.84V75.6536Z" fill="black"/>
<path d="M453.113 3.78299H452.678V0C452.677 1.27048 452.823 2.53783 453.113 3.78299V3.78299Z" fill="black"/>
<path d="M356.801 37.8264C353.564 35.7179 349.715 34.4337 345.684 34.1177C341.653 33.8017 337.6 34.4664 333.981 36.0374C330.361 37.6083 327.316 40.0234 325.189 43.0118C323.062 46.0002 321.935 49.4438 321.937 52.9566V75.6528C321.935 79.1656 323.062 82.6092 325.189 85.5976C327.316 88.586 330.361 91.0011 333.981 92.572C337.6 94.143 341.653 94.8077 345.684 94.4917C349.715 94.1757 353.564 92.8915 356.801 90.783V94.566H365.517V52.9566C365.52 50.0201 364.734 47.1235 363.22 44.497C361.707 41.8705 359.51 39.5865 356.801 37.8264ZM356.801 75.6528C356.771 78.6452 355.38 81.5061 352.932 83.6129C350.483 85.7196 347.175 86.9017 343.727 86.9017C340.28 86.9017 336.971 85.7196 334.523 83.6129C332.074 81.5061 330.684 78.6452 330.653 75.6528V52.9566C330.684 49.9642 332.074 47.1033 334.523 44.9965C336.971 42.8898 340.28 41.7077 343.727 41.7077C347.175 41.7077 350.483 42.8898 352.932 44.9965C355.38 47.1033 356.771 49.9642 356.801 52.9566V75.6528Z" fill="black"/>
<path d="M261.483 19.2617V38.1723C258.247 36.061 254.397 34.7745 250.365 34.457C246.333 34.1396 242.279 34.8039 238.658 36.3754C235.037 37.9468 231.992 40.3632 229.866 43.3533C227.739 46.3433 226.615 49.7887 226.619 53.3025V76.0004C226.618 79.5132 227.744 82.9567 229.871 85.9451C231.999 88.9335 235.043 91.3486 238.662 92.9196C242.282 94.4906 246.335 95.1555 250.365 94.8396C254.396 94.5238 258.246 93.2398 261.483 91.1315V94.9136H270.199V19.2617H261.483ZM248.409 87.3485C244.942 87.3476 241.617 86.1517 239.166 84.0237C236.714 81.8958 235.336 79.0099 235.335 76.0004V53.3051C235.32 51.8066 235.647 50.3203 236.297 48.932C236.948 47.5438 237.908 46.281 239.124 45.2168C240.339 44.1525 241.786 43.3077 243.379 42.7312C244.973 42.1546 246.682 41.8578 248.409 41.8578C250.136 41.8578 251.845 42.1546 253.439 42.7312C255.032 43.3077 256.479 44.1525 257.694 45.2168C258.91 46.281 259.87 47.5438 260.521 48.932C261.171 50.3203 261.498 51.8066 261.483 53.3051V76.0004C261.482 79.0097 260.104 81.8955 257.653 84.0234C255.201 86.1514 251.877 87.3474 248.409 87.3485V87.3485Z" fill="black"/>
<path d="M217.903 72.2183V53.3077C217.903 48.2916 215.607 43.481 211.521 39.9341C207.434 36.3872 201.892 34.3945 196.113 34.3945C190.333 34.3945 184.791 36.3872 180.704 39.9341C176.618 43.481 174.322 48.2916 174.322 53.3077V76.0004C174.322 81.0165 176.618 85.8272 180.704 89.3741C184.791 92.921 190.333 94.9136 196.113 94.9136C201.892 94.9136 207.434 92.921 211.521 89.3741C215.607 85.8272 217.903 81.0165 217.903 76.0004H209.186C209.201 77.499 208.874 78.9853 208.224 80.3735C207.574 81.7618 206.613 83.0245 205.397 84.0888C204.182 85.1531 202.736 85.9979 201.142 86.5744C199.548 87.1509 197.839 87.4477 196.112 87.4477C194.386 87.4477 192.676 87.1509 191.082 86.5744C189.489 85.9979 188.042 85.1531 186.827 84.0888C185.611 83.0245 184.651 81.7618 184 80.3735C183.35 78.9853 183.023 77.499 183.038 76.0004V72.2183H217.903ZM183.038 53.3077C183.023 51.8092 183.35 50.3229 184 48.9346C184.651 47.5464 185.611 46.2836 186.827 45.2194C188.042 44.1551 189.489 43.3103 191.082 42.7338C192.676 42.1572 194.386 41.8604 196.112 41.8604C197.839 41.8604 199.548 42.1572 201.142 42.7338C202.736 43.3103 204.182 44.1551 205.397 45.2194C206.613 46.2836 207.574 47.5464 208.224 48.9346C208.874 50.3229 209.201 51.8092 209.186 53.3077V64.6532H183.038V53.3077Z" fill="black"/>
<path d="M470.114 71.8707V52.9601C470.114 47.944 467.818 43.1333 463.732 39.5864C459.645 36.0395 454.103 34.0469 448.324 34.0469C442.544 34.0469 437.002 36.0395 432.915 39.5864C428.829 43.1333 426.533 47.944 426.533 52.9601V75.6536C426.533 80.6697 428.829 85.4804 432.915 89.0273C437.002 92.5742 442.544 94.5669 448.324 94.5669C454.103 94.5669 459.645 92.5742 463.732 89.0273C467.818 85.4804 470.114 80.6697 470.114 75.6536H461.397C461.367 78.646 459.976 81.507 457.528 83.6137C455.079 85.7205 451.771 86.9025 448.323 86.9025C444.875 86.9025 441.567 85.7205 439.119 83.6137C436.67 81.507 435.279 78.646 435.249 75.6536V71.8707H470.114ZM435.249 52.9601C435.279 49.9677 436.67 47.1067 439.119 45C441.567 42.8932 444.875 41.7112 448.323 41.7112C451.771 41.7112 455.079 42.8932 457.528 45C459.976 47.1067 461.367 49.9677 461.397 52.9601V64.3082H435.246L435.249 52.9601Z" fill="black"/>
<path d="M409.098 34.0443V37.8264C405.861 35.7179 402.011 34.4337 397.981 34.1177C393.95 33.8017 389.897 34.4664 386.277 36.0374C382.657 37.6083 379.613 40.0234 377.486 43.0118C375.359 46.0002 374.232 49.4438 374.233 52.9566V75.6528C374.232 78.971 375.237 82.2311 377.146 85.1057C379.056 87.9803 381.803 90.3682 385.113 92.0295C388.422 93.6908 392.177 94.5671 396 94.5703C399.823 94.5735 403.579 93.7035 406.892 92.0478C407.655 91.6631 408.391 91.2414 409.098 90.7847V98.3498C409.098 99.8401 408.76 101.316 408.103 102.693C407.446 104.069 406.483 105.32 405.269 106.374C404.055 107.428 402.613 108.264 401.027 108.834C399.441 109.404 397.741 109.698 396.024 109.698C394.307 109.698 392.607 109.404 391.02 108.834C389.434 108.264 387.993 107.428 386.779 106.374C385.565 105.32 384.602 104.069 383.945 102.693C383.288 101.316 382.949 99.8401 382.949 98.3498H374.233C374.233 103.366 376.529 108.177 380.616 111.723C384.702 115.27 390.245 117.263 396.024 117.263C401.803 117.263 407.345 115.27 411.432 111.723C415.518 108.177 417.814 103.366 417.814 98.3498V34.0443H409.098ZM409.098 75.6528C409.098 78.6625 407.721 81.5489 405.269 83.6771C402.817 85.8053 399.491 87.0009 396.024 87.0009C392.556 87.0009 389.231 85.8053 386.779 83.6771C384.327 81.5489 382.949 78.6625 382.949 75.6528V52.9566C382.949 49.9469 384.327 47.0605 386.779 44.9323C389.231 42.8041 392.556 41.6085 396.024 41.6085C399.491 41.6085 402.817 42.8041 405.269 44.9323C407.721 47.0605 409.098 49.9469 409.098 52.9566V75.6528Z" fill="black"/>
<path d="M592.135 51.0663C592.137 53.5736 593.285 55.978 595.327 57.7509C597.37 59.5239 600.14 60.5204 603.029 60.5216H607.386C612.399 60.5204 617.223 62.1856 620.865 65.175C624.508 68.1644 626.693 72.2511 626.972 76.5954C627.251 80.9398 625.602 85.212 622.365 88.5343C619.128 91.8565 614.548 93.9767 609.566 94.4592C608.842 94.5295 608.115 94.5651 607.386 94.5659H583.419V86.9999H607.388C610.278 86.9999 613.048 86.0037 615.091 84.2305C617.134 82.4573 618.282 80.0523 618.282 77.5446C618.282 75.0369 617.134 72.6319 615.091 70.8587C613.048 69.0855 610.278 68.0893 607.388 68.0893H603.031C598.018 68.0902 593.195 66.4249 589.553 63.4354C585.91 60.4459 583.725 56.3593 583.446 52.015C583.168 47.6707 584.816 43.3987 588.053 40.0765C591.29 36.7543 595.87 34.6342 600.852 34.1517C601.576 34.0817 602.303 34.0464 603.031 34.0459H627V41.611H603.031C600.142 41.6117 597.371 42.608 595.328 44.381C593.285 46.1541 592.137 48.5587 592.135 51.0663V51.0663Z" fill="black"/>
<path d="M603.031 34.0449C602.303 34.0454 601.576 34.0807 600.853 34.1508V34.0449H603.031Z" fill="black"/>
<path d="M109.031 34.3965L111.942 39.5171L118.451 40.3377L113.741 44.3237L114.854 49.9509L109.031 47.2939L103.208 49.9509L104.32 44.3237L99.6094 40.3377L106.12 39.5171L109.031 34.3965Z" fill="black"/>
</svg>
