<svg width="311" height="174" viewBox="0 0 311 174" fill="none" xmlns="http://www.w3.org/2000/svg">
<path d="M150.093 173.492H130.104C122.853 171.761 116.062 168.814 110.116 164.817C106.383 162.297 103.025 159.383 100.122 156.143C96.424 159.559 82.532 171.565 60.145 173.492C54.7032 173.96 36.2029 175.552 20.1682 164.817C-2.47069 149.662 -0.0420931 123.43 0.179778 121.444V0H50.1508V104.095C50.1928 105.432 50.6975 115.309 60.145 121.444C64.4962 124.205 69.7464 125.693 75.1363 125.693C80.5262 125.693 85.7764 124.205 90.1276 121.444C99.5741 115.309 100.079 105.432 100.122 104.095V0H150.093V173.492Z" fill="black"/>
<path d="M310.306 173.637H290.317C283.066 171.906 276.275 168.959 270.329 164.963C266.596 162.442 263.239 159.528 260.335 156.288C256.637 159.703 242.745 171.711 220.358 173.637C214.917 174.105 196.417 175.697 180.381 164.963C159.336 150.873 160.166 126.48 160.319 123.42C161.863 92.5272 197.557 59.5942 240.041 60.7219C269.683 61.5095 296.883 78.7303 310.127 104.241L260.029 104.095C259.984 102.746 259.476 92.9861 250.162 86.8914C245.814 84.1221 240.563 82.6289 235.17 82.6289C229.778 82.6289 224.526 84.1221 220.179 86.8914C210.527 93.1674 210.361 103.276 210.364 104.241C210.364 105.157 210.629 115.27 220.358 121.59C224.702 124.366 229.955 125.863 235.349 125.863C240.744 125.863 245.997 124.366 250.341 121.59C259.73 115.379 260.016 105.396 260.029 104.095C263.966 99.5381 266.831 94.353 268.46 88.8354C270.088 83.3178 270.449 77.5758 269.521 71.9372C268.593 66.2986 266.394 60.8739 263.051 55.9728C259.707 51.0717 255.285 46.7902 250.035 43.3727C244.785 39.9552 238.811 37.4687 232.454 36.0551C226.097 34.6415 219.482 34.3285 212.985 35.1341C206.489 35.9396 200.239 37.8478 194.592 40.7498C188.946 43.6517 184.013 47.4906 180.075 52.0473L160.087 34.6981C161.314 32.9372 185.125 0.113435 230.173 0.145531C261.575 0.167218 287.777 16.0478 300.006 34.6981C306.826 45.2895 310.275 57.2655 310 69.3965L310.306 173.637Z" fill="black"/>
</svg>
