<svg width="722" height="146" viewBox="0 0 722 146" fill="none" xmlns="http://www.w3.org/2000/svg">
<path d="M721.237 72.9959V87.5169H692.619L692.612 87.4949L678.033 38.8939L663.447 87.5169H648.86L634.274 38.8939L630.628 51.0519L608.748 123.982H594.162L579.576 75.3589L564.99 123.982H550.404L532.886 65.5789H514.5V51.0519H543.111L543.125 51.1029L557.697 99.6739L572.283 51.0519H586.869L601.455 99.6739L605.102 87.5169L626.981 14.5859H641.567L656.153 63.2089L670.74 14.5859H685.326L702.851 72.9959H721.237Z" fill="black"/>
<path d="M133.844 102.818V102.869L133.83 102.818H133.844Z" fill="black"/>
<path d="M283.338 139.283H283.331V139.261L283.338 139.283Z" fill="black"/>
<path d="M84.8199 29.1719C81.2138 29.1719 77.6886 30.2412 74.6902 32.2447C71.6918 34.2482 69.3548 37.0958 67.9748 40.4274C66.5948 43.7591 66.2337 47.4251 66.9373 50.962C67.6408 54.4988 69.3773 57.7476 71.9272 60.2976C74.4772 62.8475 77.726 64.584 81.2628 65.2875C84.7997 65.9911 88.4657 65.63 91.7974 64.25C95.129 62.87 97.9766 60.533 99.9801 57.5346C101.984 54.5362 103.053 51.011 103.053 47.4049C103.053 45.0104 102.582 42.6392 101.666 40.4269C100.75 38.2146 99.4066 36.2045 97.7135 34.5113C96.0203 32.8181 94.0102 31.4751 91.7979 30.559C89.5856 29.6428 87.2144 29.1715 84.8199 29.1719V29.1719ZM84.8199 58.3449C82.6562 58.3449 80.5411 57.7033 78.742 56.5012C76.9429 55.299 75.5407 53.5905 74.7127 51.5914C73.8847 49.5924 73.668 47.3927 74.0901 45.2706C74.5122 43.1484 75.5542 41.1991 77.0842 39.6691C78.6142 38.1391 80.5635 37.0972 82.6856 36.6751C84.8078 36.253 87.0075 36.4696 89.0065 37.2976C91.0055 38.1257 92.7141 39.5279 93.9162 41.3269C95.1183 43.126 95.7599 45.2411 95.7599 47.4049C95.7589 50.306 94.6059 53.088 92.5545 55.1395C90.5031 57.1909 87.7211 58.3438 84.8199 58.3449Z" fill="black"/>
<path d="M227.035 72.9317V76.5777C224.326 74.5461 221.105 73.3089 217.733 73.0049C214.36 72.7008 210.97 73.3418 207.941 74.8561C204.913 76.3704 202.366 78.6982 200.585 81.5786C198.805 84.4589 197.862 87.7781 197.862 91.1642C197.862 94.5503 198.805 97.8694 200.585 100.75C202.366 103.63 204.913 105.958 207.941 107.472C210.97 108.987 214.36 109.628 217.733 109.324C221.105 109.019 224.326 107.782 227.035 105.751V127.63C227.007 130.513 225.843 133.269 223.794 135.298C221.746 137.327 218.979 138.465 216.095 138.465C213.212 138.465 210.445 137.327 208.397 135.298C206.348 133.269 205.184 130.513 205.156 127.63H197.863C197.845 130.035 198.304 132.421 199.212 134.649C200.12 136.876 201.46 138.902 203.155 140.61C204.85 142.317 206.866 143.672 209.087 144.597C211.308 145.522 213.69 145.998 216.095 145.998C218.501 145.998 220.883 145.522 223.104 144.597C225.325 143.672 227.341 142.317 229.036 140.61C230.731 138.902 232.071 136.876 232.979 134.649C233.887 132.421 234.346 130.035 234.328 127.63V72.9297L227.035 72.9317ZM216.1 102.101C213.936 102.101 211.821 101.459 210.022 100.257C208.223 99.0555 206.82 97.3469 205.992 95.3479C205.164 93.3489 204.947 91.1492 205.369 89.027C205.791 86.9048 206.833 84.9554 208.363 83.4253C209.893 81.8952 211.842 80.8532 213.964 80.431C216.087 80.0088 218.286 80.2254 220.285 81.0534C222.284 81.8813 223.993 83.2835 225.195 85.0826C226.397 86.8817 227.039 88.9969 227.039 91.1607C227.038 94.0617 225.885 96.8435 223.834 98.8949C221.783 100.946 219.001 102.099 216.1 102.101V102.101Z" fill="black"/>
<path d="M233.964 51.0524C234.896 46.4789 234.037 41.7224 231.565 37.7635C229.093 33.8047 225.196 30.9452 220.678 29.7747C216.159 28.6043 211.364 29.2121 207.281 31.4727C203.198 33.7334 200.138 37.4747 198.732 41.9252C197.325 46.3756 197.68 51.196 199.723 55.3924C201.767 59.5888 205.342 62.8413 209.712 64.4793C214.083 66.1173 218.915 66.016 223.213 64.1961C227.511 62.3763 230.947 58.9767 232.812 54.6984H224.242C222.977 56.1142 221.364 57.1759 219.564 57.779C217.763 58.3821 215.836 58.5058 213.973 58.1378C212.11 57.7698 210.375 56.9229 208.939 55.6805C207.503 54.4381 206.415 52.843 205.783 51.0524H233.964ZM216.1 36.4654C218.362 36.4657 220.568 37.1672 222.415 38.4733C224.262 39.7793 225.658 41.6258 226.412 43.7584H205.783C206.537 41.625 207.935 39.778 209.782 38.4718C211.63 37.1657 213.837 36.4647 216.1 36.4654V36.4654Z" fill="black"/>
<path d="M277.722 94.8093C278.653 90.2366 277.793 85.481 275.321 81.5231C272.849 77.5652 268.953 74.7067 264.435 73.5369C259.918 72.3671 255.124 72.9752 251.041 75.2359C246.959 77.4965 243.9 81.2374 242.494 85.6871C241.089 90.1369 241.444 94.9564 243.487 99.1519C245.53 103.347 249.105 106.599 253.475 108.237C257.844 109.874 262.676 109.772 266.973 107.953C271.27 106.133 274.705 102.734 276.57 98.4563H268C266.734 99.8721 265.122 100.934 263.321 101.537C261.52 102.14 259.594 102.263 257.731 101.895C255.868 101.527 254.133 100.68 252.697 99.4377C251.261 98.1952 250.173 96.6 249.541 94.8093H277.722ZM259.854 80.2233C262.116 80.2232 264.323 80.9246 266.169 82.2307C268.016 83.5368 269.413 85.3835 270.167 87.5163H249.542C250.296 85.3835 251.692 83.5369 253.539 82.2308C255.386 80.9247 257.592 80.2233 259.854 80.2233V80.2233Z" fill="black"/>
<path d="M183.277 0V32.819C180.568 30.7872 177.347 29.5499 173.974 29.2457C170.602 28.9415 167.211 29.5825 164.183 31.0968C161.154 32.611 158.607 34.9388 156.827 37.8192C155.046 40.6996 154.104 44.0189 154.104 47.405C154.104 50.7911 155.046 54.1104 156.827 56.9908C158.607 59.8712 161.154 62.199 164.183 63.7132C167.211 65.2275 170.602 65.8685 173.974 65.5643C177.347 65.2601 180.568 64.0228 183.277 61.991V65.638H190.57V0H183.277ZM172.337 58.345C170.173 58.345 168.058 57.7034 166.259 56.5013C164.46 55.2992 163.058 53.5906 162.23 51.5916C161.402 49.5925 161.185 47.3929 161.607 45.2707C162.029 43.1486 163.071 41.1992 164.601 39.6693C166.131 38.1393 168.08 37.0973 170.203 36.6752C172.325 36.2531 174.524 36.4697 176.523 37.2978C178.522 38.1258 180.231 39.528 181.433 41.3271C182.635 43.1261 183.277 45.2413 183.277 47.405C183.276 50.3061 182.123 53.0882 180.071 55.1396C178.02 57.191 175.238 58.3439 172.337 58.345Z" fill="black"/>
<path d="M146.812 47.4049V65.6379H139.518V47.4049C139.532 45.9595 139.259 44.5257 138.716 43.1863C138.172 41.8469 137.369 40.6286 136.351 39.6016C135.334 38.5746 134.124 37.7594 132.789 37.2031C131.455 36.6467 130.024 36.3603 128.579 36.3603C127.133 36.3603 125.702 36.6467 124.368 37.2031C123.034 37.7594 121.823 38.5746 120.806 39.6016C119.789 40.6286 118.985 41.8469 118.442 43.1863C117.898 44.5257 117.625 45.9595 117.639 47.4049V65.6379H110.346V29.1719H117.639V32.8189C120.347 30.7837 123.569 29.5435 126.942 29.2376C130.316 28.9316 133.708 29.5721 136.738 31.0869C139.768 32.6018 142.316 34.9312 144.095 37.8136C145.875 40.696 146.815 44.0174 146.812 47.4049V47.4049Z" fill="black"/>
<path d="M147.176 91.163V109.4H139.883V91.163C139.855 88.2797 138.691 85.524 136.642 83.4949C134.594 81.4658 131.827 80.3275 128.943 80.3275C126.06 80.3275 123.293 81.4658 121.245 83.4949C119.196 85.524 118.032 88.2797 118.004 91.163V109.4H110.711V72.931H118V76.577C120.708 74.5413 123.929 73.3007 127.303 72.9945C130.677 72.6883 134.069 73.3287 137.099 74.8437C140.129 76.3587 142.677 78.6883 144.456 81.571C146.235 84.4537 147.176 87.7753 147.172 91.163H147.176Z" fill="black"/>
<path d="M277.722 43.7579H270.167C269.413 41.6253 268.017 39.7789 266.17 38.4729C264.323 37.167 262.116 36.4657 259.855 36.4657C257.593 36.4657 255.386 37.167 253.539 38.4729C251.693 39.7789 250.296 41.6253 249.542 43.7579C249.125 44.9285 248.913 46.1622 248.915 47.4049V65.6379H241.622V29.1719H248.915V32.8189C251.375 30.974 254.261 29.7811 257.306 29.3511C260.351 28.9212 263.455 29.2681 266.329 30.3597C269.204 31.4513 271.756 33.252 273.748 35.5945C275.74 37.937 277.107 40.7452 277.722 43.7579V43.7579Z" fill="black"/>
<path d="M102.688 87.5166C101.899 83.6453 99.8733 80.1351 96.9169 77.5141C93.9605 74.8932 90.2328 73.3033 86.2948 72.9836C82.3569 72.664 78.4216 73.6319 75.0812 75.7418C71.7408 77.8516 69.176 80.9892 67.7726 84.6825C66.3693 88.3758 66.2034 92.425 67.2998 96.2207C68.3963 100.016 70.6958 103.353 73.8524 105.729C77.009 108.106 80.8519 109.392 84.8028 109.396C88.7537 109.399 92.5989 108.12 95.7599 105.75V109.4H103.053V91.1626C103.054 89.9381 102.932 88.7165 102.688 87.5166V87.5166ZM84.8199 102.1C82.6561 102.1 80.541 101.458 78.7419 100.256C76.9428 99.0538 75.5406 97.3452 74.7126 95.3461C73.8846 93.3471 73.6679 91.1474 74.0901 89.0253C74.5122 86.9031 75.5541 84.9538 77.0841 83.4238C78.6141 81.8938 80.5634 80.8519 82.6856 80.4298C84.8077 80.0077 87.0074 80.2243 89.0064 81.0523C91.0054 81.8804 92.714 83.2826 93.9161 85.0816C95.1182 86.8807 95.7599 88.9959 95.7599 91.1596C95.7588 94.0607 94.6058 96.8427 92.5544 98.8942C90.503 100.946 87.721 102.099 84.8199 102.1V102.1Z" fill="black"/>
<path d="M190.205 87.5166C189.416 83.6453 187.39 80.1351 184.434 77.5141C181.478 74.8932 177.75 73.3033 173.812 72.9836C169.874 72.664 165.939 73.6319 162.598 75.7418C159.258 77.8516 156.693 80.9892 155.29 84.6825C153.886 88.3758 153.72 92.425 154.817 96.2207C155.913 100.016 158.213 103.353 161.369 105.729C164.526 108.106 168.369 109.392 172.32 109.396C176.271 109.399 180.116 108.12 183.277 105.75V109.4H190.57V91.1626C190.571 89.9381 190.449 88.7165 190.205 87.5166V87.5166ZM172.337 102.1C170.173 102.1 168.058 101.458 166.259 100.256C164.46 99.0538 163.058 97.3452 162.23 95.3461C161.402 93.3471 161.185 91.1474 161.607 89.0253C162.029 86.9031 163.071 84.9538 164.601 83.4238C166.131 81.8938 168.08 80.8519 170.203 80.4298C172.325 80.0077 174.524 80.2243 176.524 81.0523C178.523 81.8804 180.231 83.2826 181.433 85.0816C182.635 86.8807 183.277 88.9959 183.277 91.1596C183.276 94.0607 182.123 96.8427 180.072 98.8942C178.02 100.946 175.238 102.099 172.337 102.1V102.1Z" fill="black"/>
<path d="M387.118 94.8093C388.049 90.2366 387.189 85.481 384.717 81.5231C382.245 77.5652 378.349 74.7067 373.831 73.5369C369.314 72.3671 364.52 72.9752 360.437 75.2359C356.355 77.4965 353.296 81.2374 351.89 85.6871C350.485 90.1369 350.84 94.9564 352.883 99.1519C354.926 103.347 358.501 106.599 362.871 108.237C367.24 109.874 372.072 109.772 376.369 107.953C380.666 106.133 384.101 102.734 385.966 98.4563H377.4C376.134 99.8721 374.522 100.934 372.721 101.537C370.92 102.14 368.994 102.263 367.131 101.895C365.268 101.527 363.533 100.68 362.097 99.4377C360.661 98.1952 359.573 96.6 358.941 94.8093H387.118ZM369.25 80.2233C371.512 80.2232 373.718 80.9246 375.565 82.2307C377.412 83.5368 378.809 85.3835 379.563 87.5163H358.938C359.691 85.3835 361.088 83.5369 362.935 82.2308C364.782 80.9247 366.988 80.2233 369.25 80.2233V80.2233Z" fill="black"/>
<path d="M431.242 91.1637V109.401H423.948V91.1637C423.92 88.2804 422.756 85.5247 420.707 83.4956C418.658 81.4665 415.892 80.3282 413.008 80.3282C410.125 80.3282 407.358 81.4665 405.31 83.4956C403.261 85.5247 402.096 88.2804 402.069 91.1637V109.401H394.776V72.9317H402.069V76.5777C404.777 74.5425 407.998 73.3023 411.372 72.9964C414.746 72.6904 418.138 73.3308 421.168 74.8457C424.198 76.3606 426.745 78.69 428.525 81.5724C430.304 84.4548 431.245 87.7762 431.242 91.1637V91.1637Z" fill="black"/>
<path d="M343.725 91.1625V109.4H336.432V91.1625C336.432 89.1815 335.895 87.2376 334.877 85.5383C333.859 83.839 332.398 82.4482 330.651 81.5144C328.904 80.5806 326.936 80.139 324.957 80.2366C322.979 80.3341 321.064 80.9673 319.417 82.0685C318.989 82.3559 318.582 82.6727 318.199 83.0165V109.4H310.906V83.0165C310.522 82.6727 310.115 82.3559 309.688 82.0685C308.041 80.9673 306.126 80.3341 304.148 80.2366C302.169 80.139 300.201 80.5806 298.454 81.5144C296.707 82.4482 295.246 83.839 294.228 85.5383C293.21 87.2376 292.672 89.1815 292.673 91.1625V109.4H285.38V72.9305H292.673V76.5765C295.827 74.2045 299.666 72.9219 303.612 72.9219C307.559 72.9219 311.398 74.2045 314.552 76.5765C317.705 74.2041 321.546 72.9241 325.492 72.9305C327.887 72.928 330.259 73.3979 332.472 74.3132C334.685 75.2286 336.696 76.5714 338.39 78.2649C340.083 79.9584 341.426 81.9693 342.342 84.1824C343.257 86.3955 343.727 88.7675 343.725 91.1625Z" fill="black"/>
<path d="M445.828 91.1629C445.814 92.6083 446.087 94.0421 446.631 95.3815C447.174 96.7208 447.978 97.9392 448.995 98.9662C450.012 99.9931 451.223 100.808 452.557 101.365C453.891 101.921 455.322 102.207 456.768 102.207C458.213 102.207 459.644 101.921 460.978 101.365C462.313 100.808 463.523 99.9931 464.54 98.9662C465.558 97.9392 466.361 96.7208 466.905 95.3815C467.448 94.0421 467.721 92.6083 467.707 91.1629H475C475.018 93.5686 474.56 95.954 473.651 98.1817C472.743 100.409 471.403 102.435 469.708 104.143C468.013 105.85 465.997 107.205 463.776 108.13C461.555 109.055 459.173 109.531 456.768 109.531C454.362 109.531 451.98 109.055 449.759 108.13C447.538 107.205 445.522 105.85 443.827 104.143C442.133 102.435 440.792 100.409 439.884 98.1817C438.976 95.954 438.517 93.5686 438.535 91.1629V36.4629H445.828V58.3429H475V65.6359H445.828V91.1629Z" fill="black"/>
<path d="M58.93 29.1719V47.4049C58.9301 50.7909 57.9874 54.1102 56.2073 56.9906C54.4272 59.871 51.8801 62.1988 48.8516 63.7131C45.823 65.2274 42.4325 65.8683 39.0601 65.5642C35.6878 65.26 32.4667 64.0227 29.758 61.9909C27.05 64.0261 23.8284 65.2662 20.4548 65.5722C17.0812 65.8781 13.689 65.2377 10.6592 63.7228C7.62929 62.2079 5.0816 59.8785 3.30209 56.9961C1.52257 54.1137 0.581667 50.7923 0.58497 47.4049V29.1719H7.87797V47.4049C7.87441 49.5183 8.48372 51.5873 9.63212 53.3615C10.7805 55.1356 12.4187 56.5387 14.3483 57.4008C16.2778 58.2628 18.416 58.5469 20.5037 58.2186C22.5914 57.8903 24.5391 56.9636 26.111 55.5509V29.1719H33.4V55.5509C33.7832 55.895 34.1903 56.2118 34.618 56.4989C36.2646 57.6004 38.1796 58.2339 40.1583 58.3317C42.137 58.4294 44.1051 57.9878 45.8524 57.054C47.5996 56.1201 49.0603 54.7292 50.0785 53.0297C51.0966 51.3302 51.6339 49.386 51.633 47.4049V29.1719H58.93Z" fill="black"/>
<path d="M0 110V91.7672C0.000185692 88.3813 0.943183 85.0623 2.72334 82.1821C4.5035 79.3019 7.05049 76.9743 10.0789 75.4601C13.1074 73.9458 16.4977 73.3048 19.8699 73.6088C23.2422 73.9128 26.4632 75.1498 29.172 77.1812C31.8799 75.146 35.1015 73.9058 38.4752 73.5999C41.8488 73.2939 45.2409 73.9344 48.2708 75.4493C51.3007 76.9641 53.8484 79.2935 55.6279 82.1759C57.4074 85.0583 58.3483 88.3797 58.345 91.7672V110H51.052V91.7672C51.0526 89.7862 50.5151 87.8422 49.4969 86.1429C48.4786 84.4436 47.018 83.0528 45.2709 82.1191C43.5238 81.1853 41.5558 80.7436 39.5772 80.8412C37.5987 80.9388 35.6837 81.572 34.037 82.6732C33.6095 82.9605 33.2025 83.2773 32.819 83.6212V110H25.526V83.6212C25.1425 83.2773 24.7355 82.9605 24.308 82.6732C22.6613 81.572 20.7463 80.9388 18.7677 80.8412C16.7892 80.7436 14.8212 81.1853 13.0741 82.1191C11.327 83.0528 9.86634 84.4436 8.84813 86.1429C7.82992 87.8422 7.29241 89.7862 7.293 91.7672V110H0Z" fill="black"/>
</svg>
