<?xml version="1.0" encoding="utf-8"?>
<!-- Generator: Adobe Illustrator 25.2.3, SVG Export Plug-In . SVG Version: 6.00 Build 0)  -->
<svg version="1.1" xmlns="http://www.w3.org/2000/svg" xmlns:xlink="http://www.w3.org/1999/xlink" x="0px" y="0px"
	 viewBox="0 0 1366 768" style="enable-background:new 0 0 1366 768;" xml:space="preserve">
<style type="text/css">
	.st0{display:none;}
	.st1{display:inline;}
</style>
<g id="Layer_1" class="st0">
	<g class="st1">
		<g>
			<path d="M267.38-173.06c1.93,0,1.93-3,0-3C265.44-176.06,265.44-173.06,267.38-173.06L267.38-173.06z"/>
		</g>
	</g>
	<g class="st1">
		<g>
			<g>
				<path d="M419.14,218.58c-0.3,24.55-2.1,49.08-5.36,73.41c0.18-1.33,0.36-2.66,0.54-3.99c-2.8,20.71-6.65,41.28-11.56,61.6
					c-4.91,20.32-10.86,40.38-17.83,60.08c-3.93,11.09-8.19,22.07-12.75,32.92c0.5-1.19,1.01-2.39,1.51-3.58
					c-8.78,20.79-18.56,41.28-30.86,60.25c-3.46,5.33-7.13,10.53-11.01,15.56c0.78-1.01,1.56-2.02,2.35-3.04
					c-5.42,7-11.12,14.06-18.13,19.54c1.01-0.78,2.02-1.56,3.04-2.35c-2.79,2.13-5.75,4-8.97,5.41c1.19-0.5,2.39-1.01,3.58-1.51
					c-2.13,0.89-4.31,1.56-6.6,1.9c1.33-0.18,2.66-0.36,3.99-0.54c-1.74,0.22-3.45,0.23-5.19-0.01c1.33,0.18,2.66,0.36,3.99,0.54
					c-1.44-0.23-2.81-0.63-4.16-1.18c1.19,0.5,2.39,1.01,3.58,1.51c-1.34-0.6-2.58-1.34-3.75-2.23c1.01,0.78,2.02,1.56,3.04,2.35
					c-1.24-1-2.33-2.11-3.33-3.35c0.78,1.01,1.56,2.02,2.35,3.04c-1.69-2.19-3-4.61-4.09-7.15c0.5,1.19,1.01,2.39,1.51,3.58
					c-2.12-5.1-3.49-10.52-4.74-15.89c-1.29-5.54-2.3-11.15-3.07-16.79c0.18,1.33,0.36,2.66,0.54,3.99
					c-2.31-17.35-2.15-34.94,0.17-52.29c-0.18,1.33-0.36,2.66-0.54,3.99c2.67-19.59,8.04-38.73,15.7-56.94
					c-0.5,1.19-1.01,2.39-1.51,3.58c8-18.93,18.42-36.78,30.96-53.05c-0.78,1.01-1.56,2.02-2.35,3.04
					c11.05-14.27,23.63-27.32,37.31-39.08c3.93-3.38,7.96-6.65,12.07-9.82c-1.01,0.78-2.02,1.56-3.04,2.35
					c18.13-13.96,37.79-25.86,58.38-35.82c5.83-2.82,11.73-5.48,17.7-8c-1.19,0.5-2.39,1.01-3.58,1.51
					c16.01-6.74,32.46-12.41,49.19-17.08c3.64-1.02,7.05-3.63,8.96-6.89c1.88-3.22,2.68-7.95,1.51-11.56
					c-2.5-7.71-10.35-12.74-18.45-10.48c-25.73,7.18-50.87,16.76-74.77,28.71c-23.81,11.91-46.17,26.54-66.57,43.66
					c-20.26,17-38.19,36.89-52.74,59c-14.56,22.14-25.69,46.92-32.45,72.55c-6.73,25.49-9.4,52.49-6.44,78.74
					c0.84,7.41,1.93,14.81,3.51,22.11c1.32,6.07,2.79,12.23,5.13,18c1.53,3.77,3.07,7.52,5.5,10.81c3.1,4.2,6.39,7.79,10.98,10.44
					c8.07,4.67,18.11,5.51,26.94,2.59c14.84-4.9,25.61-16.38,35-28.33c9.28-11.8,17.55-24.22,24.81-37.36
					c6.77-12.27,12.75-24.96,18.31-37.81c6.23-14.42,12.04-29.01,17.22-43.83c9.67-27.68,17.33-56.06,22.91-84.84
					c5.79-29.88,9.5-60.24,10.94-90.64c0.34-7.09,0.54-14.19,0.63-21.3c0.05-3.82-1.71-7.92-4.39-10.61
					c-2.6-2.6-6.87-4.56-10.61-4.39C425.93,203.95,419.24,210.17,419.14,218.58L419.14,218.58z"/>
			</g>
		</g>
		<g>
			<g>
				<path d="M498.94,226.73c-3.65,18.99-7.49,37.94-11.51,56.85c-4,18.82-8.19,37.6-12.57,56.34c-4.4,18.83-8.98,37.62-13.74,56.35
					c-4.77,18.74-9.72,37.43-14.86,56.07c-5.11,18.55-10.41,37.05-15.88,55.5c-0.69,2.34-1.39,4.68-2.09,7.02
					c-1.1,3.68-0.41,8.27,1.51,11.56c1.82,3.11,5.39,6.08,8.96,6.89c3.84,0.87,8.15,0.69,11.56-1.51c3.33-2.15,5.74-5.12,6.89-8.96
					c5.55-18.52,10.91-37.1,16.09-55.73c5.16-18.54,10.13-37.13,14.92-55.76c4.81-18.73,9.44-37.5,13.88-56.32
					c4.44-18.82,8.7-37.68,12.77-56.58c4.05-18.81,7.91-37.66,11.59-56.55c0.47-2.4,0.93-4.79,1.39-7.19
					c0.77-4.01,0.61-7.94-1.51-11.56c-1.82-3.11-5.39-6.08-8.96-6.89c-3.84-0.87-8.15-0.69-11.56,1.51
					C502.7,219.78,499.68,222.92,498.94,226.73L498.94,226.73z"/>
			</g>
		</g>
		<g>
			<g>
				<path d="M1025.99,417.92c5.49-21.52,10.98-43.04,16.47-64.56c1.56-6.1,3.11-12.21,4.67-18.31c1.33-5.22-0.02-10.76-3.86-14.59
					c-3.6-3.6-9.62-5.57-14.59-3.86c-9.49,3.28-19.28,5.6-29.23,6.97c1.33-0.18,2.66-0.36,3.99-0.54
					c-9.95,1.33-20.01,1.7-30.03,1.07c1.33,9.82,2.66,19.64,3.99,29.46c11.8-4.59,24.21-7.31,36.73-9.02
					c-1.33,0.18-2.66,0.36-3.99,0.54c21.73-2.91,43.71-2.92,65.53-4.95c1.51-0.14,3.02-0.29,4.53-0.45c4.1-0.45,6.59-0.8,10.26-2.79
					c8.14-4.4,12.63-15.6,7.06-23.81c-2.21-3.26-5.08-5.82-8.96-6.89c-3.59-0.99-8.37-0.54-11.56,1.51
					c-3.2,2.06-6.02,5.14-6.89,8.96c-0.86,3.79-0.75,8.23,1.51,11.56c0.12,0.15,0.21,0.31,0.28,0.49c-0.5-1.19-1.01-2.39-1.51-3.58
					c0.02,0.08,0.04,0.16,0.06,0.25c-0.18-1.33-0.36-2.66-0.54-3.99c0.03,0.16,0.02,0.32-0.01,0.49c0.18-1.33,0.36-2.66,0.54-3.99
					c-0.02,0.08-0.04,0.16-0.07,0.24c0.5-1.19,1.01-2.39,1.51-3.58c-0.12,0.26-0.24,0.46-0.42,0.68c0.78-1.01,1.56-2.02,2.35-3.04
					c-0.21,0.23-0.43,0.42-0.67,0.62c1.01-0.78,2.02-1.56,3.04-2.35c-0.37,0.26-0.75,0.47-1.17,0.67c1.19-0.5,2.39-1.01,3.58-1.51
					c-0.63,0.26-1.25,0.45-1.93,0.54c1.33-0.18,2.66-0.36,3.99-0.54c-29.41,3.18-59.2,2.29-88.29,8.31
					c-7.81,1.62-15.5,3.79-22.94,6.69c-1.95,0.46-3.65,1.36-5.1,2.68c-1.63,1.06-2.92,2.46-3.86,4.21c-0.5,1.19-1.01,2.39-1.51,3.58
					c-0.63,1.99-0.71,3.99-0.27,5.98c0,1.35,0.35,2.62,1.02,3.79c0.6,1.86,1.64,3.47,3.1,4.83c1.01,0.78,2.02,1.56,3.04,2.35
					c2.34,1.36,4.86,2.04,7.57,2.05c16.85,1.05,34.03-0.67,50.4-4.76c4.34-1.08,8.62-2.36,12.84-3.82
					c-6.15-6.15-12.3-12.3-18.45-18.45c-5.49,21.52-10.98,43.04-16.47,64.56c-1.56,6.1-3.11,12.21-4.67,18.31
					c-0.97,3.82-0.49,8.14,1.51,11.56c1.82,3.11,5.39,6.08,8.96,6.89c3.84,0.87,8.15,0.69,11.56-1.51
					C1022.35,424.78,1025.01,421.75,1025.99,417.92L1025.99,417.92z"/>
			</g>
		</g>
		<g>
			<g>
				<path d="M1039.48,240.33c-0.38,0.03-0.75,0.02-1.13-0.02c1.33,0.18,2.66,0.36,3.99,0.54c-0.46-0.08-0.89-0.21-1.33-0.38
					c1.19,0.5,2.39,1.01,3.58,1.51c-0.9-0.4-1.69-0.95-2.47-1.55c1.01,0.78,2.02,1.56,3.04,2.35c-3.72-2.93-7.02-5.93-11.69-7.25
					c-6.1-1.72-12.77-0.37-17.91,3.27c-4.04,2.86-7.18,5.96-9.81,10.21c-1.84,2.98-3.29,6.43-4,9.87
					c-1.71,8.27-0.96,16.96,3.43,24.34c4.46,7.5,11.72,12.57,19.92,15.24c7.19,2.35,15.35,2.27,22.64,0.48
					c6.92-1.7,13.51-5.17,19.16-9.47c6.63-5.05,12.8-10.4,17.4-17.45c5.42-8.3,7.44-19.97,1.79-28.72
					c-3.34-5.16-8.35-9.17-14.41-10.63c-5.05-1.21-10.58-1.14-15.55,0.42c-5.53,1.74-9.72,4.65-14.15,8.29
					c-2.71,2.22-5.18,4.71-7.94,6.87c1.01-0.78,2.02-1.56,3.04-2.35c-0.33,0.25-0.67,0.5-1.01,0.75c-1.75,0.94-3.15,2.23-4.21,3.86
					c-1.33,1.45-2.22,3.15-2.68,5.1c-0.99,3.59-0.54,8.37,1.51,11.56c2.06,3.2,5.14,6.02,8.96,6.89c3.71,0.85,8.35,0.82,11.56-1.51
					c2.74-1.99,5.37-4.1,7.88-6.36c1.66-1.5,3.31-3.01,5.08-4.39c-1.01,0.78-2.02,1.56-3.04,2.35c1.55-1.19,3.17-2.27,4.96-3.06
					c-1.19,0.5-2.39,1.01-3.58,1.51c1.37-0.57,2.77-0.97,4.24-1.19c-1.33,0.18-2.66,0.36-3.99,0.54c1.22-0.16,2.43-0.18,3.65-0.05
					c-1.33-0.18-2.66-0.36-3.99-0.54c0.96,0.13,1.88,0.36,2.79,0.72c-1.19-0.5-2.39-1.01-3.58-1.51c0.68,0.3,1.31,0.65,1.91,1.08
					c-1.01-0.78-2.02-1.56-3.04-2.35c0.6,0.47,1.12,0.98,1.6,1.57c-0.78-1.01-1.56-2.02-2.35-3.04c0.43,0.58,0.78,1.17,1.08,1.83
					c-0.5-1.19-1.01-2.39-1.51-3.58c0.3,0.74,0.5,1.48,0.62,2.27c-0.18-1.33-0.36-2.66-0.54-3.99c0.1,0.91,0.08,1.81-0.03,2.72
					c0.18-1.33,0.36-2.66,0.54-3.99c-0.21,1.32-0.59,2.58-1.11,3.81c0.5-1.19,1.01-2.39,1.51-3.58c-0.89,2.02-2.07,3.88-3.42,5.63
					c0.78-1.01,1.56-2.02,2.35-3.04c-2.99,3.78-6.74,7.04-10.53,9.99c1.01-0.78,2.02-1.56,3.04-2.35c-3.27,2.5-6.75,4.68-10.54,6.29
					c1.19-0.5,2.39-1.01,3.58-1.51c-2.53,1.04-5.14,1.82-7.85,2.21c1.33-0.18,2.66-0.36,3.99-0.54c-2.47,0.32-4.94,0.32-7.41,0
					c1.33,0.18,2.66,0.36,3.99,0.54c-2.2-0.32-4.34-0.89-6.4-1.75c1.19,0.5,2.39,1.01,3.58,1.51c-1.58-0.69-3.07-1.54-4.45-2.57
					c1.01,0.78,2.02,1.56,3.04,2.35c-1.27-0.99-2.41-2.1-3.4-3.36c0.78,1.01,1.56,2.02,2.35,3.04c-0.87-1.15-1.59-2.37-2.16-3.7
					c0.5,1.19,1.01,2.39,1.51,3.58c-0.57-1.4-0.94-2.84-1.16-4.33c0.18,1.33,0.36,2.66,0.54,3.99c-0.21-1.72-0.2-3.44,0.03-5.15
					c-0.18,1.33-0.36,2.66-0.54,3.99c0.25-1.72,0.71-3.38,1.38-4.99c-0.5,1.19-1.01,2.39-1.51,3.58c0.65-1.49,1.45-2.88,2.43-4.17
					c-0.78,1.01-1.56,2.02-2.35,3.04c0.87-1.1,1.84-2.08,2.94-2.95c-1.01,0.78-2.02,1.56-3.04,2.35c0.98-0.74,2-1.38,3.13-1.86
					c-1.19,0.5-2.39,1.01-3.58,1.51c0.54-0.2,1.07-0.33,1.64-0.41c-1.33,0.18-2.66,0.36-3.99,0.54c0.35-0.02,0.66-0.02,1,0.01
					c-1.33-0.18-2.66-0.36-3.99-0.54c0.47,0.07,0.92,0.19,1.37,0.36c-1.19-0.5-2.39-1.01-3.58-1.51c0.91,0.39,1.73,0.93,2.52,1.52
					c-1.01-0.78-2.02-1.56-3.04-2.35c2.17,1.68,4.2,3.57,6.53,5.02c3.13,1.95,7.43,3.33,11.16,3.05c4.02-0.3,7.68-1.47,10.61-4.39
					c2.6-2.6,4.56-6.87,4.39-10.61c-0.17-3.88-1.45-7.9-4.39-10.61C1047.28,242.14,1043.42,240.03,1039.48,240.33L1039.48,240.33z"
					/>
			</g>
		</g>
		<g>
			<g>
				<path d="M548.2,411.56c-4.11,20.25-8.22,40.5-12.34,60.75c-1.17,5.77-2.35,11.55-3.52,17.32c-0.81,3.98-0.59,7.97,1.51,11.56
					c1.82,3.11,5.39,6.08,8.96,6.89c3.84,0.87,8.15,0.69,11.56-1.51c3.16-2.04,6.12-5.16,6.89-8.96
					c4.11-20.25,8.22-40.5,12.34-60.75c1.17-5.77,2.35-11.55,3.52-17.32c0.81-3.98,0.59-7.97-1.51-11.56
					c-1.82-3.11-5.39-6.08-8.96-6.89c-3.84-0.87-8.15-0.69-11.56,1.51C551.94,404.63,548.97,407.75,548.2,411.56L548.2,411.56z"/>
			</g>
		</g>
		<g>
			<g>
				<path d="M574.53,430.26c0.97-0.45,1.95-0.89,2.93-1.3c-1.19,0.5-2.39,1.01-3.58,1.51c3.88-1.61,7.89-2.91,12.06-3.5
					c-1.33,0.18-2.66,0.36-3.99,0.54c2.32-0.3,4.65-0.36,6.97-0.07c-1.33-0.18-2.66-0.36-3.99-0.54c1.64,0.24,3.21,0.64,4.75,1.26
					c-1.19-0.5-2.39-1.01-3.58-1.51c1.39,0.59,2.69,1.33,3.89,2.25c-1.01-0.78-2.02-1.56-3.04-2.35c1.06,0.84,2,1.8,2.84,2.86
					c-0.78-1.01-1.56-2.02-2.35-3.04c0.95,1.26,1.72,2.62,2.34,4.08c-0.5-1.19-1.01-2.39-1.51-3.58c0.64,1.59,1.07,3.22,1.32,4.92
					c-0.18-1.33-0.36-2.66-0.54-3.99c0.23,1.82,0.23,3.64,0,5.46c0.18-1.33,0.36-2.66,0.54-3.99c-0.23,1.59-0.64,3.12-1.23,4.61
					c0.5-1.19,1.01-2.39,1.51-3.58c-0.71,1.67-1.62,3.21-2.72,4.65c0.78-1.01,1.56-2.02,2.35-3.04c-1.2,1.53-2.58,2.87-4.11,4.07
					c1.01-0.78,2.02-1.56,3.04-2.35c-1.76,1.33-3.66,2.42-5.69,3.28c1.19-0.5,2.39-1.01,3.58-1.51c-2.16,0.88-4.4,1.49-6.72,1.8
					c1.33-0.18,2.66-0.36,3.99-0.54c-2.38,0.29-4.76,0.25-7.14-0.05c1.33,0.18,2.66,0.36,3.99,0.54c-2.86-0.4-5.62-1.19-8.29-2.3
					c1.19,0.5,2.39,1.01,3.58,1.51c-2.92-1.26-5.65-2.87-8.19-4.79c1.01,0.78,2.02,1.56,3.04,2.35c-0.65-0.51-1.29-1.03-1.92-1.57
					c-3.05-2.63-6.46-4.39-10.61-4.39c-3.68,0-8.07,1.63-10.61,4.39c-2.62,2.86-4.57,6.61-4.39,10.61c0.17,3.8,1.4,8.03,4.39,10.61
					c4.01,3.45,8.28,6.59,13.14,8.7c2.96,1.28,5.9,2.57,9.05,3.29c3.15,0.73,6.43,1.18,9.66,1.29c3.07,0.11,6.16-0.36,9.18-0.86
					c1.81-0.3,3.59-0.79,5.3-1.46c5.69-2.23,10.76-4.99,15.13-9.38c4.14-4.16,7.23-9.3,8.94-14.91c1.76-5.74,1.59-11.63,0.5-17.45
					c-0.53-2.83-1.75-5.51-2.94-8.11c-1.18-2.59-3.03-4.86-4.84-7.02c-1.82-2.18-4.25-3.98-6.61-5.5c-2.51-1.62-5.42-2.81-8.28-3.63
					c-2.2-0.63-4.52-0.84-6.77-1.11c-1.08-0.13-2.16-0.21-3.25-0.2c-3.37,0.02-6.78,0.54-10.07,1.21
					c-5.63,1.15-11.03,3.5-16.21,5.91c-3.22,1.5-5.98,5.66-6.89,8.96c-0.99,3.59-0.54,8.37,1.51,11.56c2.06,3.2,5.14,6.02,8.96,6.89
					c1.33,0.18,2.66,0.36,3.99,0.54C569.67,432.3,572.19,431.62,574.53,430.26L574.53,430.26z"/>
			</g>
		</g>
		<g>
			<g>
				<path d="M647.93,387.18c0.45,3.93,0.16,7.85-0.35,11.76c0.18-1.33,0.36-2.66,0.54-3.99c-2.26,16.6-5.11,33.14-7.68,49.69
					c-0.74,4.76-1.48,9.52-2.22,14.28c-0.18,1.33-0.36,2.66-0.54,3.99c-0.08,2.07,0.35,3.99,1.29,5.78
					c1.22,2.88,3.29,5.67,6.14,7.17c2.36,1.25,4.91,1.93,7.57,2.05c3.64,0.16,8.11-1.77,10.61-4.39
					c16.33-17.2,31.94-35.08,46.78-53.58c4.86-6.05,9.62-12.18,14.34-18.34c-9.14-3.85-18.28-7.71-27.42-11.56
					c-3.76,21.68-6.42,43.58-7.78,65.54c-0.37,5.89-0.64,11.8-0.82,17.7c-0.12,3.77,1.76,7.97,4.39,10.61
					c2.6,2.6,6.87,4.56,10.61,4.39c3.88-0.17,7.9-1.45,10.61-4.39c2.74-2.99,4.27-6.5,4.39-10.61c0.6-19.35,2.19-38.67,4.77-57.85
					c-0.18,1.33-0.36,2.66-0.54,3.99c0.97-7.15,2.07-14.29,3.3-21.4c0.63-1.99,0.71-3.99,0.27-5.98c-0.09-2-0.68-3.86-1.78-5.58
					c-0.78-1.01-1.56-2.02-2.35-3.04c-1.36-1.46-2.97-2.5-4.83-3.1c-2.98-1.26-6.6-1.78-9.77-0.76c-1.19,0.5-2.39,1.01-3.58,1.51
					c-2.25,1.33-4.05,3.13-5.38,5.38c-0.77,1-1.54,2.01-2.31,3.01c0.78-1.01,1.56-2.02,2.35-3.04
					c-13.78,17.83-28.25,35.11-43.4,51.8c-4.3,4.74-8.66,9.43-13.07,14.08c8.36,4.86,16.71,9.73,25.07,14.59
					c3.08-19.86,6.17-39.72,9.24-59.58c1.02-6.61,2.31-13.43,1.54-20.14c0.08-2.07-0.35-3.99-1.29-5.78
					c-0.6-1.86-1.64-3.47-3.1-4.83c-2.6-2.6-6.87-4.56-10.61-4.39c-3.88,0.17-7.9,1.45-10.61,4.39
					C649.81,379.31,647.49,383.32,647.93,387.18L647.93,387.18z"/>
			</g>
		</g>
		<g>
			<g>
				<path d="M757.74,372.59c-2.41,8.48-4.25,17.12-5.47,25.86c-1.4,10-2.36,20.01-2.38,30.12c-0.01,5.01,0.18,10.01,0.56,15
					c0.31,4.02,1.47,7.68,4.39,10.61c2.6,2.6,6.87,4.56,10.61,4.39c3.88-0.17,7.9-1.45,10.61-4.39c2.57-2.8,4.69-6.67,4.39-10.61
					c-1.01-13.32-0.63-26.71,1.12-39.95c-0.18,1.33-0.36,2.66-0.54,3.99c1.23-9.14,3.11-18.17,5.64-27.04
					c1.06-3.72,0.44-8.23-1.51-11.56c-1.82-3.11-5.39-6.08-8.96-6.89c-3.84-0.87-8.15-0.69-11.56,1.51
					C761.33,365.75,758.84,368.74,757.74,372.59L757.74,372.59z"/>
			</g>
		</g>
		<g>
			<g>
				<path d="M788.65,386.97c0.06-0.19,0.13-0.38,0.21-0.57c-0.5,1.19-1.01,2.39-1.51,3.58c0.31-0.74,0.7-1.41,1.18-2.04
					c-0.78,1.01-1.56,2.02-2.35,3.04c0.5-0.62,1.05-1.16,1.67-1.65c-1.01,0.78-2.02,1.56-3.04,2.35c0.72-0.54,1.49-0.98,2.32-1.35
					c-1.19,0.5-2.39,1.01-3.58,1.51c1.04-0.43,2.1-0.72,3.22-0.87c-1.33,0.18-2.66,0.36-3.99,0.54c1.02-0.12,2.02-0.11,3.04,0.01
					c-1.33-0.18-2.66-0.36-3.99-0.54c0.91,0.14,1.78,0.37,2.63,0.71c-1.19-0.5-2.39-1.01-3.58-1.51c0.9,0.39,1.72,0.89,2.5,1.49
					c-1.01-0.78-2.02-1.56-3.04-2.35c0.79,0.65,1.49,1.36,2.12,2.17c-0.78-1.01-1.56-2.02-2.35-3.04c0.68,0.92,1.24,1.89,1.71,2.93
					c-0.5-1.19-1.01-2.39-1.51-3.58c0.54,1.28,0.9,2.6,1.12,3.97c-0.18-1.33-0.36-2.66-0.54-3.99c0.2,1.5,0.21,2.99,0.01,4.49
					c0.18-1.33,0.36-2.66,0.54-3.99c-0.22,1.45-0.63,2.83-1.19,4.19c0.5-1.19,1.01-2.39,1.51-3.58c-0.66,1.5-1.49,2.89-2.47,4.2
					c0.78-1.01,1.56-2.02,2.35-3.04c-1.33,1.71-2.87,3.21-4.58,4.54c1.01-0.78,2.02-1.56,3.04-2.35c-1.22,0.92-2.5,1.74-3.85,2.47
					c-1.01,0.78-2.02,1.56-3.04,2.35c-0.78,1.01-1.56,2.02-2.35,3.04c-0.5,1.19-1.01,2.39-1.51,3.58c-0.63,1.99-0.71,3.99-0.27,5.98
					c0,1.35,0.35,2.62,1.02,3.79c0.36,1.27,1,2.37,1.93,3.31c0.67,1.13,1.56,2.02,2.69,2.69c1.45,1.33,3.15,2.22,5.1,2.68
					c0.87,0.35,1.73,0.71,2.59,1.07c-1.19-0.5-2.39-1.01-3.58-1.51c3.44,1.45,6.82,3.06,9.81,5.32c-1.01-0.78-2.02-1.56-3.04-2.35
					c1.44,1.12,2.76,2.36,3.89,3.79c-0.78-1.01-1.56-2.02-2.35-3.04c0.8,1.06,1.45,2.19,1.99,3.4c-0.5-1.19-1.01-2.39-1.51-3.58
					c0.56,1.33,0.94,2.7,1.15,4.13c-0.18-1.33-0.36-2.66-0.54-3.99c0.14,1.17,0.15,2.32,0.02,3.48c0.18-1.33,0.36-2.66,0.54-3.99
					c-0.13,0.91-0.36,1.78-0.68,2.64c0.5-1.19,1.01-2.39,1.51-3.58c-0.36,0.85-0.81,1.63-1.37,2.37c0.78-1.01,1.56-2.02,2.35-3.04
					c-0.51,0.63-1.07,1.18-1.71,1.69c1.01-0.78,2.02-1.56,3.04-2.35c-0.7,0.53-1.43,0.96-2.23,1.31c1.19-0.5,2.39-1.01,3.58-1.51
					c-0.9,0.37-1.82,0.61-2.78,0.76c1.33-0.18,2.66-0.36,3.99-0.54c-1.46,0.19-2.91,0.16-4.37-0.02c1.33,0.18,2.66,0.36,3.99,0.54
					c-2.54-0.36-4.99-1.14-7.36-2.11c1.19,0.5,2.39,1.01,3.58,1.51c-2.15-0.91-4.22-1.97-6.24-3.14c-3.37-1.96-7.8-2.55-11.56-1.51
					c-3.48,0.96-7.25,3.65-8.96,6.89c-1.84,3.48-2.76,7.7-1.51,11.56c1.2,3.72,3.45,6.96,6.89,8.96c1.96,1.14,3.98,2.18,6.07,3.07
					c3.17,1.35,6.33,2.79,9.72,3.47c7.45,1.48,15.73,1.34,22.19-3.23c1.74-1.23,3.49-2.5,4.87-4.14c2.57-3.04,3.84-5.24,5.22-8.98
					c0.56-1.52,0.73-3.01,0.95-4.63c0.24-1.75,0.47-3.37,0.29-5.13c-0.48-4.84-1.47-8.67-3.7-13.03c-1.55-3.03-3.85-5.86-6.4-8.12
					c-2.87-2.55-6.04-4.85-9.46-6.61c-3.53-1.81-7.25-3.27-10.93-4.76c1.19,9.14,2.39,18.28,3.58,27.42
					c5.97-3.22,10.98-7.97,14.68-13.62c1.82-2.77,3.22-6.01,4.01-9.22c0.76-3.08,1.23-6.47,0.86-9.66
					c-0.24-2.08-0.43-4.31-1.01-6.36c-0.59-2.11-1.53-4.19-2.49-6.15c-0.69-1.41-1.64-2.58-2.6-3.83c-1.04-1.35-1.99-2.61-3.3-3.69
					c-3.25-2.68-6.65-4.96-10.85-5.9c-4.51-1-8.15-0.91-12.67-0.05c-2.1,0.4-4.13,1.39-6.05,2.26c-2,0.91-3.65,2.31-5.35,3.7
					c-1.67,1.37-2.96,3.16-4.2,4.92c-1.24,1.77-2.04,3.95-2.72,5.96c-1.21,3.56-0.34,8.39,1.51,11.56c1.82,3.11,5.39,6.08,8.96,6.89
					c3.84,0.87,8.15,0.69,11.56-1.51C785.15,393.74,787.34,390.81,788.65,386.97L788.65,386.97z"/>
			</g>
		</g>
		<g>
			<g>
				<path d="M855.09,359.85c-2.13,15.25-4.26,30.49-6.38,45.74c-0.53,3.77-1.05,7.54-1.58,11.31c-0.25,1.8-0.5,3.61-0.76,5.41
					c-0.26,1.86-0.68,3.75-0.69,5.64c-0.04,4.4,1.78,8.81,4.86,11.94c3.32,3.38,8.14,5.27,12.88,5.07c3.05-0.13,5.65-0.86,8.5-1.7
					c3.67-1.07,7.34-2.15,11.01-3.22c8.3-2.43,16.6-4.85,24.9-7.28c3.66-1.07,7.03-3.59,8.96-6.89c1.88-3.22,2.68-7.95,1.51-11.56
					c-1.17-3.63-3.42-7.13-6.89-8.96c-3.54-1.87-7.62-2.66-11.56-1.51c-6.78,1.98-13.56,3.97-20.35,5.95
					c-3.35,0.98-6.7,1.96-10.05,2.94c-1.68,0.49-3.35,0.98-5.03,1.47c-1.53,0.45-3.07,1.01-4.65,1.27c1.33-0.18,2.66-0.36,3.99-0.54
					c-0.44,0.05-0.86,0.06-1.31,0.01c1.33,0.18,2.66,0.36,3.99,0.54c-0.2-0.03-0.4-0.08-0.59-0.16c1.19,0.5,2.39,1.01,3.58,1.51
					c-0.18-0.07-0.35-0.17-0.5-0.3c1.01,0.78,2.02,1.56,3.04,2.35c-0.07-0.07-0.14-0.14-0.21-0.21c0.78,1.01,1.56,2.02,2.35,3.04
					c-0.15-0.18-0.26-0.37-0.34-0.59c0.5,1.19,1.01,2.39,1.51,3.58c-0.03-0.12-0.06-0.24-0.09-0.36c0.18,1.33,0.36,2.66,0.54,3.99
					c-0.05-0.52-0.01-1.01,0.05-1.53c-0.18,1.33-0.36,2.66-0.54,3.99c2.93-20.98,5.86-41.97,8.79-62.95
					c0.63-1.99,0.71-3.99,0.27-5.98c-0.09-2-0.68-3.86-1.78-5.58c-1.82-3.11-5.39-6.08-8.96-6.89c-3.84-0.87-8.15-0.69-11.56,1.51
					c-1.01,0.78-2.02,1.56-3.04,2.35C857.09,355.11,855.8,357.31,855.09,359.85L855.09,359.85z"/>
			</g>
		</g>
		<g>
			<g>
				<path d="M881.47,375.53c14.2-3.64,28.4-7.27,42.59-10.91c3.61-0.93,7.09-3.7,8.96-6.89c1.88-3.22,2.68-7.95,1.51-11.56
					c-1.17-3.63-3.42-7.13-6.89-8.96c-3.61-1.91-7.54-2.54-11.56-1.51c-14.2,3.64-28.4,7.27-42.59,10.91
					c-3.61,0.93-7.09,3.7-8.96,6.89c-1.88,3.22-2.68,7.95-1.51,11.56c1.17,3.63,3.42,7.13,6.89,8.96
					C873.52,375.92,877.45,376.56,881.47,375.53L881.47,375.53z"/>
			</g>
		</g>
		<g>
			<g>
				<path d="M867.46,415.18c13.35-5.27,27.03-9.68,40.94-13.18c3.61-0.91,7.1-3.71,8.96-6.89c1.88-3.22,2.68-7.95,1.51-11.56
					c-1.17-3.63-3.42-7.13-6.89-8.96c-3.62-1.91-7.53-2.53-11.56-1.51c-13.92,3.51-27.59,7.91-40.94,13.18
					c-1.95,0.46-3.65,1.36-5.1,2.68c-1.63,1.06-2.92,2.46-3.86,4.21c-1.88,3.22-2.68,7.95-1.51,11.56c1.17,3.63,3.42,7.13,6.89,8.96
					C859.25,415.44,863.78,416.64,867.46,415.18L867.46,415.18z"/>
			</g>
		</g>
	</g>
</g>
<g id="Layer_2" class="st0">
	<g class="st1">
		<g>
			<g>
				<path d="M318.5,282c0.19-2.63-0.06-5.25-0.7-7.81c-0.42-1.66-2.92-1.28-2.95,0.4c-0.26,18.76-0.52,37.51-0.78,56.27
					c-0.12,8.92-0.11,17.86-0.55,26.77c-0.41,8.38-1.3,16.77-3.58,24.87c-1.07,3.82-2.35,7.84-4.34,11.29
					c-0.7,1.21-1.92,2.99-3.55,2.55c-1.63-0.44-2.62-2.53-3.25-3.93c-1.73-3.83-2.23-8.3-2.84-12.42c-0.66-4.5-1.11-9.04-1.35-13.59
					c-0.48-8.89-0.39-18.06,1.01-26.88c0.65-4.08,1.74-8.13,3.93-11.67c2.01-3.26,4.79-5.95,7.73-8.38c3.05-2.52,6.3-4.79,9.45-7.19
					c3.51-2.67,6.96-5.4,10.36-8.2c6.78-5.59,13.34-11.44,19.66-17.55c1.57-1.51,3.11-3.04,4.65-4.59
					c-0.84-0.49-1.67-0.97-2.51-1.46c-6.29,27.84-6.5,56.5-10.09,84.72c-1.01,7.9-2.31,15.77-4.08,23.55
					c-0.43,1.88,2.47,2.68,2.89,0.8c6.31-27.83,6.52-56.5,10.1-84.71c1-7.91,2.31-15.78,4.07-23.55c0.32-1.43-1.41-2.56-2.51-1.46
					c-6.53,6.56-13.32,12.85-20.38,18.84c-6.87,5.84-14.09,11.17-21.22,16.67c-3.18,2.45-6.28,5.06-8.78,8.24
					c-2.58,3.28-4.33,7.02-5.35,11.07c-1.1,4.35-1.5,8.87-1.81,13.34c-0.33,4.76-0.43,9.53-0.3,14.3c0.13,4.85,0.49,9.69,1.08,14.5
					c0.55,4.47,1.12,9.04,2.33,13.39c0.93,3.35,2.74,8.19,6.57,9.09c3.9,0.91,6.34-2.84,7.72-5.86c7.44-16.27,7.54-34.54,7.78-52.08
					c0.27-19.75,0.54-39.51,0.82-59.26c0.03-2.49,0.07-4.98,0.1-7.47c-0.98,0.13-1.96,0.27-2.95,0.4c0.58,2.32,0.76,4.63,0.6,7.01
					C315.36,283.93,318.36,283.92,318.5,282L318.5,282z"/>
			</g>
		</g>
		<g>
			<g>
				<path d="M356.5,338c0.05-0.8,0.1-1.6,0.15-2.4c-1,0-2,0-3,0c0.43,18.66,0.26,37.33-0.51,55.98c-0.22,5.28-0.49,10.56-0.8,15.84
					c-0.12,1.94,2.82,1.9,3,0c0.51-5.46,1.01-10.93,1.52-16.39c0.18-1.92-2.82-1.91-3,0c-0.51,5.46-1.01,10.93-1.52,16.39
					c1,0,2,0,3,0c1.1-18.63,1.62-37.3,1.53-55.97c-0.03-5.29-0.1-10.57-0.22-15.86c-0.04-1.94-2.88-1.92-3,0
					c-0.05,0.8-0.1,1.6-0.15,2.4C353.38,339.93,356.38,339.92,356.5,338L356.5,338z"/>
			</g>
		</g>
		<g>
			<g>
				<path d="M354.77,342.99c1.79-3.14,6.14-2.75,8.52-0.58c2.78,2.53,3.81,6.55,3.61,10.2c-0.2,3.57-1.65,7.15-4.03,9.83
					c-1.17,1.32-2.65,2.66-4.31,3.32c-0.56,0.22-1.76,0.62-2.18-0.05c-0.09-0.15-0.12-0.47-0.08-0.63c0.05-0.19-0.3,0,0.15-0.08
					c1.9-0.33,1.09-3.22-0.8-2.89c-1.75,0.3-2.54,2.11-2.31,3.73c0.3,2.04,2.01,3.25,4.03,3.22c4.11-0.06,7.9-4.24,9.83-7.5
					c4.05-6.84,4.04-18.06-3.55-22.59c-3.77-2.25-9.2-1.47-11.47,2.52C351.22,343.16,353.81,344.67,354.77,342.99L354.77,342.99z"/>
			</g>
		</g>
		<g>
			<g>
				<path d="M381.08,333.25c0.03-0.06,0.06-0.12,0.08-0.18c-0.3,0.23-0.6,0.46-0.9,0.69c-0.31-0.07-0.62-0.14-0.93-0.2
					c-0.08,0.13-0.1,0.27-0.07,0.42c-0.1,0.29,0.02,0.96,0.03,1.24c0.02,0.74,0.04,1.49,0.06,2.23c0.04,1.49,0.08,2.98,0.11,4.47
					c0.08,3.14,0.16,6.29,0.24,9.43c0.16,6.2,0.31,12.41,0.47,18.61c0.04,1.71,2.43,2.01,2.95,0.4
					c3.25-10.09,12.1-17.04,16.51-26.53c0.34-0.72,0.22-1.63-0.54-2.05c-2.31-1.28-4.27,0.73-4.64,2.94
					c-0.5,2.99-0.68,6.07-0.84,9.09c-0.33,6.23-0.14,12.48,0.54,18.69c0.21,1.9,3.21,1.92,3,0c-0.53-4.9-0.77-9.82-0.68-14.75
					c0.05-2.46,0.17-4.92,0.37-7.38c0.09-1.15,0.21-2.29,0.34-3.43c0.04-0.35,0.43-2.55,0.4-2.57c-0.18-0.68-0.36-1.37-0.54-2.05
					c-4.54,9.76-13.47,16.85-16.81,27.25c0.98,0.13,1.96,0.27,2.95,0.4c-0.19-7.53-0.38-15.06-0.57-22.58
					c-0.09-3.72-0.19-7.44-0.28-11.17c-0.04-1.43,0.28-3.37-0.7-4.56c-0.82-1-2.5-1.29-3.14,0.08
					C377.68,333.47,380.27,335,381.08,333.25L381.08,333.25z"/>
			</g>
		</g>
		<g>
			<g>
				<path d="M409.02,334.97c-0.84,12.97-0.13,25.98,2.06,38.79c0.33,1.91,3.17,1.08,2.89-0.8c-1.22-8.3-1.9-16.68-2.03-25.07
					c-0.03-2.03-0.03-4.06,0-6.09c0.02-1.06,0.04-2.11,0.08-3.17c0.01-0.34-0.15-2.13,0.24-2.36c0.81-0.46,2.76,2.73,3.12,3.25
					c1,1.46,1.92,3.02,2.37,4.74c1.08,4.17-2.12,7-5.11,9.31c0.61,0.79,1.21,1.57,1.82,2.36c2.01-1.62,4.73,0.48,5.62,2.31
					c1.17,2.42,1.14,5.52,0.85,8.14c-0.26,2.37-1.02,4.91-2.82,6.58c-0.7,0.64-2.4,1.79-3.37,1.03c-0.26-0.2-0.27-0.35-0.28-0.67
					c-0.01-0.12,0.05-0.3,0.12-0.4c0.1-0.13-0.14,0.01,0.02,0c1.93-0.04,1.93-3.04,0-3c-2.93,0.06-4.12,3.91-2.24,5.96
					c2.42,2.64,6.52,0.81,8.46-1.43c2.2-2.53,3.01-5.88,3.19-9.16c0.19-3.41-0.12-7.25-2.29-10.04c-2.24-2.88-6.46-3.8-9.39-1.44
					c-1.31,1.06,0.47,3.4,1.82,2.36c3.27-2.52,6.68-5.44,6.83-9.9c0.07-2.2-0.72-4.34-1.76-6.24c-1.03-1.89-2.38-4.07-4.02-5.49
					c-1.46-1.26-3.61-1.91-5.11-0.33c-1.43,1.5-1.08,4.25-1.12,6.13c-0.12,5.28-0.03,10.56,0.28,15.83
					c0.34,5.89,0.97,11.76,1.83,17.6c0.96-0.27,1.93-0.53,2.89-0.8c-2.14-12.54-2.78-25.3-1.95-37.99
					C412.14,333.04,409.14,333.05,409.02,334.97L409.02,334.97z"/>
			</g>
		</g>
		<g>
			<g>
				<path d="M434.69,341.47c-0.84,9.82-1.23,19.67-1.17,29.53c0.01,1.93,3.01,1.93,3,0c-0.06-9.86,0.33-19.71,1.17-29.53
					C437.86,339.55,434.86,339.56,434.69,341.47L434.69,341.47z"/>
			</g>
		</g>
		<g>
			<g>
				<path d="M434.15,371.86c0.3,1.82,2.35,2.64,4,2.49c0.98-0.09,1.81-0.45,2.7-0.87c0.19-0.09,0.38-0.18,0.58-0.27
					c0.32-0.15-0.2,0.07,0.1-0.04c0.12-0.04,0.23-0.09,0.35-0.12c0.18-0.06,0.4-0.14,0.59-0.14c-0.52-0.01,0.67,0.08,0.16,0
					c0.77,0.12,1.65-0.2,1.85-1.05c0.16-0.72-0.22-1.72-1.05-1.85c-1.02-0.16-1.97-0.04-2.93,0.36c-0.45,0.19-0.9,0.39-1.34,0.6
					c-0.1,0.04-0.19,0.09-0.29,0.13c-0.04,0.02-0.36,0.15-0.17,0.07c0.18-0.07-0.11,0.04-0.13,0.05c-0.07,0.02-0.14,0.05-0.21,0.07
					c-0.12,0.03-0.29,0.03-0.39,0.09c0.22-0.12,0.28-0.03,0.08-0.02c-0.08,0-0.15,0.01-0.23,0.01c-0.13,0-0.33-0.05-0.45-0.02
					c0.1-0.02,0.35,0.07,0.09,0.01c-0.07-0.02-0.14-0.03-0.21-0.05c-0.07-0.02-0.13-0.05-0.2-0.07c-0.15-0.04,0.32,0.18,0.1,0.03
					c-0.04-0.03-0.09-0.06-0.14-0.08c-0.23-0.12,0.22,0.24,0.06,0.04c-0.23-0.28,0.11,0.25-0.02-0.03
					c-0.08-0.15,0.09,0.35,0.04,0.11c-0.02-0.08-0.04-0.16-0.05-0.24c-0.13-0.78-1.13-1.28-1.85-1.05
					C434.35,370.29,434.01,371.03,434.15,371.86L434.15,371.86z"/>
			</g>
		</g>
		<g>
			<g>
				<path d="M437,357.53c3.35,0.1,6.74-0.45,9.88-1.63c0.73-0.28,1.31-1.03,1.05-1.85c-0.23-0.72-1.06-1.34-1.85-1.05
					c-3.01,1.13-5.91,1.62-9.08,1.53c-0.79-0.02-1.54,0.71-1.5,1.5C435.54,356.86,436.16,357.51,437,357.53L437,357.53z"/>
			</g>
		</g>
		<g>
			<g>
				<path d="M438.46,343.59c4.03-1.53,8.25-2.61,12.54-3.1c0.8-0.09,1.5-0.62,1.5-1.5c0-0.74-0.69-1.59-1.5-1.5
					c-4.57,0.53-9.04,1.57-13.34,3.21c-0.76,0.29-1.28,1.01-1.05,1.85C436.81,343.27,437.69,343.88,438.46,343.59L438.46,343.59z"/>
			</g>
		</g>
		<g>
			<g>
				<path d="M462.27,339.69c1.88-0.58,3.89-0.71,5.83-0.96c1.97-0.26,3.93-0.52,5.9-0.78c4.01-0.53,8.02-1.06,12.03-1.59
					c0.81-0.11,1.49-0.61,1.5-1.5c0.01-0.73-0.7-1.61-1.5-1.5c-4.17,0.55-8.34,1.1-12.51,1.65c-2.04,0.27-4.09,0.54-6.13,0.81
					c-1.97,0.26-4.02,0.39-5.92,0.98C459.64,337.37,460.42,340.26,462.27,339.69L462.27,339.69z"/>
			</g>
		</g>
		<g>
			<g>
				<path d="M472.24,337c-0.19,6.68-1.24,13.3-3.18,19.7c-1.69,5.6-3.79,12.06-8.57,15.8c-1.52,1.19,0.62,3.3,2.12,2.12
					c5.06-3.96,7.37-10.76,9.2-16.68c2.1-6.78,3.22-13.85,3.42-20.94C475.29,335.07,472.29,335.07,472.24,337L472.24,337z"/>
			</g>
		</g>
		<g>
			<g>
				<path d="M474.86,321.18c-0.56-0.74-0.83-1.58-1.18-2.43c-0.44-1.05-1.02-1.96-1.98-2.6c-1.94-1.31-4.36-0.53-5.08,1.71
					c-0.61,1.88-0.41,4.17-0.15,6.09c0.3,2.11,0.94,4.13,1.88,6.04c0.44,0.89,0.95,1.75,1.53,2.56c0.36,0.5,0.71,1.11,1.34,1.29
					c0.54,0.15,1.23-0.02,1.76-0.2c1.73-0.59,2.97-2.02,3.84-3.57c1.04-1.85,1.71-3.93,2.48-5.9c0.71-1.82,1.68-3.82,1.17-5.83
					c-0.64-2.5-3.38-3.27-5.53-2.24c-2.21,1.06-2.86,3.62-2.98,5.86c-0.1,1.93,2.9,1.92,3,0c0.06-1.18,0.43-3.55,2.08-3.34
					c1.3,0.16,0.11,2.84-0.16,3.53c-0.76,1.94-1.42,3.96-2.35,5.83c-0.58,1.15-1.49,2.76-2.91,2.9c0.35,0.15,0.71,0.29,1.06,0.44
					c-2.17-2.79-3.37-6.36-3.42-9.88c-0.01-0.81-0.03-1.68,0.16-2.47c0.04-0.19,0.09-0.48,0.28-0.55c-0.14,0.05,0.14,0.11,0.22,0.15
					c0.59,0.29,0.86,0.95,1.09,1.53c0.35,0.9,0.67,1.82,1.26,2.59c0.49,0.64,1.29,0.98,2.05,0.54
					C474.96,322.87,475.36,321.83,474.86,321.18L474.86,321.18z"/>
			</g>
		</g>
		<g>
			<g>
				<path d="M580.89,360.06c2.25,4.56,5.19,9.79,10.42,11.32c5.91,1.73,11.22-2.39,14.99-6.47c4.23-4.58,8.13-9.62,11.55-14.83
					c3.4-5.18,6.29-10.8,7.97-16.78c1.57-5.59,2.55-12.48,0.59-18.1c-0.92-2.63-2.62-4.97-5.18-6.19c-2.49-1.19-5.35-1.15-7.65,0.46
					c-2.38,1.67-4.19,4.38-5.69,6.83c-1.46,2.39-2.65,4.96-3.57,7.61c-1.88,5.41-2.59,11.3-2.02,17c0.32,3.18,0.98,6.32,2.09,9.32
					c1.26,3.43,3.05,6.61,4.79,9.8c3.32,6.07,7.07,13.78,3.57,20.6c-0.88,1.71,1.71,3.23,2.59,1.51c2.65-5.16,2.01-11.19-0.06-16.44
					c-2.23-5.64-5.9-10.59-8-16.28c-3.61-9.83-2.65-21.16,2.42-30.3c1.26-2.28,2.76-4.57,4.63-6.4c1.93-1.9,4.43-2.03,6.61-0.41
					c2.18,1.61,3.03,4.45,3.3,7.03c0.29,2.77,0.16,5.63-0.27,8.38c-1.79,11.35-8.41,21.32-15.53,30.06c-1.97,2.42-3.95,4.87-6.24,7
					c-2.08,1.93-4.67,3.83-7.61,3.99c-5.78,0.31-8.94-5.83-11.11-10.23C582.63,356.81,580.04,358.33,580.89,360.06L580.89,360.06z"
					/>
			</g>
		</g>
		<g>
			<g>
				<path d="M697.47,383.07c-6.1-4.9-9.15-12.54-9.71-20.21c-0.67-9.32,2.04-18.47,4.9-27.24c1.29-3.95,2.65-8.14,5.51-11.26
					c0.61-0.67,1.34-1.45,2.31-1.47c0.9-0.02,1.71,0.59,2.33,1.2c1.41,1.38,2.29,3.27,3.05,5.07c3.22,7.65,3.41,16.48,0.64,24.28
					c-1.38,3.89-3.67,8.45-7.67,10.19c-2.97,1.29-7.31,0.12-7.92-3.41c-0.33-1.9-3.22-1.09-2.89,0.8c0.66,3.84,4.57,6.12,8.25,6.14
					c4.38,0.03,7.9-3.17,10.15-6.65c5.18-8.04,6.23-18.72,3.81-27.84c-1.1-4.13-2.91-9.45-6.72-11.85
					c-4.61-2.91-8.4,1.95-10.39,5.64c-2.45,4.55-3.86,9.75-5.29,14.69c-1.54,5.32-2.76,10.78-3.07,16.32
					c-0.56,10.13,2.43,21.16,10.61,27.73C696.84,386.38,698.97,384.28,697.47,383.07L697.47,383.07z"/>
			</g>
		</g>
		<g>
			<g>
				<path d="M644.37,355.81c4.97-1.11,10.04-1.53,15.13-1.3c1.93,0.09,1.93-2.91,0-3c-5.35-0.24-10.71,0.24-15.93,1.41
					C641.69,353.34,642.48,356.23,644.37,355.81L644.37,355.81z"/>
			</g>
		</g>
		<g>
			<g>
				<path d="M719.6,357.8c-2.29,0.87-3.55,2.96-4.49,5.12c-1,2.27-1.54,4.7-1.65,7.18c-0.2,4.72,1.28,9.87,4.51,13.4
					c3.67,4.02,9.43,2.06,11.83-2.27c2.36-4.25,1.34-9.23-1.47-12.99c-2.79-3.73-8.96-8.63-13.66-5.1
					c-1.53,1.15-0.03,3.75,1.51,2.59c3-2.26,6.96,1.09,8.93,3.29c2.3,2.56,3.78,6.09,2.62,9.5c-1.03,3.05-4.74,5.91-7.52,3
					c-2.45-2.56-3.64-6.44-3.77-9.91c-0.08-2.02,0.19-4.02,0.8-5.95c0.5-1.57,1.45-4.33,3.14-4.97
					C722.18,360.02,721.41,357.12,719.6,357.8L719.6,357.8z"/>
			</g>
		</g>
		<g>
			<g>
				<path d="M729.99,352.11c4.62,8.67,10.28,16.74,16.83,24.07c1.29,1.44,3.4-0.68,2.12-2.12c-6.38-7.14-11.85-15.01-16.36-23.46
					C731.67,348.89,729.08,350.4,729.99,352.11L729.99,352.11z"/>
			</g>
		</g>
		<g>
			<g>
				<path d="M743.85,352.57c-1.88,10.62-4.8,21.02-8.71,31.07c-0.7,1.8,2.2,2.58,2.89,0.8c3.91-10.05,6.83-20.45,8.71-31.07
					C747.08,351.48,744.19,350.67,743.85,352.57L743.85,352.57z"/>
			</g>
		</g>
		<g>
			<g>
				<path d="M749.93,355.41c4.71,8.55,9.42,17.1,14.12,25.66c0.93,1.69,3.52,0.18,2.59-1.51c-4.71-8.55-9.42-17.1-14.12-25.66
					C751.59,352.2,749,353.71,749.93,355.41L749.93,355.41z"/>
			</g>
		</g>
		<g>
			<g>
				<path d="M764.73,353.75c0.65,1.47,0,3.25-0.42,4.69c-0.47,1.62-0.98,3.24-1.5,4.84c-1.05,3.21-2.2,6.39-3.45,9.54
					c-2.5,6.31-5.43,12.44-8.71,18.39c-0.93,1.69,1.66,3.21,2.59,1.51c3.55-6.44,6.67-13.11,9.35-19.96
					c1.34-3.44,2.57-6.92,3.68-10.43c1.02-3.23,2.53-6.79,1.06-10.09C766.54,350.47,763.95,352,764.73,353.75L764.73,353.75z"/>
			</g>
		</g>
		<g>
			<g>
				<path d="M811.21,318c-0.09,18.95-0.18,37.91-0.28,56.86c-0.03,5.38-0.05,10.76-0.08,16.14c-0.01,1.93,2.99,1.93,3,0
					c0.09-18.95,0.18-37.91,0.28-56.86c0.03-5.38,0.05-10.76,0.08-16.14C814.22,316.07,811.22,316.07,811.21,318L811.21,318z"/>
			</g>
		</g>
		<g>
			<g>
				<path d="M800.41,328.44c4.2-1.77,9.08-3.66,13.38-1.12c3.52,2.08,5.44,6.02,5.8,10c0.64,7.16-2.61,17.46-10.71,18.87
					c0.56,0.73,1.13,1.47,1.69,2.2c1.55-2.02,4.45-2.59,6.83-2.09c2.84,0.6,5.02,2.53,6.05,5.25c2.29,6.04-0.63,14.06-7.08,15.96
					c-3.65,1.07-7.59,0.66-11.31,0.25c-1.92-0.21-1.9,2.79,0,3c4.05,0.45,8.33,0.82,12.29-0.4c4.27-1.32,7.21-4.5,8.78-8.62
					c2.66-6.95,0.26-16.45-7.78-18.28c-3.89-0.89-7.91,0.22-10.38,3.43c-0.89,1.16,0.57,2.4,1.69,2.2
					c7.25-1.27,11.39-8.74,12.56-15.42c1.32-7.57-0.78-16.55-8.57-19.74c-4.7-1.93-9.63-0.24-14.05,1.62
					c-0.75,0.32-1.27,0.99-1.05,1.85C798.75,328.1,799.66,328.76,800.41,328.44L800.41,328.44z"/>
			</g>
		</g>
		<g>
			<g>
				<path d="M834.27,356.28c-1.9,3.01-3.42,6.68-2.28,10.26c1.06,3.35,4.06,5.49,7.6,4.95c7.17-1.1,9.25-11.07,5.87-16.54
					c-2-3.24-6.25-4.9-9.73-3.02c-1.7,0.91-0.19,3.51,1.51,2.59c1.83-0.98,4.17-0.05,5.35,1.52c1.47,1.95,1.7,4.73,1.22,7.06
					c-0.46,2.23-1.67,4.52-3.98,5.26c-2.12,0.67-4.11-0.29-4.88-2.4c-1.04-2.85,0.4-5.78,1.91-8.16
					C837.9,356.16,835.3,354.65,834.27,356.28L834.27,356.28z"/>
			</g>
		</g>
		<g>
			<g>
				<path d="M848.15,352.49c0.4,5.97,1.18,11.92,2.33,17.79c0.96-0.27,1.93-0.53,2.89-0.8c-0.59-2.43-1.41-5.54,0.38-7.68
					c0.56-0.67,1.33-1.13,2.22-0.99c0.62,0.1,1.47,0.55,1.53,1.26c0.07,0.81,0.64,1.5,1.5,1.5c0.76,0,1.57-0.69,1.5-1.5
					c-0.34-3.77-4.9-5.45-7.86-3.29c-3.74,2.73-3.13,7.57-2.17,11.5c0.46,1.89,3.26,1.08,2.89-0.8c-1.1-5.62-1.84-11.29-2.22-17
					C851.03,350.57,848.03,350.56,848.15,352.49L848.15,352.49z"/>
			</g>
		</g>
		<g>
			<g>
				<path d="M860.27,350.99c0.24,8.17,0.48,16.34,0.71,24.51c0.06,1.93,3.06,1.93,3,0c-0.24-8.17-0.48-16.34-0.71-24.51
					C863.21,349.07,860.21,349.06,860.27,350.99L860.27,350.99z"/>
			</g>
		</g>
		<g>
			<g>
				<path d="M503.42,369.18c-1.35,0.66-3.58,1.19-3.93,2.85c-0.28,1.35,0.62,2.54,1.77,3.13c1.26,0.65,2.59,0.59,3.88,0.09
					c0.64-0.24,1.3-0.61,1.98-0.71c0.76-0.11,1.17,0.29,1.55,0.91c2.42,3.93,0.82,9.19-2.21,12.28c-1.79,1.82-4.12,2.98-6.69,2.99
					c-1.93,0.01-1.93,3.01,0,3c5.1-0.02,9.59-3.48,11.69-8.02c1.05-2.28,1.59-4.81,1.29-7.32c-0.31-2.5-1.45-5.91-4.14-6.72
					c-0.85-0.25-1.77-0.18-2.61,0.07c-0.82,0.24-1.63,0.78-2.48,0.9c-0.25,0.04-0.5,0.02-0.74-0.08c-0.05-0.02-0.19-0.11-0.23-0.11
					c-0.34-0.01,0.01-0.1-0.12-0.01c-0.03,0.11-0.07,0.22-0.1,0.33c-0.19,0.34-0.16,0.42,0.09,0.24c0.19,0.01,0.6-0.29,0.78-0.38
					c0.58-0.29,1.17-0.57,1.75-0.86C506.67,370.92,505.15,368.33,503.42,369.18L503.42,369.18z"/>
			</g>
		</g>
	</g>
</g>
<g id="Layer_3" class="st0">
	<g class="st1">
		<g>
			<path d="M203.5-82c1.93,0,1.93-3,0-3C201.57-85,201.57-82,203.5-82L203.5-82z"/>
		</g>
	</g>
	<g class="st1">
		<g>
			<g>
				<path d="M287.62,264.55c1.13,31.04,1.41,62.11,0.83,93.16c-0.57,31.05-2,62.09-4.28,93.07c-1.28,17.46-2.84,34.91-4.66,52.33
					c-0.34,3.23,1.75,7.34,3.95,9.55c2.34,2.34,6.18,4.1,9.55,3.95c3.49-0.16,7.11-1.3,9.55-3.95c0.7-0.91,1.41-1.82,2.11-2.73
					c1.22-2.11,1.84-4.38,1.84-6.81c3.23-30.89,5.62-61.87,7.16-92.89c1.54-31.02,2.22-62.08,2.05-93.14
					c-0.1-17.51-0.46-35.02-1.1-52.52c-0.13-3.54-1.42-7.01-3.95-9.55c-2.34-2.34-6.18-4.1-9.55-3.95c-3.49,0.16-7.11,1.3-9.55,3.95
					C289.2,257.59,287.48,260.94,287.62,264.55L287.62,264.55z"/>
			</g>
		</g>
		<g>
			<g>
				<path d="M304.49,277.13c4.06-0.98,8.17-1.75,12.32-2.3c-1.2,0.16-2.39,0.32-3.59,0.48c10.73-1.41,21.6-1.38,32.32,0.03
					c-1.2-0.16-2.39-0.32-3.59-0.48c10.72,1.45,21.22,4.27,31.2,8.45c-1.07-0.45-2.15-0.91-3.22-1.36c2.92,1.23,5.79,2.58,8.61,4.04
					c3.21,1.66,6.84,2.34,10.4,1.36c3.13-0.86,6.53-3.28,8.07-6.2c1.66-3.13,2.49-6.93,1.36-10.4c-1.05-3.25-3.08-6.45-6.2-8.07
					c-22.16-11.46-47.57-16.99-72.5-15.04c-7.51,0.59-15.03,1.7-22.35,3.47c-3.23,0.78-6.41,3.37-8.07,6.2
					c-1.69,2.89-2.41,7.16-1.36,10.4c1.06,3.27,3.08,6.42,6.2,8.07C297.37,277.5,300.85,278.01,304.49,277.13L304.49,277.13z"/>
			</g>
		</g>
		<g>
			<g>
				<path d="M373.86,276.43c-2.91,27.12-5.81,54.24-8.72,81.36c-2.91,27.12-5.81,54.24-8.72,81.36
					c-1.63,15.21-3.26,30.43-4.89,45.64c-0.35,3.22,1.76,7.35,3.95,9.55c2.34,2.34,6.18,4.1,9.55,3.95c3.49-0.16,7.11-1.3,9.55-3.95
					c0.7-0.91,1.41-1.82,2.11-2.73c1.22-2.11,1.84-4.38,1.84-6.81c2.91-27.12,5.81-54.24,8.72-81.36
					c2.91-27.12,5.81-54.24,8.72-81.36c1.63-15.21,3.26-30.43,4.89-45.64c0.35-3.22-1.76-7.35-3.95-9.55
					c-2.34-2.34-6.18-4.1-9.55-3.95c-3.49,0.16-7.11,1.3-9.55,3.95c-0.7,0.91-1.41,1.82-2.11,2.73
					C374.48,271.72,373.87,273.99,373.86,276.43L373.86,276.43z"/>
			</g>
		</g>
		<g>
			<g>
				<path d="M407.82,384.53c-2.23,26.4-3.99,52.83-5.25,79.29c-0.35,7.44-0.67,14.89-0.95,22.33c-0.12,3.23,1.56,7.35,3.95,9.55
					c2.23,2.05,4.74,3.31,7.75,3.71c2.88,0.39,6.09,0.02,8.61-1.6c3.05-1.96,5.05-4.6,6.2-8.07c0.46-1.38,0.92-2.76,1.38-4.14
					c1.07-3.22,0.32-7.53-1.36-10.4c-1.64-2.8-4.85-5.47-8.07-6.2c-3.46-0.79-7.33-0.62-10.4,1.36c-3.05,1.96-5.05,4.6-6.2,8.07
					c-0.46,1.38-0.92,2.76-1.38,4.14c8.84,1.2,17.68,2.39,26.52,3.59c0.99-26.47,2.46-52.92,4.43-79.34
					c0.55-7.43,1.14-14.86,1.77-22.28c0.28-3.27-1.7-7.3-3.95-9.55c-2.34-2.34-6.18-4.1-9.55-3.95c-3.49,0.16-7.11,1.3-9.55,3.95
					c-0.7,0.91-1.41,1.82-2.11,2.73C408.44,379.82,407.83,382.09,407.82,384.53L407.82,384.53z"/>
			</g>
		</g>
		<g>
			<g>
				<path d="M438.36,375.25c-0.13-0.32-0.22-0.61-0.28-0.95c0.16,1.2,0.32,2.39,0.48,3.59c-0.03-0.34-0.03-0.64,0-0.97
					c-0.16,1.2-0.32,2.39-0.48,3.59c0.06-0.34,0.14-0.64,0.25-0.96c-0.45,1.07-0.91,2.15-1.36,3.22c0.18-0.43,0.39-0.81,0.66-1.19
					c-0.7,0.91-1.41,1.82-2.11,2.73c0.37-0.47,0.76-0.86,1.23-1.22c-0.91,0.7-1.82,1.41-2.73,2.11c0.29-0.2,0.58-0.36,0.89-0.52
					c-1.07,0.45-2.15,0.91-3.22,1.36c0.66-0.27,1.31-0.43,2.02-0.53c-1.2,0.16-2.39,0.32-3.59,0.48c0.74-0.06,1.45-0.05,2.19,0.02
					c-1.2-0.16-2.39-0.32-3.59-0.48c2.54,0.34,4.99,1.24,7.34,2.22c-1.07-0.45-2.15-0.91-3.22-1.36c3.68,1.57,7.13,3.6,10.31,6.03
					c-0.91-0.7-1.82-1.41-2.73-2.11c3.16,2.46,5.99,5.29,8.46,8.44c-0.7-0.91-1.41-1.82-2.11-2.73c2.44,3.17,4.47,6.62,6.04,10.3
					c-0.45-1.07-0.91-2.15-1.36-3.22c1.51,3.65,2.53,7.47,3.07,11.39c-0.16-1.2-0.32-2.39-0.48-3.59c0.55,4.23,0.53,8.5-0.03,12.73
					c0.16-1.2,0.32-2.39,0.48-3.59c-0.58,4.09-1.67,8.07-3.27,11.87c0.45-1.07,0.91-2.15,1.36-3.22c-1.23,2.84-2.69,5.61-4.57,8.07
					c0.7-0.91,1.41-1.82,2.11-2.73c-0.9,1.13-1.88,2.15-3.02,3.04c0.91-0.7,1.82-1.41,2.73-2.11c-0.74,0.54-1.49,0.99-2.32,1.37
					c1.07-0.45,2.15-0.91,3.22-1.36c-0.93,0.38-1.87,0.65-2.86,0.81c1.2-0.16,2.39-0.32,3.59-0.48c-1.27,0.16-2.53,0.14-3.8-0.03
					c1.2,0.16,2.39,0.32,3.59,0.48c-4.24-0.64-8.12-2.6-12.1-4.09c-5.96-2.23-12.46-3.03-18.68-1.4c-3.26,0.85-6.38,3.31-8.07,6.2
					c-1.69,2.89-2.41,7.16-1.36,10.4c1.06,3.27,3.08,6.42,6.2,8.07c3.24,1.71,6.8,2.3,10.4,1.36c0.53-0.14,1.07-0.25,1.61-0.33
					c-1.2,0.16-2.39,0.32-3.59,0.48c1.3-0.15,2.59-0.12,3.88,0.06c-1.2-0.16-2.39-0.32-3.59-0.48c4.21,0.64,8.06,2.56,12.01,4.05
					c5.77,2.18,11.95,2.97,18.01,1.57c7.66-1.77,13.57-7.79,17.42-14.36c1.8-3.07,3.19-6.39,4.47-9.71c0.88-2.31,1.58-4.68,2.09-7.1
					c1.24-5.91,1.86-12.1,1.25-18.13c-0.37-3.57-0.85-7.19-1.77-10.67c-0.88-3.33-2.22-6.5-3.61-9.65
					c-2.25-5.12-5.54-9.69-9.15-13.94c-3.6-4.24-8.01-7.85-12.63-10.92c-2.08-1.38-4.27-2.6-6.54-3.62
					c-3.36-1.52-7.03-3.23-10.72-3.9c-3.78-0.68-6.9-0.85-10.68-0.1c-3.34,0.67-6.18,2.48-8.71,4.67c-1.2,1.04-2.2,2.45-3.06,3.74
					c-0.89,1.32-1.53,2.93-2.02,4.42c-0.53,1.6-0.81,3.37-0.76,5.04c0.05,1.6,0.18,3.52,0.8,5.03c0.42,1.76,1.22,3.29,2.42,4.59
					c0.95,1.47,2.21,2.63,3.79,3.48c2.89,1.69,7.16,2.41,10.4,1.36c3.27-1.06,6.42-3.08,8.07-6.2
					C438.57,382.66,439.7,378.53,438.36,375.25L438.36,375.25z"/>
			</g>
		</g>
		<g>
			<g>
				<path d="M505.2,373.37c-4.49,32.53-8.41,65.13-11.63,97.81c-0.88,8.9-1.71,17.8-2.49,26.71c0.16,1.2,0.32,2.39,0.48,3.59
					c0.42,1.76,1.22,3.29,2.42,4.59c1.72,2.23,4.19,4.19,7.01,4.84c2.37,0.54,4.8,0.54,7.18,0c3.12-0.71,6.55-3.41,8.07-6.2
					c14.42-26.52,30.47-52.13,48.07-76.65c4.99-6.95,10.1-13.81,15.33-20.58c-0.7,0.91-1.41,1.82-2.11,2.73
					c0.19-0.25,0.38-0.49,0.57-0.74c-7.52-4.38-15.04-8.76-22.56-13.13c-3.86,25-5.81,50.24-5.3,75.54
					c0.07,3.44,0.18,6.87,0.33,10.31c0.07,1.64,0.16,3.27,0.25,4.91c0.09,1.58,0.35,3.23,0.22,4.8c0.16-1.2,0.32-2.39,0.48-3.59
					c-0.02,0.19-0.06,0.38-0.13,0.56c0.45-1.07,0.91-2.15,1.36-3.22c-0.06,0.17-0.15,0.32-0.27,0.45c0.7-0.91,1.41-1.82,2.11-2.73
					c-0.07,0.05-0.13,0.11-0.2,0.16c0.91-0.7,1.82-1.41,2.73-2.11c-0.08,0.04-0.16,0.07-0.24,0.11c2.27-0.61,4.54-1.23,6.81-1.84
					c-0.06,0.01-0.12,0.01-0.17,0.02c1.2,0.16,2.39,0.32,3.59,0.48c-0.05-0.01-0.1-0.03-0.15-0.04c1.07,0.45,2.15,0.91,3.22,1.36
					c-0.04-0.03-0.08-0.06-0.12-0.09c1.61,1.61,3.23,3.23,4.84,4.84c-0.08-0.08-0.13-0.18-0.16-0.28c0.45,1.07,0.91,2.15,1.36,3.22
					c-0.01-0.06-0.03-0.11-0.04-0.17c0.16,1.2,0.32,2.39,0.48,3.59c-0.02-0.11-0.02-0.22,0-0.33c-0.16,1.2-0.32,2.39-0.48,3.59
					c0.01-0.05,0.03-0.09,0.04-0.14c-0.45,1.07-0.91,2.15-1.36,3.22c0.02-0.03,0.04-0.07,0.06-0.1c-1.61,1.61-3.23,3.23-4.84,4.84
					c0.03-0.02,0.06-0.04,0.09-0.06c-2.27,0.61-4.54,1.23-6.81,1.84c0.04,0,0.08,0,0.12,0c-2.27-0.61-4.54-1.23-6.81-1.84
					c0.05,0.02,0.1,0.05,0.15,0.07c3.3,1.61,6.76,2.36,10.4,1.36c3.13-0.86,6.52-3.28,8.07-6.2c1.66-3.13,2.49-6.93,1.36-10.4
					c-1.04-3.2-3.07-6.54-6.2-8.07c-2.35-1.14-4.27-2.01-6.96-1.91c-0.8,0.03-2.91,0.3-3.71,0.48c-3.49,0.8-6.36,3.43-8.22,6.36
					c-3.38,5.33-2.06,12.93,2.28,17.28c5.38,5.38,14.36,5.29,19.78,0c3.07-2.99,4.56-7.07,4.57-11.32c0.01-3.35-0.4-6.75-0.54-10.1
					c-0.14-3.35-0.24-6.71-0.3-10.06c-0.24-13.42,0.16-26.86,1.22-40.24c0.6-7.59,1.41-15.16,2.42-22.71
					c-0.16,1.2-0.32,2.39-0.48,3.59c0.37-2.76,0.77-5.51,1.2-8.26c0.16-1.2,0.32-2.39,0.48-3.59c0.07-1.86-0.32-3.59-1.16-5.2
					c-1.09-2.59-2.96-5.1-5.52-6.46c-2.12-1.12-4.42-1.74-6.81-1.84c-1.86-0.07-3.59,0.32-5.2,1.16c-1.67,0.54-3.12,1.47-4.34,2.79
					c-19.39,25.04-37.34,51.1-53.43,78.38c-4.35,7.37-8.56,14.82-12.65,22.33c8.39,2.27,16.77,4.54,25.16,6.81
					c2.56-29.2,5.64-58.35,9.25-87.44c1.02-8.22,2.08-16.43,3.18-24.63c-0.16,1.2-0.32,2.39-0.48,3.59c0.4-2.95,0.8-5.91,1.21-8.86
					c0.56-1.79,0.64-3.59,0.24-5.38c-0.08-1.8-0.62-3.47-1.6-5.02c-1.64-2.8-4.85-5.47-8.07-6.2c-3.46-0.79-7.34-0.62-10.4,1.36
					C508.67,367.06,505.67,369.99,505.2,373.37L505.2,373.37z"/>
			</g>
		</g>
		<g>
			<g>
				<path d="M592.88,400.79c2.48,18.65,1.83,37.54-0.11,56.21c-0.56,5.39-1.22,10.76-1.94,16.13c0.16-1.2,0.32-2.39,0.48-3.59
					c-0.94,6.99-1.97,13.97-3.02,20.94c8.68,0,17.36,0,26.04,0c-0.11-0.53-0.21-1.06-0.32-1.58c-0.64-3.18-3.48-6.47-6.2-8.07
					c-2.89-1.69-7.16-2.41-10.4-1.36c-3.27,1.06-6.42,3.08-8.07,6.2c-1.76,3.34-2.11,6.69-1.36,10.4c0.11,0.53,0.21,1.06,0.32,1.58
					c0.45,1.07,0.91,2.15,1.36,3.22c0.85,1.57,2.01,2.84,3.48,3.79c2.28,1.76,5.22,3.03,8.18,2.9c2.4-0.11,4.69-0.72,6.81-1.84
					c1.57-0.85,2.84-2.01,3.79-3.48c1.19-1.3,2-2.83,2.42-4.59c3.77-25.27,7.71-50.77,7.11-76.39c-0.16-6.85-0.66-13.69-1.57-20.48
					c0.07-1.86-0.32-3.59-1.16-5.2c-0.54-1.67-1.47-3.12-2.79-4.34c-2.34-2.34-6.18-4.1-9.55-3.95c-3.49,0.16-7.11,1.3-9.55,3.95
					C594.6,393.68,592.42,397.34,592.88,400.79L592.88,400.79z"/>
			</g>
		</g>
		<g>
			<g>
				<path d="M616.2,413.94c0.98-0.6,2-1.13,3.06-1.58c-1.07,0.45-2.15,0.91-3.22,1.36c1.91-0.79,3.88-1.31,5.93-1.61
					c-1.2,0.16-2.39,0.32-3.59,0.48c2.4-0.31,4.81-0.29,7.21,0.02c-1.2-0.16-2.39-0.32-3.59-0.48c2.42,0.35,4.76,0.99,7.02,1.92
					c-1.07-0.45-2.15-0.91-3.22-1.36c2.25,0.95,4.36,2.17,6.3,3.65c-0.91-0.7-1.82-1.41-2.73-2.11c1.77,1.39,3.34,2.97,4.71,4.75
					c-0.7-0.91-1.41-1.82-2.11-2.73c1.43,1.89,2.6,3.93,3.55,6.1c-0.45-1.07-0.91-2.15-1.36-3.22c1.12,2.65,1.86,5.41,2.27,8.26
					c-0.16-1.2-0.32-2.39-0.48-3.59c0.41,3.12,0.41,6.26,0.01,9.39c0.16-1.2,0.32-2.39,0.48-3.59c-0.42,3-1.19,5.91-2.35,8.71
					c0.45-1.07,0.91-2.15,1.36-3.22c-0.91,2.15-2.02,4.2-3.44,6.06c0.7-0.91,1.41-1.82,2.11-2.73c-0.81,1.01-1.7,1.93-2.71,2.74
					c0.91-0.7,1.82-1.41,2.73-2.11c-0.95,0.72-1.96,1.31-3.05,1.79c1.07-0.45,2.15-0.91,3.22-1.36c-1.36,0.55-2.76,0.89-4.21,1.08
					c1.2-0.16,2.39-0.32,3.59-0.48c-3.36,0.39-6.72,0.06-10.08-0.17c-4.47-0.3-8.89-0.11-13.29,0.9c-3.08,0.71-6.59,3.4-8.07,6.2
					c-1.44,2.73-2.01,5.54-1.6,8.61c0.38,2.83,1.54,5.76,3.71,7.75c2.64,2.43,5.89,3.95,9.55,3.95c5.27,0,10.55,0.16,15.78,0.83
					c-1.2-0.16-2.39-0.32-3.59-0.48c4.74,0.64,9.41,1.72,13.84,3.57c-1.07-0.45-2.15-0.91-3.22-1.36c2.68,1.15,5.24,2.56,7.57,4.32
					c-0.91-0.7-1.82-1.41-2.73-2.11c1.87,1.45,3.52,3.13,4.98,4.99c-0.7-0.91-1.41-1.82-2.11-2.73c1.51,1.98,2.75,4.13,3.73,6.42
					c-0.45-1.07-0.91-2.15-1.36-3.22c0.89,2.16,1.51,4.39,1.83,6.7c-0.16-1.2-0.32-2.39-0.48-3.59c0.22,1.82,0.24,3.63,0.02,5.45
					c0.16-1.2,0.32-2.39,0.48-3.59c-0.22,1.58-0.61,3.1-1.2,4.58c0.45-1.07,0.91-2.15,1.36-3.22c-0.59,1.4-1.34,2.69-2.26,3.9
					c0.7-0.91,1.41-1.82,2.11-2.73c-1.01,1.29-2.17,2.42-3.46,3.42c0.91-0.7,1.82-1.41,2.73-2.11c-1.49,1.11-3.09,2-4.8,2.73
					c1.07-0.45,2.15-0.91,3.22-1.36c-2.77,1.14-5.68,1.82-8.64,2.23c1.2-0.16,2.39-0.32,3.59-0.48c-6.87,0.91-14.13,0.79-21-0.12
					c1.2,0.16,2.39,0.32,3.59,0.48c-2.9-0.41-5.75-1.06-8.47-2.16c1.07,0.45,2.15,0.91,3.22,1.36c-1.82-0.77-3.53-1.73-5.11-2.93
					c0.91,0.7,1.82,1.41,2.73,2.11c-0.1-0.08-0.21-0.17-0.31-0.25c-1.22-1.32-2.67-2.25-4.34-2.79c-1.61-0.85-3.34-1.23-5.2-1.16
					c-3.31,0-7.27,1.47-9.55,3.95c-2.36,2.57-4.12,5.95-3.95,9.55c0.15,3.33,1.21,7.38,3.95,9.55c1.72,1.36,3.44,2.79,5.34,3.9
					c1.91,1.11,4,1.92,6.04,2.75c2.22,0.9,4.52,1.51,6.88,1.92c5.75,0.99,11.54,1.4,17.37,1.39c5.45-0.01,11.02-0.49,16.33-1.74
					c6.18-1.46,11.79-4.4,16.54-8.58c0.7-0.62,1.36-1.29,1.96-2.01c1.33-1.58,2.68-3.24,3.73-5.02c0.99-1.68,1.71-3.57,2.43-5.37
					c0.37-0.93,0.68-1.88,0.9-2.87c1.34-5.96,1.2-12.16-0.49-18.05c-3.18-11.06-11.02-20.63-21.33-25.78
					c-5.84-2.92-11.99-4.91-18.45-5.84c-6.73-0.97-13.4-1.43-20.19-1.43c1.2,8.84,2.39,17.68,3.59,26.52
					c0.67-0.15,1.34-0.28,2.01-0.37c-1.2,0.16-2.39,0.32-3.59,0.48c4.17-0.51,8.33,0.09,12.49,0.27c6.11,0.26,12.37-0.72,17.74-3.78
					c2.46-1.4,4.84-3.29,6.67-5.48c1.91-2.28,3.72-4.66,5.05-7.33c2.15-4.32,3.87-8.88,4.55-13.66c0.42-2.94,0.85-5.88,0.82-8.85
					c-0.03-2.89-0.46-5.8-0.91-8.64c-0.75-4.66-2.55-9.3-4.83-13.41c-5.02-9.05-13.42-15.42-23.12-18.72
					c-10.29-3.5-22.52-2.4-31.83,3.28c-2.93,1.79-5.28,4.73-6.2,8.07c-0.89,3.23-0.49,7.53,1.36,10.4c1.86,2.88,4.63,5.42,8.07,6.2
					C609.3,416.1,613.05,415.86,616.2,413.94L616.2,413.94z"/>
			</g>
		</g>
		<g>
			<g>
				<path d="M697,394.36c-2.62,18.23-5.24,36.47-7.86,54.7c-0.65,4.52-1.3,9.04-1.95,13.55c-0.33,2.3-0.66,4.6-0.99,6.9
					c-0.43,3.02-1.25,6.16-0.97,9.22c0.29,3.13,0.85,5.87,2.45,8.64c0.67,1.16,1.61,2.26,2.47,3.27c0.29,0.33,0.58,0.63,0.91,0.92
					c2.88,2.49,5.98,4.15,9.65,5.22c4.02,1.17,8.28,1.79,12.42,2.42c11.06,1.68,22.16,2.62,33.35,2.32
					c3.52-0.09,7.03-1.44,9.55-3.95c2.34-2.34,4.1-6.18,3.95-9.55c-0.16-3.49-1.3-7.11-3.95-9.55c-2.6-2.39-5.92-4.05-9.55-3.95
					c-8.9,0.23-17.8-0.23-26.63-1.39c1.2,0.16,2.39,0.32,3.59,0.48c-3.13-0.42-6.24-0.92-9.34-1.51c-2.63-0.5-5.36-0.92-7.85-1.92
					c1.07,0.45,2.15,0.91,3.22,1.36c-0.73-0.32-1.41-0.69-2.04-1.17c0.91,0.7,1.82,1.41,2.73,2.11c-0.34-0.28-0.63-0.58-0.91-0.92
					c0.7,0.91,1.41,1.82,2.11,2.73c-0.26-0.36-0.47-0.73-0.66-1.14c0.45,1.07,0.91,2.15,1.36,3.22c-0.14-0.41-0.24-0.79-0.32-1.22
					c0.16,1.2,0.32,2.39,0.48,3.59c-0.1-1.01-0.02-1.98,0.11-2.99c-0.16,1.2-0.32,2.39-0.48,3.59c2.85-20.19,5.8-40.37,8.69-60.55
					c0.83-5.75,1.65-11.5,2.48-17.25c0.56-1.79,0.64-3.59,0.24-5.38c-0.08-1.8-0.62-3.47-1.6-5.02c-1.64-2.8-4.85-5.47-8.07-6.2
					c-3.46-0.79-7.33-0.62-10.4,1.36C700.47,388.05,697.49,390.97,697,394.36L697,394.36z"/>
			</g>
		</g>
		<g>
			<g>
				<path d="M698.86,443.41c4.73,2.04,9.45,3.91,14.48,5.08c5.01,1.17,10.19,1.88,15.33,2.15c4.1,0.22,8.21,0.06,12.29-0.46
					c5.16-0.65,10.2-1.49,15.16-3.06c3.32-1.05,6.29-3.16,8.07-6.2c1.69-2.89,2.41-7.16,1.36-10.4c-1.06-3.27-3.08-6.42-6.2-8.07
					c-3.14-1.66-6.91-2.47-10.4-1.36c-3.64,1.15-7.36,1.99-11.14,2.52c1.2-0.16,2.39-0.32,3.59-0.48
					c-5.97,0.79-12.01,0.8-17.98,0.03c1.2,0.16,2.39,0.32,3.59,0.48c-5.82-0.79-11.51-2.3-16.94-4.56c1.07,0.45,2.15,0.91,3.22,1.36
					c-0.27-0.11-0.54-0.23-0.81-0.35c-1.55-0.99-3.22-1.52-5.02-1.6c-1.79-0.4-3.59-0.32-5.38,0.24c-3.13,0.86-6.53,3.28-8.07,6.2
					c-1.66,3.13-2.49,6.93-1.36,10.4C693.66,438.45,695.72,442.06,698.86,443.41L698.86,443.41z"/>
			</g>
		</g>
		<g>
			<g>
				<path d="M716.41,406.24c15.02-1.81,30.05-3.61,45.07-5.42c1.86,0.07,3.59-0.32,5.2-1.16c1.67-0.54,3.12-1.47,4.34-2.79
					c2.34-2.34,4.1-6.18,3.95-9.55c-0.16-3.49-1.3-7.11-3.95-9.55c-2.45-2.25-6.08-4.37-9.55-3.95
					c-15.02,1.81-30.05,3.61-45.07,5.42c-1.86-0.07-3.59,0.32-5.2,1.16c-1.67,0.54-3.12,1.47-4.34,2.79
					c-2.34,2.34-4.1,6.18-3.95,9.55c0.16,3.49,1.3,7.11,3.95,9.55C709.32,404.54,712.94,406.66,716.41,406.24L716.41,406.24z"/>
			</g>
		</g>
		<g>
			<g>
				<path d="M798.74,381.92c-0.03,0.06-0.06,0.12-0.09,0.18c1.61-1.61,3.23-3.23,4.84-4.84c-0.05,0.02-0.1,0.05-0.15,0.07
					c2.27-0.61,4.54-1.23,6.81-1.84c-0.06-0.01-0.13-0.01-0.19-0.02c2.27,0.61,4.54,1.23,6.81,1.84c-0.07-0.03-0.13-0.06-0.2-0.09
					c0.91,0.7,1.82,1.41,2.73,2.11c-0.06-0.05-0.12-0.1-0.18-0.14c0.7,0.91,1.41,1.82,2.11,2.73c-0.04-0.06-0.09-0.12-0.13-0.18
					c0.45,1.07,0.91,2.15,1.36,3.22c-0.02-0.07-0.04-0.14-0.06-0.21c0,2.39,0,4.79,0,7.18c0.01-0.07,0.03-0.14,0.04-0.22
					c-0.45,1.07-0.91,2.15-1.36,3.22c0.06-0.08,0.12-0.17,0.18-0.25c-1.61,1.61-3.23,3.23-4.84,4.84c0.08-0.06,0.16-0.12,0.24-0.18
					c-1.08,0.45-2.15,0.91-3.22,1.36c0.19-0.1,0.4-0.16,0.61-0.19c-1.2,0.16-2.39,0.32-3.59,0.48c2.5-0.25,5.13-0.04,7.64-0.04
					c2.49,0,4.99,0,7.48,0c4.99,0,9.98,0.01,14.97,0.01c10.14,0.01,20.29,0.01,30.43,0.02c3.46,0,7.1-1.51,9.55-3.95
					c2.34-2.34,4.1-6.18,3.95-9.55c-0.16-3.49-1.3-7.11-3.95-9.55c-2.64-2.43-5.89-3.95-9.55-3.95
					c-19.46-0.01-38.91-0.02-58.37-0.04c-2.12,0-4.34,0.05-6.35,0.71c-3.5,1.14-6.28,3.31-8.31,6.38c-1.43,2.15-1.95,4.74-2.06,7.28
					c-0.11,2.5,0.84,5.07,2.03,7.21c1.5,2.71,4.05,4.58,6.83,5.76c3.52,1.48,7.05,1.51,10.59,0.02c0.12-0.05,1.24-0.47,1.77-0.75
					c1.83-0.99,3.93-3.11,4.94-5.02c1.68-3.19,2.33-6.87,1.36-10.4c-0.86-3.13-3.28-6.52-6.2-8.07c-3.13-1.66-6.93-2.49-10.4-1.36
					C803.55,376.78,800.38,378.8,798.74,381.92L798.74,381.92z"/>
			</g>
		</g>
		<g>
			<g>
				<path d="M827.7,397.65c-4.47,22.72-9.81,45.26-16.01,67.56c-1.76,6.34-3.6,12.66-5.5,18.96c-1,3.3-0.37,7.45,1.36,10.4
					c1.64,2.8,4.85,5.47,8.07,6.2c3.46,0.79,7.33,0.62,10.4-1.36c3-1.93,5.16-4.6,6.2-8.07c6.69-22.16,12.53-44.58,17.49-67.2
					c1.41-6.43,2.75-12.87,4.02-19.33c0.71-3.6,0.54-7.16-1.36-10.4c-1.64-2.8-4.85-5.47-8.07-6.2c-3.46-0.79-7.33-0.62-10.4,1.36
					C831.07,391.41,828.37,394.23,827.7,397.65L827.7,397.65z"/>
			</g>
		</g>
		<g>
			<g>
				<path d="M841.03,337.7c-0.34-0.03-0.68-0.07-1.02-0.12c1.2,0.16,2.39,0.32,3.59,0.48c-1.68-0.25-3.3-0.7-4.88-1.34
					c1.08,0.45,2.15,0.91,3.22,1.36c-1.88-0.8-3.62-1.83-5.23-3.07c0.91,0.7,1.82,1.41,2.73,2.11c-1.61-1.28-3.04-2.73-4.3-4.34
					c0.7,0.91,1.41,1.82,2.11,2.73c-1.31-1.73-2.4-3.58-3.24-5.58c0.45,1.07,0.91,2.15,1.36,3.22c-0.72-1.78-1.24-3.62-1.52-5.53
					c0.16,1.2,0.32,2.39,0.48,3.59c-0.23-1.8-0.25-3.59-0.03-5.39c-0.16,1.2-0.32,2.39-0.48,3.59c0.25-1.73,0.7-3.4,1.36-5.03
					c-0.45,1.07-0.91,2.15-1.36,3.22c0.61-1.41,1.35-2.72,2.26-3.95c-0.7,0.91-1.41,1.82-2.11,2.73c0.78-1,1.64-1.89,2.62-2.69
					c-0.91,0.7-1.82,1.41-2.73,2.11c0.88-0.68,1.82-1.26,2.83-1.72c-1.07,0.45-2.15,0.91-3.22,1.36c1.1-0.46,2.23-0.76,3.41-0.92
					c-1.2,0.16-2.39,0.32-3.59,0.48c1.06-0.11,2.11-0.11,3.17,0.02c-1.2-0.16-2.39-0.32-3.59-0.48c0.93,0.14,1.82,0.37,2.69,0.71
					c-1.07-0.45-2.15-0.91-3.22-1.36c0.86,0.37,1.65,0.82,2.39,1.38c-0.91-0.7-1.82-1.41-2.73-2.11c0.65,0.53,1.2,1.11,1.71,1.77
					c-0.7-0.91-1.41-1.82-2.11-2.73c0.48,0.66,0.87,1.35,1.2,2.09c-0.45-1.07-0.91-2.15-1.36-3.22c0.39,0.96,0.66,1.95,0.82,2.98
					c-0.16-1.2-0.32-2.39-0.48-3.59c0.22,1.68,0.17,3.35-0.03,5.03c0.16-1.2,0.32-2.39,0.48-3.59c-0.41,2.98-1.28,5.87-2.3,8.69
					c-0.56,1.79-0.64,3.59-0.24,5.38c0.08,1.8,0.62,3.47,1.6,5.02c1.62,2.51,3.7,4.36,6.46,5.52c2.68,1.13,5.94,1.6,8.79,0.68
					c3.45-1.12,6.06-3.16,8.07-6.2c0.81-1.23,1.65-2.43,2.54-3.6c-0.7,0.91-1.41,1.82-2.11,2.73c1.32-1.67,2.75-3.22,4.43-4.53
					c-0.91,0.7-1.82,1.41-2.73,2.11c1.04-0.77,2.14-1.44,3.33-1.95c-1.07,0.45-2.15,0.91-3.22,1.36c0.93-0.37,1.87-0.62,2.85-0.77
					c-1.2,0.16-2.39,0.32-3.59,0.48c1.1-0.14,2.19-0.14,3.29,0c-1.2-0.16-2.39-0.32-3.59-0.48c0.86,0.14,1.68,0.35,2.48,0.67
					c-1.07-0.45-2.15-0.91-3.22-1.36c0.68,0.3,1.31,0.65,1.91,1.09c-0.91-0.7-1.82-1.41-2.73-2.11c0.5,0.4,0.93,0.83,1.34,1.32
					c-0.7-0.91-1.41-1.82-2.11-2.73c0.42,0.57,0.76,1.16,1.04,1.81c-0.45-1.07-0.91-2.15-1.36-3.22c0.22,0.57,0.37,1.14,0.47,1.74
					c-0.16-1.2-0.32-2.39-0.48-3.59c0.11,0.85,0.1,1.66,0,2.51c0.16-1.2,0.32-2.39,0.48-3.59c-0.17,1.13-0.49,2.19-0.92,3.25
					c0.45-1.07,0.91-2.15,1.36-3.22c-0.75,1.72-1.74,3.29-2.88,4.77c0.7-0.91,1.41-1.82,2.11-2.73c-3.12,3.96-7.08,7.37-11.06,10.45
					c0.91-0.7,1.82-1.41,2.73-2.11c-2.13,1.63-4.34,3.16-6.62,4.59c-2.93,1.84-5.27,4.69-6.2,8.07c-0.89,3.23-0.49,7.53,1.36,10.4
					c1.86,2.88,4.63,5.42,8.07,6.2c3.48,0.79,7.29,0.58,10.4-1.36c5.38-3.37,10.51-7.29,15.15-11.62c1.86-1.74,3.67-3.53,5.26-5.53
					c1.37-1.72,2.8-3.48,3.92-5.39c1.11-1.9,1.96-4,2.71-6.05c0.75-2.05,0.99-4.34,1.17-6.48c0.17-2.12-0.17-4.42-0.67-6.44
					c-0.5-2.02-1.37-4.08-2.54-5.81c-1.93-2.87-3.61-4.43-6.37-6.42c-1.62-1.16-3.58-1.9-5.43-2.57c-1.93-0.7-4.1-0.89-6.1-1.08
					c-1-0.1-1.97-0.07-2.96,0.04c-2.06,0.24-4.18,0.41-6.14,1.13c-4.43,1.63-8.3,4.01-11.66,7.37c-2.68,2.69-4.93,5.87-7.02,9.04
					c8.22,3.47,16.45,6.94,24.67,10.4c1.49-4.15,2.34-8.25,2.82-12.65c0.57-5.2-0.61-10.44-2.96-15.07
					c-0.78-1.54-1.96-2.87-3.03-4.2c-0.52-0.65-1.07-1.24-1.71-1.77c-2.91-2.41-5.65-4.11-9.33-5.2c-1.71-0.51-3.55-0.65-5.3-0.85
					c-0.82-0.09-1.64-0.14-2.47-0.09c-2.5,0.16-5.18,0.46-7.54,1.4c-3.79,1.51-6.27,2.94-9.39,5.62c-1.99,1.71-3.65,3.97-5.06,6.15
					c-2.98,4.63-4.2,9.83-4.77,15.21c-0.15,1.46-0.14,2.93,0.02,4.39c0.29,2.53,0.56,5.1,1.31,7.55c1.16,3.77,2.86,7.57,5.24,10.74
					c3.3,4.39,6.84,8.09,11.62,10.95c4.86,2.91,9.99,4.21,15.57,4.74c3.25,0.31,7.32-1.73,9.55-3.95c2.34-2.34,4.1-6.18,3.95-9.55
					c-0.16-3.49-1.3-7.11-3.95-9.55c-0.91-0.7-1.82-1.41-2.73-2.11C845.74,338.32,843.47,337.71,841.03,337.7L841.03,337.7z"/>
			</g>
		</g>
	</g>
</g>
<g id="Layer_4">
	<g>
		<g>
			<path d="M375.74-37.78c-0.07,0.01-0.13,0.02-0.2,0.03c0.13-0.02,0.27-0.04,0.4-0.05c-0.28,0.04-0.57,0.04-0.85,0
				c0.13,0.02,0.27,0.04,0.4,0.05c-0.3-0.04-0.59-0.12-0.88-0.24c0.12,0.05,0.24,0.1,0.36,0.15c-0.24-0.1-0.48-0.23-0.7-0.37
				c-0.05-0.04-0.11-0.08-0.16-0.11c0.39,0.24,0.19,0.15,0.09,0.07c-0.11-0.09-0.22-0.19-0.32-0.29c-0.09-0.1-0.18-0.2-0.27-0.3
				c-0.2-0.23,0.15,0.22,0.07,0.09c-0.04-0.06-0.08-0.11-0.11-0.16c-0.15-0.23-0.28-0.48-0.39-0.73c0.05,0.12,0.1,0.24,0.15,0.36
				c-0.12-0.31-0.21-0.62-0.26-0.95c0.02,0.13,0.04,0.27,0.05,0.4c-0.04-0.3-0.04-0.61,0-0.91c-0.02,0.13-0.04,0.27-0.05,0.4
				c0.03-0.22,0.09-0.43,0.16-0.64c0.26-0.74-0.3-1.67-1.05-1.85c-0.84-0.19-1.57,0.25-1.85,1.05c-0.64,1.8,0.02,3.75,1.22,5.15
				c0.61,0.71,1.4,1.21,2.25,1.56c0.87,0.35,1.81,0.38,2.73,0.21c0.77-0.15,1.28-1.12,1.05-1.85
				C377.32-37.56,376.56-37.94,375.74-37.78L375.74-37.78z"/>
		</g>
	</g>
	<g>
		<g>
			<rect y="142.01" width="76.54" height="448.46"/>
			<rect x="15.29" y="142.01" width="308.32" height="83.98"/>
			<path d="M932.84,506.39c-4.54-22.43-19.82-40.99-40.24-50.03c0.6-1.98,1.11-3.99,1.52-6.03c0.93-4.51,1.4-9.22,1.4-14.01
				c0-4.8-0.47-9.51-1.4-14.02c-6.48-31.98-28-56.06-68.67-56.06H657.62l-72.05,135.41V366.24h-54.94v224.24h54.94l72.05-83.45
				v83.45h206.55c46.58,0,62.19-24.08,68.67-56.06c0.93-4.52,1.4-9.22,1.4-14.02C934.24,515.61,933.77,510.9,932.84,506.39z
				 M743.13,422.3h64.98c7.75,0,14.01,6.26,14.01,14.02c0,7.75-6.26,14.01-14.01,14.01h-64.98V422.3z M864.17,534.42H743.13v-28.03
				h121.04c7.75,0,14.01,6.26,14.01,14.01C878.18,528.16,871.92,534.42,864.17,534.42z"/>
			<polygon points="1366,367.36 1366,423.42 1280.5,423.42 1280.5,591.59 1195.62,591.59 1195.62,423.42 1164.67,423.42 
				1164.67,423.52 1013.71,423.52 1013.71,451.45 1110.11,451.45 1110.11,506.39 1013.71,506.39 1013.71,535.53 1139.56,535.53 
				1139.56,591.59 928.5,591.59 928.5,367.36 			"/>
			<path d="M1317.03,271.43c-0.46,3.51-1.07,6.96-1.83,10.33c-1.78,7.96-4.31,15.52-7.51,22.55c-10.97,24.1-33.28,41.47-59.54,44.82
				c-3.37,0.43-6.8,0.65-10.28,0.65c-0.83,0-1.66-0.01-2.49-0.04c-29.44-0.89-55.35-19.36-67.34-46.27
				c-3.92-8.8-6.8-18.41-8.46-28.58c-1.88-11.59-1.01-23.54,3.22-34.49c0.23-0.6,0.47-1.2,0.72-1.8
				c5.62-13.57,18.33-23.19,33.01-23.76c0.57-0.02,1.13-0.03,1.71-0.03c13.39,0.08,25.23,6.7,32.42,16.87
				c9.14-10.34,22.53-16.87,37.44-16.87c9.24,0,17.89,2.5,25.3,6.86C1310.62,231.81,1319.68,251.62,1317.03,271.43z"/>
			<path d="M471.04,365.52c-1.67,0-3.34-0.18-5.02-0.18H323.61V142.01H238.1v448.47h128.07v-87.76h99.85c1.68,0,3.35-0.18,5.02-0.18
				c48.96,0,65.36-33.02,65.36-70.2S523.38,365.34,471.04,365.52z M471.04,452.45H366.17v-30.17h104.87
				c8.34,0,15.08,6.75,15.08,15.09C486.12,445.7,479.38,452.45,471.04,452.45z"/>
			<path d="M467.53,365.43v0.18c-1.66-0.12-3.34-0.18-5.03-0.18H467.53z"/>
			<path d="M467.53,506.01v0.18h-5.03C464.19,506.19,465.86,506.13,467.53,506.01z"/>
		</g>
		<g class="st0">
			<path class="st1" d="M-1559.46,1635.17c-1.84-0.11-3.71-0.17-5.58-0.17h-100.36v351.26h50.18v-150.54h50.18
				c1.87,0,3.74-0.06,5.58-0.17c52.83-2.87,94.78-46.64,94.78-100.19S-1506.64,1638.04-1559.46,1635.17z M-1565.04,1785.54h-50.18
				v-100.36h50.18c27.71,0,50.18,22.47,50.18,50.18C-1514.86,1763.07-1537.33,1785.54-1565.04,1785.54z"/>
			<path class="st1" d="M-1577.07,1635.17c-1.84-0.11-3.71-0.17-5.58-0.17H-1683v351.26h50.18v-150.54h50.18
				c1.87,0,3.74-0.06,5.58-0.17c52.83-2.87,94.78-46.64,94.78-100.19S-1524.24,1638.04-1577.07,1635.17z M-1582.64,1785.54h-50.18
				v-100.36h50.18c27.71,0,50.18,22.47,50.18,50.18C-1532.46,1763.07-1554.93,1785.54-1582.64,1785.54z"/>
			<rect x="-1010.76" y="2180.11" class="st1" width="85.5" height="224.23"/>
			
				<rect x="-1464.68" y="1657.62" transform="matrix(-1 -1.224647e-16 1.224647e-16 -1 -2880.1812 3477.8081)" class="st1" width="49.18" height="162.57"/>
			
				<rect x="-602.38" y="1692.32" transform="matrix(6.123234e-17 -1 1 6.123234e-17 -2483.4116 1327.8267)" class="st1" width="49.18" height="426.59"/>
			
				<rect x="-588.16" y="1843.11" transform="matrix(6.123234e-17 -1 1 6.123234e-17 -2619.9814 1492.8387)" class="st1" width="49.18" height="426.59"/>
			<path class="st1" d="M-538.66,1726.36c-5.07-25.06-25.12-44.72-50.4-49.18c0.08-0.33,0.17-0.67,0.22-1
				c0.84-4.04,1.25-8.25,1.25-12.54c0-30.36-21.55-55.67-50.18-61.47c-4.04-0.84-8.25-1.25-12.54-1.25h-87.81v200.72h137.99
				c30.36,0,55.67-21.55,61.47-50.18c0.84-4.04,1.25-8.25,1.25-12.54C-537.41,1734.61-537.83,1730.4-538.66,1726.36z
				 M-723.27,1651.09h72.96c6.94,0,12.54,5.6,12.54,12.54c0,6.94-5.6,12.54-12.54,12.54h-72.96V1651.09z M-600.13,1751.45h-123.13
				v-25.09h123.13c6.94,0,12.54,5.6,12.54,12.54C-587.59,1745.85-593.19,1751.45-600.13,1751.45z"/>
			<circle class="st1" cx="-1287" cy="1581" r="45"/>
			<rect x="-1242" y="1545" class="st1" width="36" height="81"/>
			<rect x="-1314" y="1626" class="st1" width="81" height="36"/>
			
				<rect x="-993.91" y="1941.2" transform="matrix(-1 -1.224647e-16 1.224647e-16 -1 -1911.2795 3943.147)" class="st1" width="76.54" height="60.75"/>
			
				<rect x="-1148.71" y="1789.81" transform="matrix(0.7071 0.7071 -0.7071 0.7071 961.8246 1318.3239)" class="st1" width="76.54" height="60.75"/>
		</g>
	</g>
</g>
</svg>
